<svg width="143" height="31" viewBox="0 0 143 31" fill="none" xmlns="http://www.w3.org/2000/svg">
<path d="M0.880859 20.7631V2.32422H21.1751V6.5894H7.04485V9.19252H17.5079V13.5518H7.04485V16.4691H20.6687L22.5657 20.4201C22.5657 20.5036 22.2812 20.5825 21.7121 20.6554C21.1429 20.7282 20.1638 20.7647 18.7731 20.7647H0.880859V20.7631Z" fill="#01AA89"/>
<path d="M25.0938 26.5983V6.71441H29.5825L30.3735 7.12119C31.322 7.01646 32.344 6.92236 33.4394 6.83887C34.5348 6.75539 35.9255 6.71289 37.613 6.71289H38.5615C39.9736 6.71289 41.0216 6.93146 41.707 7.37164C42.3924 7.8103 42.8452 8.38102 43.0671 9.08075C43.2874 9.782 43.3991 10.5394 43.3991 11.3545V16.0902C43.3991 17.01 43.2354 17.8251 42.9095 18.537C42.5821 19.2489 42.0191 19.7968 41.2174 20.1839C40.4158 20.5709 39.3204 20.7637 37.9297 20.7637H36.9811C35.8429 20.7637 34.7092 20.7166 33.5832 20.6225C32.4557 20.5284 31.5438 20.4495 30.8493 20.3873V26.5968H25.0938V26.5983ZM31.8269 16.8127H36.031C37.0423 16.8127 37.5487 16.3953 37.5487 15.559V11.9207C37.5487 11.5032 37.4646 11.1891 37.2963 10.9796C37.1265 10.7701 36.7057 10.6654 36.0326 10.6654H35.748C34.3986 10.6654 33.3507 10.6973 32.6025 10.7595C31.8544 10.8217 31.27 10.8749 30.8477 10.9158V15.8398C30.8477 16.2997 30.8952 16.5759 30.99 16.6716C31.0833 16.7657 31.3618 16.8127 31.8269 16.8127Z" fill="#01AA89"/>
<path d="M50.064 5.3665C47.9359 5.3665 46.8711 4.46792 46.8711 2.66926C46.8711 1.66596 47.1404 0.970781 47.6774 0.583728C48.2144 0.196674 49.0099 0.00390625 50.064 0.00390625C51.1808 0.00390625 51.9978 0.198192 52.5134 0.583728C53.029 0.970781 53.2875 1.66596 53.2875 2.66926C53.289 4.46792 52.2135 5.3665 50.064 5.3665ZM47.1557 20.7636V6.71435H52.9081V20.7636H47.1557Z" fill="#01AA89"/>
<path d="M61.9183 20.7641C60.5277 20.7641 59.4583 20.5653 58.7101 20.1691C57.962 19.7715 57.451 19.2235 57.1772 18.5223C56.9033 17.8225 56.7656 17.012 56.7656 16.0922V11.3565C56.7656 10.5201 56.9079 9.75208 57.1925 9.05083C57.477 8.3511 57.988 7.78645 58.7254 7.3569C59.4628 6.92886 60.5277 6.71484 61.9183 6.71484H65.965C68.3883 6.71484 70.1691 6.81958 71.3074 7.02904C72.4456 7.23851 73.0882 7.44797 73.2351 7.65592L72.2865 10.98C71.8444 10.939 71.0427 10.8753 69.8846 10.7918C68.7249 10.7083 67.4505 10.6658 66.0598 10.6658H64.1321C63.5844 10.6658 63.1943 10.7706 62.9633 10.98C62.7307 11.1895 62.616 11.5022 62.616 11.9211V15.5594C62.616 15.9783 62.7215 16.291 62.9327 16.5005C63.1423 16.7099 63.5431 16.8147 64.1336 16.8147H65.7462C67.3051 16.8147 68.6484 16.7782 69.7759 16.7054C70.9035 16.6325 71.7312 16.5642 72.2575 16.502L74.1545 19.4815C74.1545 19.7745 73.6328 20.0614 72.5894 20.3437C71.546 20.626 69.9917 20.7672 67.9263 20.7672H61.9183V20.7641Z" fill="#01AA89"/>
<path d="M74.7207 20.7647L83.9827 2.32422H92.2014L101.431 20.7647H94.6355L93.0872 17.4087H83.0985L81.3605 20.7647H74.7207ZM84.8364 13.0813H91.3171L88.2512 6.40118H87.9345L84.8364 13.0813Z" fill="white"/>
<path d="M108.071 20.7637C106.68 20.7637 105.642 20.5603 104.958 20.152C104.272 19.7437 103.819 19.1897 103.598 18.49C103.377 17.7902 103.266 16.9903 103.266 16.0902V11.3545C103.266 10.5607 103.376 9.81237 103.598 9.11263C103.819 8.4129 104.272 7.83763 104.958 7.38835C105.642 6.93906 106.68 6.71442 108.071 6.71442H109.05C110.588 6.71442 111.985 6.75692 113.239 6.8404C114.492 6.92388 115.352 6.99674 115.815 7.06049V0.882812H121.663V20.7652H117.079L115.846 20.1384C114.962 20.2856 114.007 20.4267 112.985 20.5618C111.963 20.6984 110.641 20.7652 109.018 20.7652H108.071V20.7637ZM110.632 16.8127H114.836C115.278 16.8127 115.552 16.7611 115.658 16.6564C115.763 16.5517 115.815 16.2906 115.815 15.8717V10.8855C115.288 10.8445 114.666 10.7975 113.951 10.7443C113.233 10.6927 112.444 10.6654 111.579 10.6654H110.631C109.619 10.6654 109.113 11.0843 109.113 11.9192V15.5575C109.113 15.9764 109.229 16.2891 109.46 16.4985C109.694 16.7095 110.083 16.8127 110.632 16.8127Z" fill="white"/>
<path d="M129.03 20.7641C127.618 20.7641 126.617 20.6913 126.026 20.5456C125.436 20.3998 125.141 20.2526 125.141 20.1069L126.404 16.8147C126.657 16.8769 127.411 16.9452 128.664 17.0181C129.917 17.0909 131.747 17.1273 134.149 17.1273H136.393C136.919 17.1273 137.251 17.0697 137.389 16.9543C137.527 16.839 137.594 16.6356 137.594 16.3426C137.594 15.9874 137.515 15.7628 137.357 15.6687C137.199 15.5746 136.877 15.5275 136.393 15.5275H129.977C128.438 15.5275 127.247 15.2406 126.404 14.6654C125.561 14.0901 125.141 13.061 125.141 11.5765V10.9497C125.141 10.1756 125.246 9.46976 125.457 8.83226C125.668 8.19476 126.121 7.68324 126.817 7.29467C127.512 6.90761 128.566 6.71484 129.978 6.71484H139.335C140.599 6.71484 141.495 6.7877 142.022 6.93342C142.548 7.07913 142.813 7.22636 142.813 7.37208L142.496 10.6962C142.159 10.634 141.31 10.5656 139.952 10.4928C138.593 10.4199 136.722 10.3835 134.341 10.3835H132.097C131.571 10.3835 131.239 10.4412 131.101 10.5565C130.963 10.6719 130.896 10.8647 130.896 11.1364C130.896 11.4081 130.963 11.6023 131.101 11.7162C131.237 11.8315 131.569 11.8892 132.097 11.8892H138.641C140.284 11.8892 141.495 12.2444 142.276 12.9548C143.054 13.6651 143.444 14.6593 143.444 15.9343V16.5293C143.444 17.2822 143.35 17.9773 143.16 18.6148C142.97 19.2523 142.539 19.7699 141.864 20.1676C141.189 20.5653 140.115 20.7626 138.641 20.7626H129.03V20.7641Z" fill="white"/>
<path d="M35.6737 29.4932H38.3817V30.0745H35.0098V25.3965H38.2884V25.9778H35.6737V29.4932ZM35.6141 27.4152H38.0038V27.9829H35.6141V27.4152Z" fill="white"/>
<path d="M40.4512 30.0745V25.3965H42.2626C42.6695 25.3965 43.0168 25.4618 43.3045 25.5908C43.5921 25.7198 43.8139 25.9065 43.9684 26.1524C44.1229 26.3967 44.201 26.6897 44.201 27.0282C44.201 27.3667 44.1229 27.6581 43.9684 27.9009C43.8139 28.1438 43.5921 28.3305 43.3045 28.4626C43.0168 28.5946 42.6695 28.6599 42.2626 28.6599H40.8153L41.1136 28.3457V30.076H40.4512V30.0745ZM41.1152 28.4109L40.8168 28.077H42.2442C42.6695 28.077 42.9908 27.9859 43.2096 27.8038C43.4284 27.6217 43.5385 27.3621 43.5385 27.0282C43.5385 26.6943 43.4284 26.4362 43.2096 26.2541C42.9908 26.0719 42.668 25.9793 42.2442 25.9793H40.8168L41.1152 25.6454V28.4109Z" fill="white"/>
<path d="M46.1777 30.0726V25.3945H46.8417V30.0726H46.1777Z" fill="white"/>
<path d="M51.3066 30.1272C50.9532 30.1272 50.6258 30.068 50.3275 29.9496C50.0292 29.8312 49.7691 29.6642 49.5503 29.4487C49.3315 29.2331 49.1602 28.9797 49.0363 28.6898C48.9123 28.3998 48.8496 28.0811 48.8496 27.7335C48.8496 27.3859 48.9123 27.0672 49.0363 26.7773C49.1602 26.4873 49.3331 26.2354 49.5534 26.0183C49.7752 25.8028 50.0353 25.6358 50.3336 25.5174C50.632 25.399 50.9593 25.3398 51.3128 25.3398C51.6708 25.3398 52.0027 25.4006 52.3057 25.5235C52.6086 25.6464 52.8656 25.8271 53.0783 26.0684L52.6468 26.4889C52.4694 26.3022 52.2705 26.1625 52.0502 26.0714C51.8283 25.9804 51.5927 25.9348 51.3403 25.9348C51.0787 25.9348 50.837 25.9789 50.6136 26.0684C50.3902 26.158 50.1959 26.2824 50.0322 26.4433C49.8685 26.6042 49.7415 26.7939 49.6513 27.0156C49.561 27.2356 49.5151 27.4755 49.5151 27.7335C49.5151 27.9915 49.561 28.2314 49.6513 28.4515C49.7415 28.6715 49.8685 28.8628 50.0322 29.0222C50.1959 29.1815 50.3902 29.3075 50.6136 29.3971C50.837 29.4866 51.0787 29.5306 51.3403 29.5306C51.5927 29.5306 51.8299 29.4851 52.0502 29.394C52.2705 29.303 52.4709 29.1618 52.6468 28.969L53.0783 29.3895C52.8656 29.6308 52.6086 29.813 52.3057 29.9374C52.0027 30.0649 51.6692 30.1272 51.3066 30.1272Z" fill="white"/>
<path d="M57.1016 30.0745L59.2052 25.3965H59.863L61.9743 30.0745H61.2767L59.398 25.7714H59.6642L57.7854 30.0745H57.1016ZM57.9981 28.9058L58.1771 28.3715H60.7932L60.986 28.9058H57.9981Z" fill="white"/>
<path d="M63.6621 30.0745V25.3965H65.6204C66.1161 25.3965 66.5536 25.4951 66.9315 25.6909C67.3094 25.8868 67.6047 26.1615 67.8143 26.5136C68.0239 26.8658 68.1294 27.2726 68.1294 27.737C68.1294 28.2015 68.0239 28.6083 67.8143 28.9604C67.6047 29.3126 67.3094 29.5858 66.9315 29.7831C66.5536 29.9804 66.1161 30.0776 65.6204 30.0776H63.6621V30.0745ZM64.3261 29.4932H65.5806C65.9661 29.4932 66.2981 29.4203 66.5796 29.2731C66.8611 29.1259 67.0784 28.9194 67.2329 28.6553C67.3874 28.3897 67.4655 28.0831 67.4655 27.7355C67.4655 27.3834 67.3874 27.0768 67.2329 26.8126C67.0784 26.5501 66.8596 26.3451 66.5796 26.1979C66.2981 26.0507 65.9661 25.9778 65.5806 25.9778H64.3261V29.4932Z" fill="white"/>
<path d="M72.9199 30.0745V25.3965H73.4646L76.5381 29.2382H76.2521V25.3965H76.916V30.0745H76.3714L73.2978 26.2328H73.5839V30.0745H72.9199Z" fill="white"/>
<path d="M79.9706 29.4932H82.6786V30.0745H79.3066V25.3965H82.5852V25.9778H79.9691V29.4932H79.9706ZM79.911 27.4152H82.3007V27.9829H79.911V27.4152Z" fill="white"/>
<path d="M85.6727 30.0745V25.9778H84.0801V25.3965H87.9232V25.9778H86.3306V30.0745H85.6727Z" fill="white"/>
<path d="M90.6564 30.0745L89.1035 25.3965H89.7874L91.2148 29.7133H90.869L92.35 25.3965H92.9604L94.4077 29.7133H94.0757L95.523 25.3965H96.1533L94.6005 30.0745H93.9028L92.5489 26.0719H92.7279L91.3662 30.0745H90.6564Z" fill="white"/>
<path d="M100.014 30.1276C99.6611 30.1276 99.3321 30.0669 99.0292 29.947C98.7263 29.8271 98.4631 29.6586 98.2428 29.4415C98.021 29.226 97.8496 28.9725 97.7242 28.6826C97.6003 28.3927 97.5391 28.077 97.5391 27.7339C97.5391 27.3909 97.6018 27.0752 97.7242 26.7853C97.8481 26.4954 98.021 26.2434 98.2428 26.0264C98.4631 25.8108 98.7247 25.6423 99.0261 25.5224C99.3275 25.4025 99.6565 25.3418 100.014 25.3418C100.368 25.3418 100.695 25.401 100.997 25.5194C101.298 25.6378 101.558 25.8047 101.78 26.0203C102.002 26.2358 102.173 26.4908 102.294 26.7822C102.416 27.0737 102.476 27.3924 102.476 27.7339C102.476 28.0815 102.415 28.4003 102.294 28.6902C102.173 28.9801 102 29.2321 101.78 29.4491C101.558 29.6647 101.298 29.8316 100.997 29.95C100.697 30.0699 100.369 30.1276 100.014 30.1276ZM100.008 29.5326C100.27 29.5326 100.509 29.4886 100.729 29.399C100.948 29.3095 101.137 29.1835 101.3 29.0211C101.462 28.8587 101.587 28.6674 101.677 28.4489C101.768 28.2303 101.814 27.992 101.814 27.7339C101.814 27.4759 101.768 27.2391 101.677 27.0221C101.587 26.8065 101.46 26.6153 101.3 26.4498C101.137 26.2844 100.948 26.1584 100.729 26.0689C100.51 25.9793 100.27 25.9353 100.008 25.9353C99.7513 25.9353 99.5142 25.9793 99.2939 26.0689C99.0751 26.1584 98.8838 26.2844 98.7201 26.4498C98.5564 26.6153 98.4295 26.805 98.3392 27.0221C98.2489 27.2376 98.203 27.4759 98.203 27.7339C98.203 27.992 98.2489 28.2303 98.3392 28.4489C98.4295 28.6674 98.5564 28.8572 98.7201 29.0211C98.8838 29.1835 99.0751 29.3095 99.2939 29.399C99.5142 29.4886 99.7513 29.5326 100.008 29.5326Z" fill="white"/>
<path d="M104.486 30.0745V25.3965H106.298C106.705 25.3965 107.052 25.4618 107.34 25.5908C107.627 25.7198 107.849 25.9065 108.004 26.1524C108.158 26.3967 108.236 26.6897 108.236 27.0282C108.236 27.3667 108.158 27.6581 108.004 27.9009C107.849 28.1438 107.627 28.329 107.34 28.4595C107.052 28.5885 106.705 28.6538 106.298 28.6538H104.85L105.149 28.3472V30.0776H104.486V30.0745ZM105.15 28.4109L104.852 28.0831H106.279C106.705 28.0831 107.026 27.9905 107.246 27.8053C107.465 27.6201 107.575 27.3606 107.575 27.0267C107.575 26.6927 107.465 26.4347 107.246 26.2526C107.027 26.0704 106.705 25.9778 106.279 25.9778H104.852L105.15 25.6439V28.4109ZM107.592 30.0745L106.411 28.3776H107.121L108.316 30.0745H107.592Z" fill="white"/>
<path d="M110.307 30.0745V25.3965H110.971V30.0745H110.307ZM110.891 28.9452L110.857 28.1301L113.493 25.3965H114.251L112.213 27.5625L111.841 27.9768L110.891 28.9452ZM113.599 30.0745L111.694 27.8417L112.139 27.3469L114.376 30.073H113.599V30.0745Z" fill="white"/>
</svg>
