<svg width="143" height="31" viewBox="0 0 143 31" fill="none" xmlns="http://www.w3.org/2000/svg">
<path d="M0.880859 20.7641V2.3252H21.1751V6.59037H7.04485V9.1935H17.5079V13.5528H7.04485V16.4701H20.6687L22.5657 20.4211C22.5657 20.5046 22.2812 20.5835 21.7121 20.6564C21.1429 20.7292 20.1638 20.7656 18.7731 20.7656H0.880859V20.7641Z" fill="#01AA89"/>
<path d="M25.0938 26.5988V6.7149H29.5825L30.3735 7.12168C31.322 7.01695 32.344 6.92284 33.4394 6.83936C34.5348 6.75588 35.9255 6.71338 37.613 6.71338H38.5615C39.9736 6.71338 41.0216 6.93195 41.707 7.37213C42.3924 7.81079 42.8452 8.3815 43.0671 9.08124C43.2874 9.78249 43.3991 10.5399 43.3991 11.355V16.0907C43.3991 17.0105 43.2354 17.8256 42.9095 18.5375C42.5821 19.2494 42.0191 19.7973 41.2174 20.1844C40.4158 20.5714 39.3204 20.7642 37.9297 20.7642H36.9811C35.8429 20.7642 34.7092 20.7171 33.5832 20.623C32.4557 20.5289 31.5438 20.45 30.8493 20.3878V26.5973H25.0938V26.5988ZM31.8269 16.8132H36.031C37.0423 16.8132 37.5487 16.3958 37.5487 15.5594V11.9211C37.5487 11.5037 37.4646 11.1895 37.2963 10.9801C37.1265 10.7706 36.7057 10.6659 36.0326 10.6659H35.748C34.3986 10.6659 33.3507 10.6978 32.6025 10.76C31.8544 10.8222 31.27 10.8753 30.8477 10.9163V15.8403C30.8477 16.3002 30.8952 16.5764 30.99 16.672C31.0833 16.7661 31.3618 16.8132 31.8269 16.8132Z" fill="#01AA89"/>
<path d="M50.064 5.36699C47.9359 5.36699 46.8711 4.46841 46.8711 2.66975C46.8711 1.66645 47.1404 0.97127 47.6774 0.584216C48.2144 0.197162 49.0099 0.00439453 50.064 0.00439453C51.1808 0.00439453 51.9978 0.19868 52.5134 0.584216C53.029 0.97127 53.2875 1.66645 53.2875 2.66975C53.289 4.46841 52.2135 5.36699 50.064 5.36699ZM47.1557 20.7641V6.71484H52.9081V20.7641H47.1557Z" fill="#01AA89"/>
<path d="M61.9183 20.7646C60.5277 20.7646 59.4583 20.5658 58.7101 20.1696C57.962 19.7719 57.451 19.224 57.1772 18.5227C56.9033 17.823 56.7656 17.0125 56.7656 16.0927V11.3569C56.7656 10.5206 56.9079 9.75257 57.1925 9.05132C57.477 8.35158 57.988 7.78694 58.7254 7.35739C59.4628 6.92935 60.5277 6.71533 61.9183 6.71533H65.965C68.3883 6.71533 70.1691 6.82007 71.3074 7.02953C72.4456 7.23899 73.0882 7.44846 73.2351 7.65641L72.2865 10.9805C71.8444 10.9395 71.0427 10.8758 69.8846 10.7923C68.7249 10.7088 67.4505 10.6663 66.0598 10.6663H64.1321C63.5844 10.6663 63.1943 10.771 62.9633 10.9805C62.7307 11.19 62.616 11.5027 62.616 11.9216V15.5599C62.616 15.9788 62.7215 16.2915 62.9327 16.501C63.1423 16.7104 63.5431 16.8152 64.1336 16.8152H65.7462C67.3051 16.8152 68.6484 16.7787 69.7759 16.7059C70.9035 16.633 71.7312 16.5647 72.2575 16.5025L74.1545 19.482C74.1545 19.775 73.6328 20.0618 72.5894 20.3442C71.546 20.6265 69.9917 20.7677 67.9263 20.7677H61.9183V20.7646Z" fill="#01AA89"/>
<path d="M74.7207 20.7642L83.9827 2.32373H92.2014L101.431 20.7642H94.6355L93.0872 17.4082H83.0985L81.3605 20.7642H74.7207ZM84.8364 13.0808H91.3171L88.2512 6.40069H87.9345L84.8364 13.0808Z" fill="#00010D"/>
<path d="M108.071 20.7642C106.68 20.7642 105.642 20.5608 104.958 20.1525C104.272 19.7442 103.819 19.1902 103.598 18.4904C103.377 17.7907 103.266 16.9908 103.266 16.0907V11.355C103.266 10.5612 103.376 9.81286 103.598 9.11312C103.819 8.41339 104.272 7.83812 104.958 7.38884C105.642 6.93955 106.68 6.71491 108.071 6.71491H109.05C110.588 6.71491 111.985 6.75741 113.239 6.84089C114.492 6.92437 115.352 6.99723 115.815 7.06098V0.883301H121.663V20.7657H117.079L115.846 20.1388C114.962 20.2861 114.007 20.4272 112.985 20.5623C111.963 20.6989 110.641 20.7657 109.018 20.7657H108.071V20.7642ZM110.632 16.8132H114.836C115.278 16.8132 115.552 16.7616 115.658 16.6569C115.763 16.5521 115.815 16.2911 115.815 15.8721V10.886C115.288 10.845 114.666 10.7979 113.951 10.7448C113.233 10.6932 112.444 10.6659 111.579 10.6659H110.631C109.619 10.6659 109.113 11.0848 109.113 11.9196V15.5579C109.113 15.9769 109.229 16.2896 109.46 16.499C109.694 16.71 110.083 16.8132 110.632 16.8132Z" fill="#00010D"/>
<path d="M129.03 20.7641C127.618 20.7641 126.617 20.6913 126.026 20.5456C125.436 20.3998 125.141 20.2526 125.141 20.1069L126.404 16.8147C126.657 16.8769 127.411 16.9452 128.664 17.0181C129.917 17.0909 131.747 17.1273 134.149 17.1273H136.393C136.919 17.1273 137.251 17.0697 137.389 16.9543C137.527 16.839 137.594 16.6356 137.594 16.3426C137.594 15.9874 137.515 15.7628 137.357 15.6687C137.199 15.5746 136.877 15.5275 136.393 15.5275H129.977C128.438 15.5275 127.247 15.2406 126.404 14.6654C125.561 14.0901 125.141 13.061 125.141 11.5765V10.9497C125.141 10.1756 125.246 9.46976 125.457 8.83226C125.668 8.19476 126.121 7.68324 126.817 7.29467C127.512 6.90761 128.566 6.71484 129.978 6.71484H139.335C140.599 6.71484 141.495 6.7877 142.022 6.93342C142.548 7.07913 142.813 7.22636 142.813 7.37208L142.496 10.6962C142.159 10.634 141.31 10.5656 139.952 10.4928C138.593 10.4199 136.722 10.3835 134.341 10.3835H132.097C131.571 10.3835 131.239 10.4412 131.101 10.5565C130.963 10.6719 130.896 10.8647 130.896 11.1364C130.896 11.4081 130.963 11.6023 131.101 11.7162C131.237 11.8315 131.569 11.8892 132.097 11.8892H138.641C140.284 11.8892 141.495 12.2444 142.276 12.9548C143.054 13.6651 143.444 14.6593 143.444 15.9343V16.5293C143.444 17.2822 143.35 17.9773 143.16 18.6148C142.97 19.2523 142.539 19.7699 141.864 20.1676C141.189 20.5653 140.115 20.7626 138.641 20.7626H129.03V20.7641Z" fill="#00010D"/>
<path d="M35.6737 29.4932H38.3817V30.0745H35.0098V25.3965H38.2884V25.9778H35.6737V29.4932ZM35.6141 27.4152H38.0038V27.9829H35.6141V27.4152Z" fill="#00010D"/>
<path d="M40.4512 30.075V25.397H42.2626C42.6695 25.397 43.0168 25.4622 43.3045 25.5913C43.5921 25.7203 43.8139 25.907 43.9684 26.1529C44.1229 26.3972 44.201 26.6902 44.201 27.0287C44.201 27.3672 44.1229 27.6586 43.9684 27.9014C43.8139 28.1443 43.5921 28.331 43.3045 28.463C43.0168 28.5951 42.6695 28.6604 42.2626 28.6604H40.8153L41.1136 28.3462V30.0765H40.4512V30.075ZM41.1152 28.4114L40.8168 28.0775H42.2442C42.6695 28.0775 42.9908 27.9864 43.2096 27.8043C43.4284 27.6221 43.5385 27.3626 43.5385 27.0287C43.5385 26.6947 43.4284 26.4367 43.2096 26.2546C42.9908 26.0724 42.668 25.9798 42.2442 25.9798H40.8168L41.1152 25.6459V28.4114Z" fill="#00010D"/>
<path d="M46.1777 30.074V25.396H46.8417V30.074H46.1777Z" fill="#00010D"/>
<path d="M51.3066 30.1277C50.9532 30.1277 50.6258 30.0685 50.3275 29.9501C50.0292 29.8317 49.7691 29.6647 49.5503 29.4492C49.3315 29.2336 49.1602 28.9801 49.0363 28.6902C48.9123 28.4003 48.8496 28.0816 48.8496 27.734C48.8496 27.3864 48.9123 27.0676 49.0363 26.7777C49.1602 26.4878 49.3331 26.2359 49.5534 26.0188C49.7752 25.8033 50.0353 25.6363 50.3336 25.5179C50.632 25.3995 50.9593 25.3403 51.3128 25.3403C51.6708 25.3403 52.0027 25.401 52.3057 25.524C52.6086 25.6469 52.8656 25.8276 53.0783 26.0689L52.6468 26.4893C52.4694 26.3026 52.2705 26.163 52.0502 26.0719C51.8283 25.9809 51.5927 25.9353 51.3403 25.9353C51.0787 25.9353 50.837 25.9793 50.6136 26.0689C50.3902 26.1585 50.1959 26.2829 50.0322 26.4438C49.8685 26.6047 49.7415 26.7944 49.6513 27.016C49.561 27.2361 49.5151 27.476 49.5151 27.734C49.5151 27.992 49.561 28.2318 49.6513 28.4519C49.7415 28.672 49.8685 28.8633 50.0322 29.0227C50.1959 29.182 50.3902 29.308 50.6136 29.3976C50.837 29.4871 51.0787 29.5311 51.3403 29.5311C51.5927 29.5311 51.8299 29.4856 52.0502 29.3945C52.2705 29.3035 52.4709 29.1623 52.6468 28.9695L53.0783 29.39C52.8656 29.6313 52.6086 29.8135 52.3057 29.9379C52.0027 30.0654 51.6692 30.1277 51.3066 30.1277Z" fill="#00010D"/>
<path d="M57.1016 30.0745L59.2052 25.3965H59.863L61.9743 30.0745H61.2767L59.398 25.7714H59.6642L57.7854 30.0745H57.1016ZM57.9981 28.9058L58.1771 28.3715H60.7932L60.986 28.9058H57.9981Z" fill="#00010D"/>
<path d="M63.6621 30.075V25.397H65.6204C66.1161 25.397 66.5536 25.4956 66.9315 25.6914C67.3094 25.8872 67.6047 26.162 67.8143 26.5141C68.0239 26.8663 68.1294 27.273 68.1294 27.7375C68.1294 28.202 68.0239 28.6088 67.8143 28.9609C67.6047 29.313 67.3094 29.5863 66.9315 29.7836C66.5536 29.9809 66.1161 30.078 65.6204 30.078H63.6621V30.075ZM64.3261 29.4937H65.5806C65.9661 29.4937 66.2981 29.4208 66.5796 29.2736C66.8611 29.1263 67.0784 28.9199 67.2329 28.6558C67.3874 28.3902 67.4655 28.0836 67.4655 27.736C67.4655 27.3838 67.3874 27.0772 67.2329 26.8131C67.0784 26.5505 66.8596 26.3456 66.5796 26.1984C66.2981 26.0512 65.9661 25.9783 65.5806 25.9783H64.3261V29.4937Z" fill="#00010D"/>
<path d="M72.9199 30.075V25.397H73.4646L76.5381 29.2387H76.2521V25.397H76.916V30.075H76.3714L73.2978 26.2333H73.5839V30.075H72.9199Z" fill="#00010D"/>
<path d="M79.9706 29.4937H82.6786V30.075H79.3066V25.397H82.5852V25.9783H79.9691V29.4937H79.9706ZM79.911 27.4157H82.3007V27.9834H79.911V27.4157Z" fill="#00010D"/>
<path d="M85.6727 30.075V25.9783H84.0801V25.397H87.9232V25.9783H86.3306V30.075H85.6727Z" fill="#00010D"/>
<path d="M90.6564 30.075L89.1035 25.397H89.7874L91.2148 29.7138H90.869L92.35 25.397H92.9604L94.4077 29.7138H94.0757L95.523 25.397H96.1533L94.6005 30.075H93.9028L92.5489 26.0724H92.7279L91.3662 30.075H90.6564Z" fill="#00010D"/>
<path d="M100.014 30.1276C99.6611 30.1276 99.3321 30.0669 99.0292 29.947C98.7263 29.8271 98.4631 29.6586 98.2428 29.4415C98.021 29.226 97.8496 28.9725 97.7242 28.6826C97.6003 28.3927 97.5391 28.077 97.5391 27.7339C97.5391 27.3909 97.6018 27.0752 97.7242 26.7853C97.8481 26.4954 98.021 26.2434 98.2428 26.0264C98.4631 25.8108 98.7247 25.6423 99.0261 25.5224C99.3275 25.4025 99.6565 25.3418 100.014 25.3418C100.368 25.3418 100.695 25.401 100.997 25.5194C101.298 25.6378 101.558 25.8047 101.78 26.0203C102.002 26.2358 102.173 26.4908 102.294 26.7822C102.416 27.0737 102.476 27.3924 102.476 27.7339C102.476 28.0815 102.415 28.4003 102.294 28.6902C102.173 28.9801 102 29.2321 101.78 29.4491C101.558 29.6647 101.298 29.8316 100.997 29.95C100.697 30.0699 100.369 30.1276 100.014 30.1276ZM100.008 29.5326C100.27 29.5326 100.509 29.4886 100.729 29.399C100.948 29.3095 101.137 29.1835 101.3 29.0211C101.462 28.8587 101.587 28.6674 101.677 28.4489C101.768 28.2303 101.814 27.992 101.814 27.7339C101.814 27.4759 101.768 27.2391 101.677 27.0221C101.587 26.8065 101.46 26.6153 101.3 26.4498C101.137 26.2844 100.948 26.1584 100.729 26.0689C100.51 25.9793 100.27 25.9353 100.008 25.9353C99.7513 25.9353 99.5142 25.9793 99.2939 26.0689C99.0751 26.1584 98.8838 26.2844 98.7201 26.4498C98.5564 26.6153 98.4295 26.805 98.3392 27.0221C98.2489 27.2376 98.203 27.4759 98.203 27.7339C98.203 27.992 98.2489 28.2303 98.3392 28.4489C98.4295 28.6674 98.5564 28.8572 98.7201 29.0211C98.8838 29.1835 99.0751 29.3095 99.2939 29.399C99.5142 29.4886 99.7513 29.5326 100.008 29.5326Z" fill="#00010D"/>
<path d="M104.486 30.075V25.397H106.298C106.705 25.397 107.052 25.4622 107.34 25.5913C107.627 25.7203 107.849 25.907 108.004 26.1529C108.158 26.3972 108.236 26.6902 108.236 27.0287C108.236 27.3672 108.158 27.6586 108.004 27.9014C107.849 28.1443 107.627 28.3295 107.34 28.46C107.052 28.589 106.705 28.6543 106.298 28.6543H104.85L105.149 28.3477V30.078H104.486V30.075ZM105.15 28.4114L104.852 28.0836H106.279C106.705 28.0836 107.026 27.991 107.246 27.8058C107.465 27.6206 107.575 27.3611 107.575 27.0271C107.575 26.6932 107.465 26.4352 107.246 26.253C107.027 26.0709 106.705 25.9783 106.279 25.9783H104.852L105.15 25.6444V28.4114ZM107.592 30.075L106.411 28.378H107.121L108.316 30.075H107.592Z" fill="#00010D"/>
<path d="M110.307 30.075V25.397H110.971V30.075H110.307ZM110.891 28.9457L110.857 28.1306L113.493 25.397H114.251L112.213 27.563L111.841 27.9773L110.891 28.9457ZM113.599 30.075L111.694 27.8422L112.139 27.3474L114.376 30.0735H113.599V30.075Z" fill="#00010D"/>
</svg>
