<svg width="35" height="34" viewBox="0 0 35 34" fill="none" xmlns="http://www.w3.org/2000/svg">
<path d="M25.6211 26.2522V22.9582H23.3512L25.2588 24.2867L23.0643 22.9582H22.3579C20.4479 21.5403 18.8078 20.2986 17.4072 19.2189H24.8004V15.3308H15.2395C15.3039 15.4832 15.5349 15.8915 16.3738 16.6582C16.4163 16.7784 16.7908 17.1879 16.916 17.2796C17.4048 17.6475 19.057 18.5986 19.5652 18.9558C18.8467 18.5582 17.0923 17.851 16.2449 17.3415C14.6571 16.3856 15.8559 17.6367 15.9021 17.6844C15.3841 17.3403 14.8358 17.0796 14.4613 16.9201C14.4589 16.9189 14.4577 16.9177 14.4553 16.9177C14.1987 16.8094 14.0249 16.7475 14.0006 16.7391C13.8376 16.6748 13.6711 16.6189 13.5142 16.5403C13.2978 16.4332 13.1009 16.3106 12.8687 16.2308C12.8152 16.2106 12.758 16.2022 12.7021 16.2022C11.5058 15.0606 10.4006 14.0225 10.2681 13.8963C11.9605 15.3641 12.9951 15.9772 13.4352 16.0975C13.7246 16.176 13.7538 16.0427 13.5446 15.7986C13.0328 15.201 10.3933 12.2486 10.2292 12.0641L12.2693 13.8296C12.2292 13.776 11.9203 13.0653 10.9246 12.1665C10.8772 12.007 10.0918 11.151 9.89118 10.7475C9.88267 10.7284 9.87416 10.7117 9.86565 10.6927C9.63465 10.2272 9.02675 9.66055 8.81277 9.25579C10.3568 11.0522 12.5015 13.2022 12.6413 13.3784C12.7252 13.4844 13.0462 13.732 13.4364 14.0165V11.5736C14.3799 11.9927 15.0316 12.326 15.1276 12.3736C14.1829 11.8248 13.6869 11.3344 13.4364 10.9367V10.6248H25.2102V6.73674H10.5842C10.5732 6.70817 10.5623 6.68079 10.5526 6.65222L6.28149 3.5415L10.3021 6.73793H9.51793L10.7751 7.87603L12.7653 9.6796C12.5732 9.52126 10.741 7.99269 9.2152 6.73793C9.2079 6.73317 9.20304 6.72722 9.19575 6.72007C9.18724 6.71412 9.17994 6.70817 9.17265 6.70103C8.076 5.90936 7.17875 5.2796 7.09243 5.22008C7.20185 5.31769 8.76292 6.69507 8.50396 6.82603C8.24378 6.96055 3.94474 3.92841 3.56055 3.66174C6.74349 6.07246 7.0596 6.56174 8.64378 7.85579V12.2606C6.81158 11.5165 5.48028 10.8641 5.3125 10.782C8.938 12.8094 8.02129 14.326 8.02129 14.326C8.18299 14.4772 8.39332 14.6594 8.64256 14.8653V21.7165L12.7629 25.4486C12.5465 25.2689 10.2352 23.3451 8.64256 22.0379V26.8451H24.8369L24.3384 26.4475L23.457 25.7451L21.4667 24.1582L23.8193 25.7986L25.3196 26.8451L25.3743 26.8844C26.3433 27.2975 27.0691 27.6248 27.0691 27.6248C26.6752 27.1998 26.1743 26.732 25.6211 26.2522ZM13.4364 22.9582V19.8748L17.9093 22.9582H13.4364ZM21.3999 22.9582C20.888 22.5879 20.4686 22.2915 20.206 22.1082C20.2035 22.1201 20.2011 22.132 20.1962 22.1427C20.4345 22.3439 20.792 22.6451 21.1555 22.9582H20.6777C20.5683 22.8796 20.4576 22.7975 20.3434 22.7141C20.4078 22.7927 20.4759 22.8701 20.5464 22.9463C20.5525 22.9498 20.5573 22.9546 20.5634 22.9582H18.0443L13.4364 19.5522V19.2201H14.3726L12.6547 17.8498L12.6425 17.8403L12.5307 17.751L14.6376 19.2201L16.7045 20.6653C16.7324 20.6844 16.7568 20.701 16.7799 20.7177C16.8042 20.7356 16.8273 20.7498 16.8479 20.7641C16.8589 20.7725 16.8698 20.7784 16.8796 20.7856L16.9987 20.8677C16.9087 20.7903 15.8303 19.8701 15.2528 19.2201H16.2109C17.6844 20.0856 20.1403 21.6832 22.0746 22.9594H21.3999V22.9582Z" fill="#00010D"/>
<path d="M34.1943 34H0V0H34.1943V34ZM1.78303 32.2271H32.4125V1.7729H1.78303V32.2271Z" fill="#01AA89"/>
</svg>
