<svg width="35" height="34" viewBox="0 0 35 34" fill="none" xmlns="http://www.w3.org/2000/svg">
<path d="M25.6211 26.2517V22.9577H23.3512L25.2588 24.2863L23.0643 22.9577H22.3579C20.4479 21.5398 18.8078 20.2982 17.4072 19.2184H24.8004V15.3303H15.2395C15.3039 15.4827 15.5349 15.891 16.3738 16.6577C16.4163 16.7779 16.7908 17.1874 16.916 17.2791C17.4048 17.647 19.057 18.5982 19.5652 18.9553C18.8467 18.5577 17.0923 17.8505 16.2449 17.341C14.6571 16.3851 15.8559 17.6363 15.9021 17.6839C15.3841 17.3398 14.8358 17.0791 14.4613 16.9196C14.4589 16.9184 14.4577 16.9172 14.4553 16.9172C14.1987 16.8089 14.0249 16.747 14.0006 16.7386C13.8376 16.6743 13.6711 16.6184 13.5142 16.5398C13.2978 16.4327 13.1009 16.3101 12.8687 16.2303C12.8152 16.2101 12.758 16.2017 12.7021 16.2017C11.5058 15.0601 10.4006 14.022 10.2681 13.8958C11.9605 15.3636 12.9951 15.9767 13.4352 16.097C13.7246 16.1755 13.7538 16.0422 13.5446 15.7982C13.0328 15.2005 10.3933 12.2482 10.2292 12.0636L12.2693 13.8291C12.2292 13.7755 11.9203 13.0648 10.9246 12.166C10.8772 12.0065 10.0918 11.1505 9.89118 10.747C9.88267 10.7279 9.87416 10.7113 9.86565 10.6922C9.63465 10.2267 9.02675 9.66006 8.81277 9.2553C10.3568 11.0517 12.5015 13.2017 12.6413 13.3779C12.7252 13.4839 13.0462 13.7315 13.4364 14.016V11.5732C14.3799 11.9922 15.0316 12.3255 15.1276 12.3732C14.1829 11.8243 13.6869 11.3339 13.4364 10.9363V10.6243H25.2102V6.73625H10.5842C10.5732 6.70768 10.5623 6.6803 10.5526 6.65173L6.28149 3.54102L10.3021 6.73744H9.51793L10.7751 7.87554L12.7653 9.67911C12.5732 9.52078 10.741 7.99221 9.2152 6.73744C9.2079 6.73268 9.20304 6.72673 9.19575 6.71959C9.18724 6.71363 9.17994 6.70768 9.17265 6.70054C8.076 5.90887 7.17875 5.27911 7.09243 5.21959C7.20185 5.31721 8.76292 6.69459 8.50396 6.82554C8.24378 6.96006 3.94474 3.92792 3.56055 3.66125C6.74349 6.07197 7.0596 6.56125 8.64378 7.8553V12.2601C6.81158 11.516 5.48028 10.8636 5.3125 10.7815C8.938 12.8089 8.02129 14.3255 8.02129 14.3255C8.18299 14.4767 8.39332 14.6589 8.64256 14.8648V21.716L12.7629 25.4482C12.5465 25.2684 10.2352 23.3446 8.64256 22.0374V26.8446H24.8369L24.3384 26.447L23.457 25.7446L21.4667 24.1577L23.8193 25.7982L25.3196 26.8446L25.3743 26.8839C26.3433 27.297 27.0691 27.6243 27.0691 27.6243C26.6752 27.1993 26.1743 26.7315 25.6211 26.2517ZM13.4364 22.9577V19.8743L17.9093 22.9577H13.4364ZM21.3999 22.9577C20.888 22.5874 20.4686 22.291 20.206 22.1077C20.2035 22.1196 20.2011 22.1315 20.1962 22.1422C20.4345 22.3434 20.792 22.6446 21.1555 22.9577H20.6777C20.5683 22.8791 20.4576 22.797 20.3434 22.7136C20.4078 22.7922 20.4759 22.8696 20.5464 22.9458C20.5525 22.9493 20.5573 22.9541 20.5634 22.9577H18.0443L13.4364 19.5517V19.2196H14.3726L12.6547 17.8493L12.6425 17.8398L12.5307 17.7505L14.6376 19.2196L16.7045 20.6648C16.7324 20.6839 16.7568 20.7005 16.7799 20.7172C16.8042 20.7351 16.8273 20.7493 16.8479 20.7636C16.8589 20.772 16.8698 20.7779 16.8796 20.7851L16.9987 20.8672C16.9087 20.7898 15.8303 19.8696 15.2528 19.2196H16.2109C17.6844 20.0851 20.1403 21.6827 22.0746 22.9589H21.3999V22.9577Z" fill="white"/>
<path d="M34.1943 34H0V0H34.1943V34ZM1.78303 32.2271H32.4125V1.7729H1.78303V32.2271Z" fill="#01AA89"/>
</svg>
