<svg width="22" height="22" viewBox="0 0 22 22" fill="none" xmlns="http://www.w3.org/2000/svg">
<g clip-path="url(#clip0_892_16101)">
<path d="M1.12435 19.4563C1.2689 19.6832 1.47041 19.8682 1.70879 19.9928C1.94716 20.1175 2.21406 20.1775 2.48285 20.1667H20.4248C20.6938 20.1776 20.961 20.1177 21.1997 19.993C21.4384 19.8684 21.6403 19.6833 21.7851 19.4563C21.9232 19.2273 21.9964 18.9651 21.9969 18.6977C21.9974 18.4303 21.9251 18.1678 21.7878 17.9383L12.8302 1.67482C12.6868 1.44283 12.4866 1.25134 12.2484 1.11854C12.0102 0.98573 11.7421 0.916016 11.4694 0.916016C11.1967 0.916016 10.9285 0.98573 10.6904 1.11854C10.4522 1.25134 10.2519 1.44283 10.1086 1.67482L1.12526 17.9383C0.987088 18.1674 0.914063 18.4298 0.914062 18.6973C0.914062 18.9648 0.986171 19.2273 1.12435 19.4563ZM1.91176 18.4086L10.9134 2.11665C10.9747 2.02698 11.0575 1.95409 11.1542 1.90461C11.251 1.85514 11.3585 1.83066 11.4671 1.8334C11.582 1.83173 11.6955 1.8597 11.7965 1.91461C11.8975 1.96952 11.9826 2.04952 12.0437 2.1469L20.9821 18.3792C21.0412 18.4688 21.0739 18.5732 21.0767 18.6804C21.0795 18.7877 21.0521 18.8936 20.9977 18.9861C20.9314 19.0742 20.8443 19.1445 20.7441 19.1906C20.644 19.2367 20.5339 19.2571 20.4238 19.2501H2.48376C2.37431 19.257 2.26485 19.2367 2.16518 19.191C2.06551 19.1452 1.97875 19.0754 1.91268 18.9879C1.85914 18.9008 1.83072 18.8006 1.83056 18.6984C1.8304 18.5961 1.8585 18.4958 1.91176 18.4086ZM11.9181 13.7501H11.0014V7.3334H11.9181V13.7501ZM10.5431 16.0417C10.5431 15.8604 10.5969 15.6832 10.6976 15.5325C10.7983 15.3817 10.9415 15.2642 11.109 15.1948C11.2765 15.1255 11.4608 15.1073 11.6386 15.1427C11.8164 15.1781 11.9797 15.2654 12.1079 15.3936C12.2361 15.5218 12.3234 15.6851 12.3588 15.8629C12.3942 16.0407 12.376 16.225 12.3067 16.3925C12.2373 16.56 12.1198 16.7032 11.969 16.8039C11.8183 16.9046 11.6411 16.9584 11.4598 16.9584C11.2168 16.9579 10.9839 16.8612 10.8121 16.6894C10.6403 16.5176 10.5436 16.2847 10.5431 16.0417Z" fill="#00010D"/>
</g>
<defs>
<clipPath id="clip0_892_16101">
<rect width="22" height="22" fill="white"/>
</clipPath>
</defs>
</svg>
