<svg width="18" height="18" viewBox="0 0 18 18" fill="none" xmlns="http://www.w3.org/2000/svg">
<path d="M9 8.49463C8.12777 8.49463 7.41797 9.20443 7.41797 10.0767C7.41797 10.9492 8.12777 11.6587 9 11.6587C9.87223 11.6587 10.582 10.9492 10.582 10.0767C10.582 9.20443 9.87223 8.49463 9 8.49463ZM9 10.604C8.70891 10.604 8.47266 10.3681 8.47266 10.0767C8.47266 9.78557 8.70891 9.54932 9 9.54932C9.29109 9.54932 9.52734 9.78557 9.52734 10.0767C9.52734 10.3681 9.29109 10.604 9 10.604Z" fill="#01AA89"/>
<path d="M16.6177 0C15.9676 0 15.4209 0.451406 15.2743 1.05715C14.4239 1.10355 13.7461 1.80984 13.7461 2.67188V4.21875H11.6367V2.65957C12.138 2.45215 12.4917 1.9575 12.4917 1.38234C12.4917 0.620156 11.8716 0 11.1094 0C10.3472 0 9.72703 0.620156 9.72703 1.38234C9.72703 1.9575 10.0807 2.45215 10.582 2.65957V4.21875H7.41797V2.65957C7.9193 2.45215 8.27297 1.9575 8.27297 1.38234C8.27297 0.620156 7.65281 0 6.89062 0C6.12844 0 5.50828 0.620156 5.50828 1.38234C5.50828 1.9575 5.86195 2.45215 6.36328 2.65957V4.21875H4.25391V2.67188C4.25391 1.80984 3.57609 1.10355 2.72566 1.05715C2.57906 0.451406 2.03238 0 1.38234 0C0.620156 0 0 0.620156 0 1.38234C0 1.98281 0.385312 2.49539 0.921445 2.68523C1.06559 2.73656 1.22063 2.76469 1.38234 2.76469C1.54406 2.76469 1.6991 2.73656 1.84324 2.68523C2.14137 2.57977 2.39273 2.3741 2.55727 2.10938H2.63672C2.9468 2.10938 3.19922 2.3618 3.19922 2.67188V4.21875H1.93359C1.6425 4.21875 1.40625 4.455 1.40625 4.74609V15.3633C1.40625 15.6544 1.6425 15.8906 1.93359 15.8906H8.47266V16.9453H5.44922C5.15988 16.9453 4.92188 17.1833 4.92188 17.4727C4.92188 17.762 5.15988 18 5.44922 18H12.5508C12.8401 18 13.0781 17.762 13.0781 17.4727C13.0781 17.1833 12.8401 16.9453 12.5508 16.9453H9.52734V15.8906H16.0664C16.3575 15.8906 16.5938 15.6544 16.5938 15.3633V4.74609C16.5938 4.455 16.3575 4.21875 16.0664 4.21875H14.8008V2.67188C14.8008 2.3618 15.0532 2.10938 15.3633 2.10938H15.4427C15.6073 2.3741 15.8586 2.57977 16.1568 2.68523C16.3009 2.73656 16.4559 2.76469 16.6177 2.76469C16.7794 2.76469 16.9344 2.73656 17.0786 2.68523C17.6147 2.49539 18 1.98281 18 1.38234C18 0.620156 17.3798 0 16.6177 0ZM12.0234 10.6038H11.5836C11.5833 10.6038 11.5833 10.6035 11.5829 10.6035C11.5137 10.9396 11.3794 11.2528 11.1945 11.5302H11.199L11.5109 11.8413C11.7155 12.0463 11.7155 12.3831 11.5109 12.5873C11.3063 12.792 10.9698 12.792 10.7652 12.5873L10.4534 12.2759C10.4534 12.2741 10.453 12.2727 10.453 12.2713C10.1756 12.4562 9.86273 12.5905 9.52699 12.6598L9.52734 12.6601V13.0999C9.52734 13.3914 9.29109 13.6273 9 13.6273C8.70891 13.6273 8.47266 13.3914 8.47266 13.0999V12.6601L8.47301 12.6598C8.13691 12.5905 7.82297 12.4559 7.54559 12.2706C7.54594 12.2723 7.54629 12.2741 7.54664 12.2759L7.2348 12.5873C7.0302 12.792 6.69375 12.792 6.48914 12.5873C6.28453 12.3831 6.28453 12.0463 6.48914 11.8413L6.80098 11.5302C6.80273 11.5302 6.80449 11.5305 6.8059 11.5309C6.62063 11.2532 6.48633 10.9396 6.41672 10.6031C6.41672 10.6035 6.41672 10.6038 6.41637 10.6038H5.97656C5.68723 10.6038 5.44922 10.3658 5.44922 10.0765C5.44922 9.7875 5.68723 9.54914 5.97656 9.54914H6.41637C6.41637 9.54949 6.41672 9.54984 6.41672 9.55019C6.48633 9.2134 6.62098 8.8991 6.8066 8.62137C6.80484 8.62207 6.80273 8.62277 6.80098 8.62313L6.48914 8.31199C6.28453 8.10703 6.28453 7.77023 6.48914 7.56598C6.69375 7.36137 7.0302 7.36137 7.2348 7.56598L7.54664 7.87746C7.54594 7.87957 7.54559 7.88133 7.54488 7.88344C7.82262 7.69781 8.13656 7.56281 8.47336 7.49355C8.47301 7.49355 8.47301 7.4932 8.47266 7.4932V7.05305C8.47266 6.76195 8.70891 6.5257 9 6.5257C9.29109 6.5257 9.52734 6.76195 9.52734 7.05305V7.4932C9.52699 7.4932 9.52699 7.49355 9.52664 7.49355C9.86309 7.56281 10.1763 7.69746 10.4537 7.88238C10.4537 7.88098 10.4534 7.87922 10.4534 7.87746L10.7652 7.56598C10.9698 7.36137 11.3063 7.36137 11.5109 7.56598C11.7155 7.77023 11.7155 8.10703 11.5109 8.31199L11.199 8.62313C11.1973 8.62313 11.1955 8.62277 11.1937 8.62242C11.3794 8.8998 11.5137 9.2134 11.5829 9.54984C11.5833 9.54984 11.5833 9.54949 11.5836 9.54914H12.0234C12.3128 9.54914 12.5508 9.7875 12.5508 10.0765C12.5508 10.3658 12.3128 10.6038 12.0234 10.6038Z" fill="#01AA89"/>
</svg>
