<svg width="20" height="20" viewBox="0 0 20 20" fill="none" xmlns="http://www.w3.org/2000/svg">
<path d="M10.7391 4.89844H4.25573C2.83073 4.89844 1.66406 6.0651 1.66406 7.4901V16.9568C1.66406 18.1651 2.53073 18.6818 3.58906 18.0901L6.86406 16.2651C7.21406 16.0734 7.78073 16.0734 8.1224 16.2651L11.3974 18.0901C12.4641 18.6734 13.3307 18.1651 13.3307 16.9568V7.4901C13.3307 6.0651 12.1641 4.89844 10.7391 4.89844Z" fill="#01AA89"/>
<path d="M18.3328 4.25768V13.7243C18.3328 14.9327 17.4662 15.441 16.4078 14.8577L14.7995 13.9577C14.6662 13.8827 14.5828 13.741 14.5828 13.591V7.49102C14.5828 5.37435 12.8578 3.64935 10.7412 3.64935H7.34954C7.04121 3.64935 6.82454 3.32435 6.96621 3.05768C7.39954 2.23268 8.26621 1.66602 9.25784 1.66602H15.7412C17.1662 1.66602 18.3328 2.83268 18.3328 4.25768Z" fill="#01AA89"/>
</svg>
