<svg width="13" height="12" viewBox="0 0 13 12" fill="none" xmlns="http://www.w3.org/2000/svg">
<path d="M4.70313 5.99868C4.70302 6.35471 4.8085 6.70278 5.00622 6.99886C5.20394 7.29493 5.48503 7.52573 5.81392 7.66205C6.14282 7.79837 6.50476 7.83409 6.85396 7.7647C7.20316 7.6953 7.52394 7.52391 7.77573 7.2722C8.02752 7.02049 8.199 6.69976 8.2685 6.35058C8.338 6.0014 8.30238 5.63945 8.16616 5.31051C8.02994 4.98157 7.79923 4.70042 7.50321 4.50261C7.20719 4.3048 6.85915 4.19922 6.50313 4.19922C6.02622 4.20049 5.5692 4.39047 5.23193 4.72764C4.89465 5.06482 4.70454 5.52178 4.70313 5.99868Z" fill="#BDBDBD"/>
<path d="M12.4097 4.97808V4.97942C12.3658 4.71779 12.3032 4.45967 12.2223 4.20703H12.2193C12.3015 4.4609 12.3648 4.7205 12.4087 4.9837C12.3647 4.72053 12.3014 4.46094 12.2193 4.20703H8.05744C8.56763 4.66232 8.89732 5.28285 8.89732 6.00275C8.89849 6.42463 8.7845 6.83882 8.56763 7.2007L5.82812 11.959C5.82826 11.9614 5.82826 11.9638 5.82812 11.9662V11.9737V11.9668C6.0505 11.9905 6.27403 12.0018 6.49767 12.0005C6.68086 12.0005 6.86217 11.9901 7.04134 11.9737C7.30975 11.9495 7.57622 11.9071 7.8389 11.8468C10.5064 11.2378 12.4968 8.85099 12.4968 5.9998C12.4968 5.65738 12.4677 5.31557 12.4097 4.97808Z" fill="#BDBDBD"/>
<path d="M6.49807 8.39763C5.5982 8.39763 4.84831 7.91796 4.42811 7.19807L1.67735 2.44002L1.6736 2.43359C1.08004 3.2372 0.696569 4.17632 0.557993 5.16571C0.419417 6.1551 0.530125 7.16343 0.880069 8.09918C1.23001 9.03494 1.80811 9.86848 2.56189 10.5242C3.31567 11.1798 4.22127 11.6369 5.19648 11.8538V11.8525L7.27715 8.24765C7.02837 8.34333 6.76459 8.39411 6.49807 8.39763Z" fill="#BDBDBD"/>
<path d="M2.08995 1.94519L4.16153 5.51386C4.26907 4.97222 4.56095 4.48458 4.98752 4.13389C5.41408 3.78321 5.94897 3.59115 6.50118 3.59039H11.996C11.8071 3.17534 11.5757 2.78097 11.3056 2.4136L11.3088 2.41574C11.5779 2.78244 11.8082 3.1761 11.996 3.59039H12.0006C11.8129 3.17486 11.5826 2.77995 11.3133 2.41199C11.31 2.40994 11.3069 2.40761 11.304 2.40503C10.7761 1.69939 10.0993 1.11874 9.3216 0.704386C8.5439 0.290027 7.68444 0.0521402 6.80436 0.00764929C5.92429 -0.0368416 5.04522 0.113156 4.2297 0.446972C3.41417 0.780788 2.68223 1.29022 2.08594 1.93903L2.08969 1.94545L2.08995 1.94519Z" fill="#BDBDBD"/>
</svg>
