<svg width="16" height="16" viewBox="0 0 16 16" fill="none" xmlns="http://www.w3.org/2000/svg">
<path d="M10 0.833008H3.33333C2.32081 0.833008 1.5 1.65382 1.5 2.66634V10.6663C1.5 11.6789 2.32081 12.4997 3.33333 12.4997H10C11.0125 12.4997 11.8333 11.6789 11.8333 10.6663V2.66634C11.8333 1.65382 11.0125 0.833008 10 0.833008Z" fill="#01AA89"/>
<path d="M12.6641 15.1667H5.9974C5.51127 15.1663 5.04516 14.973 4.70142 14.6293C4.35768 14.2856 4.16442 13.8195 4.16406 13.3333V5.33333C4.16442 4.84721 4.35768 4.3811 4.70142 4.03736C5.04516 3.69362 5.51127 3.50035 5.9974 3.5H12.6641C13.1502 3.50035 13.6163 3.69362 13.96 4.03736C14.3038 4.3811 14.497 4.84721 14.4974 5.33333V13.3333C14.497 13.8195 14.3038 14.2856 13.96 14.6293C13.6163 14.973 13.1502 15.1663 12.6641 15.1667ZM5.9974 4.5C5.77649 4.50035 5.56473 4.58826 5.40853 4.74447C5.25233 4.90067 5.16442 5.11243 5.16406 5.33333V13.3333C5.16442 13.5542 5.25233 13.766 5.40853 13.9222C5.56473 14.0784 5.77649 14.1663 5.9974 14.1667H12.6641C12.885 14.1663 13.0967 14.0784 13.2529 13.9222C13.4091 13.766 13.497 13.5542 13.4974 13.3333V5.33333C13.497 5.11243 13.4091 4.90067 13.2529 4.74447C13.0967 4.58826 12.885 4.50035 12.6641 4.5H5.9974Z" fill="#01AA89"/>
</svg>
