<svg width="16" height="16" viewBox="0 0 16 16" fill="none" xmlns="http://www.w3.org/2000/svg">
<path d="M8 0.5C3.8645 0.5 0.5 3.8645 0.5 8C0.5 12.1355 3.8645 15.5 8 15.5C12.1355 15.5 15.5 12.1355 15.5 8C15.5 3.8645 12.1355 0.5 8 0.5ZM7.75 7.5H8.25C9.353 7.5 10.25 8.397 10.25 9.5C10.25 10.4295 9.6105 11.2055 8.75 11.429V12C8.75 12.2765 8.5265 12.5 8.25 12.5C7.9735 12.5 7.75 12.2765 7.75 12V11.5H6.25C5.9735 11.5 5.75 11.2765 5.75 11C5.75 10.7235 5.9735 10.5 6.25 10.5H8.25C8.8015 10.5 9.25 10.0515 9.25 9.5C9.25 8.9485 8.8015 8.5 8.25 8.5H7.75C6.647 8.5 5.75 7.603 5.75 6.5C5.75 5.397 6.647 4.5 7.75 4.5V4C7.75 3.7235 7.9735 3.5 8.25 3.5C8.5265 3.5 8.75 3.7235 8.75 4V4.5H9.75C10.0265 4.5 10.25 4.7235 10.25 5C10.25 5.2765 10.0265 5.5 9.75 5.5H7.75C7.1985 5.5 6.75 5.9485 6.75 6.5C6.75 7.0515 7.1985 7.5 7.75 7.5Z" fill="#00010D"/>
</svg>
