<svg width="20" height="20" viewBox="0 0 20 20" fill="none" xmlns="http://www.w3.org/2000/svg">
<path d="M12.2789 17.4774V18.0617C12.2789 18.5267 11.9373 18.9136 11.4929 18.9794L11.3488 19.5103C11.2707 19.7984 11.0114 20 10.711 20H9.283C8.98259 20 8.72333 19.7984 8.64514 19.5103L8.50522 18.9794C8.05666 18.9095 7.7151 18.5267 7.7151 18.0576V17.4733C7.7151 17.1605 7.96613 16.9095 8.27889 16.9095H11.7151C12.0279 16.9136 12.2789 17.1646 12.2789 17.4774ZM14.925 9.60082C14.925 10.93 14.3982 12.1358 13.5423 13.0206C12.8921 13.6955 12.4723 14.5556 12.3324 15.4733C12.2707 15.8683 11.9291 16.1605 11.5258 16.1605H8.46819C8.06901 16.1605 7.72333 15.8724 7.66572 15.4774C7.52169 14.5597 7.09782 13.6872 6.44761 13.0165C5.60811 12.144 5.08547 10.9588 5.07313 9.65432C5.04432 6.91358 7.22539 4.69547 9.96613 4.6749C12.7028 4.65432 14.925 6.86831 14.925 9.60082ZM10.5546 6.61728C10.5546 6.31276 10.3077 6.06173 9.99905 6.06173C8.0402 6.06173 6.4435 7.65432 6.4435 9.61728C6.4435 9.92181 6.69041 10.1728 6.99905 10.1728C7.30358 10.1728 7.55461 9.92593 7.55461 9.61728C7.55461 8.26749 8.65337 7.17284 9.99905 7.17284C10.3077 7.17284 10.5546 6.92593 10.5546 6.61728ZM9.99905 3.05761C10.3036 3.05761 10.5546 2.8107 10.5546 2.50206V0.555556C10.5546 0.251029 10.3077 0 9.99905 0C9.69041 0 9.4435 0.246914 9.4435 0.555556V2.50206C9.4435 2.8107 9.69452 3.05761 9.99905 3.05761ZM3.45996 9.59671C3.45996 9.29218 3.21304 9.04115 2.9044 9.04115H0.957899C0.653373 9.04115 0.402344 9.28807 0.402344 9.59671C0.402344 9.90123 0.649257 10.1523 0.957899 10.1523H2.9044C3.21304 10.1523 3.45996 9.90535 3.45996 9.59671ZM19.0402 9.04115H17.0937C16.7892 9.04115 16.5381 9.28807 16.5381 9.59671C16.5381 9.90123 16.7851 10.1523 17.0937 10.1523H19.0402C19.3447 10.1523 19.5958 9.90535 19.5958 9.59671C19.5958 9.29218 19.3488 9.04115 19.0402 9.04115ZM4.59164 14.2222L3.21304 15.6008C2.99494 15.8189 2.99494 16.1687 3.21304 16.3868C3.32004 16.4938 3.46407 16.5473 3.60399 16.5473C3.74391 16.5473 3.88794 16.4938 3.99494 16.3868L5.37354 15.0082C5.59164 14.7901 5.59164 14.4403 5.37354 14.2222C5.15955 14.0041 4.80564 14.0041 4.59164 14.2222ZM15.0155 5.1358C15.1554 5.1358 15.2995 5.0823 15.4065 4.97531L16.7851 3.59671C17.0032 3.3786 17.0032 3.02881 16.7851 2.8107C16.567 2.59259 16.2172 2.59259 15.9991 2.8107L14.6205 4.1893C14.4023 4.40741 14.4023 4.7572 14.6205 4.97531C14.7316 5.0823 14.8715 5.1358 15.0155 5.1358ZM4.59164 4.97119C4.69864 5.07819 4.84267 5.13169 4.98259 5.13169C5.12251 5.13169 5.26654 5.07819 5.37354 4.97119C5.59164 4.75309 5.59164 4.40329 5.37354 4.18519L3.99494 2.80658C3.77683 2.58848 3.42704 2.58848 3.20893 2.80658C2.99082 3.02469 2.99082 3.37449 3.20893 3.59259L4.59164 4.97119ZM15.4065 14.2222C15.1884 14.0041 14.8386 14.0041 14.6205 14.2222C14.4023 14.4403 14.4023 14.7901 14.6205 15.0082L15.9991 16.3868C16.106 16.4938 16.2501 16.5473 16.39 16.5473C16.5299 16.5473 16.674 16.4938 16.7809 16.3868C16.9991 16.1687 16.9991 15.8189 16.7809 15.6008L15.4065 14.2222Z" fill="white"/>
</svg>
