<svg width="16" height="16" viewBox="0 0 16 16" fill="none" xmlns="http://www.w3.org/2000/svg">
<g clip-path="url(#clip0_503_15232)">
<path d="M14.3826 2.40039H1.61896C1.40197 2.40039 1.19386 2.48468 1.04042 2.63471C0.886982 2.78473 0.800781 2.98822 0.800781 3.20039C0.800781 3.41256 0.886982 3.61605 1.04042 3.76608C1.19386 3.9161 1.40197 4.00039 1.61896 4.00039H2.27351V13.6004C2.2737 14.2369 2.53237 14.8472 2.99264 15.2972C3.45292 15.7473 4.07713 16.0002 4.72805 16.0004H11.2735C11.9244 16.0002 12.5487 15.7473 13.0089 15.2973C13.4692 14.8472 13.7279 14.2369 13.7281 13.6004V4.00039H14.3826C14.5996 4.00039 14.8077 3.9161 14.9611 3.76608C15.1146 3.61605 15.2008 3.41256 15.2008 3.20039C15.2008 2.98822 15.1146 2.78473 14.9611 2.63471C14.8077 2.48468 14.5996 2.40039 14.3826 2.40039ZM7.1826 11.2004C7.1826 11.4126 7.0964 11.616 6.94296 11.7661C6.78952 11.9161 6.58141 12.0004 6.36442 12.0004C6.14742 12.0004 5.93931 11.9161 5.78588 11.7661C5.63244 11.616 5.54624 11.4126 5.54624 11.2004V7.20039C5.54624 6.98822 5.63244 6.78473 5.78588 6.63471C5.93931 6.48468 6.14742 6.40039 6.36442 6.40039C6.58141 6.40039 6.78952 6.48468 6.94296 6.63471C7.0964 6.78473 7.1826 6.98822 7.1826 7.20039V11.2004ZM10.4553 11.2004C10.4553 11.4126 10.3691 11.616 10.2157 11.7661C10.0622 11.9161 9.85414 12.0004 9.63714 12.0004C9.42015 12.0004 9.21204 11.9161 9.0586 11.7661C8.90516 11.616 8.81896 11.4126 8.81896 11.2004V7.20039C8.81896 6.98822 8.90516 6.78473 9.0586 6.63471C9.21204 6.48468 9.42015 6.40039 9.63714 6.40039C9.85414 6.40039 10.0622 6.48468 10.2157 6.63471C10.3691 6.78473 10.4553 6.98822 10.4553 7.20039V11.2004Z" fill="#EB5757"/>
<path d="M6.40156 1.6H9.60156C9.81374 1.6 10.0172 1.51571 10.1672 1.36569C10.3173 1.21566 10.4016 1.01217 10.4016 0.8C10.4016 0.587827 10.3173 0.384344 10.1672 0.234315C10.0172 0.0842854 9.81374 0 9.60156 0H6.40156C6.18939 0 5.98591 0.0842854 5.83588 0.234315C5.68585 0.384344 5.60156 0.587827 5.60156 0.8C5.60156 1.01217 5.68585 1.21566 5.83588 1.36569C5.98591 1.51571 6.18939 1.6 6.40156 1.6Z" fill="#EB5757"/>
</g>
<defs>
<clipPath id="clip0_503_15232">
<rect width="16" height="16" fill="white"/>
</clipPath>
</defs>
</svg>
