<svg width="15" height="14" viewBox="0 0 15 14" fill="none" xmlns="http://www.w3.org/2000/svg">
<g clip-path="url(#clip0_503_4134)">
<path fill-rule="evenodd" clip-rule="evenodd" d="M1.32031 0.875H13.6797C14.132 0.875 14.5 1.23688 14.5 1.68156V9.69344C14.5 10.1381 14.132 10.5 13.6797 10.5H1.32031C0.868047 10.5 0.5 10.1381 0.5 9.69344V1.68156C0.5 1.23688 0.868047 0.875 1.32031 0.875ZM2.86523 2.625H12.1348C12.474 2.625 12.75 2.85529 12.75 3.13827V8.23673C12.75 8.51971 12.474 8.75 12.1348 8.75H2.86523C2.52604 8.75 2.25 8.51971 2.25 8.23673V3.13827C2.25 2.85529 2.52604 2.625 2.86523 2.625Z" fill="white"/>
<path d="M11.877 12.4961H9.66211V11.293H5.3418V12.4961H3.12695C2.90055 12.4961 2.7168 12.6798 2.7168 12.9062C2.7168 13.1327 2.90055 13.3164 3.12695 13.3164H11.877C12.1034 13.3164 12.2871 13.1327 12.2871 12.9062C12.2871 12.6798 12.1034 12.4961 11.877 12.4961Z" fill="white"/>
</g>
<defs>
<clipPath id="clip0_503_4134">
<rect width="14" height="14" fill="white" transform="translate(0.5)"/>
</clipPath>
</defs>
</svg>
