<svg width="4" height="14" viewBox="0 0 4 14" fill="none" xmlns="http://www.w3.org/2000/svg">
<path d="M0.5 7C0.5 7.827 1.173 8.5 2 8.5C2.827 8.5 3.5 7.827 3.5 7C3.5 6.173 2.827 5.5 2 5.5C1.173 5.5 0.5 6.173 0.5 7Z" fill="#01AA89"/>
<path d="M0.5 12C0.5 12.827 1.173 13.5 2 13.5C2.827 13.5 3.5 12.827 3.5 12C3.5 11.173 2.827 10.5 2 10.5C1.173 10.5 0.5 11.173 0.5 12Z" fill="#01AA89"/>
<path d="M0.5 2C0.5 2.827 1.173 3.5 2 3.5C2.827 3.5 3.5 2.827 3.5 2C3.5 1.173 2.827 0.5 2 0.5C1.173 0.5 0.5 1.173 0.5 2Z" fill="#01AA89"/>
</svg>
