<svg width="24" height="24" viewBox="0 0 24 24" fill="none" xmlns="http://www.w3.org/2000/svg">
<path d="M16.0002 21.0003H6.00004C5.19864 21.0003 4.44528 20.6882 3.87867 20.1216C3.31206 19.5549 3 18.8015 3 18.0003V8.00008C3 7.19872 3.31209 6.44536 3.8787 5.87875C4.44531 5.31214 5.19868 5.00005 6.00007 5.00005H10.0001C10.5525 5.00005 11.0002 5.44775 11.0002 6.00007C11.0002 6.5524 10.5525 7.0001 10.0001 7.0001H6.00004C5.7329 7.0001 5.48181 7.10413 5.29296 7.29297C5.10411 7.48182 5.00005 7.73295 5.00005 8.00008V18.0003C5.00005 18.2674 5.10408 18.5185 5.29296 18.7074C5.48181 18.8962 5.7329 19.0003 6.00004 19.0003H16.0002C16.2673 19.0003 16.5184 18.8962 16.7073 18.7073C16.8961 18.5185 17.0002 18.2673 17.0002 18.0002V14.0002C17.0002 13.4479 17.4479 13.0002 18.0002 13.0002C18.5525 13.0002 19.0003 13.4479 19.0003 14.0002V18.0003C19.0003 18.8016 18.6882 19.5549 18.1215 20.1216C17.5549 20.6882 16.8015 21.0003 16.0002 21.0003ZM10.0001 15.0002C9.74418 15.0002 9.48826 14.9026 9.29302 14.7073C8.9025 14.3168 8.9025 13.6836 9.29302 13.293L17.586 5.00005H14.0002C13.4479 5.00005 13.0002 4.55235 13.0002 4.00002C13.0002 3.4477 13.4479 3 14.0002 3H20.0003C20.1386 3 20.2703 3.02809 20.3901 3.07884C20.502 3.12614 20.607 3.19468 20.6989 3.28449L20.6989 3.28456C20.6996 3.28523 20.7002 3.28586 20.7009 3.28652C20.7011 3.28669 20.7013 3.2869 20.7015 3.28708C20.702 3.28757 20.7025 3.28809 20.703 3.28862C20.7034 3.28896 20.7037 3.28928 20.704 3.28963C20.7044 3.29001 20.7048 3.29043 20.7051 3.29075C20.7058 3.29145 20.7066 3.29218 20.7073 3.29291C20.708 3.29361 20.7088 3.29438 20.7095 3.29508C20.7099 3.29543 20.7103 3.29588 20.7106 3.2962C20.7109 3.29655 20.7112 3.29686 20.7116 3.29721C20.7121 3.29773 20.7126 3.29822 20.7131 3.29878C20.7133 3.29892 20.7135 3.29917 20.7137 3.29934C20.7143 3.3 20.715 3.30067 20.7156 3.30133L20.7157 3.3014C20.8055 3.39334 20.874 3.49835 20.9213 3.61014C20.9721 3.72996 21.0002 3.86165 21.0002 3.99999V10.0001C21.0002 10.5524 20.5524 11.0001 20.0001 11.0001C19.4478 11.0001 19.0001 10.5524 19.0001 10.0001V6.41431L10.7071 14.7073C10.512 14.9026 10.256 15.0002 10.0001 15.0002Z" fill="#01AA89"/>
</svg>
