<svg width="16" height="16" viewBox="0 0 16 16" fill="none" xmlns="http://www.w3.org/2000/svg">
<g clip-path="url(#clip0_503_8421)">
<path d="M14.187 5.72313H13.8029V3.86919C13.8029 3.85755 13.801 3.84599 13.7995 3.83418C13.7989 3.76064 13.7755 3.68827 13.7251 3.63107L10.6402 0.107301C10.6393 0.106309 10.6383 0.106017 10.6377 0.105112C10.6194 0.0844808 10.5979 0.0674096 10.5752 0.052702C10.5685 0.0481205 10.5617 0.0443561 10.5547 0.0404749C10.5351 0.0298236 10.5142 0.0208649 10.4928 0.0144157C10.487 0.0128983 10.4818 0.0105054 10.476 0.00892958C10.4526 0.00344343 10.4284 0 10.404 0H2.82245C2.47624 0 2.19502 0.281574 2.19502 0.627464V5.72296H1.8109C1.31563 5.72296 0.914062 6.12438 0.914062 6.61971V11.2832C0.914062 11.7783 1.31563 12.1802 1.8109 12.1802H2.19502V15.3726C2.19502 15.7185 2.47624 16 2.82245 16H13.1754C13.5213 16 13.8029 15.7185 13.8029 15.3726V12.1802H14.187C14.6821 12.1802 15.0838 11.7785 15.0838 11.2834V6.61988C15.0838 6.12441 14.6821 5.72313 14.187 5.72313ZM2.82245 0.627464H10.0902V3.83762C10.0902 4.01096 10.2308 4.15135 10.404 4.15135H13.1754V5.7231H2.82245V0.627464ZM7.54582 9.13911C6.76726 8.86798 6.25999 8.4372 6.25999 7.75622C6.25999 6.95652 6.92711 6.34476 8.03228 6.34476C8.56067 6.34476 8.94996 6.45597 9.22779 6.58134L8.99171 7.43636C8.80408 7.34569 8.47047 7.21364 8.0115 7.21364C7.55286 7.21364 7.33043 7.42226 7.33043 7.66552C7.33043 7.96455 7.59444 8.0965 8.19946 8.32596C9.0265 8.63175 9.41578 9.06247 9.41578 9.723C9.41578 10.5082 8.81111 11.1758 7.52505 11.1758C6.98991 11.1758 6.4614 11.0365 6.19737 10.8907L6.41273 10.0148C6.69789 10.1611 7.1357 10.3068 7.5877 10.3068C8.07419 10.3068 8.33148 10.1052 8.33148 9.79917C8.33133 9.50706 8.10877 9.3404 7.54582 9.13911ZM2.02629 8.83305C2.02629 7.23445 3.16653 6.34476 4.58418 6.34476C5.13344 6.34476 5.55047 6.45597 5.73828 6.55338L5.52257 7.39428C5.30721 7.30428 5.00804 7.22097 4.6328 7.22097C3.79172 7.22097 3.13852 7.728 3.13852 8.77048C3.13852 9.70891 3.69446 10.2996 4.64009 10.2996C4.95954 10.2996 5.3141 10.2302 5.52257 10.1467L5.68258 10.9739C5.48788 11.0714 5.05009 11.1758 4.48006 11.1758C2.86048 11.1759 2.02629 10.1676 2.02629 8.83305ZM13.1754 15.2025H2.82245V12.1802H13.1754V15.2025ZM12.4746 11.106H11.2373L9.73594 6.42133H10.897L11.4668 8.40259C11.6267 8.95838 11.7726 9.49358 11.8841 10.0775H11.9047C12.0229 9.51438 12.1687 8.95835 12.3286 8.42313L12.9265 6.42133H14.0529L12.4746 11.106Z" fill="#01AA89"/>
</g>
<defs>
<clipPath id="clip0_503_8421">
<rect width="16" height="16" fill="white"/>
</clipPath>
</defs>
</svg>
