<svg width="11" height="10" viewBox="0 0 11 10" fill="none" xmlns="http://www.w3.org/2000/svg">
<path d="M6.03918 9.12572e-07C6.18618 9.12572e-07 6.31768 0.0915009 6.36718 0.228501L6.72018 1.207C6.84668 1.2385 6.95518 1.27 7.04718 1.303C7.14768 1.339 7.27718 1.3935 7.43718 1.468L8.25918 1.033C8.32628 0.997454 8.40309 0.984623 8.4781 0.996433C8.5531 1.00824 8.62226 1.04406 8.67518 1.0985L9.39818 1.846C9.49418 1.9455 9.52118 2.091 9.46718 2.218L9.08168 3.1215C9.14568 3.239 9.19668 3.3395 9.23568 3.4235C9.27768 3.515 9.32968 3.641 9.39168 3.8035L10.2902 4.1885C10.4252 4.246 10.5087 4.381 10.4997 4.5255L10.4337 5.563C10.4292 5.6304 10.405 5.695 10.3641 5.74877C10.3232 5.80255 10.2674 5.84313 10.2037 5.8655L9.35268 6.168C9.32818 6.2855 9.30268 6.386 9.27568 6.471C9.23213 6.60227 9.18241 6.73142 9.12668 6.858L9.55418 7.803C9.58436 7.8694 9.59248 7.94371 9.57736 8.01506C9.56225 8.08641 9.52469 8.15104 9.47018 8.1995L8.65718 8.9255C8.60364 8.97311 8.53683 9.00322 8.4657 9.0118C8.39456 9.02038 8.32251 9.00702 8.25918 8.9735L7.42118 8.5295C7.29008 8.59892 7.15482 8.6602 7.01618 8.713L6.65018 8.85L6.32518 9.75C6.3011 9.81591 6.25766 9.873 6.20055 9.91378C6.14344 9.95456 6.07534 9.97712 6.00518 9.9785L5.05518 10C4.98316 10.0019 4.91233 9.98141 4.85243 9.94139C4.79253 9.90137 4.7465 9.84376 4.72068 9.7765L4.33768 8.763C4.20701 8.71834 4.07762 8.66999 3.94968 8.618C3.84504 8.57271 3.74198 8.52385 3.64068 8.4715L2.69068 8.8775C2.62809 8.90421 2.55908 8.91214 2.49205 8.90033C2.42503 8.88853 2.36289 8.85749 2.31318 8.811L1.61018 8.1515C1.55784 8.10261 1.5222 8.03851 1.50829 7.96825C1.49438 7.89799 1.50292 7.82514 1.53268 7.76L1.94118 6.87C1.88686 6.76459 1.83649 6.65718 1.79018 6.548C1.73613 6.41437 1.68611 6.27914 1.64018 6.1425L0.745184 5.87C0.672434 5.84801 0.608981 5.80262 0.564679 5.74087C0.520376 5.67911 0.497704 5.60446 0.500184 5.5285L0.535184 4.568C0.537675 4.50533 0.557252 4.44454 0.591798 4.39219C0.626343 4.33984 0.674543 4.29794 0.731184 4.271L1.67018 3.82C1.71368 3.6605 1.75168 3.5365 1.78518 3.446C1.83235 3.32512 1.88474 3.20635 1.94218 3.09L1.53518 2.23C1.5043 2.16469 1.49492 2.09127 1.50839 2.02029C1.52187 1.94932 1.55751 1.88444 1.61018 1.835L2.31218 1.172C2.36139 1.12559 2.42297 1.09438 2.4895 1.08214C2.55603 1.0699 2.62468 1.07714 2.68718 1.103L3.63618 1.495C3.74118 1.425 3.83618 1.3685 3.92218 1.323C4.02468 1.2685 4.16168 1.2115 4.33418 1.15L4.66418 0.229501C4.68858 0.162135 4.73318 0.103942 4.79188 0.0628665C4.85058 0.0217913 4.92054 -0.000163125 4.99218 9.12572e-07H6.03918ZM5.51218 3.5095C4.67868 3.5095 4.00318 4.177 4.00318 5.001C4.00318 5.825 4.67868 6.493 5.51218 6.493C6.34518 6.493 7.02068 5.825 7.02068 5.001C7.02068 4.177 6.34568 3.5095 5.51218 3.5095Z" fill="#BDBDBD"/>
</svg>
