<svg width="40" height="41" viewBox="0 0 40 41" fill="none" xmlns="http://www.w3.org/2000/svg">
<path d="M2.67386 30.511C4.28266 33.2991 6.54146 35.6571 9.25787 37.384C11.9743 39.111 15.0678 40.1558 18.275 40.4295L27.3323 24.7411L19.9988 20.5076L12.6704 24.7391L10.2271 20.5063L8.43792 17.4078L3.61563 9.05469C1.43368 12.1709 0.186055 15.845 0.0192368 19.6456C-0.147581 23.4462 0.773335 27.2155 2.67386 30.511Z" fill="#00AC47"/>
<path d="M19.9997 0.500001C16.7807 0.499168 13.6093 1.2764 10.7555 2.76549C7.90167 4.25459 5.45003 6.41142 3.60938 9.05229L12.6666 24.7407L19.9997 20.507V12.0438H38.1086C36.501 8.59618 33.9432 5.67873 30.7356 3.63397C27.5279 1.58921 23.8035 0.502007 19.9997 0.500001Z" fill="#EA4435"/>
<path d="M37.3251 30.5112C38.935 27.7239 39.8474 24.5887 39.9848 21.3728C40.1221 18.1569 39.4802 14.9554 38.1138 12.041H19.9994V20.5082L27.3284 24.7397L24.8851 28.9724L23.0959 32.0716L18.2734 40.4245C22.0631 40.756 25.8687 39.9993 29.2433 38.2433C32.618 36.4873 35.4216 33.805 37.3251 30.5112Z" fill="#FFBA00"/>
<path d="M19.9963 28.9739C24.6714 28.9739 28.4613 25.1838 28.4613 20.5085C28.4613 15.8331 24.6714 12.043 19.9963 12.043C15.3212 12.043 11.5312 15.8331 11.5312 20.5085C11.5312 25.1838 15.3212 28.9739 19.9963 28.9739Z" fill="white"/>
<path d="M19.9943 27.0518C23.6069 27.0518 26.5354 24.123 26.5354 20.5103C26.5354 16.8975 23.6069 13.9688 19.9943 13.9688C16.3817 13.9688 13.4531 16.8975 13.4531 20.5103C13.4531 24.123 16.3817 27.0518 19.9943 27.0518Z" fill="#4285F4"/>
</svg>
