<svg width="24" height="24" viewBox="0 0 24 24" fill="none" xmlns="http://www.w3.org/2000/svg">
<path d="M0.40135 1.11189C0.133783 1.27912 0 1.52996 0 1.89229C0 2.25462 0.133783 2.50547 0.40135 2.6727C0.574153 2.77861 0.685639 2.78418 2.12938 2.78418H3.67347L3.72921 3.07405C3.76266 3.2357 4.34238 6.51897 5.02245 10.3652C5.8363 14.9863 6.28224 17.4167 6.34913 17.5282C6.3993 17.6174 6.52751 17.7512 6.63342 17.8181L6.81737 17.9463H14.2646C21.5949 17.9463 21.7175 17.9463 21.8959 17.8348C22.1634 17.6676 22.2972 17.4167 22.2972 17.0544C22.2972 16.6921 22.1634 16.4412 21.8959 16.274C21.7175 16.1625 21.6004 16.1625 14.8165 16.1625H7.92666L7.89321 16.0064C7.87092 15.9228 7.79845 15.5215 7.72599 15.1145L7.59778 14.3787H14.5155H21.4388L21.7398 14.1948C22.2916 13.8659 22.2415 14.0331 23.1891 9.28382C23.8357 6.04515 24.0253 4.99718 23.9974 4.8188C23.9416 4.42303 23.6518 4.01053 23.3062 3.83215L23.0107 3.67607H14.3594H5.70809L5.52414 2.6281C5.4238 2.04837 5.30116 1.51324 5.24542 1.41848C5.19525 1.32929 5.06704 1.19551 4.96113 1.12861C4.77718 1.0004 4.76603 1.0004 2.68124 1.0004C0.685639 1.0004 0.574153 1.00598 0.40135 1.11189Z" fill="#01AA89"/>
<path d="M7.31095 18.9549C6.17379 19.3953 5.86163 21.0174 6.74237 21.9037C7.43359 22.5894 8.61534 22.5894 9.30655 21.9037C10.1929 21.0119 9.87513 19.3842 8.72125 18.9549C8.30875 18.7989 7.71787 18.7989 7.31095 18.9549Z" fill="#01AA89"/>
<path d="M19.7992 18.9549C18.6621 19.3953 18.3499 21.0174 19.2307 21.9037C19.9219 22.5894 21.1036 22.5894 21.7948 21.9037C22.6811 21.0119 22.3634 19.3842 21.2095 18.9549C20.797 18.7989 20.2062 18.7989 19.7992 18.9549Z" fill="#01AA89"/>
</svg>
