<svg width="24" height="24" viewBox="0 0 24 24" fill="none" xmlns="http://www.w3.org/2000/svg">
<path d="M12 0C9.54042 0 7.17295 0.769547 5.1187 2.23041C4.80394 2.04347 4.43691 1.9357 4.04503 1.9357C2.88192 1.9357 1.93566 2.88197 1.93566 4.04508C1.93566 4.43695 2.04342 4.80398 2.23036 5.11875C0.7695 7.17295 0 9.54042 0 12C0 15.1879 1.25297 18.1966 3.52823 20.4718C5.80341 22.747 8.81203 24 12 24C15.188 24 18.1966 22.747 20.4718 20.4718C22.747 18.1966 24 15.1879 24 12C24 5.40253 18.5975 0 12 0ZM19.7025 11.2969C19.5622 9.72877 18.9533 8.25877 17.9437 7.05066L19.9679 5.0265C21.4571 6.726 22.4123 8.90414 22.5699 11.2969H19.7025ZM17.625 12.7031H18.2894C18.2019 13.4935 17.9665 14.2563 17.5951 14.9574C16.8718 14.7349 16.0516 14.9089 15.4803 15.4803C15.0819 15.8787 14.8624 16.4084 14.8624 16.9718C14.8624 17.1866 14.8945 17.3963 14.956 17.5959C14.2553 17.9669 13.493 18.202 12.7031 18.2894V17.625C12.7031 17.2367 12.3883 16.9219 12 16.9219C11.6117 16.9219 11.2969 17.2367 11.2969 17.625V18.2888C8.36817 17.9636 6.03638 15.6318 5.71116 12.7031H6.375C6.76331 12.7031 7.07812 12.3883 7.07812 12C7.07812 11.6117 6.76331 11.2969 6.375 11.2969H5.71116C6.03642 8.36817 8.36822 6.03642 11.2969 5.71116V8.55511C9.69413 8.88173 8.48438 10.3022 8.48438 12C8.48438 13.9385 10.0615 15.5156 12 15.5156C13.9385 15.5156 15.5156 13.9385 15.5156 12C15.5156 11.2999 15.3121 10.6311 14.9335 10.0609L16.9444 8.04998C17.6949 8.9858 18.1583 10.1044 18.2893 11.2969H17.625C17.2367 11.2969 16.9219 11.6117 16.9219 12C16.9219 12.3884 17.2367 12.7031 17.625 12.7031ZM1.43067 11.2969C1.55925 9.42037 2.20209 7.61911 3.31336 6.02344C3.54141 6.10805 3.78787 6.15445 4.04503 6.15445C5.20814 6.15445 6.15441 5.20819 6.15441 4.04508C6.15441 3.78797 6.108 3.5415 6.02339 3.31345C7.61911 2.20214 9.42033 1.5593 11.2969 1.43067V4.29788C7.59211 4.63341 4.63341 7.59211 4.29792 11.2969H1.43067ZM14.1094 12C14.1094 13.1631 13.1631 14.1094 12 14.1094C10.8369 14.1094 9.89062 13.1631 9.89062 12C9.89062 11.0834 10.4785 10.3018 11.2969 10.0116V12C11.2969 12.2844 11.4682 12.5408 11.7309 12.6496C11.8179 12.6856 11.9093 12.7031 11.9999 12.7031C12.1828 12.7031 12.3627 12.6317 12.4972 12.4972L13.9041 11.0902C14.0384 11.3707 14.1094 11.6799 14.1094 12ZM1.43016 12.7031H4.29792C4.63341 16.4079 7.59211 19.3666 11.2969 19.7021V22.5698C6.01458 22.2219 1.77806 17.9854 1.43016 12.7031ZM12.7031 22.5698V19.7015C13.7983 19.6026 14.8541 19.2739 15.8093 18.7322C16.1604 18.9642 16.5661 19.0802 16.9718 19.0802C18.1333 19.0802 19.0812 18.1425 19.0812 16.9718C19.0812 16.552 18.9592 16.1511 18.7324 15.8091C19.274 14.8539 19.6026 13.7982 19.7015 12.7031H22.5698C22.2219 17.9854 17.9854 22.2219 12.7031 22.5698Z" fill="#01AA89"/>
</svg>
