<svg width="18" height="18" viewBox="0 0 18 18" fill="none" xmlns="http://www.w3.org/2000/svg">
<path d="M7.98977 13.8512C7.86983 13.9398 7.87083 14.1127 7.97626 14.2181L8.86722 15.1091C8.97266 15.2145 9.14365 15.2145 9.24904 15.1091L10.14 14.2181C10.2454 14.1127 10.2464 13.9398 10.1265 13.8512C9.82765 13.6305 9.4582 13.5 9.05815 13.5C8.65813 13.5 8.28859 13.6305 7.98977 13.8512Z" fill="#00010D"/>
<path d="M5.88396 12.1184C5.53249 11.7669 5.52901 11.1898 5.93367 10.9011C6.81703 10.271 7.8982 9.90039 9.06594 9.90039C10.2337 9.90039 11.3149 10.271 12.1982 10.9011C12.6029 11.1898 12.5994 11.7669 12.2479 12.1184C11.8964 12.4699 11.3302 12.4577 10.9029 12.2037C10.3651 11.884 9.73698 11.7004 9.06594 11.7004C8.39489 11.7004 7.76674 11.884 7.22895 12.2037C6.8017 12.4577 6.23543 12.4699 5.88396 12.1184Z" fill="#00010D"/>
<path d="M3.33898 9.57322C2.9875 9.22175 2.98492 8.64792 3.36954 8.33307C4.9212 7.06288 6.90487 6.30078 9.0665 6.30078C11.2282 6.30078 13.2119 7.06289 14.7635 8.33307C15.1482 8.64792 15.1456 9.22175 14.7941 9.57322C14.4427 9.92469 13.8758 9.91952 13.4834 9.61434C12.2639 8.66572 10.7312 8.10078 9.0665 8.10078C7.40187 8.10078 5.86914 8.66572 4.64963 9.61434C4.2573 9.91952 3.69045 9.92469 3.33898 9.57322Z" fill="#00010D"/>
<path d="M0.730394 7.02574C0.378913 6.67427 0.376935 6.10168 0.75248 5.77603C2.96301 3.85921 5.84762 2.69922 9.0032 2.69922C12.1946 2.69922 15.1089 3.88573 17.329 5.8417C17.702 6.17029 17.6955 6.74283 17.3412 7.09153C16.987 7.44024 16.4195 7.43256 16.0426 7.10842C14.1522 5.48218 11.6925 4.49922 9.0032 4.49922C6.34463 4.49922 3.91045 5.45981 2.02878 7.05283C1.64943 7.37399 1.08186 7.3772 0.730394 7.02574Z" fill="#00010D"/>
</svg>
