<svg width="18" height="18" viewBox="0 0 18 18" fill="none" xmlns="http://www.w3.org/2000/svg">
<g clip-path="url(#clip0_890_11510)">
<path d="M16.875 7.125H15.75V5.625C15.75 5.22718 15.592 4.84564 15.3107 4.56434C15.0294 4.28304 14.6478 4.125 14.25 4.125H2.25C1.85218 4.125 1.47064 4.28304 1.18934 4.56434C0.908035 4.84564 0.75 5.22718 0.75 5.625V12.375C0.75 12.7728 0.908035 13.1544 1.18934 13.4357C1.47064 13.717 1.85218 13.875 2.25 13.875H14.25C14.6478 13.875 15.0294 13.717 15.3107 13.4357C15.592 13.1544 15.75 12.7728 15.75 12.375V10.875H16.875C16.9257 10.881 16.9771 10.8755 17.0253 10.8588C17.0736 10.8421 17.1174 10.8146 17.1535 10.7785C17.1896 10.7424 17.2171 10.6986 17.2338 10.6503C17.2505 10.6021 17.256 10.5507 17.25 10.5V7.5C17.256 7.4493 17.2505 7.3979 17.2338 7.34965C17.2171 7.30141 17.1896 7.25759 17.1535 7.22149C17.1174 7.18539 17.0736 7.15795 17.0253 7.14123C16.9771 7.12452 16.9257 7.11897 16.875 7.125ZM2.25 12.375V5.625H14.25V12.375H2.25ZM3 6.375H13.125V11.625H3V6.375Z" fill="#00010D"/>
</g>
<defs>
<clipPath id="clip0_890_11510">
<rect width="18" height="18" fill="white"/>
</clipPath>
</defs>
</svg>
