<svg width="24" height="24" viewBox="0 0 24 24" fill="none" xmlns="http://www.w3.org/2000/svg">
<path d="M15.75 5.25H2.25C1.6538 5.25174 1.08251 5.48935 0.660933 5.91093C0.239353 6.33251 0.00174121 6.9038 0 7.5L0 18.75C0.00122876 19.2151 0.145941 19.6686 0.414391 20.0484C0.682841 20.4283 1.06195 20.7161 1.5 20.8725V23.25C1.50072 23.3913 1.54119 23.5295 1.6168 23.6489C1.6924 23.7683 1.80007 23.864 1.9275 23.925C2.02718 23.9762 2.13796 24.0019 2.25 24C2.41958 24.0014 2.58423 23.943 2.715 23.835L6.2625 21H15.75C16.3462 20.9983 16.9175 20.7606 17.3391 20.3391C17.7606 19.9175 17.9983 19.3462 18 18.75V7.5C17.9983 6.9038 17.7606 6.33251 17.3391 5.91093C16.9175 5.48935 16.3462 5.25174 15.75 5.25ZM9 18C8.85166 18 8.70666 17.956 8.58332 17.8736C8.45998 17.7912 8.36386 17.6741 8.30709 17.537C8.25032 17.4 8.23547 17.2492 8.26441 17.1037C8.29335 16.9582 8.36478 16.8246 8.46967 16.7197C8.57456 16.6148 8.7082 16.5434 8.85368 16.5144C8.99917 16.4855 9.14997 16.5003 9.28701 16.5571C9.42406 16.6139 9.54119 16.71 9.6236 16.8333C9.70601 16.9567 9.75 17.1017 9.75 17.25C9.74943 17.4487 9.67022 17.6392 9.5297 17.7797C9.38917 17.9202 9.19874 17.9994 9 18ZM10.395 13.65C10.187 13.7675 10.0132 13.9372 9.89086 14.1424C9.76853 14.3476 9.70188 14.5811 9.6975 14.82V14.895C9.6975 15.0939 9.61848 15.2847 9.47783 15.4253C9.33718 15.566 9.14641 15.645 8.9475 15.645C8.74859 15.645 8.55782 15.566 8.41717 15.4253C8.27652 15.2847 8.1975 15.0939 8.1975 14.895V14.82C8.20048 14.3177 8.33586 13.8252 8.59 13.3919C8.84414 12.9587 9.20805 12.6002 9.645 12.3525C9.83097 12.2464 9.99002 12.0989 10.1098 11.9214C10.2296 11.744 10.307 11.5413 10.3359 11.3292C10.3648 11.117 10.3445 10.9011 10.2765 10.698C10.2085 10.495 10.0948 10.3103 9.94395 10.1583C9.79315 10.0063 9.60938 9.8911 9.40689 9.82154C9.20439 9.75197 8.9886 9.72996 8.77622 9.75719C8.56385 9.78442 8.3606 9.86018 8.18221 9.97858C8.00381 10.097 7.85507 10.2549 7.7475 10.44C7.69436 10.5299 7.65159 10.6255 7.62 10.725C7.56033 10.915 7.42763 11.0734 7.25112 11.1656C7.0746 11.2577 6.86871 11.2759 6.67875 11.2162C6.48879 11.1566 6.33031 11.0239 6.23819 10.8474C6.14606 10.6708 6.12783 10.465 6.1875 10.275C6.25496 10.0716 6.34292 9.87561 6.45 9.69C6.76362 9.15342 7.24085 8.73139 7.81176 8.48575C8.38267 8.24011 9.01725 8.18378 9.6225 8.325C10.1447 8.44649 10.6224 8.71183 11.0016 9.09094C11.3807 9.47006 11.646 9.94779 11.7675 10.47C11.9106 11.0772 11.8544 11.7143 11.6072 12.287C11.36 12.8597 10.9349 13.3376 10.395 13.65Z" fill="#01AA89"/>
<path d="M24 2.25V13.5C23.9988 13.9651 23.8541 14.4186 23.5856 14.7984C23.3172 15.1783 22.938 15.4661 22.5 15.6225V18C22.4993 18.1413 22.4588 18.2795 22.3832 18.3989C22.3076 18.5183 22.1999 18.614 22.0725 18.675C21.9728 18.7262 21.862 18.7519 21.75 18.75C21.5804 18.7514 21.4158 18.693 21.285 18.585L19.5 17.16V7.5C19.4996 6.50555 19.1044 5.55193 18.4013 4.84874C17.6981 4.14556 16.7445 3.75036 15.75 3.75H6V2.25C6.00174 1.6538 6.23935 1.08251 6.66093 0.660933C7.08251 0.239353 7.6538 0.00174121 8.25 0L21.75 0C22.3462 0.00174121 22.9175 0.239353 23.3391 0.660933C23.7606 1.08251 23.9983 1.6538 24 2.25Z" fill="#01AA89"/>
</svg>
