<svg width="24" height="24" viewBox="0 0 24 24" fill="none" xmlns="http://www.w3.org/2000/svg">
<g clip-path="url(#clip0_503_20450)">
<path d="M13.0624 0C5.84326 0 0 5.84228 0 13.0624C0 13.4511 0.315094 13.7662 0.703783 13.7662H13.0624C13.4511 13.7662 13.7662 13.4511 13.7662 13.0624V0.703783C13.7662 0.315094 13.4511 0 13.0624 0Z" fill="#01AA89"/>
<path d="M8.05545 15.8012C7.93198 15.5757 7.6953 15.4355 7.43824 15.4355H3.27601C3.052 15.4355 2.84129 15.5422 2.70873 15.7228C2.57612 15.9035 2.5375 16.1364 2.60458 16.3501C3.82719 20.2442 7.17467 23.2169 11.3006 23.8821C11.8702 23.9739 12.3588 23.5124 12.3588 22.9355V19.6085C12.3588 19.1038 11.9791 18.6874 11.4938 18.5487C10.0475 18.1353 8.79937 17.1593 8.05545 15.8012Z" fill="#01AA89"/>
<path d="M16.3501 2.60453C16.1364 2.5375 15.9034 2.57618 15.7228 2.70869C15.5422 2.8413 15.4355 3.05196 15.4355 3.27602V7.4382C15.4355 7.69522 15.5757 7.93184 15.8012 8.05536C17.1592 8.79936 18.1352 10.0474 18.5487 11.4937C18.6874 11.979 19.1038 12.3587 19.6084 12.3587H22.9355C23.5124 12.3587 23.9739 11.8701 23.8821 11.3005C23.2158 7.16673 20.2356 3.82449 16.3501 2.60453Z" fill="#01AA89"/>
<path d="M19.609 13.7656C19.1041 13.7656 18.6877 14.1459 18.5487 14.6313C18.0082 16.5183 16.5183 18.0082 14.6313 18.5487C14.1459 18.6877 13.7656 19.1041 13.7656 19.609V22.934C13.7656 23.511 14.2541 23.9725 14.8238 23.8808C19.4654 23.1329 23.1323 19.4706 23.8808 14.8238C23.9725 14.2541 23.511 13.7656 22.934 13.7656H19.609Z" fill="#01AA89"/>
</g>
<defs>
<clipPath id="clip0_503_20450">
<rect width="24" height="24" fill="white"/>
</clipPath>
</defs>
</svg>
