<svg width="18" height="18" viewBox="0 0 18 18" fill="none" xmlns="http://www.w3.org/2000/svg">
<path d="M8.15113 4.51893V13.6421C8.15113 14.22 7.81671 14.3583 7.4084 13.95L4.66671 11.2064H2.79282C2.51457 11.2057 2.24791 11.0949 2.05107 10.8982C1.85423 10.7015 1.74319 10.435 1.74219 10.1567V8.0043C1.74319 7.72605 1.85423 7.4595 2.05107 7.26283C2.24791 7.06617 2.51457 6.95537 2.79282 6.95462H4.66577L7.4084 4.21104C7.81671 3.80367 8.15113 3.94104 8.15113 4.51893ZM10.1179 11.5996C10.1869 11.5996 10.2552 11.5859 10.319 11.5594C10.3827 11.5329 10.4406 11.4941 10.4892 11.4451C11.1164 10.818 11.4687 9.96741 11.4687 9.08051C11.4687 8.19361 11.1164 7.34303 10.4892 6.71588C10.4405 6.66711 10.3826 6.62843 10.3189 6.60203C10.2551 6.57564 10.1868 6.56205 10.1179 6.56205C10.0489 6.56205 9.98061 6.57564 9.91689 6.60203C9.85317 6.62843 9.79527 6.66711 9.7465 6.71588C9.69773 6.76465 9.65905 6.82255 9.63265 6.88627C9.60626 6.94999 9.59268 7.01828 9.59268 7.08725C9.59268 7.15622 9.60626 7.22451 9.63265 7.28823C9.65905 7.35195 9.69773 7.40985 9.7465 7.45862C10.1767 7.88892 10.4184 8.47249 10.4184 9.08099C10.4184 9.68948 10.1767 10.2731 9.7465 10.7034C9.673 10.7768 9.62294 10.8703 9.60264 10.9722C9.58235 11.0741 9.59275 11.1797 9.63251 11.2756C9.67228 11.3716 9.73962 11.4536 9.82602 11.5113C9.91243 11.5689 10.014 11.5997 10.1179 11.5996ZM12.1869 13.1428C12.7208 12.6097 13.1444 11.9765 13.4334 11.2796C13.7224 10.5826 13.8711 9.8355 13.8711 9.08099C13.8711 8.32648 13.7224 7.57937 13.4334 6.8824C13.1444 6.18543 12.7208 5.55227 12.1869 5.01914C12.0886 4.92065 11.9551 4.86527 11.8159 4.86518C11.6767 4.86509 11.5432 4.9203 11.4447 5.01867C11.3462 5.11704 11.2908 5.2505 11.2907 5.3897C11.2906 5.52891 11.3458 5.66244 11.4442 5.76093C11.8802 6.19684 12.226 6.71436 12.462 7.28394C12.6979 7.85352 12.8194 8.46399 12.8194 9.08051C12.8194 9.69703 12.6979 10.3075 12.462 10.8771C12.226 11.4467 11.8802 11.9642 11.4442 12.4001C11.3954 12.4489 11.3567 12.5068 11.3303 12.5705C11.3039 12.6342 11.2904 12.7025 11.2904 12.7715C11.2904 12.8404 11.3039 12.9087 11.3303 12.9724C11.3567 13.0362 11.3954 13.0941 11.4442 13.1428C11.493 13.1916 11.5509 13.2303 11.6146 13.2567C11.6783 13.2831 11.7466 13.2967 11.8156 13.2967C11.8845 13.2967 11.9528 13.2831 12.0165 13.2567C12.0803 13.2303 12.1382 13.1916 12.1869 13.1428ZM13.8827 14.8386C14.6397 14.0828 15.2402 13.1851 15.6499 12.197C16.0596 11.2089 16.2705 10.1497 16.2705 9.08004C16.2705 8.01035 16.0596 6.95116 15.6499 5.96304C15.2402 4.97493 14.6397 4.07729 13.8827 3.32146C13.7842 3.22309 13.6507 3.16788 13.5115 3.16797C13.3723 3.16806 13.2388 3.22344 13.1405 3.32193C13.0421 3.42043 12.9869 3.55396 12.987 3.69316C12.987 3.83236 13.0424 3.96583 13.1409 4.0642C13.8005 4.72249 14.3238 5.50439 14.6808 6.36516C15.0378 7.22592 15.2216 8.14864 15.2216 9.08051C15.2216 10.0124 15.0378 10.9351 14.6808 11.7959C14.3238 12.6566 13.8005 13.4385 13.1409 14.0968C13.0922 14.1456 13.0535 14.2035 13.0271 14.2672C13.0007 14.3309 12.9871 14.3992 12.9871 14.4682C12.9871 14.5372 13.0007 14.6055 13.0271 14.6692C13.0535 14.7329 13.0922 14.7908 13.1409 14.8396C13.1897 14.8883 13.2476 14.927 13.3113 14.9534C13.375 14.9798 13.4433 14.9934 13.5123 14.9934C13.5813 14.9934 13.6496 14.9798 13.7133 14.9534C13.777 14.927 13.8349 14.8883 13.8837 14.8396L13.8827 14.8386Z" fill="#00010D"/>
</svg>
