<svg width="24" height="24" viewBox="0 0 24 24" fill="none" xmlns="http://www.w3.org/2000/svg">
<path fill-rule="evenodd" clip-rule="evenodd" d="M19.8467 9.53975C19.8467 8.8639 19.578 8.21412 19.0994 7.73558C18.6209 7.25704 17.9711 6.98828 17.2953 6.98828C13.8343 6.98828 6.01322 6.98828 2.55342 6.98828C1.87643 6.98828 1.22779 7.25704 0.749251 7.73558C0.270708 8.21412 0.00195312 8.8639 0.00195312 9.53975V18.6117C0.00195312 19.2886 0.270708 19.9373 0.749251 20.4158C1.22779 20.8944 1.87643 21.1631 2.55342 21.1631H17.2953C17.9711 21.1631 18.6209 20.8944 19.0994 20.4158C19.578 19.9373 19.8467 19.2886 19.8467 18.6117V9.53975ZM10.7748 10.9572V10.6737C10.7748 10.2054 10.3927 9.82325 9.92434 9.82325C9.45487 9.82325 9.07385 10.2054 9.07385 10.6737V11.0582C8.78242 11.1546 8.5148 11.3178 8.29367 11.539C7.92172 11.9109 7.71307 12.4155 7.71307 12.9417C7.71307 13.469 7.92172 13.9736 8.29367 14.3456C8.66562 14.7175 9.17024 14.9262 9.69755 14.9262H10.1511C10.226 14.9262 10.2974 14.9568 10.3507 15.0101C10.404 15.0634 10.4346 15.1348 10.4346 15.2097C10.4346 15.2857 10.404 15.3571 10.3507 15.4104C10.2974 15.4637 10.226 15.4932 10.1511 15.4932H8.56356C8.09409 15.4932 7.71307 15.8753 7.71307 16.3437C7.71307 16.8131 8.09409 17.1942 8.56356 17.1942H9.07385V17.4777C9.07385 17.9471 9.45487 18.3282 9.92434 18.3282C10.3927 18.3282 10.7748 17.9471 10.7748 17.4777V17.0944C11.0651 16.998 11.3328 16.8347 11.5539 16.6136C11.9258 16.2416 12.1356 15.737 12.1356 15.2097C12.1356 14.6835 11.9258 14.1789 11.5539 13.8069C11.1819 13.435 10.6773 13.2252 10.1511 13.2252H9.69755C9.62157 13.2252 9.55013 13.1957 9.49683 13.1424C9.44353 13.0891 9.41405 13.0177 9.41405 12.9417C9.41405 12.8669 9.44353 12.7954 9.49683 12.7421C9.55013 12.6888 9.62157 12.6582 9.69755 12.6582H11.2851C11.7535 12.6582 12.1356 12.2772 12.1356 11.8077C12.1356 11.3394 11.7535 10.9572 11.2851 10.9572H10.7748Z" fill="#01AA89"/>
<path fill-rule="evenodd" clip-rule="evenodd" d="M7.49414 5.85499H17.2941C18.2716 5.85499 19.2082 6.24395 19.9 6.93455C20.5906 7.62628 20.9795 8.56409 20.9795 9.54045V16.917L22.1078 16.6143C22.761 16.4396 23.3189 16.0121 23.6569 15.4258C23.9948 14.8396 24.0866 14.1433 23.912 13.4901C23.2951 11.1881 22.1804 7.02867 21.5635 4.72667C21.3889 4.0735 20.9614 3.51558 20.3751 3.17765C19.7888 2.83972 19.0926 2.74787 18.4394 2.9225L7.49414 5.85499Z" fill="#01AA89"/>
</svg>
