<svg width="18" height="18" viewBox="0 0 18 18" fill="none" xmlns="http://www.w3.org/2000/svg">
<path d="M0.829167 7.79135L0.854167 12.6869L2.4125 12.7035L3.97083 12.7202L4.35417 12.204L4.7375 11.6878L3.3375 11.6462L1.9375 11.6045L1.9125 7.79135L1.89583 3.98648H9.22917H16.5625L16.5458 7.79135L16.5208 11.6045L15.0875 11.6295L13.6458 11.6462L14.0708 12.1873L14.4958 12.7285L16.0542 12.7119L17.6042 12.6869L17.6292 7.79135L17.6458 2.90413H9.22917H0.8125L0.829167 7.79135Z" fill="#00010D"/>
<path d="M8.91562 7.70795C8.78229 7.8828 8.11562 8.757 7.43229 9.64785C6.74896 10.5387 5.90729 11.646 5.55729 12.104C4.14062 13.9606 3.64062 14.6267 3.64062 14.6766C3.64062 14.7016 6.14896 14.7266 9.22396 14.7266C12.299 14.7266 14.8073 14.7016 14.8073 14.66C14.799 14.6267 14.1573 13.7691 13.3656 12.7617C12.574 11.7459 11.3156 10.1224 10.5656 9.15664C9.82396 8.19085 9.19896 7.3999 9.19062 7.3999C9.17396 7.3999 9.05729 7.54144 8.91562 7.70795Z" fill="#00010D"/>
</svg>
