<svg width="24" height="24" viewBox="0 0 24 24" fill="none" xmlns="http://www.w3.org/2000/svg">
<g clip-path="url(#clip0_503_20446)">
<path d="M19.5728 13.6691C15.8966 13.8125 12.4161 14.7684 9.31497 16.3527L5.32736 18.6552C4.27278 19.2633 2.92599 18.8984 2.32077 17.8492L0.29421 14.3401C-0.312308 13.2891 0.0492028 11.9401 1.10023 11.3335L4.40398 9.42583C4.59529 9.31538 4.83994 9.38088 4.95045 9.57223L7.54642 14.0686C7.65882 14.2633 7.91013 14.3279 8.10304 14.209C8.28959 14.094 8.34054 13.8441 8.23094 13.6543L5.61622 9.12537C5.51236 8.94546 5.56336 8.71581 5.73412 8.59745C8.46155 6.7065 10.769 4.29808 12.5411 1.48925C13.2124 0.424266 14.7767 0.452767 15.4077 1.54525L20.9573 11.1585C21.588 12.2487 20.8329 13.6201 19.5728 13.6691ZM20.2849 6.97381C20.4904 5.79787 19.8011 4.61844 18.6871 4.21473C18.337 4.08782 18.0193 4.46888 18.2055 4.79144C18.6487 5.55932 19.0935 6.32984 19.5433 7.10856C19.7312 7.43382 20.2202 7.34387 20.2849 6.97381ZM11.051 21.1278L9.15277 17.8326C9.04247 17.6411 8.79751 17.5754 8.60605 17.6859C7.57727 18.2794 7.53837 18.3025 6.16608 19.0946C5.97473 19.2051 5.90892 19.4499 6.01943 19.6412L7.92093 22.9344C8.16469 23.3561 8.60305 23.5854 9.04947 23.5854C9.48248 23.5854 9.64808 23.4389 10.575 22.9039C11.196 22.5454 11.4095 21.7483 11.051 21.1278ZM23.2056 3.93232C23.3969 3.82187 23.4625 3.57721 23.352 3.3859C23.2416 3.19465 22.997 3.12899 22.8056 3.2395L21.7706 3.83707C21.4164 4.04157 21.5645 4.58359 21.971 4.58359C22.1132 4.58354 22.0847 4.57944 23.2056 3.93232ZM19.5274 1.85951L19.7798 0.91768C19.837 0.704274 19.7103 0.484968 19.497 0.427766C19.2834 0.370664 19.0642 0.497218 19.007 0.710624L18.7546 1.65245C18.6866 1.90606 18.8778 2.15612 19.1412 2.15612C19.3178 2.15607 19.4795 2.03821 19.5274 1.85951ZM23.9863 8.20354C24.0435 7.99014 23.9168 7.77078 23.7034 7.71363L22.7616 7.46127C22.5482 7.40422 22.3289 7.53077 22.2717 7.74413C22.2145 7.95749 22.3412 8.17684 22.5545 8.23404C23.5846 8.51005 23.528 8.50015 23.6001 8.50015C23.7767 8.50015 23.9384 8.38225 23.9863 8.20354Z" fill="#01AA89"/>
</g>
<defs>
<clipPath id="clip0_503_20446">
<rect width="24" height="24" fill="white"/>
</clipPath>
</defs>
</svg>
