<svg width="24" height="24" viewBox="0 0 24 24" fill="none" xmlns="http://www.w3.org/2000/svg">
<g clip-path="url(#clip0_503_20480)">
<path d="M15.9175 4.09958C15.376 3.99055 14.9238 4.449 14.9238 5.00128V5.00128C14.9238 5.55357 15.3839 5.98552 15.9054 6.16746C16.7697 6.469 17.4571 7.15649 17.7586 8.02079C17.9406 8.54226 18.3725 9.00236 18.9248 9.00236V9.00236C19.4771 9.00236 19.9355 8.55015 19.8265 8.00873C19.4307 6.04306 17.8831 4.49546 15.9175 4.09958Z" fill="#01AA89"/>
<path d="M15.9222 0.0549989C15.3733 -0.00584267 14.9238 0.447973 14.9238 1.00026V1.00026C14.9238 1.55254 15.3741 1.99301 15.9208 2.07115C18.9873 2.50939 21.4167 4.9388 21.8549 8.0054C21.933 8.55214 22.3735 9.00242 22.9258 9.00242V9.00242C23.4781 9.00242 23.9319 8.55296 23.871 8.00404C23.4091 3.83607 20.09 0.516952 15.9222 0.0549989Z" fill="#01AA89"/>
<path d="M4.72112 5.18905C4.33353 4.80157 3.6959 4.80157 3.30831 5.18905C-0.992786 9.47772 -1.01785 16.4421 3.27081 20.7557C7.55938 25.0693 14.5238 25.0818 18.8374 20.7933C18.8498 20.7807 18.8624 20.7683 18.8749 20.7557C19.2625 20.3682 19.2625 19.7304 18.8749 19.3428L4.72112 5.18905ZM12.1731 20.8807C11.623 20.8807 11.1728 20.4306 11.1728 19.8805C11.1728 19.3303 11.623 18.8802 12.1731 18.8802C12.7233 18.8802 13.1734 19.3303 13.1734 19.8805C13.1734 20.4306 12.7232 20.8807 12.1731 20.8807Z" fill="#01AA89"/>
<path d="M16.1619 9.01456C16.2494 8.3645 15.6743 7.80186 15.024 7.87685L9.91016 8.602L15.4242 14.1159L16.1619 9.01456Z" fill="#01AA89"/>
</g>
<defs>
<clipPath id="clip0_503_20480">
<rect width="24" height="24" fill="white"/>
</clipPath>
</defs>
</svg>
