<svg width="24" height="24" viewBox="0 0 24 24" fill="none" xmlns="http://www.w3.org/2000/svg">
<g clip-path="url(#clip0_540_8102)">
<path fill-rule="evenodd" clip-rule="evenodd" d="M20.0644 14.521C19.552 15.0159 19.3192 15.729 19.4392 16.4284L20.2132 20.9039C20.4544 22.297 19.3384 23.4284 18.0724 23.4284C17.7388 23.4284 17.3944 23.3496 17.0608 23.1759L13.0108 21.0627C12.694 20.8981 12.3472 20.8159 11.9992 20.8159C11.6524 20.8159 11.3056 20.8981 10.9888 21.0627L6.93883 23.1759C6.60523 23.3496 6.26082 23.4284 5.92722 23.4284C4.66122 23.4284 3.54523 22.297 3.78643 20.9039L4.56043 16.4284C4.68043 15.729 4.44762 15.0159 3.93522 14.521L0.658021 11.3519C-0.63078 10.105 0.0808239 7.93244 1.86162 7.67529L6.39042 7.02272C7.09843 6.92101 7.71043 6.47987 8.02603 5.8433L10.0516 1.77243C10.45 0.971283 11.2252 0.571289 11.9992 0.571289C12.7744 0.571289 13.5496 0.971283 13.948 1.77243L15.9736 5.8433C16.2892 6.47987 16.9012 6.92101 17.6092 7.02272L22.138 7.67529C23.9188 7.93244 24.6304 10.105 23.3416 11.3519L20.0644 14.521Z" fill="#01AA89"/>
</g>
<defs>
<clipPath id="clip0_540_8102">
<rect width="24" height="24" fill="white"/>
</clipPath>
</defs>
</svg>
