<svg width="16" height="8" viewBox="0 0 16 8" fill="none" xmlns="http://www.w3.org/2000/svg">
<path d="M12.25 0.25C11.1956 0.25 10.2431 0.685 9.56188 1.38531L8.65375 2.31875L9.63562 3.32781L10.5706 2.36656C10.9966 1.92875 11.5922 1.65625 12.25 1.65625C13.5422 1.65625 14.5938 2.70781 14.5938 4.00031C14.5938 5.2925 13.5422 6.34406 12.25 6.34406C11.5922 6.34406 10.9966 6.07156 10.5706 5.63344C6.89762 1.85769 6.44356 1.39091 6.43813 1.38531C5.75688 0.685 4.80438 0.25 3.75 0.25C1.67906 0.25 0 1.92906 0 4.00031C0 6.07125 1.67906 7.75031 3.75 7.75031C4.80438 7.75031 5.75688 7.31531 6.43813 6.615L7.34625 5.68156L6.36438 4.6725L5.42938 5.63344C5.00344 6.07156 4.40781 6.34406 3.75 6.34406C2.45781 6.34406 1.40625 5.2925 1.40625 4.00031C1.40625 2.70781 2.45781 1.65625 3.75 1.65625C4.40781 1.65625 5.00344 1.92875 5.42938 2.36656C5.59034 2.53206 9.52325 6.57531 9.56188 6.615C10.2431 7.31531 11.1956 7.75031 12.25 7.75031C14.3209 7.75031 16 6.07125 16 4.00031C16 1.92906 14.3209 0.25 12.25 0.25Z" fill="#00010D"/>
</svg>
