<svg width="24" height="24" viewBox="0 0 24 24" fill="none" xmlns="http://www.w3.org/2000/svg">
<path d="M16.7703 1.5H7.23031C6.17545 1.5 5.32031 2.35514 5.32031 3.41V20.59C5.32031 21.6449 6.17545 22.5 7.23031 22.5H16.7703C17.8252 22.5 18.6803 21.6449 18.6803 20.59V3.41C18.6803 2.35514 17.8252 1.5 16.7703 1.5Z" stroke="white" stroke-miterlimit="10"/>
<path d="M13.9125 2.44922H10.0925C9.96305 2.45086 9.83461 2.42573 9.71529 2.37539C9.59596 2.32506 9.48832 2.25061 9.39913 2.15672C9.30993 2.06283 9.24109 1.95152 9.19694 1.82977C9.15279 1.70802 9.13427 1.57846 9.14255 1.44922H14.8625C14.8708 1.57846 14.8523 1.70802 14.8082 1.82977C14.764 1.95152 14.6952 2.06283 14.606 2.15672C14.5168 2.25061 14.4091 2.32506 14.2898 2.37539C14.1705 2.42573 14.042 2.45086 13.9125 2.44922Z" stroke="white" stroke-miterlimit="10"/>
<path d="M11.0469 19.6406H12.9469" stroke="white" stroke-miterlimit="10"/>
</svg>
