<svg width="16" height="15" viewBox="0 0 16 15" fill="none" xmlns="http://www.w3.org/2000/svg">
<path d="M14.0147 0.25H1.98282C1.67738 0.250241 1.37857 0.339134 1.12266 0.505891C0.866751 0.672649 0.664747 0.910101 0.541164 1.18943C0.417581 1.46876 0.377731 1.77795 0.426452 2.07949C0.475173 2.38102 0.61037 2.66193 0.815633 2.88812L6.03001 8.62281V14.0313C6.03005 14.137 6.05989 14.2405 6.1161 14.3301C6.17232 14.4196 6.25262 14.4915 6.34782 14.5375C6.4239 14.575 6.50768 14.5943 6.59251 14.5938C6.72035 14.5937 6.84435 14.55 6.94407 14.47L7.99876 13.6263L9.75657 12.22C9.82235 12.1673 9.87545 12.1006 9.91196 12.0246C9.94847 11.9487 9.96745 11.8655 9.96751 11.7813V8.62281L15.1819 2.88812C15.3871 2.66193 15.5223 2.38102 15.5711 2.07949C15.6198 1.77795 15.5799 1.46876 15.4564 1.18943C15.3328 0.910101 15.1308 0.672649 14.8749 0.505891C14.6189 0.339134 14.3201 0.250241 14.0147 0.25Z" fill="#01AA89"/>
</svg>
