<svg width="16" height="16" viewBox="0 0 16 16" fill="none" xmlns="http://www.w3.org/2000/svg">
<path d="M15.3997 9.08196C15.2406 9.04218 15.0814 9.08196 14.9422 9.18142C14.425 9.61903 13.8283 9.97707 13.1719 10.2158C12.5552 10.4545 11.8789 10.5738 11.1629 10.5738C9.55166 10.5738 8.07971 9.9174 7.02547 8.86316C5.97123 7.80892 5.31482 6.33697 5.31482 4.72577C5.31482 4.04947 5.43417 3.39306 5.63308 2.79632C5.85189 2.1598 6.17015 1.58295 6.58786 1.08567C6.76689 0.866866 6.7271 0.548605 6.5083 0.369584C6.36906 0.270128 6.20993 0.230345 6.0508 0.270128C4.36004 0.727627 2.88809 1.74208 1.83385 3.09469C0.819395 4.4274 0.222656 6.07838 0.222656 7.8686C0.222656 10.0367 1.09787 12.006 2.53004 13.4382C3.96222 14.8703 5.91156 15.7455 8.0996 15.7455C9.9296 15.7455 11.6204 15.109 12.973 14.0548C14.3455 12.9807 15.34 11.449 15.7577 9.69859C15.8373 9.42011 15.6782 9.14164 15.3997 9.08196Z" fill="#353C4D"/>
</svg>
