<svg width="24" height="24" viewBox="0 0 24 24" fill="none" xmlns="http://www.w3.org/2000/svg">
<path d="M22.3788 3.02824V3H2.20002V3.02824C1.89199 3.05837 1.60396 3.19448 1.38511 3.41333C1.16626 3.63218 1.03015 3.9202 1.00002 4.22824V17.4894C0.99874 17.7227 1.06053 17.9519 1.17884 18.1529C1.2858 18.3632 1.45084 18.5384 1.65436 18.6576C1.85789 18.7769 2.09136 18.8353 2.32708 18.8259H9.59296V20.6612H8.20943C8.05705 20.6746 7.91522 20.7446 7.8119 20.8574C7.70858 20.9702 7.65127 21.1176 7.65127 21.2706C7.65127 21.4236 7.70858 21.571 7.8119 21.6838C7.91522 21.7966 8.05705 21.8666 8.20943 21.88H16.3694C16.454 21.8874 16.5391 21.8772 16.6195 21.85C16.6998 21.8227 16.7737 21.779 16.8362 21.7217C16.8988 21.6644 16.9488 21.5947 16.983 21.517C17.0171 21.4394 17.0348 21.3554 17.0348 21.2706C17.0348 21.1857 17.0171 21.1018 16.983 21.0241C16.9488 20.9465 16.8988 20.8768 16.8362 20.8195C16.7737 20.7621 16.6998 20.7185 16.6195 20.6912C16.5391 20.664 16.454 20.6537 16.3694 20.6612H14.9859V18.8259H22.2659C22.5023 18.8356 22.7365 18.7775 22.9409 18.6582C23.1452 18.5389 23.3111 18.3636 23.4188 18.1529C23.5372 17.9514 23.602 17.723 23.6071 17.4894V4.22824C23.5707 3.91781 23.4289 3.62927 23.2053 3.41085C22.9818 3.19243 22.69 3.05737 22.3788 3.02824ZM22.3788 4.33176V17.4894C22.3788 17.5647 22.3459 17.5976 22.2659 17.5976H2.30825C2.23296 17.5976 2.20002 17.5647 2.20002 17.4894V4.22824H22.3788V4.33647V4.33176Z" fill="white"/>
</svg>
