<svg width="9" height="14" viewBox="0 0 9 14" fill="none" xmlns="http://www.w3.org/2000/svg">
<path d="M7.44239 0H1.55201C0.988272 0 0.533203 0.457109 0.533203 1.01982V12.9812C0.533203 13.5434 0.988272 14 1.55201 14H7.44239C8.00511 14 8.4612 13.5434 8.4612 12.9812V1.01982C8.4612 0.457109 8.00511 0 7.44239 0ZM3.04373 0.619343H5.95169C6.02515 0.619343 6.08484 0.729029 6.08484 0.864733C6.08484 1.00044 6.02515 1.11063 5.95169 1.11063H3.04373C2.96976 1.11063 2.91109 1.00044 2.91109 0.864733C2.91109 0.729029 2.96976 0.619343 3.04373 0.619343ZM4.49771 12.9934C4.13906 12.9934 3.84725 12.7016 3.84725 12.3425C3.84725 11.9833 4.13906 11.6925 4.49771 11.6925C4.85534 11.6925 5.14715 11.9833 5.14715 12.3425C5.14715 12.7016 4.85534 12.9934 4.49771 12.9934ZM7.69799 10.7645H1.29692V1.72079H7.69799V10.7645Z" fill="white"/>
</svg>
