<svg width="20" height="20" viewBox="0 0 20 20" fill="none" xmlns="http://www.w3.org/2000/svg">
<path d="M17.0712 2.92876C13.1662 -0.976253 6.83377 -0.976253 2.92876 2.92876C-0.976253 6.83377 -0.976253 13.1662 2.92876 17.0712C6.83377 20.9763 13.1662 20.9763 17.0712 17.0712C20.9763 13.1662 20.9763 6.83377 17.0712 2.92876ZM14.3694 10.6121L11.2454 12.4063L8.1847 14.1794C8.07916 14.2639 7.9314 14.3061 7.78364 14.3061C7.38259 14.3061 7.06596 13.9894 7.06596 13.5884V10V6.3905C7.06596 6.26385 7.08707 6.15831 7.1504 6.03166C7.34037 5.69393 7.78364 5.56728 8.12137 5.77836L11.2032 7.55145C11.2243 7.55145 11.2243 7.57256 11.2454 7.57256L14.3694 9.36675C14.4749 9.43008 14.5594 9.51451 14.6438 9.62005C14.8338 9.97889 14.7071 10.4222 14.3694 10.6121Z" fill="#01AA89"/>
</svg>
