<svg width="24" height="24" viewBox="0 0 24 24" fill="none" xmlns="http://www.w3.org/2000/svg">
<path d="M7.6 7.6V4.52C7.6 3.28789 7.6 2.67182 7.83979 2.20122C8.0507 1.78726 8.38726 1.4507 8.80122 1.23979C9.27182 1 9.88789 1 11.12 1H19.48C20.7121 1 21.3282 1 21.7988 1.23979C22.2127 1.4507 22.5493 1.78726 22.7602 2.20122C23 2.67182 23 3.28789 23 4.52V12.88C23 14.1121 23 14.7282 22.7602 15.1988C22.5493 15.6127 22.2127 15.9493 21.7988 16.1602C21.3282 16.4 20.7121 16.4 19.48 16.4H16.4M4.52 23H12.88C14.1121 23 14.7282 23 15.1988 22.7602C15.6127 22.5493 15.9493 22.2127 16.1602 21.7988C16.4 21.3282 16.4 20.7121 16.4 19.48V11.12C16.4 9.88789 16.4 9.27182 16.1602 8.80122C15.9493 8.38726 15.6127 8.0507 15.1988 7.83979C14.7282 7.6 14.1121 7.6 12.88 7.6H4.52C3.28789 7.6 2.67182 7.6 2.20122 7.83979C1.78726 8.0507 1.4507 8.38726 1.23979 8.80122C1 9.27182 1 9.88789 1 11.12V19.48C1 20.7121 1 21.3282 1.23979 21.7988C1.4507 22.2127 1.78726 22.5493 2.20122 22.7602C2.67182 23 3.28788 23 4.52 23Z" stroke="white" stroke-width="2" stroke-linecap="round" stroke-linejoin="round"/>
</svg>
