<svg width="18" height="18" viewBox="0 0 18 18" fill="none" xmlns="http://www.w3.org/2000/svg">
<g clip-path="url(#clip0_436_7148)">
<path d="M15.75 14.0625C15.4902 14.0625 15.2468 14.1262 15.0271 14.2317L13.3522 12.5563C14.1465 11.5862 14.625 10.3475 14.625 9C14.625 7.65253 14.1465 6.41382 13.3522 5.44373L15.0271 3.76831C15.2468 3.87378 15.4902 3.9375 15.75 3.9375C16.6805 3.9375 17.4375 3.18054 17.4375 2.25C17.4375 1.31946 16.6805 0.5625 15.75 0.5625C14.8195 0.5625 14.0625 1.31946 14.0625 2.25C14.0625 2.50983 14.1262 2.7529 14.2317 2.9729L12.5568 4.64804C11.5862 3.85345 10.348 3.375 9 3.375C7.65198 3.375 6.41382 3.85345 5.44318 4.64804L3.76831 2.9729C3.87378 2.75317 3.9375 2.50983 3.9375 2.25C3.9375 1.31946 3.18054 0.5625 2.25 0.5625C1.31946 0.5625 0.5625 1.31946 0.5625 2.25C0.5625 3.18054 1.31946 3.9375 2.25 3.9375C2.50983 3.9375 2.75317 3.87378 2.9729 3.76831L4.64777 5.44373C3.85345 6.41382 3.375 7.65253 3.375 9C3.375 10.3475 3.85345 11.5862 4.64777 12.5563L2.9729 14.2317C2.75317 14.1262 2.50983 14.0625 2.25 14.0625C1.31946 14.0625 0.5625 14.8195 0.5625 15.75C0.5625 16.6805 1.31946 17.4375 2.25 17.4375C3.18054 17.4375 3.9375 16.6805 3.9375 15.75C3.9375 15.4902 3.87378 15.2468 3.76831 15.0271L5.44318 13.352C6.41382 14.1465 7.65198 14.625 9 14.625C10.348 14.625 11.5862 14.1465 12.5568 13.352L14.2317 15.0271C14.1262 15.2468 14.0625 15.4902 14.0625 15.75C14.0625 16.6805 14.8195 17.4375 15.75 17.4375C16.6805 17.4375 17.4375 16.6805 17.4375 15.75C17.4375 14.8195 16.6805 14.0625 15.75 14.0625ZM9 5.0625C9.92834 5.0625 10.6875 5.82193 10.6875 6.75C10.6875 7.67807 9.92834 8.4375 9 8.4375C8.07166 8.4375 7.3125 7.67807 7.3125 6.75C7.3125 5.82193 8.07166 5.0625 9 5.0625ZM11.25 11.9193C11.25 12.1163 11.1429 12.3019 10.9742 12.403C10.3837 12.7518 9.70312 12.9375 9 12.9375C8.29688 12.9375 7.61627 12.7518 7.02576 12.403C6.85712 12.3019 6.75 12.1163 6.75 11.9193V11.25C6.75 10.0069 7.7569 9 9 9C10.2431 9 11.25 10.0069 11.25 11.25V11.9193Z" fill="#01AA89"/>
</g>
<defs>
<clipPath id="clip0_436_7148">
<rect width="18" height="18" fill="white"/>
</clipPath>
</defs>
</svg>
