<svg width="18" height="19" viewBox="0 0 18 19" fill="none" xmlns="http://www.w3.org/2000/svg">
<path d="M10.8333 11.8338V4.50043M10.8333 11.8338L16.4268 15.0302C16.5104 15.078 16.6051 15.1031 16.7014 15.1028C16.7977 15.1026 16.8923 15.077 16.9756 15.0288C17.059 14.9805 17.1282 14.9112 17.1763 14.8278C17.2245 14.7444 17.2499 14.6498 17.25 14.5535V1.78068C17.25 1.6843 17.2247 1.5896 17.1767 1.50607C17.1286 1.42254 17.0594 1.35311 16.976 1.30474C16.8926 1.25637 16.798 1.23076 16.7016 1.23047C16.6053 1.23018 16.5105 1.25523 16.4268 1.3031L10.8333 4.50043M10.8333 11.8338H4.41667M10.8333 4.50043H4.41667C3.44421 4.50043 2.51158 4.88674 1.82394 5.57438C1.13631 6.26201 0.75 7.19464 0.75 8.1671C0.75 9.13956 1.13631 10.0722 1.82394 10.7598C2.51158 11.4475 3.44421 11.8338 4.41667 11.8338M4.41667 11.8338L5.11058 16.6921C5.18299 17.1648 5.43901 17.5898 5.823 17.8748C6.207 18.1597 6.68795 18.2817 7.16134 18.214C7.63472 18.1464 8.0623 17.8947 8.35114 17.5136C8.63998 17.1325 8.76676 16.6528 8.70392 16.1788L8.08333 11.8338H4.41667Z" stroke="#00010D"/>
</svg>
