<svg width="16" height="16" viewBox="0 0 16 16" fill="none" xmlns="http://www.w3.org/2000/svg">
<g clip-path="url(#clip0_503_21798)">
<path d="M15.4859 14.5735L11.6779 10.6129C12.657 9.44901 13.1934 7.98455 13.1934 6.45999C13.1934 2.89801 10.2954 0 6.73343 0C3.17145 0 0.273438 2.89801 0.273438 6.45999C0.273438 10.022 3.17145 12.92 6.73343 12.92C8.07065 12.92 9.34495 12.5167 10.4344 11.751L14.2714 15.7416C14.4318 15.9082 14.6475 16 14.8786 16C15.0974 16 15.305 15.9166 15.4626 15.7649C15.7974 15.4428 15.808 14.9085 15.4859 14.5735ZM6.73343 1.68522C9.3663 1.68522 11.5082 3.82713 11.5082 6.45999C11.5082 9.09286 9.3663 11.2348 6.73343 11.2348C4.10056 11.2348 1.95865 9.09286 1.95865 6.45999C1.95865 3.82713 4.10056 1.68522 6.73343 1.68522Z" fill="#01AA89"/>
</g>
<defs>
<clipPath id="clip0_503_21798">
<rect width="16" height="16" fill="white"/>
</clipPath>
</defs>
</svg>
