<svg width="24" height="24" viewBox="0 0 24 24" fill="none" xmlns="http://www.w3.org/2000/svg">
<g clip-path="url(#clip0_111_4381)">
<path d="M10.5994 9.88897C10.5994 10.3117 10.7998 10.4726 11.9998 10.7672C12.0762 10.7862 12.1553 10.8067 12.2398 10.8258C13.5598 11.1394 15.5548 11.614 15.5548 13.8122C15.5548 14.8949 15.0216 15.7212 14.0548 16.1303C13.3962 16.414 12.653 16.4644 12.0012 16.4672H11.9085C9.83845 16.4672 8.53073 14.8567 8.47618 14.7885C8.39323 14.6877 8.33116 14.5714 8.29359 14.4463C8.25602 14.3213 8.2437 14.19 8.25734 14.0601C8.27099 13.9303 8.31032 13.8044 8.37306 13.6899C8.4358 13.5754 8.52069 13.4745 8.62279 13.3932C8.72489 13.3118 8.84216 13.2515 8.96777 13.2159C9.09338 13.1802 9.22482 13.1699 9.35445 13.1856C9.48408 13.2012 9.6093 13.2425 9.72283 13.307C9.83636 13.3715 9.93592 13.4579 10.0157 13.5612C10.0157 13.5612 10.8012 14.4626 11.9085 14.4981H11.9998C13.2544 14.5199 13.5462 14.1326 13.5857 13.8026C13.6307 13.4099 13.3021 13.1208 11.9998 12.7867C11.9303 12.7676 11.8635 12.7499 11.7844 12.7322C10.5285 12.4444 8.63027 11.9999 8.63027 9.96942C8.63027 9.35033 8.87709 7.36351 11.9998 7.28442H12.1853C14.2675 7.28442 15.4962 8.92079 15.548 8.99442C15.7035 9.20419 15.7693 9.46713 15.731 9.72542C15.6926 9.98371 15.5532 10.2162 15.3435 10.3717C15.1337 10.5272 14.8707 10.593 14.6125 10.5547C14.3542 10.5163 14.1217 10.3769 13.9662 10.1672C13.943 10.1372 13.238 9.34897 12.1853 9.25488C12.1225 9.25488 12.0612 9.24533 11.9998 9.24397C11.2703 9.22215 10.5994 9.49761 10.5994 9.88897Z" fill="#01AA89"/>
<path d="M20.7273 0H3.27273C2.40475 0 1.57232 0.344804 0.95856 0.95856C0.344804 1.57232 0 2.40475 0 3.27273L0 20.7273C0 21.5953 0.344804 22.4277 0.95856 23.0414C1.57232 23.6552 2.40475 24 3.27273 24H20.7273C21.5953 24 22.4277 23.6552 23.0414 23.0414C23.6552 22.4277 24 21.5953 24 20.7273V3.27273C24 2.40475 23.6552 1.57232 23.0414 0.95856C22.4277 0.344804 21.5953 0 20.7273 0ZM19.5 15.1855C19.4558 15.9634 19.1303 16.6987 18.5841 17.2544C18.038 17.8101 17.3084 18.1483 16.5314 18.2059C16.1639 18.2318 15.7948 18.1935 15.4405 18.0927C15.0492 17.9873 14.6347 18.0073 14.2555 18.15C13.2658 18.5133 12.203 18.6321 11.1576 18.4964C10.1121 18.3608 9.11492 17.9746 8.25078 17.3707C7.38664 16.7669 6.68114 15.9632 6.19429 15.0281C5.70745 14.0931 5.45367 13.0542 5.45455 12C5.46068 11.5936 5.33852 11.1957 5.10545 10.8627C4.7159 10.3247 4.5035 9.67869 4.49773 9.01444C4.49196 8.35019 4.69311 7.70062 5.07326 7.15588C5.45341 6.61114 5.99371 6.19824 6.61916 5.9745C7.24462 5.75075 7.92422 5.72726 8.56364 5.90727C8.95475 6.01317 9.36923 5.99361 9.74864 5.85136C10.738 5.48897 11.8001 5.37075 12.8449 5.50676C13.8897 5.64277 14.8863 6.02898 15.7498 6.63259C16.6134 7.23619 17.3185 8.03934 17.8052 8.9738C18.2919 9.90825 18.5459 10.9464 18.5455 12C18.5388 12.4064 18.661 12.8046 18.8945 13.1373C19.3256 13.7302 19.5394 14.4534 19.5 15.1855Z" fill="#01AA89"/>
</g>
<defs>
<clipPath id="clip0_111_4381">
<rect width="24" height="24" rx="6" fill="white"/>
</clipPath>
</defs>
</svg>
