<svg width="24" height="24" viewBox="0 0 24 24" fill="none" xmlns="http://www.w3.org/2000/svg">
<path fill-rule="evenodd" clip-rule="evenodd" d="M20.0644 14.52C19.552 15.0149 19.3192 15.728 19.4392 16.4275L20.2132 20.9029C20.4544 22.296 19.3384 23.4275 18.0724 23.4275C17.7388 23.4275 17.3944 23.3486 17.0608 23.1749L13.0108 21.0617C12.694 20.8972 12.3472 20.8149 11.9992 20.8149C11.6524 20.8149 11.3056 20.8972 10.9888 21.0617L6.93883 23.1749C6.60523 23.3486 6.26082 23.4275 5.92722 23.4275C4.66122 23.4275 3.54523 22.296 3.78643 20.9029L4.56043 16.4275C4.68043 15.728 4.44762 15.0149 3.93522 14.52L0.658021 11.3509C-0.63078 10.104 0.0808239 7.93146 1.86163 7.67432L6.39042 7.02175C7.09843 6.92003 7.71043 6.47889 8.02603 5.84232L10.0516 1.77145C10.45 0.970307 11.2252 0.570312 11.9992 0.570312C12.7744 0.570312 13.5496 0.970307 13.948 1.77145L15.9736 5.84232C16.2892 6.47889 16.9012 6.92003 17.6092 7.02175L22.138 7.67432C23.9188 7.93146 24.6304 10.104 23.3416 11.3509L20.0644 14.52Z" fill="#BDBDBD"/>
</svg>
