<svg width="16" height="16" viewBox="0 0 16 16" fill="none" xmlns="http://www.w3.org/2000/svg">
<path fill-rule="evenodd" clip-rule="evenodd" d="M13.3763 9.68066C13.0347 10.0106 12.8795 10.486 12.9595 10.9523L13.4755 13.9359C13.6363 14.8647 12.8923 15.619 12.0483 15.619C11.8259 15.619 11.5963 15.5664 11.3739 15.4506L8.67389 14.0418C8.46269 13.9321 8.23149 13.8772 7.99949 13.8772C7.76829 13.8772 7.53709 13.9321 7.32589 14.0418L4.62588 15.4506C4.40348 15.5664 4.17388 15.619 3.95148 15.619C3.10748 15.619 2.36348 14.8647 2.52428 13.9359L3.04028 10.9523C3.12028 10.486 2.96508 10.0106 2.62348 9.68066L0.43868 7.56791C-0.42052 6.73667 0.0538826 5.28829 1.24108 5.11686L4.26028 4.68182C4.73228 4.61401 5.14028 4.31991 5.35068 3.89553L6.70109 1.18162C6.96669 0.647522 7.48349 0.380859 7.99949 0.380859C8.51629 0.380859 9.03309 0.647522 9.29869 1.18162L10.6491 3.89553C10.8595 4.31991 11.2675 4.61401 11.7395 4.68182L14.7587 5.11686C15.9459 5.28829 16.4203 6.73667 15.5611 7.56791L13.3763 9.68066Z" fill="white"/>
</svg>
