<svg width="15" height="14" viewBox="0 0 15 14" fill="none" xmlns="http://www.w3.org/2000/svg">
<path d="M12.7608 0.467304C12.4491 0.15571 12.0748 0 11.6372 0H3.36439C2.92686 0 2.55234 0.15571 2.24074 0.467304C1.92922 0.778968 1.77344 1.15339 1.77344 1.59095V12.4093C1.77344 12.8469 1.92922 13.221 2.24074 13.5328C2.55234 13.8445 2.92686 14 3.36439 14H11.6372C12.0748 14 12.4491 13.8445 12.7608 13.5328C13.0724 13.221 13.2283 12.8467 13.2283 12.4093V1.59099C13.2283 1.15339 13.072 0.778863 12.7608 0.467304ZM7.94827 13.1749C7.82244 13.3008 7.67321 13.3637 7.50078 13.3637C7.32832 13.3637 7.17923 13.3008 7.05326 13.1749C6.92729 13.0488 6.86436 12.8996 6.86436 12.7275C6.86436 12.5551 6.92729 12.4057 7.05326 12.2801C7.17937 12.154 7.32846 12.0908 7.50078 12.0908C7.67318 12.0908 7.82241 12.1539 7.94827 12.2801C8.07414 12.4057 8.13731 12.5551 8.13731 12.7275C8.13731 12.8996 8.07414 13.0487 7.94827 13.1749ZM11.9554 11.1364C11.9554 11.2227 11.9237 11.2971 11.861 11.3602C11.7979 11.4234 11.7235 11.4547 11.6372 11.4547H3.36439C3.27823 11.4547 3.20366 11.4232 3.1407 11.3602C3.07773 11.2973 3.04625 11.2227 3.04625 11.1364V1.59099C3.04625 1.50479 3.0777 1.43019 3.1407 1.36726C3.2037 1.30426 3.27823 1.27281 3.36439 1.27281H11.6372C11.7235 1.27281 11.7978 1.30415 11.861 1.36726C11.9239 1.43019 11.9554 1.50479 11.9554 1.59099V11.1364Z" fill="white"/>
</svg>
