<svg width="32" height="32" viewBox="0 0 32 32" fill="none" xmlns="http://www.w3.org/2000/svg">
<path d="M30 24V26.5C30 27.879 28.878 29 27.5 29H6C3.794 29 2 27.206 2 25C2 25 2 8.015 2 8C2 5.794 3.794 4 6 4H24.5C25.329 4 26 4.672 26 5.5C26 6.328 25.329 7 24.5 7H6C5.449 7 5 7.448 5 8C5 8.552 5.449 9 6 9H27.5C28.878 9 30 10.121 30 11.5V14H25C22.243 14 20 16.243 20 19C20 21.757 22.243 24 25 24H30Z" fill="#01AA89"/>
<path d="M30 16V22H25C23.343 22 22 20.657 22 19C22 17.343 23.343 16 25 16H30Z" fill="#01AA89"/>
</svg>
