<svg width="60" height="60" viewBox="0 0 60 60" fill="none" xmlns="http://www.w3.org/2000/svg">
<path d="M30.0202 43.6796C29.7611 43.6796 29.5469 43.4699 29.5469 43.2108C29.5469 42.9518 29.752 42.7422 30.0101 42.7422H30.0202C30.1445 42.7423 30.2636 42.7917 30.3515 42.8796C30.4393 42.9674 30.4887 43.0866 30.4888 43.2108C30.4888 43.4699 30.2784 43.6796 30.0202 43.6796ZM30.0202 46.4917C29.7611 46.4917 29.5469 46.2821 29.5469 46.023C29.5469 45.764 29.752 45.5543 30.0101 45.5543H30.0202C30.1445 45.5544 30.2636 45.6038 30.3515 45.6917C30.4393 45.7796 30.4887 45.8987 30.4888 46.023C30.4888 46.2821 30.2784 46.4917 30.0202 46.4917ZM30.0202 49.3039C29.7611 49.3039 29.5469 49.0942 29.5469 48.8351C29.5469 48.576 29.752 48.3664 30.0101 48.3664H30.0202C30.2784 48.3664 30.4888 48.576 30.4888 48.8351C30.4888 49.0942 30.2784 49.3039 30.0202 49.3039Z" fill="#01AA89"/>
<path d="M49.2055 51.1788H10.7734C10.5145 51.1788 10.3047 50.9693 10.3047 50.7102V46.0379C10.3047 43.2056 11.7611 42.1245 14.4479 41.1194C15.885 40.5829 19.0779 39.3316 20.8768 38.441C20.9882 38.386 21.1169 38.3776 21.2346 38.4174C21.3524 38.4572 21.4495 38.542 21.5048 38.6533C21.5598 38.7648 21.5683 38.8935 21.5285 39.0112C21.4887 39.1289 21.4038 39.2261 21.2924 39.2812C19.4598 40.1884 16.2284 41.4553 14.7756 41.9982C12.3818 42.8926 11.2422 43.7255 11.2422 46.0379V50.2414H48.7368V46.0379C48.7368 43.7257 47.5981 42.8926 45.2034 41.9982C43.7534 41.4562 40.5257 40.1912 38.6875 39.2812C38.6323 39.254 38.583 39.2161 38.5424 39.1698C38.5018 39.1235 38.4708 39.0697 38.451 39.0113C38.4313 38.953 38.4233 38.8914 38.4274 38.8299C38.4316 38.7685 38.4478 38.7085 38.4752 38.6533C38.5887 38.4199 38.8725 38.3274 39.1032 38.441C40.9066 39.3344 44.0958 40.5839 45.5311 41.1194C48.2188 42.1245 49.6743 43.2056 49.6743 46.0379V50.7102C49.6744 50.7717 49.6624 50.8327 49.6388 50.8897C49.6153 50.9466 49.5808 50.9983 49.5372 51.0418C49.4937 51.0854 49.442 51.1199 49.3851 51.1434C49.3281 51.1669 49.2671 51.1789 49.2055 51.1788Z" fill="#01AA89"/>
<path d="M29.9907 39.9297C25.5766 39.9297 18.2734 33.1292 18.2734 25.3789C18.2734 25.1199 18.4831 24.9102 18.7422 24.9102C19.0013 24.9102 19.2109 25.1198 19.2109 25.3789C19.2109 32.3988 25.9355 38.9923 29.9908 38.9923C34.0456 38.9923 40.7702 32.3987 40.7702 25.3789C40.7702 25.1199 40.9806 24.9102 41.2388 24.9102C41.3004 24.91 41.3614 24.9221 41.4183 24.9456C41.4752 24.9691 41.5269 25.0037 41.5704 25.0472C41.614 25.0908 41.6485 25.1425 41.672 25.1994C41.6955 25.2563 41.7075 25.3173 41.7074 25.3789C41.7074 33.1292 34.4043 39.9297 29.9907 39.9297Z" fill="#01AA89"/>
<path d="M18.7467 24.9326C18.6301 24.9325 18.5176 24.8889 18.4313 24.8103C18.345 24.7318 18.291 24.624 18.2799 24.5078C17.8716 20.1463 18.8181 16.6674 21.0948 14.1678C24.4745 10.4568 30.0201 9.67773 34.0758 9.67773C36.3697 9.67773 37.9699 9.92945 38.0378 9.94047C38.1386 9.95686 38.2313 10.0056 38.302 10.0793C38.3727 10.1531 38.4174 10.2478 38.4296 10.3492C38.4412 10.4507 38.4194 10.5532 38.3675 10.6412C38.3157 10.7291 38.2365 10.7978 38.1421 10.8367C36.0148 11.7114 36.2492 13.7793 36.4376 14.5982C37.2945 14.5725 39.0906 14.7625 40.4179 16.3137C41.8606 17.999 42.2945 20.7653 41.7067 24.5364C41.6925 24.6288 41.6509 24.7148 41.5872 24.7833C41.5236 24.8517 41.4409 24.8995 41.3497 24.9204C41.2588 24.9421 41.1635 24.9358 41.0763 24.9023C40.989 24.8688 40.914 24.8096 40.861 24.7327L37.8017 20.3649C36.7269 20.8332 33.4535 22.1206 29.9708 22.1206C26.4932 22.1206 23.2572 20.8368 22.1879 20.3662L19.1305 24.7327C19.0873 24.7944 19.0299 24.8447 18.9631 24.8795C18.8963 24.9143 18.8221 24.9325 18.7467 24.9326ZM37.9626 19.3083C38.1108 19.3083 38.2573 19.3792 38.3469 19.5084L40.9338 23.2048C41.2268 20.3286 40.8149 18.2191 39.7072 16.9232C38.671 15.7149 37.2778 15.5345 36.538 15.5345C36.3109 15.5345 36.1683 15.5523 36.1537 15.5542C35.9358 15.583 35.7197 15.4548 35.6446 15.2439C35.2657 14.1518 35.0991 12.0583 36.5747 10.7191C35.7435 10.6498 34.9098 10.6151 34.0757 10.6151C30.2086 10.6151 24.9376 11.3411 21.7878 14.7991C19.9276 16.8418 19.0369 19.6282 19.1322 23.0958L21.6441 19.5084C21.775 19.3184 22.0259 19.2548 22.2337 19.356C22.2712 19.3743 26.0253 21.1831 29.9707 21.1831C33.9257 21.1831 37.721 19.3734 37.7595 19.3551C37.8228 19.3245 37.8922 19.3085 37.9626 19.3083ZM48.2884 31.4948C48.0284 31.4948 47.8143 31.2851 47.8143 31.026C47.8143 30.7669 48.0192 30.5578 48.2774 30.5578H48.2884C48.3506 30.5569 48.4123 30.5683 48.47 30.5914C48.5277 30.6145 48.5802 30.6488 48.6245 30.6924C48.6688 30.736 48.704 30.788 48.728 30.8453C48.752 30.9026 48.7643 30.9642 48.7643 31.0263C48.7643 31.0885 48.752 31.15 48.728 31.2073C48.704 31.2646 48.6688 31.3166 48.6245 31.3602C48.5802 31.4038 48.5277 31.4382 48.47 31.4613C48.4123 31.4844 48.3506 31.4957 48.2884 31.4948ZM48.2591 27.7448C46.7176 27.7448 44.689 26.465 43.2134 24.5605C43.1375 24.4621 43.1038 24.3375 43.1196 24.2142C43.1354 24.091 43.1994 23.9789 43.2976 23.9028C43.3462 23.865 43.4018 23.8372 43.4612 23.821C43.5206 23.8048 43.5826 23.8005 43.6436 23.8082C43.7047 23.816 43.7636 23.8358 43.817 23.8664C43.8704 23.897 43.9172 23.9378 43.9548 23.9866C45.2418 25.6476 47.0122 26.8074 48.259 26.8074C50.5512 26.8074 54.3519 23.1361 54.3519 19.2278C54.3519 18.9688 54.5625 18.7591 54.8207 18.7591C54.8823 18.759 54.9433 18.771 55.0002 18.7945C55.0571 18.818 55.1088 18.8526 55.1523 18.8961C55.1959 18.9397 55.2304 18.9914 55.2539 19.0483C55.2774 19.1052 55.2894 19.1662 55.2893 19.2278C55.2894 23.764 50.9083 27.7448 48.2591 27.7448Z" fill="#01AA89"/>
<path d="M59.5312 34.3058H40.7691C40.5109 34.3058 40.3003 34.0962 40.3003 33.8371C40.3003 33.578 40.5109 33.3685 40.7691 33.3685H59.0625V31.4671C59.0625 30.2478 58.6194 29.748 56.9973 29.1419C56.7796 29.0604 56.514 28.9721 56.2192 28.8733L55.5839 28.6583C55.4662 28.6178 55.3695 28.5322 55.3149 28.4203C55.2603 28.3085 55.2524 28.1796 55.2928 28.0619C55.3788 27.8176 55.6499 27.6893 55.8896 27.7722L56.5177 27.9845C56.8233 28.0871 57.0998 28.1795 57.3251 28.2642C59.0205 28.8971 60 29.624 60 31.4671V33.8371C60.0001 33.8987 59.9881 33.9597 59.9645 34.0166C59.941 34.0735 59.9065 34.1252 59.8629 34.1688C59.8194 34.2123 59.7677 34.2468 59.7108 34.2703C59.6538 34.2938 59.5928 34.3059 59.5312 34.3058ZM11.7172 34.3058H0.468633C0.407082 34.3058 0.346129 34.2937 0.289258 34.2701C0.232387 34.2466 0.180713 34.2121 0.137191 34.1686C0.093668 34.125 0.05915 34.0734 0.0356099 34.0165C0.0120698 33.9596 -3.07473e-05 33.8987 5.86725e-08 33.8371V30.7137C5.86725e-08 28.8871 0.97125 28.1667 2.64832 27.5401C3.60773 27.1808 4.84336 26.7038 5.89066 26.2041C5.94622 26.1775 6.00647 26.1621 6.06797 26.1589C6.12947 26.1556 6.19102 26.1645 6.24909 26.185C6.30716 26.2055 6.36061 26.2373 6.40638 26.2785C6.45216 26.3197 6.48936 26.3695 6.51586 26.4251C6.56942 26.5372 6.57627 26.666 6.53492 26.7832C6.49356 26.9004 6.40738 26.9963 6.29531 27.05C5.2152 27.5657 3.95461 28.0518 2.97703 28.418C1.3759 29.0163 0.9375 29.5101 0.9375 30.7138V33.3686H11.7173C11.9763 33.3686 12.1861 33.5781 12.1861 33.8372C12.1861 34.0963 11.9762 34.3058 11.7172 34.3058Z" fill="#01AA89"/>
<path d="M19.2114 34.306H11.7198C11.4608 34.306 11.251 34.0964 11.251 33.8373C11.251 33.5782 11.4607 33.3687 11.7198 33.3687H19.2114C19.4705 33.3687 19.6802 33.5782 19.6802 33.8373C19.6802 34.0964 19.4705 34.306 19.2114 34.306ZM11.7481 26.9356C9.0998 26.9356 4.71875 22.7201 4.71875 17.916C4.71875 17.6569 4.9284 17.4473 5.1875 17.4473C5.24906 17.4472 5.31002 17.4593 5.3669 17.4829C5.42378 17.5064 5.47546 17.541 5.51898 17.5845C5.56251 17.628 5.59702 17.6797 5.62056 17.7366C5.64409 17.7935 5.65618 17.8545 5.65613 17.916C5.65613 22.0834 9.45699 25.9982 11.7482 25.9982C12.9813 25.9982 14.7389 24.7779 16.0223 23.0304C16.1779 22.8213 16.4717 22.7782 16.6777 22.9302C16.7779 23.0038 16.8448 23.1141 16.8636 23.2369C16.8825 23.3597 16.8519 23.485 16.7784 23.5852C15.2825 25.6206 13.308 26.9356 11.7481 26.9356Z" fill="#01AA89"/>
<path d="M9.85958 28.6818C9.79801 28.6819 9.73703 28.6698 9.68015 28.6462C9.62327 28.6227 9.57162 28.5881 9.52818 28.5444L6.71603 25.7323C6.6313 25.6438 6.58461 25.5256 6.58597 25.403C6.58732 25.2805 6.6366 25.1634 6.72326 25.0767C6.80992 24.9901 6.92706 24.9408 7.0496 24.9395C7.17214 24.9382 7.29032 24.9849 7.37884 25.0696L9.95298 27.6437L11.5403 26.856C11.5954 26.8285 11.6555 26.8121 11.717 26.8078C11.7785 26.8035 11.8402 26.8115 11.8987 26.8311C11.9571 26.8508 12.0111 26.8818 12.0575 26.9223C12.1039 26.9629 12.1418 27.0123 12.1691 27.0675C12.2242 27.1789 12.2329 27.3075 12.1933 27.4252C12.1536 27.543 12.0688 27.6401 11.9576 27.6954L10.0682 28.6328C10.0033 28.6649 9.93196 28.6817 9.85958 28.6818Z" fill="#01AA89"/>
<path d="M13.6069 28.6826C13.5345 28.6825 13.4631 28.6658 13.3982 28.6337L11.5087 27.6963C11.3975 27.641 11.3128 27.5438 11.2731 27.4261C11.2335 27.3084 11.2421 27.1797 11.2972 27.0684C11.3245 27.0131 11.3625 26.9638 11.4089 26.9232C11.4553 26.8827 11.5093 26.8517 11.5677 26.832C11.6261 26.8123 11.6879 26.8044 11.7494 26.8087C11.8109 26.813 11.8709 26.8293 11.9261 26.8569L13.5134 27.6446L16.0875 25.0704C16.176 24.9857 16.2942 24.939 16.4167 24.9403C16.5393 24.9417 16.6564 24.9909 16.7431 25.0776C16.8297 25.1642 16.879 25.2813 16.8804 25.4039C16.8817 25.5264 16.835 25.6446 16.7503 25.7331L13.9382 28.5453C13.8947 28.5889 13.8431 28.6235 13.7862 28.6471C13.7294 28.6707 13.6684 28.6827 13.6069 28.6826ZM3.28113 18.3714C3.20051 18.3714 3.12 18.3503 3.0477 18.3087C2.97622 18.2678 2.91683 18.2087 2.87553 18.1374C2.83423 18.0661 2.81249 17.9852 2.8125 17.9028C2.81156 13.1848 5.17066 11.0638 6.31582 10.3119L5.77477 9.81018C5.71566 9.75541 5.67164 9.68636 5.64695 9.60966C5.62226 9.53297 5.61773 9.4512 5.63379 9.37225C5.65006 9.29331 5.68641 9.21991 5.73933 9.15912C5.79225 9.09834 5.85996 9.05223 5.9359 9.02525C6.19043 8.93467 12.2183 6.826 15.9743 9.32326C17.7071 10.4753 18.6582 12.4072 18.8029 15.0651C18.8063 15.1265 18.7976 15.1881 18.7772 15.2462C18.7569 15.3042 18.7252 15.3577 18.6842 15.4036C18.6431 15.4494 18.5934 15.4867 18.5379 15.5133C18.4824 15.5399 18.4222 15.5553 18.3607 15.5586C18.087 15.5965 17.8811 15.3746 17.8673 15.1164C17.7393 12.7694 16.9281 11.0832 15.4553 10.1037C12.8161 8.34932 8.69684 9.21217 7.0098 9.6767L7.42348 10.0603C7.48067 10.1134 7.52375 10.1799 7.54885 10.2538C7.57395 10.3277 7.58028 10.4067 7.56727 10.4837C7.55376 10.5606 7.52134 10.6329 7.47292 10.6942C7.4245 10.7555 7.3616 10.8038 7.28988 10.8347C7.15441 10.8943 4.08773 12.2957 3.77566 17.0989C5.75473 16.058 11.3562 13.3892 16.3597 13.6858C16.4397 13.6905 16.5172 13.7156 16.5847 13.7588C16.6521 13.802 16.7074 13.8618 16.7452 13.9325L17.7485 15.8072C17.7776 15.8615 17.7958 15.9209 17.8019 15.9821C17.808 16.0434 17.802 16.1052 17.7843 16.1641C17.7665 16.223 17.7373 16.2779 17.6983 16.3255C17.6593 16.3731 17.6114 16.4126 17.5571 16.4417C17.4475 16.5001 17.3191 16.5127 17.2002 16.4767C17.0812 16.4406 16.9815 16.3589 16.9227 16.2494L16.0448 14.609C10.3016 14.4039 3.58523 18.2688 3.51656 18.3086C3.44493 18.3498 3.36375 18.3714 3.28113 18.3714ZM11.7176 29.62C11.656 29.6201 11.5951 29.608 11.5382 29.5844C11.4813 29.5608 11.4297 29.5263 11.3862 29.4827L10.4488 28.5453C10.4053 28.5018 10.3708 28.4501 10.3472 28.3933C10.3237 28.3364 10.3115 28.2755 10.3115 28.2139C10.3115 28.1524 10.3237 28.0915 10.3472 28.0346C10.3708 27.9778 10.4053 27.9261 10.4488 27.8826C10.4923 27.8391 10.544 27.8046 10.6008 27.781C10.6577 27.7575 10.7186 27.7453 10.7801 27.7453C10.8417 27.7453 10.9026 27.7575 10.9595 27.781C11.0163 27.8046 11.068 27.8391 11.1115 27.8826L12.0489 28.82C12.1145 28.8855 12.1592 28.969 12.1773 29.0599C12.1954 29.1508 12.1862 29.2451 12.1507 29.3308C12.1152 29.4164 12.0551 29.4896 11.978 29.5411C11.9009 29.5926 11.8103 29.6201 11.7176 29.62Z" fill="#01AA89"/>
<path d="M11.7189 29.6208C11.6261 29.6208 11.5355 29.5934 11.4584 29.5419C11.3813 29.4904 11.3212 29.4172 11.2857 29.3316C11.2502 29.2459 11.2409 29.1516 11.259 29.0607C11.2772 28.9698 11.3218 28.8862 11.3875 28.8207L12.3248 27.8833C12.3684 27.8398 12.42 27.8053 12.4769 27.7818C12.5337 27.7582 12.5947 27.7461 12.6562 27.7461C12.7177 27.7461 12.7787 27.7582 12.8355 27.7818C12.8924 27.8053 12.944 27.8398 12.9875 27.8833C13.0311 27.9269 13.0656 27.9785 13.0891 28.0354C13.1127 28.0922 13.1248 28.1532 13.1248 28.2147C13.1248 28.2762 13.1127 28.3372 13.0891 28.394C13.0656 28.4509 13.0311 28.5025 12.9875 28.546L12.0502 29.4834C12.0067 29.527 11.9551 29.5616 11.8982 29.5852C11.8414 29.6087 11.7804 29.6208 11.7189 29.6208Z" fill="#01AA89"/>
<path d="M10.7823 33.3683C10.7162 33.3685 10.6509 33.3547 10.5906 33.3278C10.5302 33.301 10.4762 33.2616 10.4322 33.2125C10.3881 33.1633 10.3549 33.1053 10.3348 33.0424C10.3146 32.9795 10.3081 32.9131 10.3154 32.8474L10.7842 28.6302C10.8125 28.3725 11.0332 28.1866 11.3023 28.2159C11.4258 28.2298 11.5387 28.2921 11.6163 28.3892C11.6939 28.4863 11.7297 28.6102 11.716 28.7337L11.2473 32.9518C11.2344 33.0662 11.1799 33.1718 11.0941 33.2486C11.0084 33.3254 10.8974 33.368 10.7823 33.3683Z" fill="#01AA89"/>
<path d="M12.6554 33.3695C12.5402 33.3693 12.4292 33.3267 12.3435 33.2498C12.2577 33.173 12.2032 33.0673 12.1904 32.9529L11.7216 28.7348C11.7079 28.6113 11.7438 28.4873 11.8214 28.3903C11.8989 28.2932 12.0119 28.2309 12.1354 28.217C12.1967 28.2099 12.2588 28.2149 12.3181 28.2319C12.3774 28.2489 12.4328 28.2775 12.4809 28.316C12.5291 28.3545 12.5692 28.4022 12.5988 28.4564C12.6284 28.5105 12.647 28.5699 12.6535 28.6313L13.1222 32.8485C13.1296 32.9142 13.1231 32.9806 13.1029 33.0436C13.0828 33.1065 13.0496 33.1644 13.0056 33.2136C12.9615 33.2628 12.9075 33.3022 12.8471 33.329C12.7868 33.3559 12.7214 33.3697 12.6554 33.3695ZM56.7063 27.1442C56.4481 27.1442 56.2375 26.9345 56.2375 26.6754V17.9031C56.2375 17.644 56.4481 17.4344 56.7063 17.4344C56.7679 17.4343 56.8288 17.4463 56.8858 17.4698C56.9427 17.4934 56.9944 17.5279 57.0379 17.5714C57.0815 17.615 57.116 17.6667 57.1395 17.7236C57.163 17.7805 57.175 17.8415 57.1749 17.9031V26.6754C57.1749 26.9347 56.9662 27.1442 56.7063 27.1442ZM40.7085 14.6223C40.6361 14.6223 40.5647 14.6055 40.4998 14.5734C40.3887 14.5178 40.3041 14.4205 40.2646 14.3026C40.2251 14.1848 40.234 14.0562 40.2892 13.9449C41.8052 10.8938 44.8626 8.99805 48.2698 8.99805C48.5299 8.99805 48.7385 9.2077 48.7385 9.4668C48.7385 9.7259 48.5299 9.93555 48.2698 9.93555C45.2214 9.93555 42.4845 11.6318 41.1296 14.3624C41.0905 14.4406 41.0303 14.5063 40.956 14.5522C40.8816 14.5981 40.7959 14.6224 40.7085 14.6223Z" fill="#01AA89"/>
<path d="M56.702 18.372C56.4438 18.372 56.2332 18.1623 56.2332 17.9032C56.2332 13.5098 52.6595 9.93555 48.2655 9.93555C48.0073 9.93555 47.7969 9.7259 47.7969 9.4668C47.7969 9.2077 48.0073 8.99805 48.2655 8.99805C53.1758 8.99805 57.1706 12.9929 57.1706 17.9031C57.1707 17.9647 57.1587 18.0257 57.1352 18.0826C57.1117 18.1396 57.0772 18.1913 57.0336 18.2349C56.9901 18.2784 56.9384 18.313 56.8815 18.3365C56.8245 18.36 56.7635 18.3721 56.702 18.372Z" fill="#01AA89"/>
<path d="M43.5772 18.5719C43.4751 18.572 43.3757 18.5385 43.2943 18.4767C43.213 18.4149 43.1542 18.3281 43.1269 18.2296C43.0932 18.11 43.1085 17.982 43.1692 17.8736C43.23 17.7653 43.3313 17.6855 43.4509 17.6519C49.7398 15.8933 54.1978 11.9672 54.2418 11.9278C54.2876 11.8868 54.3411 11.8551 54.3991 11.8348C54.4572 11.8145 54.5188 11.8058 54.5802 11.8094C54.6416 11.8129 54.7017 11.8285 54.7571 11.8554C54.8125 11.8822 54.862 11.9198 54.9028 11.9658C54.9854 12.0585 55.0279 12.1801 55.0211 12.3041C55.0142 12.428 54.9586 12.5442 54.8663 12.6272C54.6795 12.7943 50.2105 16.7356 43.7037 18.5544C43.6614 18.5664 43.6193 18.5719 43.5772 18.5719Z" fill="#01AA89"/>
<path d="M56.7013 19.3092C56.6611 19.3091 56.6211 19.3038 56.5822 19.2936C52.0473 18.0999 49.8813 15.7418 49.7917 15.6416C49.7089 15.5492 49.666 15.4278 49.6725 15.3039C49.679 15.18 49.7344 15.0638 49.8265 14.9806C49.872 14.9393 49.9253 14.9074 49.9831 14.8867C50.041 14.866 50.1024 14.8569 50.1638 14.86C50.2252 14.863 50.2854 14.8782 50.3409 14.9045C50.3965 14.9309 50.4462 14.9679 50.4874 15.0135C50.5076 15.0359 52.5747 17.2696 56.8203 18.3874C56.8799 18.4029 56.9358 18.4301 56.985 18.4673C57.0341 18.5045 57.0754 18.551 57.1065 18.6042C57.1376 18.6574 57.1579 18.7162 57.1663 18.7772C57.1747 18.8383 57.1709 18.9004 57.1553 18.96C57.1288 19.0601 57.0699 19.1487 56.9878 19.2119C56.9057 19.2751 56.8049 19.3093 56.7013 19.3092Z" fill="#01AA89"/>
<path d="M54.8125 19.6972C54.5543 19.6972 54.3438 19.4876 54.3438 19.2285V18.2344C54.3438 17.9753 54.5543 17.7656 54.8125 17.7656C54.8741 17.7655 54.9351 17.7776 54.992 17.8011C55.0489 17.8246 55.1006 17.8591 55.1442 17.9027C55.1877 17.9462 55.2222 17.998 55.2457 18.0549C55.2692 18.1118 55.2813 18.1728 55.2811 18.2344V19.2285C55.2811 19.4876 55.0724 19.6972 54.8125 19.6972Z" fill="#01AA89"/>
<path d="M50.163 33.3692C50.0705 33.369 49.9801 33.3415 49.9033 33.29C49.8264 33.2385 49.7665 33.1655 49.7311 33.08C49.6956 32.9946 49.6863 32.9006 49.7042 32.8098C49.7221 32.7191 49.7664 32.6356 49.8316 32.57L52.2958 30.0897L51.688 29.4828C51.6392 29.4336 51.6017 29.3743 51.5783 29.309C51.5549 29.2438 51.5461 29.1742 51.5525 29.1051C51.5596 29.0361 51.5818 28.9695 51.6175 28.9101C51.6533 28.8507 51.7018 28.7999 51.7595 28.7614L54.0022 27.2661L52.686 26.341C52.5847 26.2692 52.5159 26.1602 52.4946 26.0378C52.4733 25.9155 52.5013 25.7897 52.5724 25.6878C52.6078 25.6374 52.6528 25.5944 52.7048 25.5613C52.7568 25.5283 52.8149 25.5058 52.8756 25.4953C52.9363 25.4847 52.9985 25.4861 53.0587 25.4996C53.1188 25.5131 53.1757 25.5383 53.2261 25.5738L55.1026 26.893C55.1647 26.937 55.2151 26.9955 55.2496 27.0633C55.2841 27.1312 55.3015 27.2064 55.3004 27.2825C55.2998 27.3587 55.2804 27.4336 55.244 27.5006C55.2076 27.5676 55.1553 27.6245 55.0917 27.6665L52.7556 29.2241L53.2883 29.7574C53.376 29.8451 53.4255 29.9639 53.4258 30.0879C53.4262 30.2119 53.3774 30.331 53.2902 30.4192L50.4963 33.2308C50.4527 33.2749 50.4008 33.3098 50.3436 33.3335C50.2864 33.3573 50.225 33.3694 50.163 33.3692Z" fill="#01AA89"/>
<path d="M46.3718 33.3699C46.3102 33.37 46.2491 33.3579 46.1922 33.3342C46.1353 33.3104 46.0838 33.2755 46.0405 33.2316L43.2467 30.4199C43.2032 30.3765 43.1686 30.3249 43.1451 30.2681C43.1215 30.2114 43.1094 30.1505 43.1094 30.089C43.1094 30.0275 43.1215 29.9667 43.1451 29.9099C43.1686 29.8531 43.2032 29.8015 43.2467 29.7581L43.7794 29.2248L43.318 28.9168C43.215 28.8476 43.1435 28.7404 43.1192 28.6187C43.0948 28.4969 43.1196 28.3705 43.1881 28.2669C43.2572 28.1637 43.3644 28.0921 43.4862 28.0677C43.608 28.0434 43.7345 28.0683 43.838 28.137L44.7754 28.7622C44.8331 28.8007 44.8815 28.8514 44.9173 28.9109C44.9531 28.9703 44.9753 29.0369 44.9823 29.1059C44.9892 29.1749 44.9805 29.2446 44.9571 29.31C44.9337 29.3753 44.896 29.4346 44.8469 29.4836L44.2409 30.0905L46.7051 32.5708C46.7927 32.6589 46.8418 32.7783 46.8414 32.9025C46.8411 33.0268 46.7914 33.1459 46.7032 33.2336C46.615 33.3208 46.4959 33.3697 46.3718 33.3699Z" fill="#01AA89"/>
<path d="M48.2652 29.6207C46.2202 29.6207 45.1656 28.5899 45.1217 28.546C45.0781 28.5025 45.0436 28.4508 45.0201 28.394C44.9965 28.3371 44.9844 28.2762 44.9844 28.2146C44.9844 28.1531 44.9965 28.0921 45.0201 28.0353C45.0436 27.9784 45.0781 27.9268 45.1217 27.8833C45.3047 27.7011 45.6014 27.7006 45.7827 27.8806C45.8156 27.9135 46.6303 28.6834 48.2653 28.6834C49.9003 28.6834 50.7387 27.893 50.7461 27.8848C50.7896 27.8413 50.8414 27.8069 50.8983 27.7834C50.9552 27.7599 51.0161 27.7478 51.0777 27.7479C51.1392 27.748 51.2002 27.7602 51.257 27.7839C51.3138 27.8075 51.3654 27.8421 51.4089 27.8857C51.4524 27.9292 51.4869 27.9809 51.5105 28.0378C51.534 28.0946 51.5462 28.1555 51.5462 28.2171C51.5462 28.2786 51.534 28.3396 51.5105 28.3964C51.4869 28.4533 51.4524 28.5049 51.4089 28.5484C51.3648 28.5917 50.3102 29.6207 48.2652 29.6207Z" fill="#01AA89"/>
<path d="M22.0234 38.0564C21.7643 38.0564 21.5547 37.8468 21.5547 37.5878V36.6504C21.5547 36.3913 21.7643 36.1816 22.0234 36.1816C22.085 36.1816 22.146 36.1937 22.2028 36.2173C22.2597 36.2408 22.3114 36.2753 22.3549 36.3189C22.3984 36.3624 22.433 36.4141 22.4565 36.471C22.48 36.5279 22.4921 36.5888 22.4921 36.6504V37.5878C22.4921 37.6493 22.48 37.7103 22.4565 37.7671C22.4329 37.824 22.3984 37.8757 22.3549 37.9192C22.3114 37.9627 22.2597 37.9973 22.2028 38.0208C22.1459 38.0443 22.085 38.0564 22.0234 38.0564Z" fill="#01AA89"/>
<path d="M25.773 42.7428C25.7027 42.7428 25.6333 42.727 25.5699 42.6966C25.5065 42.6661 25.4508 42.6218 25.4068 42.567L21.6573 37.8801C21.5797 37.7829 21.5438 37.6589 21.5576 37.5354C21.5713 37.4118 21.6335 37.2988 21.7305 37.221C21.9346 37.0608 22.2285 37.0928 22.3897 37.2942L26.1392 41.9812C26.2168 42.0783 26.2526 42.2023 26.2389 42.3258C26.2252 42.4494 26.163 42.5625 26.066 42.6402C25.9827 42.7064 25.8794 42.7426 25.773 42.7428Z" fill="#01AA89"/>
<path d="M25.7733 42.7418C25.6863 42.7417 25.601 42.7174 25.527 42.6716C25.4529 42.6259 25.3931 42.5605 25.354 42.4827C25.2985 42.3715 25.2895 42.2428 25.3288 42.1249C25.3681 42.007 25.4526 41.9095 25.5637 41.8539L29.3132 39.9791C29.4244 39.9236 29.5531 39.9144 29.6711 39.9538C29.789 39.9931 29.8865 40.0776 29.9422 40.1888C29.9976 40.3 30.0067 40.4286 29.9674 40.5465C29.9281 40.6644 29.8436 40.7619 29.7325 40.8176L25.983 42.6924C25.9179 42.7249 25.8461 42.7419 25.7733 42.7418Z" fill="#01AA89"/>
<path d="M37.9531 38.0564C37.695 38.0564 37.4844 37.8468 37.4844 37.5878V36.6504C37.4844 36.3913 37.695 36.1816 37.9531 36.1816C38.0147 36.1815 38.0757 36.1936 38.1326 36.2171C38.1895 36.2406 38.2412 36.2751 38.2848 36.3187C38.3283 36.3622 38.3628 36.414 38.3863 36.4709C38.4098 36.5278 38.4219 36.5888 38.4218 36.6504V37.5878C38.4219 37.6493 38.4098 37.7103 38.3863 37.7672C38.3628 37.8241 38.3283 37.8758 38.2847 37.9194C38.2412 37.9629 38.1895 37.9974 38.1326 38.021C38.0757 38.0445 38.0147 38.0565 37.9531 38.0564Z" fill="#01AA89"/>
<path d="M34.2105 42.7427C34.108 42.7427 34.0054 42.7088 33.9175 42.6402C33.8208 42.5623 33.7588 42.4492 33.7451 42.3257C33.7314 42.2022 33.7671 42.0783 33.8444 41.9811L37.5938 37.2942C37.6719 37.1976 37.7849 37.1357 37.9083 37.122C38.0317 37.1083 38.1556 37.1439 38.2529 37.221C38.301 37.2594 38.3411 37.3069 38.3708 37.3609C38.4005 37.4148 38.4193 37.4741 38.4261 37.5353C38.4329 37.5965 38.4276 37.6585 38.4104 37.7176C38.3933 37.7768 38.3646 37.8319 38.3261 37.88L34.5766 42.5669C34.5328 42.6219 34.4771 42.6663 34.4137 42.6967C34.3503 42.7272 34.2808 42.7429 34.2105 42.7427Z" fill="#01AA89"/>
<path d="M34.2098 42.7434C34.1373 42.7434 34.0658 42.7265 34.0011 42.6939L30.2512 40.8192C30.1401 40.7635 30.0556 40.666 30.0163 40.5481C29.977 40.4302 29.986 40.3016 30.0415 40.1903C30.0974 40.0794 30.1948 39.995 30.3127 39.9558C30.4305 39.9165 30.5591 39.9254 30.6704 39.9807L34.4204 41.8555C34.5312 41.9114 34.6154 42.009 34.6545 42.1268C34.6935 42.2447 34.6844 42.3732 34.6289 42.4843C34.59 42.5621 34.5302 42.6276 34.4562 42.6734C34.3821 42.7192 34.2968 42.7434 34.2098 42.7434Z" fill="#01AA89"/>
</svg>
