<svg width="60" height="60" viewBox="0 0 60 60" fill="none" xmlns="http://www.w3.org/2000/svg">
<g clip-path="url(#clip0_757_8442)">
<path d="M2.39496 6.78075C2.13598 6.78075 1.92188 6.56939 1.92188 6.3084C1.92188 6.0473 2.12684 5.83594 2.38488 5.83594H2.39496C2.51921 5.83603 2.63834 5.88584 2.72619 5.97443C2.81404 6.06302 2.86341 6.18314 2.86348 6.3084C2.86338 6.43365 2.81399 6.55374 2.72615 6.6423C2.63831 6.73086 2.51919 6.78066 2.39496 6.78075ZM4.26914 6.78075C4.01016 6.78075 3.79605 6.56939 3.79605 6.3084C3.79605 6.0473 4.00102 5.83594 4.25906 5.83594H4.26914C4.39339 5.83603 4.51252 5.88584 4.60037 5.97443C4.68822 6.06302 4.73759 6.18314 4.73766 6.3084C4.73756 6.43365 4.68817 6.55374 4.60033 6.6423C4.51248 6.73086 4.39337 6.78066 4.26914 6.78075ZM6.14332 6.78075C5.88434 6.78075 5.67023 6.56939 5.67023 6.3084C5.67023 6.0473 5.8752 5.83594 6.13324 5.83594H6.14332C6.26757 5.83603 6.3867 5.88584 6.47455 5.97443C6.5624 6.06302 6.61177 6.18314 6.61184 6.3084C6.61174 6.43365 6.56235 6.55374 6.47451 6.6423C6.38666 6.73086 6.26755 6.78066 6.14332 6.78075Z" fill="#01AA89"/>
<path d="M51.0861 7.72678H0.484141C0.422601 7.72683 0.361657 7.71464 0.304793 7.69092C0.247929 7.6672 0.196262 7.63241 0.152747 7.58854C0.109232 7.54467 0.0747234 7.49258 0.0511946 7.43525C0.0276659 7.37792 0.0155789 7.31648 0.0156251 7.25443V6.30974C0.0156251 5.52832 0.646094 4.89258 1.42117 4.89258H50.149C50.924 4.89258 51.5546 5.52832 51.5546 6.30974V7.25443C51.5546 7.31647 51.5425 7.37791 51.519 7.43523C51.4954 7.49255 51.4609 7.54464 51.4174 7.5885C51.3739 7.63237 51.3222 7.66716 51.2654 7.69089C51.2085 7.71462 51.1476 7.72681 51.0861 7.72678ZM0.952656 6.78209H50.6174V6.30974C50.6174 6.05324 50.4032 5.83727 50.1489 5.83727H1.42117C1.29697 5.83752 1.17793 5.88739 1.09011 5.97594C1.0023 6.06449 0.952873 6.18452 0.952656 6.30974V6.78209Z" fill="#01AA89"/>
<path d="M51.0861 23.7865C51.0245 23.7865 50.9636 23.7743 50.9067 23.7506C50.8498 23.7269 50.7982 23.6921 50.7547 23.6482C50.7111 23.6044 50.6766 23.5523 50.6531 23.4949C50.6296 23.4376 50.6175 23.3762 50.6175 23.3141V7.2536C50.6175 6.9925 50.8271 6.78125 51.0861 6.78125C51.345 6.78125 51.5546 6.9925 51.5546 7.2536V23.3141C51.5546 23.3762 51.5425 23.4376 51.5189 23.4949C51.4954 23.5522 51.4609 23.6043 51.4174 23.6482C51.3739 23.692 51.3222 23.7268 51.2654 23.7506C51.2085 23.7743 51.1476 23.7865 51.0861 23.7865ZM0.484141 41.7369C0.359902 41.7368 0.240769 41.687 0.152919 41.5985C0.0650684 41.5099 0.0156871 41.3898 0.015625 41.2645V7.2536C0.015625 6.9925 0.225156 6.78125 0.484141 6.78125C0.743125 6.78125 0.952656 6.9925 0.952656 7.2536V41.2645C0.952594 41.3898 0.903213 41.5099 0.815363 41.5985C0.727512 41.687 0.60838 41.7368 0.484141 41.7369Z" fill="#01AA89"/>
<path d="M22.9738 41.7377H0.484142C0.359903 41.7376 0.24077 41.6878 0.15292 41.5992C0.0650693 41.5107 0.015688 41.3906 0.0156259 41.2653C0.0155024 41.2033 0.0275366 41.1418 0.0510379 41.0844C0.0745393 41.027 0.109045 40.9749 0.152575 40.931C0.196106 40.8872 0.247804 40.8524 0.304702 40.8287C0.361601 40.805 0.422581 40.7928 0.484142 40.793H22.9738C23.0354 40.7928 23.0964 40.805 23.1533 40.8287C23.2102 40.8524 23.2619 40.8872 23.3054 40.931C23.3489 40.9749 23.3834 41.027 23.4069 41.0844C23.4304 41.1418 23.4425 41.2033 23.4423 41.2653C23.4423 41.3906 23.3929 41.5107 23.3051 41.5992C23.2172 41.6878 23.0981 41.7376 22.9738 41.7377Z" fill="#01AA89"/>
<path d="M2.35914 41.7369C2.2349 41.7368 2.11577 41.687 2.02792 41.5985C1.94007 41.5099 1.89069 41.3898 1.89062 41.2645V7.2536C1.89062 6.9925 2.10016 6.78125 2.35914 6.78125C2.61812 6.78125 2.82777 6.9925 2.82777 7.2536V41.2645C2.82768 41.3898 2.77827 41.5099 2.6904 41.5985C2.60254 41.687 2.48339 41.7368 2.35914 41.7369Z" fill="#01AA89"/>
<path d="M1.42117 10.56H0.484142C0.422607 10.5601 0.361669 10.5479 0.304812 10.5242C0.247955 10.5004 0.196294 10.4656 0.152783 10.4218C0.109271 10.3779 0.0747613 10.3258 0.0512271 10.2685C0.0276929 10.2112 0.0155954 10.1497 0.0156262 10.0877C0.01558 10.0257 0.0276661 9.9642 0.0511934 9.90687C0.0747207 9.84953 0.109228 9.79743 0.152741 9.75355C0.196254 9.70967 0.247921 9.67487 0.304785 9.65114C0.36165 9.6274 0.422597 9.6152 0.484142 9.61523H1.42117C1.48272 9.6152 1.54367 9.6274 1.60053 9.65114C1.65739 9.67487 1.70906 9.70967 1.75257 9.75355C1.79609 9.79743 1.83059 9.84953 1.85412 9.90687C1.87765 9.9642 1.88973 10.0257 1.88969 10.0877C1.88973 10.1497 1.87765 10.2112 1.85412 10.2685C1.83059 10.3258 1.79608 10.3779 1.75257 10.4218C1.70905 10.4657 1.65738 10.5005 1.60052 10.5242C1.54366 10.5479 1.48271 10.5601 1.42117 10.56ZM1.42117 13.3943H0.484142C0.422607 13.3943 0.361669 13.3821 0.304812 13.3584C0.247955 13.3346 0.196294 13.2998 0.152783 13.256C0.109271 13.2121 0.0747613 13.16 0.0512271 13.1027C0.0276929 13.0454 0.0155954 12.9839 0.0156262 12.9219C0.01558 12.8599 0.0276661 12.7984 0.0511934 12.7411C0.0747207 12.6837 0.109228 12.6316 0.152741 12.5878C0.196254 12.5439 0.247921 12.5091 0.304785 12.4853C0.36165 12.4616 0.422597 12.4494 0.484142 12.4494H1.42117C1.48272 12.4494 1.54367 12.4616 1.60053 12.4853C1.65739 12.5091 1.70906 12.5439 1.75257 12.5878C1.79609 12.6316 1.83059 12.6837 1.85412 12.7411C1.87765 12.7984 1.88973 12.8599 1.88969 12.9219C1.88973 12.9839 1.87765 13.0454 1.85412 13.1027C1.83059 13.16 1.79608 13.2121 1.75257 13.256C1.70905 13.2999 1.65738 13.3347 1.60052 13.3584C1.54366 13.3821 1.48271 13.3943 1.42117 13.3943ZM1.42117 16.2285H0.484142C0.225157 16.2285 0.0156262 16.0172 0.0156262 15.7561C0.0156262 15.495 0.225157 15.2838 0.484142 15.2838H1.42117C1.68016 15.2838 1.88969 15.495 1.88969 15.7561C1.88969 16.0172 1.68016 16.2285 1.42117 16.2285ZM1.42117 19.0627H0.484142C0.225157 19.0627 0.0156262 18.8514 0.0156262 18.5903C0.0156262 18.3292 0.225157 18.118 0.484142 18.118H1.42117C1.68016 18.118 1.88969 18.3292 1.88969 18.5903C1.88969 18.8514 1.68016 19.0627 1.42117 19.0627ZM1.42117 21.8969H0.484142C0.225157 21.8969 0.0156262 21.6856 0.0156262 21.4245C0.0156262 21.1634 0.225157 20.9521 0.484142 20.9521H1.42117C1.68016 20.9521 1.88969 21.1634 1.88969 21.4245C1.88969 21.6856 1.68016 21.8969 1.42117 21.8969ZM1.42117 24.7311H0.484142C0.225157 24.7311 0.0156262 24.5198 0.0156262 24.2587C0.0156262 23.9976 0.225157 23.7863 0.484142 23.7863H1.42117C1.68016 23.7863 1.88969 23.9976 1.88969 24.2587C1.88969 24.5198 1.68016 24.7311 1.42117 24.7311ZM1.42117 27.5653H0.484142C0.225157 27.5653 0.0156262 27.354 0.0156262 27.0929C0.0156262 26.8318 0.225157 26.6206 0.484142 26.6206H1.42117C1.68016 26.6206 1.88969 26.8318 1.88969 27.0929C1.88969 27.354 1.68016 27.5653 1.42117 27.5653ZM1.42117 30.3995H0.484142C0.225157 30.3995 0.0156262 30.1882 0.0156262 29.9271C0.0156262 29.666 0.225157 29.4548 0.484142 29.4548H1.42117C1.68016 29.4548 1.88969 29.666 1.88969 29.9271C1.88969 30.1882 1.68016 30.3995 1.42117 30.3995ZM1.42117 33.2342H0.484142C0.359903 33.2341 0.24077 33.1843 0.15292 33.0957C0.0650696 33.0072 0.0156883 32.8871 0.0156262 32.7618C0.0155027 32.6997 0.027536 32.6383 0.051036 32.5809C0.0745359 32.5235 0.10904 32.4714 0.152569 32.4275C0.196097 32.3836 0.247794 32.3488 0.304694 32.3251C0.361593 32.3014 0.422575 32.2892 0.484142 32.2893H1.42117C1.48274 32.2892 1.54372 32.3014 1.60062 32.3251C1.65752 32.3488 1.70922 32.3836 1.75275 32.4275C1.79627 32.4714 1.83078 32.5235 1.85428 32.5809C1.87778 32.6383 1.88981 32.6997 1.88969 32.7618C1.88963 32.8871 1.84025 33.0072 1.7524 33.0957C1.66454 33.1843 1.54541 33.2341 1.42117 33.2342ZM1.42117 36.0685H0.484142C0.359912 36.0684 0.240798 36.0186 0.152954 35.93C0.0651105 35.8415 0.0157193 35.7214 0.0156262 35.5961C0.0154872 35.5341 0.02751 35.4726 0.0510044 35.4152C0.0744988 35.3578 0.109002 35.3057 0.152534 35.2618C0.196066 35.2179 0.247769 35.1831 0.304675 35.1594C0.361582 35.1357 0.422571 35.1235 0.484142 35.1237H1.42117C1.48274 35.1235 1.54373 35.1357 1.60064 35.1594C1.65755 35.1831 1.70925 35.2179 1.75278 35.2618C1.79631 35.3057 1.83082 35.3578 1.85431 35.4152C1.8778 35.4726 1.88983 35.5341 1.88969 35.5961C1.8896 35.7214 1.8402 35.8415 1.75236 35.93C1.66452 36.0186 1.5454 36.0684 1.42117 36.0685ZM1.42117 38.9026H0.484142C0.359903 38.9025 0.24077 38.8527 0.15292 38.7641C0.0650696 38.6756 0.0156883 38.5555 0.0156262 38.4302C0.0155026 38.3682 0.0275368 38.3067 0.0510382 38.2493C0.0745395 38.1919 0.109045 38.1398 0.152576 38.0959C0.196106 38.0521 0.247804 38.0173 0.304703 37.9936C0.361601 37.9699 0.422581 37.9577 0.484142 37.9579H1.42117C1.48273 37.9577 1.54371 37.9699 1.60061 37.9936C1.65751 38.0173 1.70921 38.0521 1.75274 38.0959C1.79627 38.1398 1.83078 38.1919 1.85428 38.2493C1.87778 38.3067 1.88981 38.3682 1.88969 38.4302C1.88963 38.5555 1.84025 38.6756 1.7524 38.7641C1.66454 38.8527 1.54541 38.9025 1.42117 38.9026ZM8.91777 10.56H5.16942C5.10788 10.5601 5.04694 10.5479 4.99009 10.5242C4.93323 10.5004 4.88157 10.4656 4.83806 10.4218C4.79454 10.3779 4.76003 10.3258 4.7365 10.2685C4.71297 10.2112 4.70087 10.1497 4.7009 10.0877C4.70085 10.0257 4.71294 9.9642 4.73647 9.90687C4.75999 9.84953 4.7945 9.79743 4.83801 9.75355C4.88153 9.70967 4.93319 9.67487 4.99006 9.65114C5.04692 9.6274 5.10787 9.6152 5.16942 9.61523H8.91766C8.9792 9.6152 9.04015 9.6274 9.09701 9.65114C9.15388 9.67487 9.20555 9.70967 9.24906 9.75355C9.29257 9.79743 9.32708 9.84953 9.35061 9.90687C9.37413 9.9642 9.38622 10.0257 9.38617 10.0877C9.38623 10.1497 9.37416 10.2112 9.35065 10.2685C9.32713 10.3258 9.29263 10.3779 9.24913 10.4218C9.20562 10.4657 9.15396 10.5005 9.09711 10.5242C9.04025 10.5479 8.97931 10.5601 8.91777 10.56ZM25.785 13.3943H12.666C12.6045 13.3943 12.5435 13.3821 12.4867 13.3584C12.4298 13.3346 12.3782 13.2998 12.3347 13.256C12.2911 13.2121 12.2566 13.16 12.2331 13.1027C12.2096 13.0454 12.1975 12.9839 12.1975 12.9219C12.1975 12.8599 12.2095 12.7984 12.2331 12.7411C12.2566 12.6837 12.2911 12.6316 12.3346 12.5878C12.3781 12.5439 12.4298 12.5091 12.4867 12.4853C12.5435 12.4616 12.6045 12.4494 12.666 12.4494H25.785C25.8466 12.4494 25.9075 12.4616 25.9644 12.4853C26.0213 12.5091 26.0729 12.5439 26.1164 12.5878C26.16 12.6316 26.1945 12.6837 26.218 12.7411C26.2415 12.7984 26.2536 12.8599 26.2536 12.9219C26.2536 12.9839 26.2415 13.0454 26.218 13.1027C26.1945 13.16 26.1599 13.2121 26.1164 13.256C26.0729 13.2999 26.0213 13.3347 25.9644 13.3584C25.9075 13.3821 25.8466 13.3943 25.785 13.3943ZM10.792 13.3943H6.10645C6.04491 13.3943 5.98397 13.3821 5.92712 13.3584C5.87026 13.3346 5.8186 13.2998 5.77509 13.256C5.73158 13.2121 5.69707 13.16 5.67353 13.1027C5.65 13.0454 5.6379 12.9839 5.63793 12.9219C5.63788 12.8599 5.64997 12.7984 5.6735 12.7411C5.69703 12.6837 5.73153 12.6316 5.77505 12.5878C5.81856 12.5439 5.87023 12.5091 5.92709 12.4853C5.98395 12.4616 6.0449 12.4494 6.10645 12.4494H10.7918C10.8534 12.4494 10.9143 12.4616 10.9712 12.4853C11.0281 12.5091 11.0797 12.5439 11.1232 12.5878C11.1668 12.6316 11.2013 12.6837 11.2248 12.7411C11.2483 12.7984 11.2604 12.8599 11.2604 12.9219C11.2604 12.9839 11.2483 13.0454 11.2248 13.1027C11.2013 13.16 11.1668 13.2121 11.1233 13.256C11.0798 13.2999 11.0281 13.3347 10.9713 13.3584C10.9144 13.3821 10.8535 13.3943 10.792 13.3943ZM37.0299 16.2285H24.8479C24.589 16.2285 24.3794 16.0172 24.3794 15.7561C24.3794 15.495 24.589 15.2838 24.8479 15.2838H37.0299C37.2889 15.2838 37.4984 15.495 37.4984 15.7561C37.4984 16.0172 37.2889 16.2285 37.0299 16.2285ZM42.6524 16.2285H38.9041C38.6452 16.2285 38.4356 16.0172 38.4356 15.7561C38.4356 15.495 38.6452 15.2838 38.9041 15.2838H42.6524C42.9113 15.2838 43.1209 15.495 43.1209 15.7561C43.1209 16.0172 42.9113 16.2285 42.6524 16.2285ZM22.9738 16.2285H7.04359C6.78461 16.2285 6.57508 16.0172 6.57508 15.7561C6.57508 15.495 6.78461 15.2838 7.04359 15.2838H22.9738C23.2328 15.2838 23.4423 15.495 23.4423 15.7561C23.4423 16.0172 23.2328 16.2285 22.9738 16.2285ZM9.85481 21.8969H7.04359C6.78461 21.8969 6.57508 21.6856 6.57508 21.4245C6.57508 21.1634 6.78461 20.9521 7.04359 20.9521H9.85469C10.1137 20.9521 10.3233 21.1634 10.3233 21.4245C10.3233 21.6856 10.1138 21.8969 9.85481 21.8969ZM25.6386 21.8969H11.729C11.47 21.8969 11.2605 21.6856 11.2605 21.4245C11.2605 21.1634 11.47 20.9521 11.729 20.9521H25.6386C25.8975 20.9521 26.1071 21.1634 26.1071 21.4245C26.1071 21.6856 25.8975 21.8969 25.6386 21.8969ZM29.5333 19.0627H7.98063C7.72164 19.0627 7.51211 18.8514 7.51211 18.5903C7.51211 18.3292 7.72164 18.118 7.98063 18.118H29.5333C29.7923 18.118 30.0018 18.3292 30.0018 18.5903C30.0018 18.8514 29.7923 19.0627 29.5333 19.0627ZM24.8479 24.7311H20.1626C19.9036 24.7311 19.6941 24.5198 19.6941 24.2587C19.6941 23.9976 19.9036 23.7863 20.1626 23.7863H24.8479C25.1069 23.7863 25.3165 23.9976 25.3165 24.2587C25.3165 24.5198 25.1069 24.7311 24.8479 24.7311ZM22.0368 27.5653H6.10645C5.84746 27.5653 5.63793 27.354 5.63793 27.0929C5.63793 26.8318 5.84746 26.6206 6.10645 26.6206H22.0367C22.2957 26.6206 22.5052 26.8318 22.5052 27.0929C22.5052 27.354 22.2958 27.5653 22.0368 27.5653ZM15.4772 33.2342H6.10645C5.98221 33.2341 5.86307 33.1843 5.77522 33.0957C5.68737 33.0072 5.63799 32.8871 5.63793 32.7618C5.63781 32.6997 5.64984 32.6383 5.67334 32.5809C5.69684 32.5235 5.73134 32.4714 5.77487 32.4275C5.8184 32.3836 5.8701 32.3488 5.927 32.3251C5.9839 32.3014 6.04488 32.2892 6.10645 32.2893H15.4772C15.5388 32.2892 15.5998 32.3014 15.6567 32.3251C15.7136 32.3488 15.7653 32.3836 15.8088 32.4275C15.8523 32.4714 15.8868 32.5235 15.9103 32.5809C15.9338 32.6383 15.9459 32.6997 15.9457 32.7618C15.9457 32.8871 15.8963 33.0072 15.8084 33.0957C15.7206 33.1843 15.6015 33.2341 15.4772 33.2342ZM13.603 36.0685H6.10645C5.98222 36.0684 5.8631 36.0186 5.77526 35.93C5.68742 35.8415 5.63802 35.7214 5.63793 35.5961C5.63779 35.5341 5.64981 35.4726 5.67331 35.4152C5.6968 35.3578 5.73131 35.3057 5.77484 35.2618C5.81837 35.2179 5.87007 35.1831 5.92698 35.1594C5.98389 35.1357 6.04488 35.1235 6.10645 35.1237H13.603C13.862 35.1237 14.0717 35.334 14.0717 35.5961C14.0716 35.7214 14.0221 35.8415 13.9343 35.93C13.8464 36.0186 13.7273 36.0684 13.603 36.0685ZM22.0368 30.3995H19.2256C18.9666 30.3995 18.7571 30.1882 18.7571 29.9271C18.7571 29.666 18.9666 29.4548 19.2256 29.4548H22.0368C22.2958 29.4548 22.5053 29.666 22.5053 29.9271C22.5053 30.1882 22.2958 30.3995 22.0368 30.3995ZM17.3513 30.3995H7.04359C6.78461 30.3995 6.57508 30.1882 6.57508 29.9271C6.57508 29.666 6.78461 29.4548 7.04359 29.4548H17.3513C17.6103 29.4548 17.8199 29.666 17.8199 29.9271C17.8199 30.1882 17.6103 30.3995 17.3513 30.3995ZM8.91777 38.9026H5.16942C5.04518 38.9025 4.92604 38.8527 4.83819 38.7641C4.75034 38.6756 4.70096 38.5555 4.7009 38.4302C4.70078 38.3682 4.71281 38.3067 4.73631 38.2493C4.75981 38.1919 4.79432 38.1398 4.83785 38.0959C4.88138 38.0521 4.93308 38.0173 4.98998 37.9936C5.04687 37.9699 5.10785 37.9577 5.16942 37.9579H8.91766C9.03935 37.9617 9.15478 38.0132 9.23951 38.1013C9.32424 38.1895 9.37163 38.3074 9.37165 38.4302C9.37166 38.5529 9.3243 38.6708 9.23959 38.759C9.15488 38.8472 9.03947 38.8987 8.91777 38.9026ZM18.2884 24.7311H7.04359C6.78461 24.7311 6.57508 24.5198 6.57508 24.2587C6.57508 23.9976 6.78461 23.7863 7.04359 23.7863H18.2884C18.5474 23.7863 18.757 23.9976 18.757 24.2587C18.757 24.5198 18.5474 24.7311 18.2884 24.7311Z" fill="#01AA89"/>
<path d="M37.9463 48.3498C34.0663 48.3498 30.4194 46.8275 27.6759 44.0616C22.0143 38.3507 22.0143 29.0606 27.6759 23.3507C30.4194 20.5848 34.0662 19.0625 37.9463 19.0625C41.8263 19.0625 45.4731 20.5848 48.2166 23.3507C53.8783 29.0606 53.8783 38.3507 48.2166 44.0616C45.473 46.8275 41.8263 48.3498 37.9463 48.3498ZM37.9463 20.0072C34.317 20.0072 30.9045 21.4318 28.3386 24.0186C23.042 29.3605 23.042 38.0518 28.3386 43.3935C30.9046 45.9804 34.3171 47.4049 37.9463 47.4049C41.5757 47.4049 44.9881 45.9804 47.554 43.3935C52.8506 38.0518 52.8506 29.3605 47.554 24.0186C44.9881 21.4318 41.5756 20.0072 37.9463 20.0072Z" fill="#01AA89"/>
<path d="M57.1116 55.5051C57.05 55.5052 56.9891 55.4931 56.9322 55.4693C56.8754 55.4456 56.8237 55.4107 56.7803 55.3668L47.7701 46.2848C47.7266 46.2409 47.692 46.1889 47.6685 46.1316C47.6449 46.0743 47.6328 46.0129 47.6328 45.9508C47.6328 45.8888 47.6449 45.8274 47.6685 45.7701C47.692 45.7128 47.7266 45.6607 47.7701 45.6169C47.8136 45.573 47.8652 45.5382 47.922 45.5145C47.9789 45.4907 48.0398 45.4785 48.1013 45.4785C48.1628 45.4785 48.2237 45.4907 48.2806 45.5145C48.3374 45.5382 48.389 45.573 48.4325 45.6169L57.4427 54.6989C57.4862 54.7427 57.5208 54.7948 57.5443 54.8521C57.5679 54.9094 57.58 54.9708 57.58 55.0328C57.58 55.0949 57.5679 55.1563 57.5443 55.2136C57.5208 55.2709 57.4862 55.3229 57.4427 55.3668C57.3993 55.4107 57.3477 55.4456 57.2909 55.4693C57.234 55.4931 57.1731 55.5052 57.1116 55.5051Z" fill="#01AA89"/>
<path d="M59.1037 53.5032C59.0422 53.5032 58.9813 53.4911 58.9244 53.4673C58.8676 53.4436 58.8159 53.4087 58.7725 53.3648L49.7623 44.2828C49.7187 44.239 49.6842 44.1869 49.6607 44.1296C49.6371 44.0723 49.625 44.0109 49.625 43.9489C49.625 43.8869 49.6371 43.8254 49.6607 43.7681C49.6842 43.7109 49.7187 43.6588 49.7623 43.6149C49.8057 43.5711 49.8574 43.5363 49.9142 43.5125C49.9711 43.4888 50.032 43.4766 50.0935 43.4766C50.155 43.4766 50.2159 43.4888 50.2728 43.5125C50.3296 43.5363 50.3812 43.5711 50.4247 43.6149L59.4349 52.6969C59.5005 52.763 59.5452 52.8471 59.5633 52.9387C59.5814 53.0304 59.5722 53.1254 59.5367 53.2117C59.5013 53.298 59.4412 53.3718 59.3641 53.4237C59.287 53.4756 59.1964 53.5032 59.1037 53.5032Z" fill="#01AA89"/>
<path d="M58.103 55.9205C57.857 55.9208 57.6134 55.8722 57.386 55.7775C57.1586 55.6829 56.952 55.5439 56.7779 55.3687C56.7344 55.3249 56.6999 55.2728 56.6763 55.2155C56.6527 55.1582 56.6406 55.0968 56.6406 55.0348C56.6406 54.9728 56.6527 54.9114 56.6763 54.8541C56.6999 54.7968 56.7344 54.7447 56.7779 54.7009C56.8214 54.657 56.873 54.6222 56.9298 54.5984C56.9867 54.5747 57.0476 54.5625 57.1091 54.5625C57.1706 54.5625 57.2316 54.5747 57.2884 54.5984C57.3452 54.6222 57.3969 54.657 57.4403 54.7009C57.5274 54.7886 57.6306 54.8582 57.7443 54.9057C57.858 54.9532 57.9799 54.9776 58.1029 54.9776C58.226 54.9776 58.3478 54.9532 58.4615 54.9057C58.5752 54.8582 58.6785 54.7886 58.7655 54.7009C59.1307 54.3318 59.1307 53.7322 58.7655 53.3649C58.722 53.321 58.6875 53.269 58.6639 53.2117C58.6404 53.1544 58.6282 53.0929 58.6282 53.0309C58.6282 52.9689 58.6404 52.9075 58.6639 52.8502C58.6875 52.7929 58.722 52.7408 58.7655 52.697C58.809 52.6531 58.8606 52.6183 58.9175 52.5946C58.9743 52.5708 59.0352 52.5586 59.0967 52.5586C59.1583 52.5586 59.2192 52.5708 59.276 52.5946C59.3328 52.6183 59.3845 52.6531 59.428 52.697C60.1583 53.4331 60.1583 54.6326 59.428 55.3687C59.2539 55.544 59.0473 55.6829 58.82 55.7776C58.5926 55.8723 58.349 55.9208 58.103 55.9205Z" fill="#01AA89"/>
<path d="M26.7263 34.1785C26.6021 34.1784 26.483 34.1286 26.3951 34.0401C26.3073 33.9515 26.2579 33.8314 26.2578 33.7061C26.2578 27.194 31.5124 21.8965 37.9712 21.8965C38.2302 21.8965 38.4397 22.1077 38.4397 22.3688C38.4397 22.6299 38.2302 22.8412 37.9712 22.8412C32.0294 22.8412 27.1948 27.7153 27.1948 33.7061C27.1948 33.8314 27.1454 33.9515 27.0576 34.0401C26.9697 34.1286 26.8506 34.1784 26.7263 34.1785Z" fill="#01AA89"/>
</g>
<defs>
<clipPath id="clip0_757_8442">
<rect width="60" height="51.0811" fill="white" transform="translate(0 4.86523)"/>
</clipPath>
</defs>
</svg>
