<svg width="44" height="44" viewBox="0 0 44 44" fill="none" xmlns="http://www.w3.org/2000/svg">
<path fill-rule="evenodd" clip-rule="evenodd" d="M7.71448 -0.189453H36.2898C39.0364 -0.189453 40.035 0.0965472 41.0384 0.63403C42.0419 1.17151 42.8308 1.96048 43.3683 2.96394C43.9058 3.96741 44.1918 4.96348 44.1918 7.71253V26.2286L33.3657 16.2358C32.9729 15.8733 32.5061 15.6003 31.9976 15.4356C31.4891 15.2709 30.9509 15.2183 30.4201 15.2816C29.8893 15.3449 29.3786 15.5225 28.923 15.8021C28.4675 16.0818 28.078 16.4568 27.7813 16.9015L20.0643 28.4771L14.3862 24.8282C13.6292 24.3418 12.7208 24.1481 11.8313 24.2834C10.9417 24.4186 10.132 24.8735 9.55376 25.5629L-0.175172 37.1631C-0.183271 36.8714 -0.187381 36.5797 -0.1875 36.2879V7.71253C-0.1875 4.96348 0.0985003 3.96741 0.635983 2.96394C1.17347 1.96048 1.96243 1.17151 2.9659 0.63403C3.96936 0.0965472 4.96543 -0.189453 7.71448 -0.189453ZM31.0802 20.8414L44.1918 32.9397V36.2854C44.1918 39.032 43.9058 40.0305 43.3683 41.034C42.8428 42.0266 42.0311 42.8384 41.0384 43.3639C40.035 43.9014 39.0389 44.1874 36.2898 44.1874H7.71448C4.96543 44.1874 3.96936 43.9014 2.9659 43.3639C2.53222 43.1332 2.13028 42.8473 1.77012 42.5133L12.6332 29.5619L18.4173 33.2799C19.2334 33.8043 20.2229 33.9871 21.1725 33.7888C22.1221 33.5905 22.9558 33.027 23.4938 32.2198L31.0802 20.8414ZM12.1105 7.2071C9.37378 7.2071 7.20905 9.25841 7.20905 12.1085C7.20905 14.9612 9.37624 17.0692 12.1105 17.0692C14.9039 17.0692 17.0711 14.9612 17.0711 12.1085C17.0711 9.25841 14.9039 7.2071 12.1105 7.2071Z" fill="#EDEDED"/>
</svg>
