<svg width="22" height="22" viewBox="0 0 22 22" fill="none" xmlns="http://www.w3.org/2000/svg">
<path d="M4.0216 20.0993C3.86366 20.232 3.66982 20.3183 3.46284 20.3483C3.25585 20.3782 3.04431 20.3505 2.85306 20.2684C2.6618 20.1863 2.49876 20.0533 2.38309 19.8848C2.26741 19.7164 2.2039 19.5195 2.2 19.3175V16.9347C1.61652 16.9347 1.05695 16.7108 0.644365 16.3124C0.231785 15.914 0 15.3736 0 14.8101V7.37388C0 6.81039 0.231785 6.26998 0.644365 5.87154C1.05695 5.47309 1.61652 5.24925 2.2 5.24925H14.3C14.8835 5.24925 15.4431 5.47309 15.8556 5.87154C16.2682 6.26998 16.5 6.81039 16.5 7.37388V14.8101C16.5 15.3736 16.2682 15.914 15.8556 16.3124C15.4431 16.7108 14.8835 16.9347 14.3 16.9347H8.8033L4.0216 20.0993ZM17.6 11.6412C17.5965 11.7718 17.5965 11.9025 17.6 12.0332V11.6401C17.6055 11.5265 17.6066 10.103 17.6044 7.37069C17.6035 6.52601 17.2555 5.71622 16.6367 5.11924C16.0179 4.52227 15.179 4.18694 14.3044 4.18694H5.5V3.12463C5.5 2.56114 5.73179 2.02073 6.14437 1.62229C6.55695 1.22384 7.11652 1 7.7 1L19.8 1C20.3835 1 20.9431 1.22384 21.3556 1.62229C21.7682 2.02073 22 2.56114 22 3.12463V10.5608C22 11.1243 21.7682 11.6647 21.3556 12.0632C20.9431 12.4616 20.3835 12.6854 19.8 12.6854V15.0682C19.7961 15.2703 19.7326 15.4671 19.6169 15.6356C19.5012 15.804 19.3382 15.9371 19.1469 16.0192C18.9557 16.1013 18.7441 16.129 18.5372 16.099C18.3302 16.0691 18.1363 15.9827 17.9784 15.8501L17.6 15.5994V11.6412Z" fill="#BDBDBD"/>
</svg>
