<svg width="22" height="22" viewBox="0 0 22 22" fill="none" xmlns="http://www.w3.org/2000/svg">
<path d="M16.1562 2C14.9624 2 13.8679 2.36259 12.9032 3.07772C11.9783 3.76331 11.3625 4.63655 11 5.27153C10.6375 4.63651 10.0217 3.76331 9.09679 3.07772C8.13205 2.36259 7.03755 2 5.84375 2C2.5123 2 0 4.6118 0 8.07529C0 11.8171 3.13427 14.3771 7.87914 18.2527C8.68489 18.9109 9.59819 19.6569 10.5475 20.4525C10.6726 20.5576 10.8333 20.6154 11 20.6154C11.1667 20.6154 11.3274 20.5576 11.4525 20.4526C12.4019 19.6568 13.3152 18.9108 14.1214 18.2523C18.8657 14.3771 22 11.8171 22 8.07529C22 4.6118 19.4877 2 16.1562 2Z" fill="#BDBDBD"/>
</svg>
