<svg width="22" height="22" viewBox="0 0 22 22" fill="none" xmlns="http://www.w3.org/2000/svg">
<path d="M7.70313 10.9978C7.70293 11.6504 7.89628 12.2884 8.25872 12.8311C8.62115 13.3739 9.1364 13.7969 9.73929 14.0468C10.3422 14.2967 11.0056 14.3622 11.6457 14.235C12.2858 14.1078 12.8739 13.7936 13.3354 13.3322C13.7969 12.8708 14.1113 12.2829 14.2387 11.6428C14.3661 11.0027 14.3008 10.3393 14.0511 9.73629C13.8014 9.13333 13.3785 8.61795 12.8359 8.25536C12.2932 7.89276 11.6553 7.69922 11.0026 7.69922C10.1284 7.70155 9.2907 8.04979 8.67245 8.66785C8.05421 9.28591 7.70572 10.1236 7.70313 10.9978Z" fill="#BDBDBD"/>
<path d="M21.8415 9.12452V9.12698C21.761 8.64734 21.6462 8.1741 21.4978 7.71094H21.4924H13.8611C14.7966 8.54564 15.4011 9.68328 15.4011 11.0031C15.4033 11.7765 15.1942 12.5359 14.7966 13.1993L9.77344 21.9229C9.77368 21.9273 9.77368 21.9317 9.77344 21.9362C10.1812 21.9797 10.5911 22.0013 11.0011 21.999C11.337 21.999 11.6695 21.9799 11.998 21.9499C12.4902 21.9054 12.9787 21.8277 13.4604 21.7172C18.3515 20.6006 22.0011 16.2249 22.0011 10.9977C22.0012 10.3699 21.9478 9.74325 21.8415 9.12452Z" fill="#BDBDBD"/>
<path d="M10.9981 15.397C9.34808 15.397 7.97308 14.5176 7.20259 13.1978L2.1588 4.47467L2.15192 4.46289C1.06356 5.93617 0.360429 7.65788 0.106336 9.47177C-0.147757 11.2856 0.0552376 13.1343 0.696895 14.8498C1.33855 16.5654 2.39855 18.0935 3.78069 19.2956C5.16282 20.4977 6.82332 21.3356 8.61147 21.7333V21.7308L12.4266 15.122C11.9704 15.2974 11.4868 15.3905 10.9981 15.397Z" fill="#BDBDBD"/>
<path d="M2.91362 3.56618L6.71205 10.1087C6.90925 9.11574 7.44445 8.22172 8.2266 7.5788C9.00874 6.93588 9.98952 6.58377 11.0021 6.58238H21.0774C20.731 5.82145 20.3068 5.09844 19.8114 4.42493L19.8173 4.42886C20.3107 5.10114 20.733 5.82286 21.0774 6.58238H21.0857C20.7416 5.82058 20.3193 5.09657 19.8256 4.42199C19.8196 4.41822 19.8138 4.41395 19.8084 4.40922C18.8406 3.11556 17.5996 2.05103 16.1736 1.29137C14.7476 0.531715 13.1717 0.0955904 11.558 0.0140237C9.94426 -0.067543 8.3324 0.207453 6.83705 0.819449C5.3417 1.43145 3.99961 2.3654 2.90625 3.55488L2.91312 3.56667L2.91362 3.56618Z" fill="#BDBDBD"/>
</svg>
