<svg width="22" height="22" viewBox="0 0 22 22" fill="none" xmlns="http://www.w3.org/2000/svg">
<g clip-path="url(#clip0_722_10743)">
<path d="M22 11C22 13.1756 21.3549 15.3023 20.1462 17.1113C18.9375 18.9202 17.2195 20.3301 15.2095 21.1627C13.1995 21.9952 10.9878 22.2131 8.85401 21.7886C6.72022 21.3642 4.76021 20.3165 3.22183 18.7782C1.68345 17.2398 0.635804 15.2798 0.211367 13.146C-0.213071 11.0122 0.00476612 8.80047 0.83733 6.79048C1.66989 4.78049 3.07979 3.06253 4.88873 1.85383C6.69767 0.645139 8.82441 8.7779e-08 11 8.7779e-08C12.4446 -0.000182414 13.8751 0.284217 15.2097 0.836954C16.5444 1.38969 17.7571 2.19994 18.7786 3.22142C19.8001 4.2429 20.6103 5.4556 21.163 6.79027C21.7158 8.12493 22.0002 9.55541 22 11ZM15.2697 13.437C15.2685 12.6821 14.9941 11.9531 14.4972 11.3849L14.4958 11.3821C14.167 11.0077 13.7741 10.6948 13.3356 10.4581L13.3314 10.4553C12.9513 10.258 12.5467 10.1118 12.1282 10.0205H12.1254C11.7623 9.94309 11.3921 9.90443 11.0208 9.90514C10.7998 9.90646 10.579 9.88926 10.3609 9.85373C10.1227 9.81407 9.89149 9.74013 9.6745 9.6342L9.67172 9.63281C9.47335 9.53157 9.2979 9.39064 9.15625 9.21877L9.15486 9.21738C9.00841 9.04611 8.9229 8.83111 8.91171 8.60604C8.92258 8.4213 8.98251 8.24281 9.08533 8.08895C9.18815 7.93509 9.33014 7.81142 9.49666 7.7307C9.96397 7.45624 10.497 7.31362 11.0389 7.31805C11.2223 7.3328 11.4041 7.36348 11.5822 7.40975L11.6502 7.42364C11.8765 7.47812 12.0967 7.5554 12.3074 7.65429C12.5037 7.74337 12.6829 7.8661 12.8368 8.01692C12.9373 8.12632 13.0588 8.21425 13.1942 8.27541C13.3296 8.33657 13.4759 8.3697 13.6244 8.37279C13.7729 8.37588 13.9205 8.34888 14.0583 8.29341C14.1961 8.23794 14.3212 8.15515 14.4261 8.05003C14.5311 7.94491 14.6136 7.81963 14.6688 7.68175C14.7241 7.54386 14.7508 7.39622 14.7474 7.24773C14.7441 7.09924 14.7107 6.95296 14.6493 6.81771C14.5879 6.68247 14.4998 6.56105 14.3902 6.46078C14.0482 6.12147 13.6482 5.84618 13.2092 5.64797C12.8595 5.48635 12.494 5.36156 12.1185 5.27561H12.1171L12.106 5.27283V4.18075C12.1112 4.03304 12.0867 3.88579 12.0338 3.74778C11.9809 3.60978 11.9007 3.48384 11.7981 3.37749C11.6954 3.27114 11.5724 3.18655 11.4364 3.12878C11.3003 3.07101 11.1541 3.04124 11.0063 3.04124C10.8585 3.04124 10.7122 3.07101 10.5761 3.12878C10.4401 3.18655 10.3171 3.27114 10.2144 3.37749C10.1118 3.48384 10.0316 3.60978 9.97874 3.74778C9.92584 3.88579 9.90128 4.03304 9.90653 4.18075V5.24087C9.346 5.35779 8.81005 5.57123 8.3226 5.87167C7.84206 6.15055 7.44146 6.54851 7.15941 7.0272C6.87736 7.50589 6.72336 8.04916 6.71227 8.60465C6.72063 9.33611 6.98012 10.0425 7.44727 10.6054C7.78599 11.0218 8.2094 11.3614 8.68941 11.6016C9.10222 11.8071 9.54334 11.9499 9.99823 12.0254C10.3362 12.0813 10.6783 12.1087 11.0208 12.1074C11.2355 12.1062 11.4498 12.1276 11.66 12.1713C11.8854 12.2208 12.1035 12.2992 12.3088 12.4047C12.5091 12.5157 12.6886 12.6605 12.8396 12.8326C12.9856 13.0009 13.0669 13.2157 13.0688 13.4384C13.0688 13.5732 13.0688 13.8886 12.5339 14.2346C12.0594 14.521 11.5154 14.6719 10.9611 14.6708C10.7306 14.6593 10.5013 14.6314 10.2747 14.5875C10.0557 14.5407 9.84206 14.4718 9.63699 14.3818C9.44413 14.2962 9.27315 14.1656 9.14097 14.0011C9.04729 13.8888 8.93218 13.7963 8.80234 13.729C8.67251 13.6617 8.53056 13.621 8.3848 13.6092C8.23903 13.5974 8.09238 13.6147 7.9534 13.6602C7.81442 13.7058 7.68592 13.7785 7.57538 13.8743C7.46485 13.97 7.37452 14.0869 7.30966 14.2179C7.2448 14.349 7.20671 14.4917 7.19763 14.6376C7.18855 14.7836 7.20865 14.9299 7.25676 15.068C7.30487 15.2061 7.38003 15.3332 7.47784 15.442C7.83992 15.8733 8.30085 16.2108 8.8214 16.4257C9.16712 16.5734 9.52763 16.6838 9.89681 16.755H9.90653V17.8429C9.90128 17.9906 9.92584 18.1378 9.97874 18.2758C10.0316 18.4138 10.1118 18.5398 10.2144 18.6461C10.3171 18.7525 10.4401 18.8371 10.5761 18.8948C10.7122 18.9526 10.8585 18.9824 11.0063 18.9824C11.1541 18.9824 11.3003 18.9526 11.4364 18.8948C11.5724 18.8371 11.6954 18.7525 11.7981 18.6461C11.9007 18.5398 11.9809 18.4138 12.0338 18.2758C12.0867 18.1378 12.1112 17.9906 12.106 17.8429V16.7452C12.683 16.6215 13.2335 16.3962 13.7316 16.0797C14.1956 15.8117 14.5816 15.4271 14.8514 14.9641C15.1211 14.5011 15.2653 13.9757 15.2697 13.4398V13.437Z" fill="#BDBDBD"/>
</g>
<defs>
<clipPath id="clip0_722_10743">
<rect width="22" height="22" fill="white"/>
</clipPath>
</defs>
</svg>
