<svg width="22" height="22" viewBox="0 0 22 22" fill="none" xmlns="http://www.w3.org/2000/svg">
<path d="M10.4576 0.0477085C9.99941 0.17127 9.70085 0.372059 8.74852 1.2061C7.70869 2.11738 7.61088 2.18945 7.13729 2.3542C6.83358 2.46232 6.67915 2.47262 5.41281 2.49836C4.03837 2.52925 4.01778 2.52925 3.72436 2.66826C3.14267 2.94112 2.6382 3.56923 2.50951 4.19219C2.47862 4.34665 2.45288 4.9799 2.45288 5.63375C2.44773 7.29669 2.45803 7.28125 1.14536 8.81033C0.702662 9.32517 0.332027 9.81428 0.239368 9.99447C-0.0797894 10.6277 -0.0797894 11.3691 0.239368 11.9972C0.332027 12.1826 0.702662 12.6665 1.14536 13.1865C2.05651 14.2471 2.1749 14.417 2.32934 14.8546C2.44259 15.1738 2.45288 15.2716 2.45288 16.3631C2.45288 17.0272 2.47862 17.6502 2.50951 17.8046C2.64335 18.4327 3.10149 19.0197 3.68318 19.3028L4.02293 19.4676L5.43855 19.4985C7.38438 19.5345 7.20421 19.4624 8.88236 20.904C9.42802 21.3673 9.88617 21.7174 10.056 21.7947C10.6583 22.0727 11.3996 22.0675 11.9916 21.7844C12.146 21.7123 12.6865 21.2901 13.2785 20.7804C14.2669 19.9309 14.5551 19.7301 14.9875 19.5963C15.1162 19.5551 15.7134 19.5191 16.5833 19.4985C17.9732 19.4676 17.9732 19.4676 18.2666 19.3234C18.6527 19.1329 19.0748 18.7468 19.2498 18.4173C19.4866 17.99 19.5433 17.5833 19.5433 16.3476C19.5433 15.1944 19.5793 14.9318 19.8006 14.4993C19.8521 14.4015 20.2897 13.8558 20.7736 13.2895C21.2574 12.7231 21.7156 12.1414 21.7877 11.9921C22.0708 11.4206 22.0708 10.602 21.7877 10.0202C21.7053 9.85031 21.2986 9.32517 20.7787 8.71766C19.9293 7.72916 19.7286 7.4357 19.5947 7.00838C19.5536 6.87967 19.5175 6.26701 19.4969 5.41237L19.466 4.02229L19.3116 3.71339C19.1211 3.31696 18.6784 2.8742 18.2821 2.6837L17.9732 2.52925L16.5833 2.49836C15.7134 2.47777 15.1162 2.44173 14.9875 2.40054C14.5654 2.27183 14.2669 2.07104 13.402 1.32967C12.1975 0.294832 12.1357 0.248497 11.8217 0.130083C11.4717 -0.00377655 10.8076 -0.0398159 10.4576 0.0477085ZM15.2861 7.62105C15.5075 7.71372 15.7237 7.97114 15.7648 8.19767C15.8369 8.59925 15.8163 8.63014 12.8667 11.575C10.4679 13.9691 10.0663 14.3449 9.88102 14.4015C9.45891 14.5251 9.41772 14.489 7.7962 12.8673C6.57104 11.6368 6.31366 11.3485 6.26733 11.1786C6.15923 10.7667 6.41147 10.3394 6.83872 10.221C7.2248 10.118 7.35864 10.2159 8.55291 11.4103C9.1449 12.0024 9.65452 12.4915 9.6854 12.4915C9.71629 12.4915 10.8128 11.4103 12.1306 10.0923C13.4484 8.77429 14.5963 7.66223 14.6787 7.62105C14.8794 7.53352 15.0751 7.53352 15.2861 7.62105Z" fill="#BDBDBD"/>
</svg>
