<svg width="22" height="22" viewBox="0 0 22 22" fill="none" xmlns="http://www.w3.org/2000/svg">
<path d="M2.2 19.4167C1.595 19.4167 1.0769 19.2033 0.645702 18.7766C0.214502 18.3499 -0.000731466 17.8376 1.86757e-06 17.2396V4.17708C1.86757e-06 3.57839 0.215602 3.06568 0.646802 2.63898C1.078 2.21227 1.59573 1.99928 2.2 2H19.8C20.405 2 20.9231 2.21336 21.3543 2.64006C21.7855 3.06677 22.0007 3.57911 22 4.17708V17.2396C22 17.8383 21.7844 18.351 21.3532 18.7777C20.922 19.2044 20.4043 19.4174 19.8 19.4167H2.2ZM11 11.6064C11.0917 11.6064 11.1881 11.5926 11.2893 11.565C11.3905 11.5374 11.4866 11.4968 11.5775 11.4431L19.36 6.6263C19.5067 6.53559 19.6167 6.42202 19.69 6.28559C19.7633 6.14916 19.8 5.99967 19.8 5.83711C19.8 5.47426 19.6442 5.20213 19.3325 5.0207C19.0208 4.83928 18.7 4.84835 18.37 5.04792L11 9.61979L3.63 5.04792C3.3 4.84835 2.97917 4.844 2.6675 5.03486C2.35583 5.22571 2.2 5.49313 2.2 5.83711C2.2 6.01853 2.23667 6.17746 2.31 6.31389C2.38333 6.45032 2.49333 6.55446 2.64 6.6263L10.4225 11.4431C10.5142 11.4975 10.6106 11.5385 10.7118 11.5661C10.813 11.5937 10.9091 11.6071 11 11.6064Z" fill="#BDBDBD"/>
</svg>
