<svg width="22" height="22" viewBox="0 0 22 22" fill="none" xmlns="http://www.w3.org/2000/svg">
<path d="M12.7948 0.61752C12.6967 0.535932 12.5804 0.479133 12.4557 0.451912C12.331 0.424692 12.2016 0.427847 12.0784 0.461113C11.9552 0.494378 11.8418 0.556778 11.7477 0.643052C11.6537 0.729326 11.5818 0.836946 11.538 0.956837L9.34889 6.96803L6.94481 4.63858C6.86407 4.56027 6.76766 4.49996 6.66192 4.46163C6.55618 4.42329 6.44352 4.40779 6.33136 4.41616C6.21919 4.42453 6.11008 4.45657 6.0112 4.51017C5.91232 4.56377 5.82592 4.63772 5.7577 4.72714C3.60239 7.55114 2.50781 10.3921 2.50781 13.1703C2.50781 15.4927 3.43038 17.7199 5.07256 19.3621C6.71473 21.0043 8.942 21.9269 11.2644 21.9269C13.5868 21.9269 15.8141 21.0043 17.4562 19.3621C19.0984 17.7199 20.021 15.4927 20.021 13.1703C20.021 7.25461 14.967 2.42356 12.7948 0.61752Z" fill="#BDBDBD"/>
</svg>
