<svg width="22" height="22" viewBox="0 0 22 22" fill="none" xmlns="http://www.w3.org/2000/svg">
<path d="M14.6773 17.0497C14.9735 17.0497 15.185 17.2612 15.2696 17.5151L15.6081 19.7997C15.6927 20.4343 16.2004 20.8997 16.835 20.9843L19.585 21.2805C20.4312 21.3651 21.1504 20.7305 21.1504 19.8843V17.2612C21.1504 16.8382 20.9812 16.4997 20.685 16.2035C17.9773 13.7497 14.3812 12.4805 10.9543 12.4805C7.52733 12.4805 3.93118 13.7497 1.22349 16.2035C0.969643 16.4574 0.84272 16.8805 0.84272 17.2612V19.8843C0.758104 20.7305 1.47734 21.4074 2.32349 21.2805L5.07349 20.9843C5.7081 20.8997 6.2158 20.4343 6.30041 19.7997L6.63887 17.5151C6.68118 17.2189 6.93503 17.0497 7.23118 17.0497C7.23118 17.0497 10.785 16.7535 14.6773 17.0497Z" fill="#BDBDBD"/>
<path d="M16.8018 5.33038C17.0133 5.11884 17.3941 5.28807 17.3941 5.58423V8.41884C17.3941 8.71499 17.6056 8.92653 17.9018 8.92653H18.9595C19.2556 8.92653 19.4672 8.71499 19.4672 8.41884L19.5095 1.6073C19.5095 1.31115 19.298 1.09961 19.0018 1.09961H12.2326C11.9364 1.09961 11.7249 1.31115 11.7249 1.6073V2.66499C11.7249 2.96115 11.9364 3.17269 12.2326 3.17269H15.0672C15.3633 3.17269 15.5326 3.55346 15.321 3.76499L11.3441 7.74192C11.2172 7.86884 10.9633 7.86884 10.7941 7.74192L4.27873 1.26884C4.06719 1.0573 3.72873 1.0573 3.51719 1.26884L2.71334 2.03038C2.5018 2.24192 2.5018 2.58038 2.71334 2.83422L10.6672 10.8304C10.8787 11.0842 11.2172 11.0842 11.471 10.8304L16.8018 5.33038Z" fill="#BDBDBD"/>
</svg>
