<svg width="22" height="22" viewBox="0 0 22 22" fill="none" xmlns="http://www.w3.org/2000/svg">
<path d="M19.7641 15.5036C18.3781 14.3321 17.5833 12.6198 17.5833 10.8057V8.25C17.5833 5.02425 15.1872 2.354 12.0833 1.90667V0.916667C12.0833 0.40975 11.6727 0 11.1667 0C10.6607 0 10.25 0.40975 10.25 0.916667V1.90667C7.14525 2.354 4.75 5.02425 4.75 8.25V10.8057C4.75 12.6198 3.95525 14.3321 2.561 15.5109C2.20442 15.8162 2 16.2598 2 16.7292C2 17.6138 2.71958 18.3333 3.60417 18.3333H18.7292C19.6138 18.3333 20.3333 17.6138 20.3333 16.7292C20.3333 16.2598 20.1289 15.8162 19.7641 15.5036Z" fill="#BDBDBD"/>
<path d="M11.1647 22C12.8248 22 14.2135 20.8166 14.5325 19.25H7.79688C8.11588 20.8166 9.50462 22 11.1647 22Z" fill="#BDBDBD"/>
</svg>
