<svg width="22" height="22" viewBox="0 0 22 22" fill="none" xmlns="http://www.w3.org/2000/svg">
<path fill-rule="evenodd" clip-rule="evenodd" d="M11.9749 0.130485C11.3659 -0.0434949 10.7205 -0.0434949 10.1115 0.130485L4.45957 1.74534C3.00372 2.16129 2 3.49195 2 5.00605V11.0813C2 14.3669 3.58673 17.4502 6.26032 19.3599L9.07212 21.3683C10.2512 22.2106 11.8352 22.2106 13.0143 21.3683L15.826 19.3599C18.4996 17.4502 20.0864 14.3669 20.0864 11.0813V5.00605C20.0864 3.49195 19.0827 2.16129 17.6269 1.74534L11.9749 0.130485ZM15.2075 6.9976C15.663 7.42459 15.6861 8.13995 15.259 8.5954L11.02 13.117C10.6151 13.549 9.94546 13.5952 9.48494 13.2231L6.94152 11.1678C6.45594 10.7754 6.38039 10.0637 6.77278 9.57812C7.16517 9.09251 7.8769 9.017 8.36248 9.40936L10.089 10.8046L13.6098 7.04915C14.0367 6.5937 14.752 6.57062 15.2075 6.9976Z" fill="#BDBDBD"/>
</svg>
