<svg width="22" height="22" viewBox="0 0 22 22" fill="none" xmlns="http://www.w3.org/2000/svg">
<path d="M11 0C4.95816 0 0 4.95816 0 11C0 17.0418 4.95816 22 11 22C17.0418 22 22 17.0418 22 11C22 4.95816 17.0418 0 11 0ZM12.2891 16.1562C12.2891 16.8669 11.7106 17.4453 11 17.4453C10.2894 17.4453 9.71094 16.8669 9.71094 16.1562V9.71094C9.71094 9.00032 10.2894 8.42188 11 8.42188C11.7106 8.42188 12.2891 9.00032 12.2891 9.71094V16.1562ZM11 7.13281C10.2894 7.13281 9.71094 6.55437 9.71094 5.84375C9.71094 5.13313 10.2894 4.55469 11 4.55469C11.7106 4.55469 12.2891 5.13313 12.2891 5.84375C12.2891 6.55437 11.7106 7.13281 11 7.13281Z" fill="#BDBDBD"/>
</svg>
