<svg width="22" height="22" viewBox="0 0 22 22" fill="none" xmlns="http://www.w3.org/2000/svg">
<path d="M11 16.95C12.375 16.95 13.5439 16.4686 14.5068 15.5057C15.4697 14.5428 15.9507 13.3743 15.95 12C15.95 10.625 15.4686 9.45607 14.5057 8.49321C13.5428 7.53034 12.3743 7.04927 11 7.05001C9.625 7.05001 8.45607 7.53144 7.4932 8.49431C6.53033 9.45717 6.04927 10.6257 6.05 12C6.05 13.375 6.53143 14.5439 7.4943 15.5068C8.45717 16.4697 9.62573 16.9507 11 16.95ZM2.2 20.8C1.595 20.8 1.0769 20.5844 0.645702 20.1532C0.214502 19.722 -0.000731466 19.2043 1.86757e-06 18.6V5.40001C1.86757e-06 4.79501 0.215602 4.27691 0.646802 3.84571C1.078 3.41451 1.59573 3.19927 2.2 3.20001H5.665L7.04 1.71501C7.24167 1.47667 7.48477 1.29774 7.7693 1.17821C8.05383 1.05867 8.3512 0.999273 8.6614 1.00001H13.3364C13.6481 1.00001 13.9462 1.05977 14.2307 1.17931C14.5152 1.29884 14.758 1.47741 14.9589 1.71501L16.335 3.20001H19.8C20.405 3.20001 20.9231 3.41561 21.3543 3.84681C21.7855 4.27801 22.0007 4.79574 22 5.40001V18.6C22 19.205 21.7844 19.7231 21.3532 20.1543C20.922 20.5855 20.4043 20.8007 19.8 20.8H2.2Z" fill="#BDBDBD"/>
</svg>
