<svg width="18" height="18" viewBox="0 0 18 18" fill="none" xmlns="http://www.w3.org/2000/svg">
<path d="M9.90234 6.09375C9.48132 6.09375 9.14062 5.75306 9.14062 5.33203V0.761719C9.14062 0.340691 9.48132 0 9.90234 0C10.3234 0 10.6641 0.340691 10.6641 0.761719V5.33203C10.6641 5.75306 10.3234 6.09375 9.90234 6.09375Z" fill="white"/>
<path d="M6.13252 7.20958L2.90039 3.97745C2.60286 3.67992 2.60286 3.19786 2.90039 2.90033C3.19792 2.6028 3.67999 2.6028 3.97751 2.90033L7.20959 6.1324C7.50711 6.42993 7.50711 6.912 7.20959 7.20953C6.91206 7.5071 6.43004 7.5071 6.13252 7.20958Z" fill="white"/>
<path d="M2.90039 16.9043C2.60286 16.6068 2.60286 16.1248 2.90039 15.8272L6.13247 12.5952C6.42999 12.2976 6.91206 12.2976 7.20959 12.5952C7.50711 12.8927 7.50711 13.3747 7.20959 13.6723L3.97751 16.9043C3.67999 17.2019 3.19797 17.2019 2.90039 16.9043Z" fill="white"/>
<path d="M12.5952 7.20959C12.2977 6.91206 12.2977 6.42999 12.5952 6.13247L15.8273 2.90039C16.1248 2.60286 16.6069 2.60286 16.9044 2.90039C17.2019 3.19792 17.2019 3.67999 16.9044 3.97751L13.6723 7.20959C13.3748 7.50711 12.8928 7.50711 12.5952 7.20959Z" fill="white"/>
<path d="M5.33203 10.6641H0.761719C0.340691 10.6641 0 10.3234 0 9.90234C0 9.48132 0.340691 9.14062 0.761719 9.14062H5.33203C5.75306 9.14062 6.09375 9.48132 6.09375 9.90234C6.09375 10.3234 5.75306 10.6641 5.33203 10.6641Z" fill="white"/>
</svg>
