<svg width="16" height="16" viewBox="0 0 16 16" fill="none" xmlns="http://www.w3.org/2000/svg">
<path d="M7.9974 10.3827C7.90851 10.3827 7.82517 10.3689 7.7474 10.3414C7.66962 10.3138 7.5974 10.2665 7.53073 10.1994L5.13073 7.79935C5.00851 7.67713 4.9474 7.52157 4.9474 7.33268C4.9474 7.1438 5.00851 6.98824 5.13073 6.86602C5.25295 6.7438 5.4114 6.68002 5.60606 6.67468C5.80073 6.66935 5.95895 6.72757 6.08073 6.84935L7.33073 8.09935V3.33268C7.33073 3.1438 7.39473 2.98535 7.52273 2.85735C7.65073 2.72935 7.80895 2.66557 7.9974 2.66602C8.18629 2.66602 8.34473 2.73002 8.47273 2.85802C8.60073 2.98602 8.66451 3.14424 8.66406 3.33268V8.09935L9.91406 6.84935C10.0363 6.72713 10.1947 6.66868 10.3894 6.67402C10.5841 6.67935 10.7423 6.74335 10.8641 6.86602C10.9863 6.98824 11.0474 7.1438 11.0474 7.33268C11.0474 7.52157 10.9863 7.67713 10.8641 7.79935L8.46406 10.1994C8.3974 10.266 8.32518 10.3134 8.2474 10.3414C8.16962 10.3694 8.08629 10.3831 7.9974 10.3827ZM3.9974 13.3327C3.63073 13.3327 3.31673 13.202 3.0554 12.9407C2.79406 12.6794 2.66362 12.3656 2.66406 11.9994V10.666C2.66406 10.4771 2.72806 10.3187 2.85606 10.1907C2.98406 10.0627 3.14229 9.99891 3.33073 9.99935C3.51962 9.99935 3.67806 10.0634 3.80606 10.1914C3.93406 10.3194 3.99784 10.4776 3.9974 10.666V11.9994H11.9974V10.666C11.9974 10.4771 12.0614 10.3187 12.1894 10.1907C12.3174 10.0627 12.4756 9.99891 12.6641 9.99935C12.853 9.99935 13.0114 10.0634 13.1394 10.1914C13.2674 10.3194 13.3312 10.4776 13.3307 10.666V11.9994C13.3307 12.366 13.2001 12.68 12.9387 12.9414C12.6774 13.2027 12.3636 13.3331 11.9974 13.3327H3.9974Z" fill="#01AA89"/>
</svg>
