<svg width="28" height="20" viewBox="0 0 28 20" fill="none" xmlns="http://www.w3.org/2000/svg">
<path fill-rule="evenodd" clip-rule="evenodd" d="M1.69531 10C1.69531 7.1875 6.16222 0.625 14.2027 0.625C22.2431 0.625 26.71 7.1875 26.71 10C26.71 12.8125 22.2431 19.375 14.2027 19.375C6.16222 19.375 1.69531 12.8125 1.69531 10ZM14.2027 15.9375C15.7033 15.9375 17.1424 15.3119 18.2035 14.1984C19.2646 13.0849 19.8608 11.5747 19.8608 10C19.8608 8.42528 19.2646 6.91505 18.2035 5.80155C17.1424 4.68806 15.7033 4.0625 14.2027 4.0625C12.702 4.0625 11.2629 4.68806 10.2018 5.80155C9.1407 6.91505 8.54458 8.42528 8.54458 10C8.54458 11.5747 9.1407 13.0849 10.2018 14.1984C11.2629 15.3119 12.702 15.9375 14.2027 15.9375ZM17.4188 10C17.4188 10.8951 17.08 11.7535 16.4768 12.3865C15.8737 13.0194 15.0556 13.375 14.2027 13.375C13.3497 13.375 12.5316 13.0194 11.9285 12.3865C11.3253 11.7535 10.9865 10.8951 10.9865 10C10.9865 9.10489 11.3253 8.24645 11.9285 7.61351C12.5316 6.98058 13.3497 6.625 14.2027 6.625C15.0556 6.625 15.8737 6.98058 16.4768 7.61351C17.08 8.24645 17.4188 9.10489 17.4188 10Z" fill="#01AA89"/>
</svg>
