<svg width="22" height="20" viewBox="0 0 22 20" fill="none" xmlns="http://www.w3.org/2000/svg">
<g clip-path="url(#clip0_1163_3764)">
<path d="M20.2587 10.6232C20.1774 10.6236 20.0969 10.6079 20.0216 10.5768C19.9464 10.5457 19.8779 10.4998 19.8202 10.4419L10.994 1.5044L2.16784 10.4419C2.04968 10.5443 1.89769 10.5978 1.74225 10.5917C1.5868 10.5856 1.43934 10.5204 1.32934 10.4091C1.21934 10.2978 1.1549 10.1486 1.1489 9.99131C1.14289 9.83401 1.19577 9.68021 1.29696 9.56065L10.5617 0.185652C10.6774 0.0692449 10.8339 0.00390625 10.9971 0.00390625C11.1603 0.00390625 11.3168 0.0692449 11.4325 0.185652L20.6973 9.56065C20.7822 9.64839 20.8398 9.75953 20.8627 9.88019C20.8856 10.0008 20.8729 10.1257 20.8261 10.239C20.7793 10.3524 20.7005 10.4493 20.5996 10.5176C20.4987 10.5859 20.3801 10.6226 20.2587 10.6232Z" fill="#FF203B"/>
<path d="M10.9977 3.61719L3.58594 11.1422V18.7484C3.58594 19.08 3.71608 19.3979 3.94775 19.6323C4.17941 19.8667 4.49361 19.9984 4.82123 19.9984H9.14476V13.7484H12.8506V19.9984H17.1742C17.5018 19.9984 17.816 19.8667 18.0477 19.6323C18.2793 19.3979 18.4095 19.08 18.4095 18.7484V11.0984L10.9977 3.61719Z" fill="#FF203B"/>
</g>
<defs>
<clipPath id="clip0_1163_3764">
<rect width="21" height="20" fill="white" transform="translate(0.5)"/>
</clipPath>
</defs>
</svg>
