<svg width="16" height="16" viewBox="0 0 16 16" fill="none" xmlns="http://www.w3.org/2000/svg">
<path d="M7.24372 4.01531V12.1248C7.24372 12.6385 6.94645 12.7614 6.58351 12.3985L4.14645 9.95973H2.48077C2.23344 9.95907 1.99641 9.86058 1.82144 9.68576C1.64647 9.51095 1.54776 9.27401 1.54688 9.02668V7.11342C1.54776 6.86608 1.64647 6.62915 1.82144 6.45433C1.99641 6.27952 2.23344 6.18103 2.48077 6.18036H4.14561L6.58351 3.74163C6.94645 3.37952 7.24372 3.50163 7.24372 4.01531ZM8.99193 10.3092C9.05328 10.3092 9.11403 10.2971 9.17068 10.2735C9.22733 10.25 9.27876 10.2154 9.32203 10.1719C9.87946 9.61447 10.1926 8.8584 10.1926 8.07005C10.1926 7.28169 9.87946 6.52562 9.32203 5.96815C9.27868 5.9248 9.22722 5.89042 9.17058 5.86695C9.11394 5.84349 9.05323 5.83142 8.99193 5.83142C8.93062 5.83142 8.86992 5.84349 8.81328 5.86695C8.75664 5.89042 8.70517 5.9248 8.66182 5.96815C8.61847 6.0115 8.58408 6.06297 8.56062 6.11961C8.53716 6.17625 8.52509 6.23695 8.52509 6.29826C8.52509 6.35956 8.53716 6.42027 8.56062 6.47691C8.58408 6.53355 8.61847 6.58501 8.66182 6.62836C9.04426 7.01085 9.25911 7.52958 9.25911 8.07047C9.25911 8.61135 9.04426 9.13009 8.66182 9.51257C8.59649 9.57782 8.55198 9.66099 8.53395 9.75154C8.51591 9.8421 8.52515 9.93597 8.5605 10.0213C8.59584 10.1066 8.65571 10.1795 8.73251 10.2307C8.80931 10.282 8.89959 10.3093 8.99193 10.3092ZM10.8311 11.681C11.3057 11.2071 11.6822 10.6443 11.9391 10.0248C12.1959 9.40524 12.3282 8.74114 12.3282 8.07047C12.3282 7.39979 12.1959 6.7357 11.9391 6.11617C11.6822 5.49664 11.3057 4.93383 10.8311 4.45994C10.7436 4.37239 10.625 4.32316 10.5013 4.32308C10.3775 4.32301 10.2588 4.37208 10.1713 4.45952C10.0837 4.54696 10.0345 4.66559 10.0344 4.78933C10.0344 4.91306 10.0834 5.03176 10.1709 5.11931C10.5584 5.50678 10.8658 5.9668 11.0756 6.47309C11.2853 6.97938 11.3933 7.52203 11.3933 8.07005C11.3933 8.61806 11.2853 9.16071 11.0756 9.667C10.8658 10.1733 10.5584 10.6333 10.1709 11.0208C10.1275 11.0641 10.0931 11.1156 10.0697 11.1722C10.0462 11.2289 10.0341 11.2896 10.0341 11.3509C10.0341 11.4122 10.0462 11.4729 10.0697 11.5295C10.0931 11.5862 10.1275 11.6376 10.1709 11.681C10.2142 11.7243 10.2657 11.7587 10.3223 11.7822C10.379 11.8057 10.4397 11.8177 10.501 11.8177C10.5623 11.8177 10.623 11.8057 10.6796 11.7822C10.7363 11.7587 10.7877 11.7243 10.8311 11.681ZM12.3385 13.1884C13.0113 12.5165 13.5451 11.7186 13.9093 10.8403C14.2734 9.96197 14.4609 9.02046 14.4609 8.06963C14.4609 7.11879 14.2734 6.17729 13.9093 5.29896C13.5451 4.42064 13.0113 3.62274 12.3385 2.95089C12.2509 2.86345 12.1322 2.81437 12.0085 2.81445C11.8847 2.81453 11.7661 2.86376 11.6787 2.95131C11.5912 3.03886 11.5421 3.15756 11.5422 3.28129C11.5423 3.40503 11.5915 3.52366 11.6791 3.6111C12.2654 4.19625 12.7305 4.89127 13.0479 5.6564C13.3652 6.42152 13.5286 7.24172 13.5286 8.07005C13.5286 8.89838 13.3652 9.71858 13.0479 10.4837C12.7305 11.2488 12.2654 11.9438 11.6791 12.529C11.6357 12.5723 11.6013 12.6238 11.5779 12.6804C11.5544 12.7371 11.5424 12.7978 11.5424 12.8591C11.5424 12.9204 11.5544 12.9811 11.5779 13.0378C11.6013 13.0944 11.6357 13.1459 11.6791 13.1892C11.7224 13.2326 11.7739 13.2669 11.8305 13.2904C11.8872 13.3139 11.9479 13.3259 12.0092 13.3259C12.0705 13.3259 12.1312 13.3139 12.1878 13.2904C12.2445 13.2669 12.2959 13.2326 12.3393 13.1892L12.3385 13.1884Z" fill="white"/>
</svg>
