<svg width="16" height="16" viewBox="0 0 16 16" fill="none" xmlns="http://www.w3.org/2000/svg">
<g clip-path="url(#clip0_1169_5508)">
<path d="M7.99653 10.8535C7.64492 10.8535 7.3012 10.9578 7.00885 11.1531C6.71649 11.3485 6.48863 11.6261 6.35408 11.951C6.21952 12.2758 6.18431 12.6333 6.25291 12.9781C6.32151 13.323 6.49082 13.6397 6.73945 13.8884C6.98808 14.137 7.30485 14.3063 7.6497 14.3749C7.99456 14.4435 8.35201 14.4083 8.67685 14.2737C9.0017 14.1392 9.27935 13.9113 9.4747 13.619C9.67004 13.3266 9.77431 12.9829 9.77431 12.6313C9.77431 12.1598 9.587 11.7076 9.25361 11.3742C8.92021 11.0408 8.46802 10.8535 7.99653 10.8535ZM7.99653 13.5202C7.82072 13.5202 7.64887 13.468 7.50269 13.3704C7.35651 13.2727 7.24258 13.1339 7.1753 12.9715C7.10802 12.809 7.09042 12.6303 7.12472 12.4579C7.15902 12.2855 7.24368 12.1271 7.36799 12.0028C7.4923 11.8784 7.65069 11.7938 7.82311 11.7595C7.99554 11.7252 8.17427 11.7428 8.33669 11.8101C8.49912 11.8773 8.63794 11.9913 8.73561 12.1375C8.83329 12.2836 8.88542 12.4555 8.88542 12.6313C8.88542 12.867 8.79177 13.0931 8.62507 13.2598C8.45837 13.4265 8.23228 13.5202 7.99653 13.5202Z" fill="#F9F9F9"/>
<path d="M11.6526 9.71099C11.6869 9.66349 11.7115 9.60967 11.7249 9.55262C11.7384 9.49558 11.7404 9.43644 11.7309 9.37861C11.7214 9.32078 11.7006 9.2654 11.6696 9.21565C11.6386 9.16591 11.5981 9.12279 11.5503 9.08877C10.8847 8.61074 10.1285 8.2735 9.32812 8.09766L11.0481 9.81766C11.1433 9.88101 11.2592 9.90528 11.3717 9.88542C11.4843 9.86555 11.5849 9.80308 11.6526 9.71099Z" fill="#F9F9F9"/>
<path d="M8.02076 4.76367C7.39962 4.76534 6.78022 4.82936 6.17188 4.95478L6.94521 5.72812C7.30175 5.68005 7.661 5.65481 8.02076 5.65256C9.70069 5.65323 11.3412 6.16135 12.7274 7.11034C12.8246 7.16603 12.9393 7.18296 13.0484 7.15774C13.1576 7.13252 13.2532 7.067 13.3161 6.97431C13.379 6.88162 13.4046 6.76859 13.3878 6.65784C13.3709 6.54709 13.3128 6.44678 13.2252 6.37701C11.6925 5.32731 9.87847 4.76499 8.02076 4.76367Z" fill="#F9F9F9"/>
<path d="M14.9082 3.64417C13.2581 2.55379 11.3726 1.87079 9.40691 1.65135C7.44124 1.43191 5.45156 1.68231 3.60156 2.38194L4.30378 3.07972C5.97747 2.50903 7.7598 2.33006 9.51353 2.5566C11.2673 2.78314 12.9456 3.40913 14.4193 4.38639C14.5178 4.4489 14.6368 4.47023 14.7508 4.44579C14.8648 4.42134 14.9647 4.35307 15.0288 4.2557C15.0929 4.15833 15.1162 4.03965 15.0937 3.92526C15.0711 3.81086 15.0045 3.70991 14.9082 3.64417Z" fill="#F9F9F9"/>
<path d="M0.820312 2.1103L1.90031 3.1903C1.62476 3.34141 1.35365 3.50141 1.08698 3.67919C0.989144 3.7452 0.921538 3.84737 0.899033 3.96323C0.876529 4.07908 0.90097 4.19914 0.966979 4.29697C1.03299 4.39481 1.13516 4.46241 1.25102 4.48492C1.36687 4.50742 1.48692 4.48298 1.58476 4.41697C1.89587 4.20808 2.22476 3.99919 2.55365 3.84364L4.27365 5.56364C3.7478 5.7944 3.24484 6.07416 2.77142 6.39919C2.70151 6.47386 2.65948 6.57036 2.65245 6.67241C2.64541 6.77446 2.6738 6.87581 2.73281 6.95937C2.79182 7.04292 2.87784 7.10356 2.97637 7.13106C3.0749 7.15856 3.1799 7.15123 3.27365 7.1103C3.79665 6.75144 4.35879 6.45322 4.9492 6.22142L6.79809 8.0703C5.94668 8.24984 5.14446 8.61228 4.44698 9.13253C4.36011 9.20492 4.3041 9.30771 4.29036 9.41996C4.27663 9.53221 4.30619 9.64547 4.37304 9.73668C4.43989 9.82789 4.539 9.89019 4.65017 9.91089C4.76135 9.93158 4.87623 9.90912 4.97142 9.84808C5.72956 9.29742 6.62427 8.96536 7.55809 8.88808L12.3581 13.6881L12.9848 13.0614L1.4292 1.50586L0.820312 2.1103Z" fill="#F9F9F9"/>
</g>
<defs>
<clipPath id="clip0_1169_5508">
<rect width="16" height="16" fill="white"/>
</clipPath>
</defs>
</svg>
