<svg width="16" height="16" viewBox="0 0 16 16" fill="none" xmlns="http://www.w3.org/2000/svg">
<path d="M16 2.66663H0V13.3334H16V2.66663Z" fill="#F0F0F0"/>
<path d="M9 2.6665H7V6.99982H0V8.99982H7V13.3331H9V8.99982H16V6.99982H9V2.6665Z" fill="#D80027"/>
<path d="M12.3047 9.85498L15.9989 11.9074V9.85498H12.3047Z" fill="#0052B4"/>
<path d="M9.73828 9.85498L15.9992 13.3332V12.3497L11.5087 9.85498H9.73828Z" fill="#0052B4"/>
<path d="M14.3315 13.3333L9.73828 10.7812V13.3333H14.3315Z" fill="#0052B4"/>
<path d="M9.73828 9.85498L15.9992 13.3332V12.3497L11.5087 9.85498H9.73828Z" fill="#F0F0F0"/>
<path d="M9.73828 9.85498L15.9992 13.3332V12.3497L11.5087 9.85498H9.73828Z" fill="#D80027"/>
<path d="M2.82316 9.85486L0 11.4233V9.85486H2.82316Z" fill="#0052B4"/>
<path d="M6.26116 10.2971V13.3331H0.796875L6.26116 10.2971Z" fill="#0052B4"/>
<path d="M4.49041 9.85498L0 12.3497V13.3332L6.26088 9.85498H4.49041Z" fill="#D80027"/>
<path d="M3.69422 6.14478L0 4.09241V6.14478H3.69422Z" fill="#0052B4"/>
<path d="M6.26088 6.14475L0 2.6665V3.65007L4.49041 6.14475H6.26088Z" fill="#0052B4"/>
<path d="M1.66797 2.6665L6.26116 5.2185V2.6665H1.66797Z" fill="#0052B4"/>
<path d="M6.26088 6.14475L0 2.6665V3.65007L4.49041 6.14475H6.26088Z" fill="#F0F0F0"/>
<path d="M6.26088 6.14475L0 2.6665V3.65007L4.49041 6.14475H6.26088Z" fill="#D80027"/>
<path d="M13.1758 6.14485L15.9989 4.57642V6.14485H13.1758Z" fill="#0052B4"/>
<path d="M9.73828 5.70259V2.66663H15.2026L9.73828 5.70259Z" fill="#0052B4"/>
<path d="M11.5087 6.14475L15.9992 3.65007V2.6665L9.73828 6.14475H11.5087Z" fill="#D80027"/>
</svg>
