<svg width="16" height="16" viewBox="0 0 16 16" fill="none" xmlns="http://www.w3.org/2000/svg">
<path d="M16 2.66663H0V13.3334H16V2.66663Z" fill="#F0F0F0"/>
<path d="M10 6.84515H8.66666L8 5.69043L7.33334 6.84512H6L6.66672 7.99984L6 9.15449H7.33334L8 10.3092L8.66666 9.15452H10L9.33328 7.9998L10 6.84515ZM8.81903 7.9998L8.40953 8.70915H7.5905L7.18097 7.9998L7.5905 7.29046H8.40953L8.81903 7.9998ZM8 6.58115L8.15241 6.84515H7.84759L8 6.58115ZM6.77141 7.29046H7.07625L6.92384 7.55446L6.77141 7.29046ZM6.77141 8.70918L6.92381 8.44518L7.07622 8.70918H6.77141ZM8 9.41849L7.84762 9.15449H8.15244L8 9.41849ZM9.22859 8.70918H8.92375L9.07616 8.44518L9.22859 8.70918ZM8.92375 7.29046H9.22859L9.07619 7.55446L8.92375 7.29046Z" fill="#2E52B2"/>
<path d="M16 3.33301H0V4.66623H16V3.33301Z" fill="#2E52B2"/>
<path d="M16 11.333H0V12.6662H16V11.333Z" fill="#2E52B2"/>
</svg>
