<svg width="16" height="16" viewBox="0 0 16 16" fill="none" xmlns="http://www.w3.org/2000/svg">
<path d="M16 2.66663H0V13.3334H16V2.66663Z" fill="#0052B4"/>
<path d="M16 2.66663H0V6.2221H16V2.66663Z" fill="#D80027"/>
<path d="M16 9.77759H0V13.3331H16V9.77759Z" fill="#F0F0F0"/>
<path d="M4.04492 5.68103V8.34153C4.04492 9.85494 6.02202 10.3186 6.02202 10.3186C6.02202 10.3186 7.99905 9.85487 7.99905 8.34153V5.68103H4.04492Z" fill="#D80027"/>
<path d="M4.86328 6.14482H7.18206V5.21729L6.71828 5.44916L6.02262 4.75354L5.32703 5.44916L4.86328 5.21729V6.14482Z" fill="#FFDA44"/>
<path d="M7.53592 8.71193L6.0287 7.20471L4.52148 8.71193L5.01339 9.20381L6.0287 8.18849L7.04402 9.20381L7.53592 8.71193Z" fill="#FFDA44"/>
<path d="M7.53592 7.30421H6.83267C6.87223 7.23595 6.8952 7.15692 6.8952 7.07239C6.8952 6.81627 6.68755 6.60864 6.43145 6.60864C6.25448 6.60864 6.1008 6.70777 6.02261 6.85352C5.94442 6.7078 5.7907 6.60864 5.61377 6.60864C5.35767 6.60864 5.15002 6.81627 5.15002 7.07239C5.15002 7.15696 5.17302 7.23599 5.21255 7.30421H4.52148C4.52148 7.56033 4.74458 7.76796 5.00067 7.76796H4.98523C4.98523 8.02408 5.19286 8.23171 5.44898 8.23171C5.44898 8.45849 5.61183 8.64689 5.82692 8.68721L5.46148 9.51224C5.63658 9.58342 5.82795 9.62299 6.02864 9.62299C6.22933 9.62299 6.42067 9.58342 6.5958 9.51224L6.23036 8.68721C6.44545 8.64689 6.6083 8.45849 6.6083 8.23171C6.86442 8.23171 7.07205 8.02408 7.07205 7.76796H7.05661C7.31283 7.76796 7.53592 7.56033 7.53592 7.30421Z" fill="#F0F0F0"/>
</svg>
