<svg width="16" height="16" viewBox="0 0 16 16" fill="none" xmlns="http://www.w3.org/2000/svg">
<path d="M16 2.66675H0V13.3332H16V2.66675Z" fill="#D80027"/>
<path d="M7.72697 6.77466L8.27678 7.53235L9.16719 7.24363L8.61653 8.00063L9.16628 8.75825L8.27616 8.46844L7.7255 9.22547L7.72606 8.28938L6.83594 7.99953L7.72638 7.71081L7.72697 6.77466Z" fill="#F0F0F0"/>
<path d="M6.2252 9.89385C5.1793 9.89385 4.33139 9.04594 4.33139 8.00003C4.33139 6.95413 5.1793 6.10622 6.2252 6.10622C6.55133 6.10622 6.85814 6.18869 7.12605 6.33385C6.7058 5.92285 6.13105 5.66919 5.49683 5.66919C4.20955 5.66919 3.16602 6.71275 3.16602 8C3.16602 9.28725 4.20958 10.3308 5.49683 10.3308C6.13105 10.3308 6.7058 10.0772 7.12605 9.66616C6.85817 9.81138 6.55133 9.89385 6.2252 9.89385Z" fill="#F0F0F0"/>
</svg>
