<svg width="16" height="16" viewBox="0 0 16 16" fill="none" xmlns="http://www.w3.org/2000/svg">
<path d="M16 2.66663H0V13.3334H16V2.66663Z" fill="#F0F0F0"/>
<path d="M16 3.99976H0V5.33297H16V3.99976Z" fill="#D80027"/>
<path d="M16 6.6665H0V7.99972H16V6.6665Z" fill="#D80027"/>
<path d="M16 9.33301H0V10.6662H16V9.33301Z" fill="#D80027"/>
<path d="M16 11.9998H0V13.333H16V11.9998Z" fill="#D80027"/>
<path d="M8 2.66663H0V8.41028H8V2.66663Z" fill="#2E52B2"/>
<path d="M3.11981 5.01953L2.99097 5.41591H2.57422L2.91144 5.66075L2.78259 6.05709L3.11981 5.81225L3.45681 6.05709L3.328 5.66075L3.66522 5.41591H3.24844L3.11981 5.01953Z" fill="#F0F0F0"/>
<path d="M3.24844 6.84629L3.11981 6.44995L2.99097 6.84629H2.57422L2.91144 7.09117L2.78259 7.48751L3.11981 7.24264L3.45681 7.48751L3.328 7.09117L3.66522 6.84629H3.24844Z" fill="#F0F0F0"/>
<path d="M1.48675 6.84629L1.35809 6.44995L1.22925 6.84629H0.8125L1.14972 7.09117L1.02087 7.48751L1.35809 7.24264L1.69512 7.48751L1.56631 7.09117L1.90347 6.84629H1.48675Z" fill="#F0F0F0"/>
<path d="M1.35809 5.01953L1.22925 5.41591H0.8125L1.14972 5.66075L1.02087 6.05709L1.35809 5.81225L1.69512 6.05709L1.56631 5.66075L1.90347 5.41591H1.48675L1.35809 5.01953Z" fill="#F0F0F0"/>
<path d="M3.11981 3.58911L2.99097 3.98552H2.57422L2.91144 4.23039L2.78259 4.62674L3.11981 4.38186L3.45681 4.62674L3.328 4.23039L3.66522 3.98552H3.24844L3.11981 3.58911Z" fill="#F0F0F0"/>
<path d="M1.35809 3.58911L1.22925 3.98552H0.8125L1.14972 4.23039L1.02087 4.62674L1.35809 4.38186L1.69512 4.62674L1.56631 4.23039L1.90347 3.98552H1.48675L1.35809 3.58911Z" fill="#F0F0F0"/>
<path d="M4.8815 5.01953L4.75269 5.41591H4.33594L4.67312 5.66075L4.54434 6.05709L4.8815 5.81225L5.21856 6.05709L5.08972 5.66075L5.42694 5.41591H5.01019L4.8815 5.01953Z" fill="#F0F0F0"/>
<path d="M5.01019 6.84629L4.8815 6.44995L4.75269 6.84629H4.33594L4.67312 7.09117L4.54434 7.48751L4.8815 7.24264L5.21856 7.48751L5.08972 7.09117L5.42694 6.84629H5.01019Z" fill="#F0F0F0"/>
<path d="M6.76992 6.84629L6.64127 6.44995L6.51242 6.84629H6.0957L6.43286 7.09117L6.30405 7.48751L6.64127 7.24264L6.9783 7.48751L6.84945 7.09117L7.18667 6.84629H6.76992Z" fill="#F0F0F0"/>
<path d="M6.64127 5.01953L6.51242 5.41591H6.0957L6.43286 5.66075L6.30405 6.05709L6.64127 5.81225L6.9783 6.05709L6.84945 5.66075L7.18667 5.41591H6.76992L6.64127 5.01953Z" fill="#F0F0F0"/>
<path d="M4.8815 3.58911L4.75269 3.98552H4.33594L4.67312 4.23039L4.54434 4.62674L4.8815 4.38186L5.21856 4.62674L5.08972 4.23039L5.42694 3.98552H5.01019L4.8815 3.58911Z" fill="#F0F0F0"/>
<path d="M6.64127 3.58911L6.51242 3.98552H6.0957L6.43286 4.23039L6.30405 4.62674L6.64127 4.38186L6.9783 4.62674L6.84945 4.23039L7.18667 3.98552H6.76992L6.64127 3.58911Z" fill="#F0F0F0"/>
</svg>
