<svg width="80" height="80" viewBox="0 0 80 80" fill="none" xmlns="http://www.w3.org/2000/svg">
<path d="M52.688 27.3118C52.4355 27.0512 52.1205 26.8597 51.773 26.7557C51.4256 26.6517 51.0574 26.6385 50.7034 26.7175L15.4942 34.8563C14.6753 35.0451 13.9283 35.4668 13.343 36.0706C12.7576 36.6744 12.3589 37.4346 12.1947 38.2599C12.0305 39.0852 12.1079 39.9404 12.4174 40.7227C12.727 41.5051 13.2556 42.1812 13.9397 42.6699L18.5905 46.0912L9.68016 55.0116C8.46155 56.2367 7.77734 57.8955 7.77734 59.6247C7.77734 61.3538 8.46155 63.0126 9.68016 64.2377L15.8146 70.3805C17.0578 71.5629 18.7068 72.2222 20.4214 72.2222C22.1359 72.2222 23.785 71.5629 25.0281 70.3805L34.0352 61.4666L37.353 66.1152C37.8413 66.8001 38.5168 67.3292 39.2981 67.639C40.0795 67.9488 40.9335 68.0262 41.7578 67.8618C42.582 67.6975 43.3412 67.2983 43.9444 66.7123C44.5476 66.1264 44.969 65.3785 45.1581 64.5585L53.2815 29.3013C53.361 28.9465 53.3481 28.5773 53.2442 28.2289C53.1403 27.8805 52.9488 27.5647 52.688 27.3118Z" fill="white"/>
<path d="M30.6197 57.7778L21.5243 66.958C20.2889 68.2141 18.6167 68.9193 16.8735 68.9193C15.1303 68.9193 13.458 68.2141 12.2227 66.958L15.4795 70.2842C16.7224 71.5266 18.3923 72.2223 20.1315 72.2223C21.8706 72.2223 23.5405 71.5266 24.7834 70.2842L33.3338 61.6539L30.6197 57.7778Z" fill="#E3E3E3"/>
<path d="M52.7249 27.2958C52.4749 27.0384 52.1653 26.8506 51.8253 26.7501C51.4853 26.6496 51.1259 26.6397 50.7811 26.7213L49.9657 26.9164L42.2699 61.1888C42.135 61.7924 41.8761 62.3593 41.5107 62.8516C41.1453 63.3439 40.6817 63.7503 40.1511 64.0434C39.6204 64.3366 39.035 64.5097 38.4339 64.5513C37.8329 64.5929 37.2301 64.502 36.666 64.2846L37.8256 65.9548C38.2993 66.6367 38.9544 67.1635 39.7123 67.472C40.4702 67.7805 41.2986 67.8576 42.098 67.6939C42.8975 67.5302 43.6339 67.1328 44.219 66.5493C44.8041 65.9658 45.2128 65.2212 45.3962 64.4047L53.2776 29.2982C53.3585 28.9437 53.3502 28.5738 53.2535 28.2235C53.1568 27.8731 52.9749 27.5539 52.7249 27.2958Z" fill="#E3E3E3"/>
<path d="M59.9273 22.2223C59.5021 22.2222 59.0864 22.096 58.7329 21.8597C58.3793 21.6234 58.1037 21.2876 57.941 20.8948C57.7783 20.5019 57.7357 20.0696 57.8186 19.6525C57.9016 19.2355 58.1063 18.8524 58.407 18.5516L63.0218 13.937C63.4274 13.5453 63.9706 13.3286 64.5345 13.3335C65.0983 13.3384 65.6377 13.5645 66.0364 13.9632C66.4351 14.3619 66.6613 14.9012 66.6662 15.465C66.6711 16.0288 66.4543 16.572 66.0626 16.9776L61.4477 21.5922C61.0445 21.9955 60.4976 22.2221 59.9273 22.2223Z" fill="black"/>
<path d="M59.9161 22.2222C59.4932 22.2191 59.0805 22.0917 58.7296 21.8558C58.3786 21.6199 58.1049 21.2858 57.9425 20.8954C57.7801 20.5049 57.7362 20.0753 57.8164 19.6601C57.8965 19.2449 58.0971 18.8624 58.3931 18.5604L63.0157 13.938C63.422 13.5457 63.9661 13.3285 64.5309 13.3335C65.0957 13.3384 65.6359 13.5649 66.0353 13.9643C66.4347 14.3636 66.6612 14.9039 66.6662 15.4686C66.6711 16.0334 66.4539 16.5775 66.0616 16.9837L61.439 21.6126C61.0316 22.0087 60.4842 22.2278 59.9161 22.2222Z" fill="#00010D"/>
<path d="M44.5289 22.2223C43.962 22.2221 43.4184 21.9968 43.0176 21.5959L38.43 17.0086C38.2258 16.8114 38.0629 16.5755 37.9509 16.3147C37.8389 16.0539 37.7799 15.7734 37.7774 15.4896C37.775 15.2057 37.829 14.9243 37.9365 14.6616C38.044 14.3989 38.2028 14.1602 38.4035 13.9595C38.6042 13.7588 38.8429 13.6 39.1056 13.4926C39.3683 13.3851 39.6498 13.331 39.9337 13.3335C40.2175 13.3359 40.498 13.3949 40.7588 13.5069C41.0196 13.619 41.2555 13.7818 41.4527 13.986L46.0403 18.5733C46.3392 18.8723 46.5427 19.2531 46.6252 19.6677C46.7076 20.0823 46.6653 20.5121 46.5035 20.9026C46.3418 21.2931 46.0678 21.627 45.7164 21.8619C45.3649 22.0968 44.9517 22.2222 44.5289 22.2223Z" fill="black"/>
<path d="M44.5749 22.2209C44.2909 22.2313 44.0079 22.1807 43.7453 22.0726C43.4827 21.9645 43.2467 21.8015 43.0532 21.5947L38.4344 17.008C38.2288 16.8109 38.0649 16.575 37.9521 16.3143C37.8393 16.0535 37.7799 15.7731 37.7774 15.4893C37.7749 15.2055 37.8294 14.924 37.9376 14.6614C38.0458 14.3987 38.2057 14.1601 38.4077 13.9594C38.6098 13.7587 38.8501 13.6 39.1146 13.4925C39.3791 13.3851 39.6626 13.331 39.9483 13.3335C40.2341 13.3359 40.5166 13.3949 40.7791 13.5069C41.0417 13.6189 41.2792 13.7817 41.4778 13.9859L46.0966 18.5726C46.3763 18.8791 46.5627 19.2583 46.6339 19.6659C46.7051 20.0736 46.6582 20.4929 46.4988 20.8751C46.3394 21.2573 46.0739 21.5868 45.7334 21.825C45.3928 22.0633 44.991 22.2006 44.5749 22.2209Z" fill="#00010D"/>
<path d="M64.5289 42.2223C63.962 42.2221 63.4184 41.9969 63.0176 41.5959L58.43 37.0086C58.2258 36.8114 58.0629 36.5755 57.9509 36.3147C57.8389 36.0539 57.7799 35.7734 57.7774 35.4896C57.775 35.2057 57.829 34.9243 57.9365 34.6616C58.044 34.3989 58.2028 34.1602 58.4035 33.9595C58.6042 33.7588 58.8429 33.6 59.1056 33.4926C59.3683 33.3851 59.6498 33.331 59.9337 33.3335C60.2175 33.3359 60.498 33.3949 60.7588 33.5069C61.0196 33.619 61.2555 33.7818 61.4527 33.986L66.0403 38.5733C66.3392 38.8723 66.5427 39.2531 66.6252 39.6677C66.7076 40.0823 66.6653 40.5121 66.5035 40.9026C66.3418 41.2931 66.0678 41.627 65.7164 41.8619C65.3649 42.0968 64.9517 42.2222 64.5289 42.2223Z" fill="black"/>
<path d="M64.5433 42.2222C63.978 42.2272 63.4335 42.0085 63.0287 41.6138L58.4314 37.0165C58.2268 36.8189 58.0635 36.5825 57.9513 36.3212C57.839 36.0598 57.7799 35.7787 57.7774 35.4942C57.775 35.2098 57.8292 34.9277 57.9369 34.6644C58.0446 34.4012 58.2037 34.162 58.4048 33.9608C58.606 33.7597 58.8451 33.6006 59.1084 33.4929C59.3717 33.3852 59.6538 33.331 59.9383 33.3335C60.2227 33.3359 60.5038 33.395 60.7652 33.5073C61.0266 33.6196 61.263 33.7828 61.4606 33.9874L66.0579 38.5846C66.3509 38.8852 66.5492 39.2652 66.6281 39.6774C66.7069 40.0897 66.663 40.516 66.5016 40.9035C66.3403 41.2909 66.0687 41.6225 65.7206 41.8569C65.3724 42.0914 64.9631 42.2184 64.5433 42.2222Z" fill="#00010D"/>
<path d="M52.2222 18.8889C51.6329 18.8889 51.0676 18.6564 50.6509 18.2425C50.2341 17.8287 50 17.2674 50 16.6821V9.98455C50 9.39927 50.2341 8.83797 50.6509 8.42412C51.0676 8.01027 51.6329 7.77777 52.2222 7.77777C52.8116 7.77777 53.3768 8.01027 53.7936 8.42412C54.2103 8.83797 54.4444 9.39927 54.4444 9.98455V16.6821C54.4444 17.2674 54.2103 17.8287 53.7936 18.2425C53.3768 18.6564 52.8116 18.8889 52.2222 18.8889Z" fill="black"/>
<path d="M52.2222 18.8889C51.6329 18.8889 51.0676 18.6564 50.6509 18.2425C50.2341 17.8287 50 17.2674 50 16.6821V9.98455C50 9.39927 50.2341 8.83797 50.6509 8.42412C51.0676 8.01027 51.6329 7.77777 52.2222 7.77777C52.8116 7.77777 53.3768 8.01027 53.7936 8.42412C54.2103 8.83797 54.4444 9.39927 54.4444 9.98455V16.6821C54.4444 17.2674 54.2103 17.8287 53.7936 18.2425C53.3768 18.6564 52.8116 18.8889 52.2222 18.8889Z" fill="#00010D"/>
<path d="M70.0157 30H63.3181C62.7328 30 62.1715 29.7659 61.7577 29.3491C61.3438 28.9324 61.1113 28.3671 61.1113 27.7778C61.1113 27.1884 61.3438 26.6232 61.7577 26.2064C62.1715 25.7897 62.7328 25.5555 63.3181 25.5555H70.0157C70.6009 25.5555 71.1622 25.7897 71.5761 26.2064C71.9899 26.6232 72.2224 27.1884 72.2224 27.7778C72.2224 28.3671 71.9899 28.9324 71.5761 29.3491C71.1622 29.7659 70.6009 30 70.0157 30Z" fill="black"/>
<path d="M70.0157 30H63.3181C62.7328 30 62.1715 29.7659 61.7577 29.3491C61.3438 28.9324 61.1113 28.3671 61.1113 27.7778C61.1113 27.1884 61.3438 26.6232 61.7577 26.2064C62.1715 25.7897 62.7328 25.5555 63.3181 25.5555H70.0157C70.6009 25.5555 71.1622 25.7897 71.5761 26.2064C71.9899 26.6232 72.2224 27.1884 72.2224 27.7778C72.2224 28.3671 71.9899 28.9324 71.5761 29.3491C71.1622 29.7659 70.6009 30 70.0157 30Z" fill="#00010D"/>
</svg>
