<svg width="80" height="80" viewBox="0 0 80 80" fill="none" xmlns="http://www.w3.org/2000/svg">
<path d="M39.9996 72.2223C57.7954 72.2223 72.2218 57.7959 72.2218 40.0001C72.2218 22.2042 57.7954 7.77783 39.9996 7.77783C22.2037 7.77783 7.77734 22.2042 7.77734 40.0001C7.77734 57.7959 22.2037 72.2223 39.9996 72.2223Z" fill="#00010D"/>
<path d="M24.3385 67.0367C24.3325 67.0488 24.3244 67.0569 24.3184 67.069C24.3668 67.0811 24.4131 67.0972 24.4616 67.1073L24.3385 67.0367Z" fill="#E9EFF4"/>
<path d="M22.3126 21.6251L22.248 21.494C22.7865 21.4134 22.8228 21.0342 23.2322 20.895C23.6981 20.7418 23.5388 20.9092 23.9966 20.895C24.3677 20.8789 24.5936 21.1492 25.0171 20.9515C24.9142 21.133 24.7468 21.2581 24.5794 21.3811C24.2305 21.6292 23.8736 21.8833 23.4581 21.9801C23.0427 22.0749 22.5546 21.974 22.3126 21.6251Z" fill="#E9EFF4"/>
<path d="M28.7576 50.3441C28.7496 50.6284 28.5822 50.8765 28.437 51.1165C27.7896 52.1733 27.3963 53.3975 27.3096 54.6378C27.2229 55.8257 27.2753 57.2899 26.2407 57.8747C25.6498 58.2035 24.8189 58.145 24.4256 58.6996C24.3026 58.867 24.2441 59.0788 24.1856 59.2764C23.9315 60.2021 23.6753 61.1278 23.4212 62.0535C23.0925 62.0253 22.7577 61.989 22.431 61.9527C22.8182 62.0757 23.0864 62.6 22.8545 62.959C22.4834 62.7634 21.9954 62.9953 21.7897 63.3684C21.594 63.7395 21.6223 64.1913 21.7312 64.6007C22.068 65.8108 23.1026 66.7869 24.3207 67.0773C24.109 67.4786 23.4616 67.3032 23.0663 67.0349C20.2448 65.1271 18.1151 62.2209 17.143 58.9557C16.8001 57.8041 16.5803 56.58 15.9087 55.5897C15.3481 54.7528 14.501 54.1397 13.9403 53.3027C13.1538 52.1007 13.0066 50.5417 12.095 49.4426C11.5848 48.8154 10.7962 48.0449 11.2479 47.3734C11.4295 47.0971 11.8167 46.8349 11.6634 46.5424C11.613 46.4477 11.5101 46.3892 11.4295 46.3085C11.1229 45.9798 11.3347 45.4635 11.4879 45.0399C11.7421 44.3038 11.7421 43.5173 11.6332 42.7307C10.8668 42.045 10.2617 41.1939 9.88259 40.238C9.65671 39.6551 9.35621 38.9271 8.73101 38.919C8.56966 38.4673 8.40227 38.0155 8.24093 37.5637C8.18244 37.7251 8.02312 37.8259 7.84766 37.8481C8.33168 30.4647 11.3085 23.7649 15.941 18.5737C16.0439 18.5294 16.1447 18.4709 16.2475 18.4124C17.3467 17.7711 18.222 16.8091 19.2848 16.1092C19.5026 15.964 19.7507 15.8249 20.0209 15.8531C20.2831 15.8753 20.5312 16.1435 20.4364 16.3916C20.4001 16.4944 20.3134 16.5751 20.2246 16.6396C18.9803 17.6985 17.6169 18.6242 16.1669 19.3905C15.9934 19.4773 15.8099 19.5801 15.7313 19.7556C15.584 20.0541 15.8321 20.4251 16.1467 20.534C16.4593 20.643 16.8102 20.5784 17.1309 20.5058C16.8606 20.891 16.78 21.4093 16.9191 21.8611C17.2176 21.8893 17.3124 21.4819 17.4011 21.1976C17.7642 20.0682 19.5652 19.6083 19.4482 18.4184C19.9362 18.6726 20.4324 18.1038 20.7308 17.638C21.0293 17.164 21.6929 16.6981 22.0579 17.1136C22.0781 17.3455 22.1063 17.5795 22.1285 17.8134C22.7698 17.6521 23.4192 17.4847 24.0606 17.3233C23.6955 17.5795 23.5725 18.126 23.7822 18.5193C23.994 18.9126 24.5184 19.1102 24.9338 18.9489C24.9278 19.2917 24.6212 19.5539 24.3429 19.7576C23.637 20.29 22.8787 20.8366 22.0559 21.0987L22.2455 21.492C22.2253 21.5001 22.2031 21.5082 22.1809 21.5082C21.6566 21.5586 21.1019 21.1814 20.5413 21.254C20.1984 21.2984 19.7769 21.2984 19.5793 21.6473C19.551 21.6917 19.428 22.3028 19.5147 22.2523C19.8213 22.0769 20.1258 21.9014 20.4263 21.728C20.5191 21.976 20.5413 22.2523 20.4909 22.5226C20.8619 22.4863 21.2492 22.5649 21.5779 22.7626C21.235 23.5572 20.3537 24.0896 19.4865 24.0231C19.4784 23.7609 19.4643 23.4987 19.4562 23.2365C18.7423 23.178 18.1595 23.7911 17.8025 24.4042C17.4395 25.0234 17.1632 25.7313 16.5642 26.1246C16.2012 26.3726 15.7555 26.4674 15.3622 26.6711C14.977 26.8829 14.62 27.2842 14.7007 27.7138C14.737 27.9175 14.8681 28.1071 14.862 28.3188C14.8398 28.7121 14.382 28.8956 14.0755 29.1497C13.5511 29.5874 13.42 30.3901 12.8594 30.7753C12.452 31.0596 11.9115 31.0536 11.4375 31.1988C10.9636 31.344 10.4896 31.8179 10.6812 32.2778C10.4473 32.3584 10.1629 32.183 10.1407 31.9349C9.30377 33.5826 8.75117 35.3755 8.52529 37.2128C8.94075 37.5032 9.36226 36.8397 9.44293 36.3375C9.52965 35.8354 9.96729 35.1779 10.3747 35.4764C10.2799 36.1984 10.1851 36.9123 10.0923 37.6343C10.0701 37.7735 10.056 37.9187 10.1226 38.0417C10.2033 38.195 10.3767 38.2595 10.5098 38.3684C10.8809 38.6891 10.8305 39.2578 10.8527 39.7459C10.8748 40.3429 11.0725 40.9257 11.3851 41.436C11.3548 41.3331 11.3347 41.2323 11.3125 41.1294C11.8812 41.202 12.4721 41.0185 12.9017 40.6393C13.1276 40.4356 13.3172 40.1735 13.6015 40.0706C13.894 39.9617 14.2146 40.0403 14.5131 40.121C15.4388 40.3751 16.423 40.6595 17.0422 41.3876C17.3548 41.7586 17.5524 42.2265 17.9255 42.5311C18.7705 43.245 20.2004 42.9304 20.9729 43.725C21.592 44.3663 21.4771 45.4009 21.3097 46.2823C20.8861 46.0504 20.3194 46.6332 20.5675 47.0487C20.7934 46.8006 21.0556 46.5384 21.3843 46.5384C21.7191 46.5303 22.0115 46.9902 21.7634 47.2019C22.3463 46.4577 23.7742 46.7643 24 47.69C24.8168 47.7485 25.6397 47.8049 26.4565 47.8715C26.2992 49.0695 28.8081 49.1401 28.7576 50.3441Z" fill="#E9EFF4"/>
<path d="M23.79 16.6253C23.4754 16.7806 23.0418 16.6052 22.9248 16.2744C22.8058 15.9437 23.0297 15.5343 23.3726 15.4556C23.5884 15.4052 23.8889 15.4294 23.9554 15.2176C23.9756 15.1531 23.9635 15.0825 23.9635 15.0159C23.9554 14.6166 24.3124 14.2859 24.6976 14.185C25.0828 14.0862 25.4902 14.1628 25.8814 14.2395C26.0206 14.5279 26.0609 14.8627 25.9944 15.1753C25.7261 15.1874 25.4579 15.1975 25.1897 15.2096C25.2139 15.6553 25.1695 16.2159 24.7561 16.3813C24.385 16.5285 23.901 16.2542 23.5924 16.5043" fill="#E9EFF4"/>
<path d="M27.9668 12.1744C28.6989 11.8235 29.318 11.2709 30.04 10.8998C31.2824 10.2625 32.7324 10.2061 34.1281 10.1617C37.3045 10.0629 40.4809 9.96406 43.6573 9.86523C42.9212 10.2686 42.1851 10.674 41.447 11.0773C40.846 11.4081 40.1623 11.7469 39.5028 11.5593C39.4887 12.0897 39.9707 12.5818 40.5031 12.5778C39.1982 13.3845 37.3872 12.5597 36.0097 13.2373C35.4329 13.5217 34.967 14.0581 34.3318 14.159C33.9647 14.2174 33.5835 14.1186 33.2185 14.1993C32.6074 14.3324 32.2222 14.9112 31.7704 15.3428C31.2501 15.841 30.4858 16.1818 29.8061 15.9438C29.1264 15.7058 28.7715 14.6954 29.316 14.2235C29.5843 13.9916 29.9674 13.9532 30.2841 13.7899C30.6007 13.6285 30.8508 13.1949 30.6128 12.9307C30.51 12.8158 30.3405 12.7714 30.2458 12.6484C30.1429 12.5153 30.153 12.3257 30.0683 12.1805C29.7456 11.6138 28.8481 12.3761 28.237 12.1482" fill="#E9EFF4"/>
<path d="M37.6133 14.8548C38.0429 14.7559 38.416 14.5018 38.8173 14.3163C39.2186 14.1307 39.6966 14.0218 40.0899 14.2175C40.2069 14.5099 39.8701 14.7761 39.5736 14.881C39.0049 15.0806 38.3877 15.1351 37.7928 15.0363" fill="#E9EFF4"/>
<path d="M63.5839 18.0595C63.4669 18.0736 63.3439 18.0676 63.2189 18.0373C62.6723 17.9203 62.2569 17.4988 61.789 17.1923C60.71 16.4783 59.2378 16.3856 58.0721 16.9684C58.3484 16.5671 58.4875 16.0709 58.4573 15.5829L58.2899 15.6414C56.38 14.5342 54.1413 13.3846 52.058 14.1288C51.576 14.3042 51.1404 14.5664 50.6523 14.7338C50.134 14.9153 49.5592 14.99 49.1155 15.3106C48.6638 15.6313 48.4238 16.3392 48.811 16.7244C49.1397 17.0531 49.6641 16.9644 50.1239 17.0088C50.5757 17.0531 51.094 17.5029 50.8459 17.8901C48.8493 18.8239 46.8467 19.7657 44.85 20.7075C45.7677 21.006 46.3747 22.0467 46.1771 22.9946C45.5055 23.1115 44.8581 22.7041 44.1805 22.6598C43.1963 22.6093 42.2565 23.4766 42.2363 24.4608C42.2081 25.4449 43.1116 26.3545 44.0958 26.3404C44.8319 26.3323 45.5539 25.8886 46.2678 26.0762C46.2961 25.4046 46.7559 24.8359 47.2278 24.3559C48.1455 23.4362 49.4564 22.6053 50.6826 23.0571C51.0839 23.2023 51.4268 23.4725 51.7616 23.7408C52.4977 24.3236 53.2338 24.9125 53.9719 25.5034C54.2059 25.2634 54.4378 25.0214 54.6718 24.7895C55.0731 25.213 55.4744 25.6345 55.8818 26.0641C56.0855 25.9249 56.2973 25.7938 56.501 25.6547C56.6462 26.0338 56.7995 26.4049 56.9467 26.7841C57.0052 26.3686 57.0556 25.9612 57.106 25.5518C57.588 25.5659 58.0983 25.5801 58.5339 25.3623C58.9715 25.1505 59.2922 24.6261 59.1087 24.1744C59.0139 23.9344 58.788 23.7448 58.7436 23.4887C58.6489 22.9784 59.3769 22.6295 59.8509 22.8614C60.3167 23.0873 60.5507 23.6198 60.7483 24.1078C60.8572 23.6117 60.9581 23.1236 61.069 22.6275C61.5248 23.8255 62.1823 24.9468 62.9991 25.931C61.5046 25.6466 59.9295 25.81 58.5319 26.3848C58.9776 27.012 59.7419 27.3831 60.5083 27.3528C60.8512 27.3447 61.2303 27.2661 61.4925 27.4839C61.6902 27.6513 61.7406 27.9215 61.7769 28.1696C61.8939 28.8694 62.0108 29.5612 62.1197 30.2529C61.3312 29.6056 60.1957 29.6782 59.1672 29.658C58.1386 29.6298 56.9366 29.3454 56.5575 28.3915C56.1501 28.8513 55.9686 29.5067 56.0855 30.1198C55.0207 29.8657 53.7965 29.4583 53.4899 28.4076C52.659 28.7141 51.6244 28.1837 51.3985 27.3306C51.3179 27.0321 51.2957 26.6671 51.0335 26.5078C50.8742 26.413 50.6685 26.4271 50.4789 26.4493C48.8977 26.6328 47.3226 26.8083 45.7495 26.9918C44.8904 27.0947 44.001 27.1975 43.2427 27.619C42.4844 28.0345 41.8813 28.8513 41.9681 29.7124C40.518 30.5736 39.2878 31.82 38.4569 33.2862C38.1947 33.7379 37.9688 34.2563 38.0716 34.7665C38.1443 35.1598 38.4064 35.4946 38.4871 35.8818C38.6263 36.5453 38.2471 37.1866 38.0878 37.8421C37.636 39.7076 39.0518 41.4642 40.3647 42.876C40.9839 43.5314 41.6998 44.2454 42.6034 44.2817C43.164 44.3039 43.6964 44.0558 44.2208 43.8501C45.7213 43.2592 47.3549 42.9889 48.9643 43.0534C48.5992 43.3378 48.9784 43.957 49.4322 44.0518C49.8839 44.1465 50.372 43.9993 50.8096 44.1526C51.8079 44.5096 51.6708 45.9737 51.219 46.9297C51.4449 46.8853 51.6789 46.841 51.9108 46.7986C51.7878 47.1193 51.6627 47.4399 51.5397 47.7525C52.9091 47.926 53.4274 49.727 53.1088 51.0742C52.7962 52.4234 51.9955 53.6617 51.9733 55.0472C51.9673 55.8055 52.1992 56.5417 52.4331 57.2617C53.018 59.0909 53.6009 60.9201 54.1857 62.7554C55.8193 62.951 56.7571 60.8737 58.2737 60.2243C58.8425 59.9762 59.512 59.9258 59.9577 59.5023C60.3873 59.0949 60.2482 58.139 59.6956 58.139C60.4458 58.0583 61.0871 57.3726 61.1093 56.6143C61.1174 56.4025 61.0871 56.1908 61.1154 55.981C61.1658 55.6825 61.3554 55.4203 61.5369 55.1642C62.6945 53.5024 63.4448 51.5985 64.195 49.7189C64.3906 49.2147 64.5883 48.7206 64.7839 48.2164C65.5261 46.3428 66.2622 44.4773 67.0044 42.6037C67.2948 41.8676 67.5872 41.1395 67.8776 40.4014C67.4763 41.0649 66.4276 40.9782 65.8286 40.4821C65.2236 39.9879 64.9089 39.2357 64.435 38.6165C64.0337 38.0841 63.4932 37.6122 63.3036 36.9628C63.1947 36.5917 63.2148 36.1903 63.1503 35.8031C63.0031 34.9641 62.4505 34.2663 62.0713 33.508C61.6922 32.7497 61.4945 31.7675 62.027 31.102C63.5597 33.7763 64.9533 36.5292 66.2138 39.3506C66.353 38.913 66.6736 38.5338 67.081 38.3221C67.3795 38.1607 67.7143 38.0962 68.0289 37.9651C68.8598 37.6001 69.4346 36.7187 69.4346 35.8152C69.4265 34.9117 68.8517 34.0304 68.0128 33.6734C67.5973 33.4979 67.1234 33.4415 66.7301 33.1995C66.3368 32.9675 66.0525 32.4351 66.3005 32.0479C66.5324 31.6828 67.0951 31.6909 67.4803 31.8946C67.8676 32.1064 68.1519 32.4633 68.5149 32.7033C68.7771 32.8788 69.0837 32.9937 69.368 33.1551C70.9068 34.0364 71.286 36.0411 71.6087 37.7897C71.7841 38.7295 71.9818 39.6632 72.2157 40.5809C72.2238 40.3832 72.2218 40.1795 72.2218 39.9839C72.2137 31.5094 68.9364 23.8073 63.5839 18.0595ZM66.5345 28.6476C66.3227 28.6335 66.1271 28.4943 65.9577 28.3632C65.6814 28.1454 65.4031 27.8893 65.3224 27.5464C65.2276 27.139 65.4232 26.6711 65.2054 26.3081C65.1026 26.1327 64.921 26.0238 64.7678 25.9007C64.3664 25.5801 64.074 25.1202 63.9651 24.6261C63.8703 24.1885 64.0074 23.6056 64.4531 23.533C64.6649 23.4967 64.8968 23.6137 64.9916 23.8093L64.6931 23.9707C65.1953 24.0292 65.4293 24.7875 65.0441 25.1142C64.9936 25.1646 64.9271 25.209 64.9271 25.2816C64.9271 25.326 64.9553 25.3683 64.9936 25.3986C65.3062 25.7414 65.7741 25.8644 66.1815 26.0822C66.5889 26.294 66.9903 26.6873 66.9257 27.139C66.7946 27.1895 66.6716 27.2338 66.5405 27.2842C66.4014 27.4234 66.5123 27.6715 66.6575 27.8086C66.8027 27.9457 66.9923 28.0849 67.0003 28.2886C67.0003 28.5084 66.7523 28.6617 66.5345 28.6476Z" fill="#E9EFF4"/>
<path d="M66.7436 51.0701L66.2172 51.4432C66.4007 52.0885 66.0337 52.8448 65.4105 53.0969C65.0818 53.23 64.6441 53.2885 64.5332 53.6253C64.4404 53.9117 64.6623 54.2021 64.6925 54.5006C64.7409 54.9967 64.2771 55.3678 63.9423 55.7369C63.6075 56.106 63.43 56.7997 63.8757 57.0216C63.9786 57.074 64.0976 57.0841 64.2125 57.0942C64.6966 57.1365 65.227 57.1507 65.6223 56.8683C66.7557 56.0596 65.6787 53.8653 66.798 53.0344C66.9574 52.9174 67.157 52.8327 67.2438 52.6553C67.5079 52.1329 66.5338 51.6146 66.7436 51.0701Z" fill="#E9EFF4"/>
</svg>
