<svg width="80" height="80" viewBox="0 0 80 80" fill="none" xmlns="http://www.w3.org/2000/svg">
<path d="M40 19.3889C11.7141 19.8922 0 40 0 40C0 40 11.7141 60.1078 40 60.6111C68.2861 60.1078 80 40 80 40C80 40 68.2861 19.8922 40 19.3889Z" fill="white"/>
<path d="M75.022 33.8359C75.3898 34.3762 75.5698 34.685 75.5698 34.685C75.5698 34.685 63.8559 54.7928 35.5698 55.2962C17.6659 54.9777 6.40391 46.8058 0.546875 40.8492C3.15203 44.6764 15.2128 60.17 39.9991 60.6111C68.2852 60.1078 79.9991 40 79.9991 40C79.9991 40 78.4184 37.29 75.022 33.8359Z" fill="#E3E3E3"/>
<path d="M39.9998 60.6111C51.383 60.6111 60.6109 51.3832 60.6109 40C60.6109 28.6168 51.383 19.3889 39.9998 19.3889C28.6166 19.3889 19.3887 28.6168 19.3887 40C19.3887 51.3832 28.6166 60.6111 39.9998 60.6111Z" fill="#01AA89"/>
<path d="M40 51.5155C33.6503 51.5155 28.4844 46.3497 28.4844 40C28.4844 33.6502 33.6502 28.4844 40 28.4844C46.3497 28.4844 51.5155 33.6502 51.5155 40C51.5155 46.3497 46.3497 51.5155 40 51.5155Z" fill="#00010D"/>
<path d="M46.8777 38.6933C43.8059 38.6933 41.3066 36.1941 41.3066 33.1222C41.3066 30.0501 43.8059 27.5511 46.8777 27.5511C49.9496 27.5511 52.4488 30.0503 52.4488 33.1222C52.4487 36.1941 49.9496 38.6933 46.8777 38.6933Z" fill="#D8ECFE"/>
<path d="M51.6723 23.0122C53.957 26.331 55.2956 30.3514 55.2956 34.685C55.2956 46.0683 46.0677 55.2961 34.6845 55.2961C30.3508 55.2961 26.3303 53.9575 23.0117 51.6728C26.7283 57.0713 32.95 60.6111 39.9995 60.6111C51.3828 60.6111 60.6106 51.3831 60.6106 40C60.6106 32.9505 57.0708 26.7286 51.6723 23.0122Z" fill="#00876C"/>
</svg>
