<svg width="990" height="990" viewBox="0 0 990 990" fill="none" xmlns="http://www.w3.org/2000/svg">
<path opacity="0.8" d="M593.666 253.947L605.274 253.947L605.274 254.447L611.078 254.447C612.816 254.447 614.538 254.562 616.234 254.785L616.299 254.289C619.794 254.749 623.182 255.665 626.385 256.992L626.194 257.454C629.382 258.775 632.386 260.509 635.124 262.61L635.428 262.213C638.179 264.324 640.667 266.8 642.812 269.597L642.416 269.901C643.457 271.258 644.417 272.692 645.286 274.197L648.188 279.224L648.621 278.974L654.424 289.026L653.991 289.276L659.795 299.329L660.228 299.079L666.032 309.132L665.599 309.382L671.403 319.434L671.836 319.184L677.64 329.237L677.207 329.487L683.011 339.54L683.444 339.29L689.248 349.342L688.815 349.592L694.619 359.645L695.052 359.395L700.856 369.447L700.423 369.697L706.226 379.75L706.659 379.5L712.463 389.553L712.03 389.803L717.834 399.855L718.267 399.605L724.071 409.658L723.638 409.908L729.442 419.961L729.875 419.711L735.679 429.763L735.246 430.013L741.05 440.066L741.483 439.816L747.287 449.868L746.854 450.118L752.658 460.171L753.091 459.921L758.894 469.974L758.461 470.224L761.363 475.25C762.232 476.755 762.994 478.303 763.649 479.884L764.111 479.693C765.461 482.949 766.361 486.341 766.814 489.779L766.318 489.844C766.768 493.266 766.768 496.734 766.318 500.156L766.814 500.221C766.361 503.659 765.461 507.051 764.111 510.307L763.649 510.116C762.994 511.697 762.232 513.245 761.363 514.75L758.461 519.776L758.894 520.026L753.091 530.079L752.658 529.829L746.854 539.882L747.287 540.132L741.483 550.184L741.05 549.934L735.246 559.987L735.679 560.237L729.875 570.289L729.442 570.039L723.638 580.092L724.071 580.342L718.267 590.395L717.834 590.145L712.03 600.197L712.463 600.447L706.659 610.5L706.226 610.25L700.423 620.303L700.856 620.553L695.052 630.605L694.619 630.355L688.815 640.408L689.248 640.658L683.444 650.71L683.011 650.46L677.207 660.513L677.64 660.763L671.836 670.816L671.403 670.566L665.599 680.618L666.032 680.868L660.228 690.921L659.795 690.671L653.991 700.724L654.424 700.974L648.621 711.026L648.188 710.776L645.286 715.803C644.417 717.308 643.457 718.742 642.416 720.099L642.812 720.404C640.667 723.2 638.179 725.676 635.428 727.787L635.124 727.39C632.386 729.491 629.382 731.225 626.194 732.546L626.385 733.008C623.182 734.335 619.794 735.251 616.299 735.711L616.234 735.215C614.537 735.438 612.816 735.552 611.078 735.553L605.274 735.553L605.274 736.053L593.666 736.052L593.666 735.552L582.058 735.553L582.058 736.053L570.45 736.053L570.45 735.553L558.843 735.553L558.843 736.053L547.235 736.053L547.235 735.553L535.627 735.553L535.627 736.053L524.019 736.053L524.019 735.553L512.412 735.553L512.412 736.053L500.804 736.053L500.804 735.553L489.196 735.553L489.196 736.053L477.588 736.053L477.588 735.553L465.98 735.553L465.98 736.053L454.373 736.053L454.373 735.553L442.765 735.553L442.765 736.053L431.157 736.053L431.157 735.552L419.549 735.553L419.549 736.053L407.942 736.053L407.942 735.552L396.334 735.553L396.334 736.053L384.726 736.053L384.726 735.553L378.922 735.553C377.184 735.553 375.462 735.438 373.766 735.215L373.701 735.711C370.206 735.251 366.818 734.335 363.615 733.008L363.806 732.546C360.617 731.225 357.614 729.491 354.876 727.39L354.571 727.787C351.82 725.677 349.333 723.2 347.188 720.404L347.584 720.099C346.543 718.742 345.583 717.308 344.714 715.803L341.812 710.776L341.379 711.026L335.575 700.974L336.008 700.724L330.204 690.671L329.771 690.921L323.968 680.868L324.401 680.618L318.597 670.566L318.164 670.816L312.36 660.763L312.793 660.513L306.989 650.46L306.556 650.71L300.752 640.658L301.185 640.408L295.381 630.355L294.948 630.605L289.144 620.553L289.577 620.303L283.773 610.25L283.34 610.5L277.536 600.447L277.969 600.197L272.166 590.145L271.733 590.395L265.929 580.342L266.362 580.092L260.558 570.039L260.125 570.289L254.321 560.237L254.754 559.987L248.95 549.934L248.517 550.184L242.713 540.132L243.146 539.882L237.342 529.829L236.909 530.079L231.105 520.026L231.538 519.776L228.636 514.75C227.767 513.245 227.005 511.697 226.351 510.116L225.889 510.307C224.539 507.051 223.639 503.659 223.186 500.221L223.682 500.156C223.232 496.734 223.232 493.266 223.682 489.844L223.186 489.779C223.639 486.341 224.539 482.949 225.889 479.693L226.351 479.884C227.005 478.303 227.767 476.755 228.636 475.25L231.538 470.224L231.105 469.974L236.909 459.921L237.342 460.171L243.146 450.118L242.713 449.868L248.517 439.816L248.95 440.066L254.754 430.013L254.321 429.763L260.125 419.711L260.558 419.961L266.362 409.908L265.929 409.658L271.733 399.605L272.166 399.855L277.97 389.803L277.537 389.553L283.34 379.5L283.773 379.75L289.577 369.697L289.144 369.447L294.948 359.395L295.381 359.645L301.185 349.592L300.752 349.342L306.556 339.29L306.989 339.54L312.793 329.487L312.36 329.237L318.164 319.184L318.597 319.434L324.401 309.382L323.968 309.132L329.771 299.079L330.204 299.329L336.008 289.276L335.575 289.026L341.379 278.974L341.812 279.224L344.714 274.197C345.583 272.692 346.543 271.258 347.584 269.901L347.188 269.596C349.333 266.8 351.82 264.324 354.572 262.213L354.876 262.61C357.614 260.509 360.618 258.775 363.806 257.454L363.615 256.992C366.818 255.665 370.206 254.749 373.701 254.289L373.766 254.785C375.462 254.562 377.184 254.447 378.922 254.447L384.726 254.447L384.726 253.947L396.334 253.947L396.334 254.447L407.942 254.447L407.942 253.947L419.549 253.947L419.549 254.447L431.157 254.447L431.157 253.947L442.765 253.947L442.765 254.447L454.373 254.447L454.373 253.947L465.981 253.947L465.981 254.447L477.588 254.447L477.588 253.947L489.196 253.947L489.196 254.447L500.804 254.447L500.804 253.947L512.412 253.947L512.412 254.447L524.019 254.447L524.019 253.947L535.627 253.947L535.627 254.447L547.235 254.447L547.235 253.947L558.843 253.947L558.843 254.447L570.45 254.447L570.45 253.947L582.058 253.947L582.058 254.447L593.666 254.447L593.666 253.947Z" stroke="#01AA89" stroke-dasharray="12 12"/>
<path opacity="0.4" d="M644.316 165.344L656.261 165.344L656.261 165.844L662.233 165.844C663.972 165.844 665.693 165.959 667.39 166.182L667.455 165.686C670.949 166.146 674.338 167.062 677.541 168.389L677.35 168.851C680.538 170.172 683.541 171.906 686.28 174.007L686.584 173.61C689.335 175.721 691.823 178.197 693.968 180.993L693.571 181.298C694.613 182.655 695.572 184.089 696.441 185.594L699.428 190.767L699.861 190.517L705.833 200.862L705.4 201.112L711.373 211.457L711.806 211.207L717.779 221.551L717.346 221.801L723.318 232.146L723.751 231.896L729.724 242.241L729.291 242.491L735.263 252.836L735.696 252.586L741.669 262.931L741.236 263.181L747.209 273.526L747.642 273.276L753.614 283.62L753.181 283.87L759.154 294.215L759.587 293.965L765.559 304.31L765.126 304.56L771.099 314.905L771.532 314.655L777.505 325L777.072 325.25L783.044 335.595L783.477 335.345L789.45 345.689L789.017 345.939L794.989 356.284L795.422 356.034L801.395 366.379L800.962 366.629L806.935 376.974L807.368 376.724L813.34 387.069L812.907 387.319L818.88 397.664L819.313 397.414L825.285 407.759L824.852 408.009L830.825 418.353L831.258 418.103L837.23 428.448L836.797 428.698L842.77 439.043L843.203 438.793L849.176 449.138L848.743 449.388L854.715 459.733L855.148 459.483L861.121 469.828L860.688 470.078L863.674 475.25C864.543 476.755 865.305 478.303 865.96 479.884L866.422 479.693C867.771 482.949 868.672 486.341 869.124 489.779L868.629 489.844C869.079 493.266 869.079 496.734 868.629 500.156L869.124 500.221C868.672 503.659 867.771 507.051 866.422 510.307L865.96 510.116C865.305 511.697 864.543 513.245 863.674 514.75L860.688 519.923L861.121 520.173L855.148 530.517L854.715 530.267L848.743 540.612L849.176 540.862L843.203 551.207L842.77 550.957L836.797 561.302L837.23 561.552L831.258 571.897L830.825 571.647L824.852 581.992L825.285 582.242L819.313 592.586L818.88 592.336L812.907 602.681L813.34 602.931L807.368 613.276L806.934 613.026L800.962 623.371L801.395 623.621L795.422 633.966L794.989 633.716L789.017 644.061L789.45 644.311L783.477 654.655L783.044 654.405L777.072 664.75L777.505 665L771.532 675.345L771.099 675.095L765.126 685.44L765.559 685.69L759.587 696.035L759.154 695.785L753.181 706.13L753.614 706.38L747.642 716.724L747.209 716.474L741.236 726.819L741.669 727.069L735.696 737.414L735.263 737.164L729.291 747.509L729.724 747.759L723.751 758.104L723.318 757.854L717.346 768.199L717.779 768.449L711.806 778.794L711.373 778.544L705.4 788.888L705.833 789.138L699.861 799.483L699.428 799.233L696.441 804.406C695.572 805.911 694.613 807.345 693.571 808.702L693.968 809.007C691.823 811.803 689.335 814.279 686.584 816.39L686.28 815.993C683.541 818.094 680.538 819.828 677.35 821.149L677.541 821.611C674.338 822.938 670.95 823.854 667.455 824.314L667.39 823.818C665.693 824.041 663.972 824.156 662.233 824.156L656.261 824.156L656.261 824.656L644.316 824.656L644.316 824.156L632.37 824.156L632.37 824.656L620.425 824.656L620.425 824.156L608.48 824.156L608.48 824.656L596.535 824.656L596.535 824.156L584.59 824.156L584.59 824.656L572.644 824.656L572.644 824.156L560.699 824.156L560.699 824.656L548.754 824.656L548.754 824.156L536.809 824.156L536.809 824.656L524.864 824.656L524.864 824.156L512.918 824.156L512.918 824.656L500.973 824.656L500.973 824.156L489.028 824.156L489.028 824.656L477.083 824.656L477.083 824.156L465.138 824.156L465.138 824.656L453.193 824.656L453.193 824.156L441.247 824.156L441.247 824.656L429.302 824.656L429.302 824.156L417.357 824.156L417.357 824.656L405.412 824.656L405.412 824.156L393.467 824.156L393.467 824.656L381.521 824.656L381.521 824.156L369.576 824.156L369.576 824.656L357.631 824.656L357.631 824.156L345.686 824.156L345.686 824.656L333.741 824.656L333.741 824.156L327.768 824.156C326.03 824.156 324.308 824.041 322.612 823.818L322.547 824.314C319.052 823.855 315.664 822.939 312.46 821.611L312.652 821.149C309.463 819.828 306.46 818.094 303.722 815.993L303.417 816.39C300.666 814.28 298.179 811.803 296.033 809.007L296.43 808.702C295.389 807.345 294.429 805.911 293.56 804.406L290.574 799.233L290.141 799.483L284.168 789.138L284.601 788.888L278.628 778.543L278.195 778.794L272.223 768.449L272.656 768.199L266.683 757.854L266.25 758.104L260.278 747.759L260.711 747.509L254.738 737.164L254.305 737.414L248.332 727.069L248.765 726.819L242.793 716.474L242.36 716.724L236.387 706.38L236.82 706.13L230.848 695.785L230.415 696.035L224.442 685.69L224.875 685.44L218.902 675.095L218.469 675.345L212.497 665L212.93 664.75L206.957 654.405L206.524 654.655L200.552 644.311L200.985 644.061L195.012 633.716L194.579 633.966L188.607 623.621L189.04 623.371L183.067 613.026L182.634 613.276L176.661 602.931L177.094 602.681L171.122 592.336L170.689 592.586L164.716 582.241L165.149 581.992L159.177 571.647L158.744 571.897L152.771 561.552L153.204 561.302L147.231 550.957L146.798 551.207L140.826 540.862L141.259 540.612L135.286 530.267L134.853 530.517L128.881 520.172L129.314 519.922L126.327 514.75C125.458 513.245 124.696 511.697 124.041 510.116L123.579 510.307C122.23 507.051 121.329 503.659 120.877 500.221L121.373 500.156C120.923 496.734 120.923 493.266 121.373 489.844L120.877 489.779C121.329 486.341 122.23 482.949 123.579 479.693L124.041 479.884C124.696 478.303 125.458 476.755 126.327 475.25L129.314 470.078L128.881 469.828L134.853 459.483L135.286 459.733L141.259 449.388L140.826 449.138L146.798 438.793L147.231 439.043L153.204 428.698L152.771 428.448L158.744 418.103L159.177 418.353L165.149 408.009L164.716 407.759L170.689 397.414L171.122 397.664L177.094 387.319L176.661 387.069L182.634 376.724L183.067 376.974L189.04 366.629L188.607 366.379L194.579 356.034L195.012 356.284L200.985 345.94L200.552 345.69L206.524 335.345L206.957 335.595L212.93 325.25L212.497 325L218.469 314.655L218.903 314.905L224.875 304.56L224.442 304.31L230.415 293.965L230.848 294.215L236.82 283.87L236.387 283.62L242.36 273.276L242.793 273.526L248.765 263.181L248.332 262.931L254.305 252.586L254.738 252.836L260.711 242.491L260.278 242.241L266.25 231.896L266.683 232.146L272.656 221.801L272.223 221.551L278.195 211.207L278.628 211.457L284.601 201.112L284.168 200.862L290.141 190.517L290.574 190.767L293.56 185.594C294.429 184.089 295.389 182.655 296.43 181.298L296.033 180.993C298.179 178.197 300.666 175.721 303.417 173.61L303.722 174.007C306.46 171.906 309.463 170.172 312.652 168.851L312.461 168.389C315.664 167.062 319.052 166.146 322.547 165.686L322.612 166.182C324.308 165.959 326.03 165.844 327.768 165.844L333.741 165.844L333.741 165.344L345.686 165.344L345.686 165.844L357.631 165.844L357.631 165.344L369.576 165.344L369.576 165.844L381.521 165.844L381.521 165.344L393.467 165.344L393.467 165.844L405.412 165.844L405.412 165.344L417.357 165.344L417.357 165.844L429.302 165.844L429.302 165.344L441.247 165.344L441.247 165.844L453.193 165.844L453.193 165.344L465.138 165.344L465.138 165.844L477.083 165.844L477.083 165.344L489.028 165.344L489.028 165.844L500.973 165.844L500.973 165.344L512.918 165.344L512.918 165.844L524.864 165.844L524.864 165.344L536.809 165.344L536.809 165.844L548.754 165.844L548.754 165.344L560.699 165.344L560.699 165.844L572.644 165.844L572.644 165.344L584.59 165.344L584.59 165.844L596.535 165.844L596.535 165.344L608.48 165.344L608.48 165.844L620.425 165.844L620.425 165.344L632.37 165.344L632.37 165.844L644.316 165.844L644.316 165.344Z" stroke="#01AA89" stroke-dasharray="12 12"/>
<path opacity="0.2" d="M701.691 66.3174L713.502 66.3174L713.502 66.8174L719.407 66.8174C721.145 66.8174 722.867 66.9316 724.563 67.1547L724.628 66.6589C728.123 67.1185 731.511 68.0346 734.714 69.3619L734.523 69.8238C737.712 71.145 740.715 72.8789 743.453 74.9797L743.758 74.583C746.509 76.6935 748.996 79.1697 751.142 81.9664L750.745 82.2707C751.786 83.6282 752.746 85.0621 753.615 86.5674L756.568 91.6816L757.001 91.4316L762.906 101.66L762.473 101.91L768.378 112.139L768.811 111.889L774.717 122.117L774.284 122.367L780.189 132.596L780.622 132.346L786.528 142.574L786.095 142.824L792 153.053L792.433 152.803L798.339 163.031L797.906 163.281L803.811 173.51L804.244 173.26L810.149 183.488L809.716 183.738L815.622 193.967L816.055 193.717L821.96 203.945L821.527 204.195L827.433 214.424L827.866 214.174L833.771 224.402L833.338 224.652L839.244 234.88L839.677 234.63L845.582 244.859L845.149 245.109L851.054 255.338L851.487 255.088L857.393 265.316L856.96 265.566L862.865 275.794L863.298 275.544L869.204 285.773L868.771 286.023L874.676 296.251L875.109 296.001L881.014 306.23L880.581 306.48L886.487 316.708L886.92 316.458L892.825 326.687L892.392 326.937L898.298 337.165L898.731 336.915L904.636 347.144L904.203 347.394L910.109 357.622L910.542 357.372L916.447 367.601L916.014 367.851L921.919 378.079L922.352 377.829L928.258 388.058L927.825 388.308L933.73 398.536L934.163 398.286L940.069 408.515L939.636 408.765L945.541 418.993L945.974 418.743L951.88 428.972L951.447 429.222L957.352 439.45L957.785 439.2L963.69 449.429L963.257 449.679L969.163 459.907L969.596 459.657L975.501 469.886L975.068 470.136L978.021 475.25C978.89 476.755 979.652 478.303 980.307 479.884L980.769 479.693C982.118 482.949 983.019 486.341 983.471 489.779L982.975 489.844C983.425 493.266 983.425 496.734 982.975 500.156L983.471 500.221C983.019 503.659 982.118 507.051 980.769 510.307L980.307 510.116C979.652 511.697 978.89 513.245 978.021 514.75L975.068 519.864L975.501 520.114L969.596 530.343L969.163 530.093L963.257 540.321L963.69 540.571L957.785 550.8L957.352 550.55L951.447 560.778L951.88 561.028L945.974 571.257L945.541 571.007L939.636 581.235L940.069 581.485L934.163 591.714L933.73 591.464L927.825 601.692L928.258 601.942L922.352 612.171L921.919 611.921L916.014 622.149L916.447 622.399L910.542 632.628L910.109 632.378L904.203 642.606L904.636 642.856L898.731 653.085L898.298 652.835L892.392 663.063L892.825 663.313L886.92 673.542L886.487 673.292L880.581 683.52L881.014 683.77L875.109 693.999L874.676 693.749L868.771 703.977L869.204 704.227L863.298 714.456L862.865 714.206L856.96 724.434L857.393 724.684L851.487 734.912L851.054 734.662L845.149 744.891L845.582 745.141L839.677 755.369L839.244 755.119L833.338 765.348L833.771 765.598L827.866 775.826L827.433 775.576L821.527 785.805L821.96 786.055L816.055 796.283L815.622 796.033L809.716 806.262L810.149 806.512L804.244 816.74L803.811 816.49L797.906 826.719L798.339 826.969L792.433 837.197L792 836.947L786.095 847.176L786.528 847.426L780.622 857.654L780.189 857.404L774.284 867.633L774.717 867.883L768.812 878.111L768.378 877.861L762.473 888.09L762.906 888.34L757.001 898.568L756.568 898.318L753.615 903.433C752.746 904.938 751.786 906.372 750.745 907.729L751.142 908.034C748.996 910.83 746.509 913.306 743.758 915.417L743.453 915.02C740.715 917.121 737.712 918.855 734.523 920.176L734.714 920.638C731.511 921.965 728.123 922.881 724.628 923.341L724.563 922.845C722.867 923.068 721.145 923.183 719.407 923.183L713.502 923.183L713.502 923.683L701.691 923.683L701.691 923.183L689.88 923.183L689.88 923.683L678.069 923.683L678.069 923.183L666.258 923.183L666.258 923.683L654.447 923.683L654.447 923.183L642.636 923.183L642.636 923.683L630.826 923.683L630.826 923.183L619.015 923.183L619.015 923.683L607.204 923.683L607.204 923.183L595.393 923.183L595.393 923.683L583.582 923.683L583.582 923.183L571.771 923.183L571.771 923.683L559.961 923.683L559.961 923.182L548.15 923.183L548.15 923.683L536.339 923.683L536.339 923.183L524.528 923.183L524.528 923.683L512.717 923.683L512.717 923.183L500.906 923.183L500.906 923.683L489.096 923.683L489.096 923.183L477.285 923.183L477.285 923.683L465.474 923.683L465.474 923.183L453.663 923.183L453.663 923.683L441.852 923.683L441.852 923.183L430.041 923.183L430.041 923.683L418.23 923.683L418.23 923.183L406.42 923.183L406.42 923.683L394.609 923.683L394.609 923.183L382.798 923.182L382.798 923.683L370.987 923.683L370.987 923.183L359.176 923.183L359.176 923.683L347.365 923.683L347.365 923.183L335.555 923.183L335.555 923.683L323.744 923.683L323.744 923.183L311.933 923.183L311.933 923.683L300.122 923.683L300.122 923.183L288.311 923.183L288.311 923.683L276.5 923.683L276.5 923.183L270.595 923.183C268.857 923.183 267.135 923.068 265.439 922.845L265.374 923.341C261.879 922.881 258.491 921.965 255.287 920.638L255.479 920.176C252.29 918.855 249.287 917.121 246.549 915.02L246.244 915.417C243.493 913.306 241.006 910.83 238.86 908.034L239.257 907.729C238.216 906.372 237.256 904.938 236.387 903.433L233.434 898.318L233.001 898.568L227.096 888.34L227.529 888.09L221.623 877.861L221.19 878.111L215.285 867.883L215.718 867.633L209.813 857.404L209.38 857.654L203.474 847.426L203.907 847.176L198.002 836.947L197.569 837.197L191.663 826.969L192.096 826.719L186.191 816.49L185.758 816.74L179.852 806.512L180.285 806.262L174.38 796.033L173.947 796.283L168.042 786.055L168.475 785.805L162.569 775.576L162.136 775.826L156.231 765.598L156.664 765.348L150.758 755.119L150.325 755.369L144.42 745.141L144.853 744.891L138.947 734.662L138.514 734.912L132.609 724.684L133.042 724.434L127.137 714.205L126.704 714.455L120.798 704.227L121.231 703.977L115.326 693.748L114.893 693.998L108.987 683.77L109.42 683.52L103.515 673.292L103.082 673.541L97.1765 663.313L97.6095 663.063L91.7041 652.835L91.2711 653.085L85.3657 642.856L85.7987 642.606L79.8933 632.378L79.4603 632.628L73.5548 622.399L73.9879 622.149L68.0824 611.921L67.6494 612.171L61.744 601.942L62.177 601.692L56.2716 591.464L55.8386 591.714L49.9331 581.485L50.3662 581.235L44.4607 571.007L44.0277 571.257L38.1223 561.028L38.5553 560.778L32.6499 550.55L32.2169 550.8L26.3115 540.571L26.7445 540.321L20.8391 530.093L20.406 530.343L14.5006 520.114L14.9336 519.864L11.9809 514.75C11.1119 513.245 10.3499 511.697 9.69498 510.116L9.23307 510.307C7.88371 507.051 6.98298 503.659 6.5308 500.221L7.02653 500.156C6.57643 496.734 6.57641 493.266 7.02653 489.844L6.53079 489.779C6.98298 486.341 7.88371 482.949 9.23305 479.693L9.69499 479.884C10.3499 478.303 11.1119 476.755 11.9809 475.25L14.9336 470.136L14.5006 469.886L20.406 459.657L20.839 459.907L26.7445 449.679L26.3114 449.429L32.2169 439.2L32.6499 439.45L38.5553 429.222L38.1223 428.972L44.0277 418.743L44.4607 418.993L50.3662 408.765L49.9331 408.515L55.8386 398.286L56.2716 398.536L62.177 388.308L61.744 388.058L67.6494 377.829L68.0824 378.079L73.9879 367.851L73.5548 367.601L79.4603 357.372L79.8933 357.622L85.7987 347.394L85.3657 347.144L91.2711 336.915L91.7041 337.165L97.6096 326.937L97.1766 326.687L103.082 316.458L103.515 316.708L109.42 306.48L108.987 306.23L114.893 296.001L115.326 296.251L121.231 286.023L120.798 285.773L126.704 275.544L127.137 275.794L133.042 265.566L132.609 265.316L138.514 255.087L138.948 255.337L144.853 245.109L144.42 244.859L150.325 234.63L150.758 234.88L156.664 224.652L156.231 224.402L162.136 214.173L162.569 214.423L168.475 204.195L168.042 203.945L173.947 193.717L174.38 193.967L180.285 183.738L179.852 183.488L185.758 173.26L186.191 173.51L192.096 163.281L191.663 163.031L197.569 152.803L198.002 153.053L203.907 142.824L203.474 142.574L209.38 132.346L209.813 132.596L215.718 122.367L215.285 122.117L221.19 111.889L221.623 112.139L227.529 101.91L227.096 101.66L233.001 91.4316L233.434 91.6816L236.387 86.5674C237.256 85.0621 238.216 83.6281 239.257 82.2707L238.86 81.9664C241.006 79.1696 243.493 76.6934 246.244 74.583L246.549 74.9797C249.287 72.8789 252.29 71.145 255.479 69.8238L255.287 69.3619C258.491 68.0346 261.879 67.1185 265.374 66.6589L265.439 67.1547C267.135 66.9316 268.857 66.8174 270.595 66.8174L276.5 66.8174L276.5 66.3174L288.311 66.3174L288.311 66.8174L300.122 66.8174L300.122 66.3174L311.933 66.3174L311.933 66.8174L323.744 66.8174L323.744 66.3174L335.555 66.3174L335.555 66.8174L347.365 66.8174L347.365 66.3174L359.176 66.3174L359.176 66.8174L370.987 66.8174L370.987 66.3174L382.798 66.3174L382.798 66.8174L394.609 66.8174L394.609 66.3174L406.42 66.3174L406.42 66.8174L418.23 66.8174L418.23 66.3174L430.041 66.3174L430.041 66.8174L441.852 66.8174L441.852 66.3174L453.663 66.3174L453.663 66.8174L465.474 66.8174L465.474 66.3174L477.285 66.3174L477.285 66.8174L489.096 66.8174L489.096 66.3174L500.906 66.3174L500.906 66.8174L512.717 66.8174L512.717 66.3174L524.528 66.3174L524.528 66.8174L536.339 66.8174L536.339 66.3174L548.15 66.3174L548.15 66.8174L559.961 66.8174L559.961 66.3174L571.771 66.3174L571.771 66.8174L583.582 66.8174L583.582 66.3174L595.393 66.3174L595.393 66.8174L607.204 66.8174L607.204 66.3174L619.015 66.3174L619.015 66.8174L630.826 66.8174L630.826 66.3174L642.636 66.3174L642.636 66.8174L654.447 66.8174L654.447 66.3174L666.258 66.3174L666.258 66.8174L678.069 66.8174L678.069 66.3174L689.88 66.3174L689.88 66.8174L701.691 66.8174L701.691 66.3174Z" stroke="#01AA89" stroke-dasharray="12 12"/>
<path d="M880.611 463.428L889.753 464.539C889.947 464.563 890.12 464.666 890.231 464.826L892.589 468.195C892.744 468.416 892.754 468.708 892.616 468.941C892.476 469.174 892.214 469.303 891.946 469.27L883.416 468.234L881.486 476.628C881.425 476.892 881.215 477.097 880.949 477.148C880.683 477.199 880.412 477.09 880.257 476.869L877.9 473.5C877.788 473.34 877.751 473.142 877.792 472.952L879.861 463.956C879.94 463.614 880.265 463.385 880.611 463.428Z" fill="#01AA89"/>
<path d="M885.069 471.035L894.1 472.836C894.292 472.875 894.456 472.991 894.555 473.158L896.65 476.696C896.788 476.929 896.776 477.221 896.621 477.443C896.464 477.664 896.192 477.773 895.928 477.72L887.501 476.04L884.94 484.263C884.859 484.522 884.634 484.71 884.366 484.74C884.096 484.772 883.834 484.642 883.697 484.41L881.601 480.872C881.502 480.704 881.48 480.504 881.536 480.317L884.281 471.505C884.385 471.17 884.727 470.966 885.069 471.035Z" fill="#01AA89"/>
<path d="M875.358 456.528L884.543 457.195C884.738 457.209 884.915 457.304 885.034 457.458L887.553 460.709C887.718 460.922 887.743 461.214 887.616 461.453C887.487 461.692 887.231 461.834 886.963 461.814L878.392 461.193L876.87 469.67C876.822 469.937 876.623 470.151 876.36 470.215C876.096 470.28 875.82 470.183 875.655 469.97L873.137 466.719C873.018 466.565 872.971 466.369 873.003 466.177L874.634 457.091C874.696 456.746 875.01 456.502 875.358 456.528Z" fill="#01AA89"/>
<path d="M868.97 450.057L878.179 449.945C878.375 449.943 878.559 450.022 878.691 450.166L881.475 453.192C881.658 453.391 881.707 453.679 881.601 453.928C881.493 454.178 881.25 454.341 880.981 454.343L872.387 454.448L871.588 463.024C871.562 463.294 871.382 463.525 871.125 463.61C870.868 463.697 870.585 463.624 870.402 463.426L867.618 460.399C867.487 460.256 867.424 460.064 867.439 459.87L868.297 450.679C868.329 450.33 868.621 450.06 868.97 450.057Z" fill="#01AA89"/>
<path d="M862.725 444.2L871.916 443.624C872.112 443.612 872.3 443.682 872.439 443.818L875.372 446.7C875.565 446.89 875.628 447.175 875.535 447.429C875.44 447.684 875.205 447.859 874.936 447.875L866.359 448.413L865.994 457.019C865.982 457.29 865.813 457.529 865.561 457.628C865.308 457.727 865.022 457.669 864.83 457.48L861.897 454.598C861.758 454.461 861.685 454.273 861.691 454.079L862.083 444.856C862.098 444.505 862.376 444.221 862.725 444.2Z" fill="#01AA89"/>
<path d="M855.56 438.59L864.679 437.301C864.873 437.274 865.066 437.33 865.215 437.455L868.363 440.101C868.57 440.274 868.656 440.554 868.583 440.815C868.507 441.076 868.287 441.269 868.02 441.306L859.511 442.508L859.814 451.116C859.823 451.387 859.674 451.639 859.43 451.757C859.186 451.876 858.896 451.84 858.689 451.666L855.542 449.02C855.393 448.895 855.306 448.713 855.296 448.519L854.972 439.293C854.959 438.942 855.214 438.638 855.56 438.59Z" fill="#01AA89"/>
<path d="M848.191 433.932L857.159 431.837C857.35 431.794 857.548 431.831 857.707 431.943L861.078 434.298C861.3 434.453 861.41 434.724 861.36 434.99C861.308 435.257 861.106 435.468 860.844 435.529L852.474 437.484L853.542 446.031C853.576 446.3 853.449 446.564 853.217 446.703C852.984 446.843 852.692 446.833 852.471 446.679L849.1 444.323C848.94 444.212 848.838 444.038 848.811 443.845L847.667 434.685C847.624 434.337 847.851 434.01 848.191 433.932Z" fill="#01AA89"/>
<path d="M840.359 430.048L849.24 427.61C849.429 427.559 849.628 427.589 849.792 427.694L853.251 429.918C853.478 430.064 853.599 430.331 853.559 430.599C853.518 430.867 853.324 431.086 853.064 431.157L844.776 433.433L846.172 441.933C846.216 442.2 846.099 442.469 845.873 442.617C845.645 442.766 845.353 442.767 845.126 442.621L841.667 440.397C841.503 440.292 841.394 440.122 841.36 439.931L839.865 430.821C839.808 430.475 840.022 430.14 840.359 430.048Z" fill="#01AA89"/>
<path d="M833.206 426.194L841.99 423.424C842.177 423.366 842.376 423.389 842.544 423.488L846.084 425.58C846.317 425.718 846.447 425.98 846.418 426.249C846.386 426.518 846.201 426.745 845.944 426.825L837.747 429.41L839.461 437.852C839.515 438.118 839.409 438.391 839.188 438.547C838.967 438.705 838.675 438.717 838.442 438.579L834.902 436.487C834.734 436.388 834.619 436.222 834.578 436.032L832.741 426.985C832.671 426.641 832.873 426.298 833.206 426.194Z" fill="#01AA89"/>
<path d="M657.389 534.572L648.247 533.461C648.053 533.437 647.88 533.334 647.769 533.174L645.411 529.805C645.256 529.584 645.246 529.292 645.384 529.059C645.524 528.826 645.786 528.697 646.054 528.73L654.584 529.766L656.514 521.372C656.575 521.108 656.785 520.903 657.051 520.852C657.317 520.801 657.588 520.91 657.743 521.131L660.1 524.5C660.212 524.66 660.249 524.858 660.208 525.048L658.139 534.044C658.06 534.386 657.735 534.615 657.389 534.572Z" fill="#01AA89"/>
<path d="M652.931 526.965L643.9 525.164C643.708 525.125 643.544 525.009 643.445 524.842L641.35 521.304C641.212 521.071 641.224 520.779 641.379 520.557C641.536 520.336 641.808 520.227 642.072 520.28L650.499 521.96L653.06 513.737C653.141 513.478 653.366 513.29 653.634 513.26C653.904 513.228 654.166 513.358 654.303 513.59L656.399 517.128C656.498 517.296 656.52 517.496 656.464 517.683L653.719 526.495C653.615 526.83 653.273 527.034 652.931 526.965Z" fill="#01AA89"/>
<path d="M662.642 541.472L653.457 540.805C653.262 540.791 653.085 540.696 652.966 540.542L650.447 537.291C650.282 537.078 650.257 536.786 650.384 536.547C650.513 536.308 650.769 536.166 651.037 536.186L659.608 536.807L661.13 528.33C661.178 528.063 661.377 527.849 661.64 527.785C661.904 527.72 662.18 527.817 662.345 528.03L664.863 531.281C664.982 531.435 665.029 531.631 664.997 531.823L663.366 540.909C663.304 541.254 662.99 541.498 662.642 541.472Z" fill="#01AA89"/>
<path d="M669.03 547.943L659.821 548.055C659.625 548.057 659.441 547.978 659.309 547.834L656.525 544.808C656.342 544.609 656.293 544.321 656.399 544.072C656.507 543.822 656.75 543.659 657.019 543.657L665.613 543.552L666.412 534.976C666.438 534.706 666.618 534.475 666.875 534.39C667.132 534.303 667.415 534.376 667.598 534.574L670.382 537.601C670.513 537.744 670.576 537.936 670.561 538.13L669.703 547.321C669.671 547.67 669.379 547.94 669.03 547.943Z" fill="#01AA89"/>
<path d="M675.275 553.8L666.084 554.376C665.888 554.388 665.7 554.318 665.561 554.182L662.628 551.3C662.435 551.11 662.372 550.825 662.465 550.571C662.56 550.316 662.795 550.141 663.064 550.125L671.641 549.587L672.006 540.981C672.018 540.71 672.187 540.471 672.439 540.372C672.692 540.273 672.978 540.331 673.17 540.52L676.103 543.402C676.242 543.539 676.315 543.727 676.309 543.921L675.917 553.144C675.902 553.495 675.624 553.779 675.275 553.8Z" fill="#01AA89"/>
<path d="M682.44 559.41L673.321 560.699C673.127 560.726 672.934 560.67 672.785 560.545L669.637 557.899C669.43 557.726 669.344 557.446 669.417 557.185C669.493 556.924 669.713 556.731 669.98 556.694L678.489 555.492L678.186 546.884C678.177 546.613 678.326 546.361 678.57 546.243C678.814 546.124 679.104 546.16 679.311 546.334L682.458 548.98C682.607 549.105 682.694 549.287 682.704 549.481L683.028 558.707C683.041 559.058 682.786 559.362 682.44 559.41Z" fill="#01AA89"/>
<path d="M689.809 564.068L680.841 566.163C680.65 566.206 680.452 566.169 680.293 566.057L676.922 563.702C676.7 563.547 676.59 563.276 676.64 563.01C676.692 562.743 676.894 562.532 677.156 562.471L685.526 560.516L684.458 551.969C684.424 551.7 684.551 551.436 684.783 551.297C685.016 551.157 685.308 551.167 685.529 551.321L688.9 553.677C689.06 553.788 689.162 553.962 689.189 554.155L690.333 563.315C690.376 563.663 690.149 563.99 689.809 564.068Z" fill="#01AA89"/>
<path d="M697.641 567.952L688.76 570.39C688.571 570.441 688.372 570.411 688.208 570.306L684.749 568.082C684.522 567.936 684.401 567.669 684.441 567.401C684.482 567.133 684.676 566.914 684.936 566.843L693.224 564.567L691.828 556.067C691.784 555.8 691.901 555.531 692.127 555.383C692.355 555.234 692.647 555.233 692.874 555.379L696.333 557.603C696.497 557.708 696.606 557.878 696.64 558.069L698.135 567.179C698.192 567.525 697.978 567.86 697.641 567.952Z" fill="#01AA89"/>
<path d="M704.794 571.806L696.01 574.576C695.823 574.634 695.624 574.611 695.456 574.512L691.916 572.42C691.683 572.282 691.553 572.02 691.582 571.751C691.614 571.482 691.799 571.255 692.056 571.175L700.253 568.59L698.539 560.148C698.485 559.882 698.591 559.609 698.812 559.453C699.033 559.295 699.325 559.283 699.558 559.421L703.098 561.513C703.266 561.612 703.381 561.778 703.422 561.968L705.259 571.015C705.329 571.359 705.127 571.702 704.794 571.806Z" fill="#01AA89"/>
<path d="M651.656 473.213L660.798 472.102C660.992 472.078 661.165 471.975 661.276 471.815L663.634 468.447C663.789 468.225 663.799 467.933 663.661 467.7C663.521 467.467 663.259 467.338 662.991 467.371L654.46 468.407L652.531 460.013C652.47 459.749 652.26 459.544 651.994 459.493C651.728 459.442 651.457 459.551 651.302 459.772L648.944 463.141C648.833 463.301 648.796 463.499 648.837 463.689L650.906 472.685C650.985 473.027 651.31 473.256 651.656 473.213Z" fill="#01AA89"/>
<path d="M647.961 481.226L656.992 479.425C657.184 479.387 657.348 479.271 657.448 479.103L659.543 475.565C659.681 475.333 659.669 475.041 659.514 474.819C659.356 474.598 659.085 474.488 658.821 474.542L650.393 476.222L647.832 467.999C647.751 467.74 647.527 467.552 647.258 467.521C646.988 467.49 646.727 467.619 646.589 467.852L644.494 471.39C644.395 471.557 644.373 471.758 644.428 471.944L647.173 480.757C647.278 481.092 647.619 481.295 647.961 481.226Z" fill="#01AA89"/>
<path d="M656.444 466.024L665.629 465.357C665.824 465.342 666.001 465.248 666.12 465.094L668.638 461.843C668.804 461.63 668.829 461.338 668.702 461.099C668.573 460.86 668.317 460.718 668.049 460.738L659.478 461.359L657.956 452.882C657.908 452.615 657.709 452.4 657.446 452.337C657.182 452.272 656.906 452.368 656.741 452.582L654.223 455.833C654.104 455.986 654.057 456.183 654.089 456.375L655.72 465.46C655.782 465.806 656.096 466.05 656.444 466.024Z" fill="#01AA89"/>
<path d="M662.052 458.995L671.261 459.107C671.457 459.109 671.641 459.03 671.773 458.886L674.557 455.86C674.74 455.661 674.789 455.373 674.683 455.123C674.575 454.874 674.332 454.711 674.063 454.709L665.469 454.604L664.67 446.028C664.645 445.758 664.464 445.527 664.207 445.441C663.95 445.355 663.667 445.427 663.484 445.626L660.701 448.653C660.569 448.796 660.506 448.988 660.521 449.181L661.379 458.373C661.411 458.722 661.703 458.992 662.052 458.995Z" fill="#01AA89"/>
<path d="M667.854 452.776L677.045 453.352C677.24 453.364 677.429 453.294 677.568 453.157L680.501 450.275C680.693 450.086 680.757 449.8 680.664 449.546C680.569 449.292 680.334 449.117 680.065 449.101L671.488 448.562L671.123 439.957C671.111 439.686 670.942 439.446 670.69 439.348C670.437 439.248 670.151 439.306 669.959 439.496L667.026 442.378C666.887 442.514 666.814 442.703 666.82 442.897L667.212 452.12C667.227 452.471 667.505 452.755 667.854 452.776Z" fill="#01AA89"/>
<path d="M674.376 446.563L683.495 447.851C683.689 447.878 683.883 447.823 684.032 447.698L687.18 445.052C687.387 444.878 687.472 444.598 687.399 444.338C687.324 444.077 687.104 443.884 686.837 443.847L678.327 442.644L678.631 434.036C678.64 433.765 678.49 433.513 678.247 433.395C678.002 433.277 677.713 433.312 677.506 433.486L674.358 436.132C674.209 436.257 674.122 436.44 674.113 436.634L673.788 445.859C673.776 446.21 674.031 446.515 674.376 446.563Z" fill="#01AA89"/>
<path d="M681.066 441.157L690.034 443.251C690.225 443.295 690.423 443.258 690.582 443.146L693.953 440.791C694.175 440.636 694.285 440.365 694.235 440.099C694.183 439.832 693.981 439.621 693.719 439.56L685.349 437.605L686.417 429.058C686.451 428.789 686.324 428.525 686.092 428.386C685.859 428.246 685.567 428.256 685.346 428.41L681.975 430.766C681.815 430.877 681.713 431.051 681.686 431.243L680.542 440.404C680.499 440.752 680.726 441.079 681.066 441.157Z" fill="#01AA89"/>
<path d="M688.628 436.931L697.51 439.369C697.699 439.421 697.898 439.39 698.061 439.285L701.52 437.061C701.748 436.915 701.868 436.648 701.829 436.381C701.787 436.112 701.593 435.893 701.333 435.822L693.046 433.547L694.441 425.047C694.485 424.779 694.368 424.51 694.142 424.363C693.915 424.214 693.623 424.212 693.396 424.358L689.937 426.582C689.773 426.688 689.664 426.858 689.63 427.049L688.134 436.159C688.077 436.505 688.291 436.84 688.628 436.931Z" fill="#01AA89"/>
<path d="M695.532 432.734L704.316 435.504C704.503 435.562 704.702 435.54 704.87 435.441L708.41 433.348C708.643 433.211 708.773 432.949 708.744 432.68C708.713 432.41 708.527 432.184 708.27 432.103L700.073 429.518L701.788 421.076C701.841 420.811 701.735 420.538 701.514 420.381C701.293 420.224 701.001 420.212 700.768 420.349L697.228 422.442C697.061 422.541 696.945 422.706 696.904 422.896L695.067 431.944C694.997 432.287 695.199 432.63 695.532 432.734Z" fill="#01AA89"/>
<path d="M886.344 524.787L877.202 525.898C877.008 525.922 876.835 526.025 876.724 526.185L874.366 529.553C874.211 529.775 874.201 530.067 874.339 530.3C874.479 530.533 874.741 530.662 875.009 530.629L883.54 529.593L885.469 537.987C885.53 538.251 885.74 538.456 886.006 538.507C886.272 538.558 886.543 538.449 886.698 538.228L889.056 534.859C889.167 534.699 889.204 534.501 889.163 534.311L887.094 525.315C887.015 524.973 886.69 524.744 886.344 524.787Z" fill="#01AA89"/>
<path d="M890.039 516.774L881.008 518.575C880.816 518.613 880.652 518.729 880.552 518.897L878.457 522.435C878.319 522.667 878.331 522.959 878.486 523.181C878.644 523.402 878.915 523.512 879.179 523.458L887.607 521.778L890.168 530.001C890.249 530.26 890.473 530.448 890.742 530.479C891.012 530.51 891.273 530.381 891.411 530.148L893.506 526.61C893.605 526.443 893.627 526.242 893.572 526.056L890.827 517.243C890.722 516.908 890.381 516.705 890.039 516.774Z" fill="#01AA89"/>
<path d="M881.556 531.976L872.371 532.643C872.176 532.658 871.999 532.752 871.88 532.906L869.362 536.157C869.196 536.37 869.171 536.662 869.298 536.901C869.427 537.14 869.683 537.282 869.951 537.262L878.522 536.641L880.044 545.118C880.092 545.385 880.291 545.6 880.554 545.663C880.818 545.728 881.094 545.632 881.259 545.418L883.777 542.167C883.896 542.014 883.943 541.817 883.911 541.625L882.28 532.54C882.218 532.194 881.904 531.95 881.556 531.976Z" fill="#01AA89"/>
<path d="M875.948 539.005L866.739 538.893C866.543 538.891 866.359 538.97 866.227 539.114L863.443 542.14C863.26 542.339 863.211 542.627 863.317 542.877C863.425 543.126 863.668 543.289 863.937 543.291L872.531 543.396L873.33 551.972C873.355 552.242 873.536 552.473 873.793 552.559C874.05 552.645 874.333 552.573 874.516 552.374L877.299 549.347C877.431 549.204 877.494 549.012 877.479 548.819L876.621 539.627C876.589 539.278 876.297 539.008 875.948 539.005Z" fill="#01AA89"/>
<path d="M870.146 545.224L860.955 544.648C860.76 544.636 860.571 544.706 860.432 544.843L857.499 547.725C857.307 547.914 857.243 548.2 857.336 548.454C857.431 548.708 857.666 548.883 857.935 548.899L866.512 549.438L866.877 558.043C866.889 558.314 867.058 558.554 867.31 558.652C867.563 558.752 867.849 558.694 868.041 558.504L870.974 555.622C871.113 555.486 871.186 555.297 871.18 555.103L870.788 545.88C870.773 545.529 870.495 545.245 870.146 545.224Z" fill="#01AA89"/>
<path d="M863.624 551.437L854.505 550.149C854.311 550.122 854.117 550.177 853.968 550.302L850.82 552.948C850.613 553.122 850.528 553.402 850.601 553.662C850.676 553.923 850.896 554.116 851.163 554.153L859.673 555.356L859.369 563.964C859.36 564.235 859.51 564.487 859.753 564.605C859.998 564.723 860.287 564.688 860.494 564.514L863.642 561.868C863.791 561.743 863.878 561.56 863.887 561.366L864.212 552.141C864.224 551.79 863.969 551.485 863.624 551.437Z" fill="#01AA89"/>
<path d="M856.934 556.843L847.966 554.749C847.775 554.705 847.577 554.742 847.418 554.854L844.047 557.209C843.825 557.364 843.715 557.635 843.765 557.901C843.817 558.168 844.019 558.379 844.281 558.44L852.651 560.395L851.583 568.942C851.549 569.211 851.676 569.475 851.908 569.614C852.141 569.754 852.433 569.744 852.654 569.59L856.025 567.234C856.185 567.123 856.287 566.949 856.314 566.757L857.458 557.596C857.501 557.248 857.274 556.921 856.934 556.843Z" fill="#01AA89"/>
<path d="M849.372 561.069L840.49 558.631C840.301 558.579 840.102 558.61 839.939 558.715L836.48 560.939C836.252 561.085 836.132 561.352 836.171 561.619C836.213 561.888 836.407 562.107 836.667 562.178L844.954 564.453L843.559 572.953C843.515 573.221 843.632 573.49 843.858 573.637C844.085 573.786 844.377 573.788 844.604 573.642L848.063 571.418C848.227 571.312 848.336 571.142 848.37 570.951L849.866 561.841C849.923 561.495 849.709 561.16 849.372 561.069Z" fill="#01AA89"/>
<path d="M842.468 565.266L833.684 562.496C833.497 562.438 833.298 562.46 833.13 562.559L829.59 564.652C829.357 564.789 829.227 565.051 829.256 565.32C829.287 565.59 829.473 565.816 829.73 565.897L837.927 568.482L836.212 576.924C836.159 577.189 836.265 577.462 836.486 577.619C836.707 577.776 836.999 577.788 837.232 577.651L840.772 575.558C840.939 575.459 841.055 575.294 841.096 575.104L842.933 566.056C843.003 565.713 842.801 565.37 842.468 565.266Z" fill="#01AA89"/>
<path d="M109.389 463.428L100.247 464.539C100.053 464.563 99.8802 464.666 99.7686 464.826L97.411 468.195C97.2561 468.416 97.2455 468.708 97.3837 468.941C97.5237 469.174 97.7862 469.303 98.0536 469.27L106.584 468.234L108.514 476.628C108.575 476.892 108.785 477.097 109.051 477.148C109.317 477.199 109.588 477.09 109.743 476.869L112.1 473.5C112.212 473.34 112.249 473.142 112.208 472.952L110.139 463.956C110.06 463.614 109.735 463.385 109.389 463.428Z" fill="#01AA89"/>
<path d="M104.931 471.035L95.9002 472.836C95.7084 472.875 95.5441 472.991 95.4449 473.158L93.3496 476.696C93.212 476.929 93.2236 477.221 93.379 477.443C93.5363 477.664 93.8078 477.773 94.0719 477.72L102.499 476.04L105.06 484.263C105.141 484.522 105.366 484.71 105.634 484.74C105.904 484.772 106.166 484.642 106.303 484.41L108.399 480.872C108.498 480.704 108.52 480.504 108.464 480.317L105.719 471.505C105.615 471.17 105.273 470.966 104.931 471.035Z" fill="#01AA89"/>
<path d="M114.642 456.528L105.457 457.195C105.262 457.209 105.085 457.304 104.966 457.458L102.447 460.709C102.282 460.922 102.257 461.214 102.384 461.453C102.513 461.692 102.769 461.834 103.037 461.814L111.608 461.193L113.13 469.67C113.178 469.937 113.377 470.151 113.64 470.215C113.904 470.28 114.18 470.183 114.345 469.97L116.863 466.719C116.982 466.565 117.029 466.369 116.997 466.177L115.366 457.091C115.304 456.746 114.99 456.502 114.642 456.528Z" fill="#01AA89"/>
<path d="M121.03 450.057L111.821 449.945C111.625 449.943 111.441 450.022 111.309 450.166L108.525 453.192C108.342 453.391 108.293 453.679 108.399 453.928C108.507 454.178 108.75 454.341 109.019 454.343L117.613 454.448L118.412 463.024C118.438 463.294 118.618 463.525 118.875 463.61C119.132 463.697 119.415 463.624 119.598 463.426L122.382 460.399C122.513 460.256 122.576 460.064 122.561 459.87L121.703 450.679C121.671 450.33 121.379 450.06 121.03 450.057Z" fill="#01AA89"/>
<path d="M127.275 444.2L118.084 443.624C117.888 443.612 117.7 443.682 117.561 443.818L114.628 446.7C114.435 446.89 114.372 447.175 114.465 447.429C114.56 447.684 114.795 447.859 115.064 447.875L123.641 448.413L124.006 457.019C124.018 457.29 124.187 457.529 124.439 457.628C124.692 457.727 124.978 457.669 125.17 457.48L128.103 454.598C128.242 454.461 128.315 454.273 128.309 454.079L127.917 444.856C127.902 444.505 127.624 444.221 127.275 444.2Z" fill="#01AA89"/>
<path d="M134.44 438.59L125.321 437.301C125.127 437.274 124.934 437.33 124.785 437.455L121.637 440.101C121.43 440.274 121.344 440.554 121.417 440.815C121.493 441.076 121.713 441.269 121.98 441.306L130.489 442.508L130.186 451.116C130.177 451.387 130.326 451.639 130.57 451.757C130.814 451.876 131.104 451.84 131.311 451.666L134.458 449.02C134.607 448.895 134.694 448.713 134.704 448.519L135.028 439.293C135.041 438.942 134.786 438.638 134.44 438.59Z" fill="#01AA89"/>
<path d="M141.809 433.932L132.841 431.837C132.65 431.794 132.452 431.831 132.293 431.943L128.922 434.298C128.7 434.453 128.59 434.724 128.64 434.99C128.692 435.257 128.894 435.468 129.156 435.529L137.526 437.484L136.458 446.031C136.424 446.3 136.551 446.564 136.783 446.703C137.016 446.843 137.308 446.833 137.529 446.679L140.9 444.323C141.06 444.212 141.162 444.038 141.189 443.845L142.333 434.685C142.376 434.337 142.149 434.01 141.809 433.932Z" fill="#01AA89"/>
<path d="M149.641 430.048L140.76 427.61C140.571 427.559 140.372 427.589 140.208 427.694L136.749 429.918C136.522 430.064 136.401 430.331 136.441 430.599C136.482 430.867 136.676 431.086 136.936 431.157L145.224 433.433L143.828 441.933C143.784 442.2 143.901 442.469 144.127 442.617C144.355 442.766 144.647 442.767 144.874 442.621L148.333 440.397C148.497 440.292 148.606 440.122 148.64 439.931L150.135 430.821C150.192 430.475 149.978 430.14 149.641 430.048Z" fill="#01AA89"/>
<path d="M156.794 426.194L148.01 423.424C147.823 423.366 147.624 423.389 147.456 423.488L143.916 425.58C143.683 425.718 143.553 425.98 143.582 426.249C143.614 426.518 143.799 426.745 144.056 426.825L152.253 429.41L150.539 437.852C150.485 438.118 150.591 438.391 150.812 438.547C151.033 438.705 151.325 438.717 151.558 438.579L155.098 436.487C155.266 436.388 155.381 436.222 155.422 436.032L157.259 426.985C157.329 426.641 157.127 426.298 156.794 426.194Z" fill="#01AA89"/>
<path d="M332.611 534.572L341.753 533.461C341.947 533.437 342.12 533.334 342.231 533.174L344.589 529.805C344.744 529.584 344.754 529.292 344.616 529.059C344.476 528.826 344.214 528.697 343.946 528.73L335.416 529.766L333.486 521.372C333.425 521.108 333.215 520.903 332.949 520.852C332.683 520.801 332.412 520.91 332.257 521.131L329.9 524.5C329.788 524.66 329.751 524.858 329.792 525.048L331.861 534.044C331.94 534.386 332.265 534.615 332.611 534.572Z" fill="#01AA89"/>
<path d="M337.069 526.965L346.1 525.164C346.292 525.125 346.456 525.009 346.555 524.842L348.65 521.304C348.788 521.071 348.776 520.779 348.621 520.557C348.464 520.336 348.192 520.227 347.928 520.28L339.501 521.96L336.94 513.737C336.859 513.478 336.634 513.29 336.366 513.26C336.096 513.228 335.834 513.358 335.697 513.59L333.601 517.128C333.502 517.296 333.48 517.496 333.536 517.683L336.281 526.495C336.385 526.83 336.727 527.034 337.069 526.965Z" fill="#01AA89"/>
<path d="M327.358 541.472L336.543 540.805C336.738 540.791 336.915 540.696 337.034 540.542L339.553 537.291C339.718 537.078 339.743 536.786 339.616 536.547C339.487 536.308 339.231 536.166 338.963 536.186L330.392 536.807L328.87 528.33C328.822 528.063 328.623 527.849 328.36 527.785C328.096 527.72 327.82 527.817 327.655 528.03L325.137 531.281C325.018 531.435 324.971 531.631 325.003 531.823L326.634 540.909C326.696 541.254 327.01 541.498 327.358 541.472Z" fill="#01AA89"/>
<path d="M320.97 547.943L330.179 548.055C330.375 548.057 330.559 547.978 330.691 547.834L333.475 544.808C333.658 544.609 333.707 544.321 333.601 544.072C333.493 543.822 333.25 543.659 332.981 543.657L324.387 543.552L323.588 534.976C323.562 534.706 323.382 534.475 323.125 534.39C322.868 534.303 322.585 534.376 322.402 534.574L319.618 537.601C319.487 537.744 319.424 537.936 319.439 538.13L320.297 547.321C320.329 547.67 320.621 547.94 320.97 547.943Z" fill="#01AA89"/>
<path d="M314.725 553.8L323.916 554.376C324.112 554.388 324.3 554.318 324.439 554.182L327.372 551.3C327.565 551.11 327.628 550.825 327.535 550.571C327.44 550.316 327.205 550.141 326.936 550.125L318.359 549.587L317.994 540.981C317.982 540.71 317.813 540.471 317.561 540.372C317.308 540.273 317.022 540.331 316.83 540.52L313.897 543.402C313.758 543.539 313.685 543.727 313.691 543.921L314.083 553.144C314.098 553.495 314.376 553.779 314.725 553.8Z" fill="#01AA89"/>
<path d="M307.56 559.41L316.679 560.699C316.873 560.726 317.066 560.67 317.215 560.545L320.363 557.899C320.57 557.726 320.656 557.446 320.583 557.185C320.507 556.924 320.287 556.731 320.02 556.694L311.511 555.492L311.814 546.884C311.823 546.613 311.674 546.361 311.43 546.243C311.186 546.124 310.896 546.16 310.689 546.334L307.542 548.98C307.393 549.105 307.306 549.287 307.296 549.481L306.972 558.707C306.959 559.058 307.214 559.362 307.56 559.41Z" fill="#01AA89"/>
<path d="M300.191 564.068L309.159 566.163C309.35 566.206 309.548 566.169 309.707 566.057L313.078 563.702C313.3 563.547 313.41 563.276 313.36 563.01C313.308 562.743 313.106 562.532 312.844 562.471L304.474 560.516L305.542 551.969C305.576 551.7 305.449 551.436 305.217 551.297C304.984 551.157 304.692 551.167 304.471 551.321L301.1 553.677C300.94 553.788 300.838 553.962 300.811 554.155L299.667 563.315C299.624 563.663 299.851 563.99 300.191 564.068Z" fill="#01AA89"/>
<path d="M292.359 567.952L301.24 570.39C301.429 570.441 301.628 570.411 301.792 570.306L305.251 568.082C305.478 567.936 305.599 567.669 305.559 567.401C305.518 567.133 305.324 566.914 305.064 566.843L296.776 564.567L298.172 556.067C298.216 555.8 298.099 555.531 297.873 555.383C297.645 555.234 297.353 555.233 297.126 555.379L293.667 557.603C293.503 557.708 293.394 557.878 293.36 558.069L291.865 567.179C291.808 567.525 292.022 567.86 292.359 567.952Z" fill="#01AA89"/>
<path d="M285.206 571.806L293.99 574.576C294.177 574.634 294.376 574.611 294.544 574.512L298.084 572.42C298.317 572.282 298.447 572.02 298.418 571.751C298.386 571.482 298.201 571.255 297.944 571.175L289.747 568.59L291.461 560.148C291.515 559.882 291.409 559.609 291.188 559.453C290.967 559.295 290.675 559.283 290.442 559.421L286.902 561.513C286.734 561.612 286.619 561.778 286.578 561.968L284.741 571.015C284.671 571.359 284.873 571.702 285.206 571.806Z" fill="#01AA89"/>
<path d="M338.344 473.213L329.202 472.102C329.008 472.078 328.835 471.975 328.724 471.815L326.366 468.447C326.211 468.225 326.201 467.933 326.339 467.7C326.479 467.467 326.741 467.338 327.009 467.371L335.54 468.407L337.469 460.013C337.53 459.749 337.74 459.544 338.006 459.493C338.272 459.442 338.543 459.551 338.698 459.772L341.056 463.141C341.167 463.301 341.204 463.499 341.163 463.689L339.094 472.685C339.015 473.027 338.69 473.256 338.344 473.213Z" fill="#01AA89"/>
<path d="M342.039 481.226L333.008 479.425C332.816 479.387 332.652 479.271 332.552 479.103L330.457 475.565C330.319 475.333 330.331 475.041 330.486 474.819C330.644 474.598 330.915 474.488 331.179 474.542L339.607 476.222L342.168 467.999C342.249 467.74 342.473 467.552 342.742 467.521C343.012 467.49 343.273 467.619 343.411 467.852L345.506 471.39C345.605 471.557 345.627 471.758 345.572 471.944L342.827 480.757C342.722 481.092 342.381 481.295 342.039 481.226Z" fill="#01AA89"/>
<path d="M333.556 466.024L324.371 465.357C324.176 465.342 323.999 465.248 323.88 465.094L321.362 461.843C321.196 461.63 321.171 461.338 321.298 461.099C321.427 460.86 321.683 460.718 321.951 460.738L330.522 461.359L332.044 452.882C332.092 452.615 332.291 452.4 332.554 452.337C332.818 452.272 333.094 452.368 333.259 452.582L335.777 455.833C335.896 455.986 335.943 456.183 335.911 456.375L334.28 465.46C334.218 465.806 333.904 466.05 333.556 466.024Z" fill="#01AA89"/>
<path d="M327.948 458.995L318.739 459.107C318.543 459.109 318.359 459.03 318.227 458.886L315.443 455.86C315.26 455.661 315.211 455.373 315.317 455.123C315.425 454.874 315.668 454.711 315.937 454.709L324.531 454.604L325.33 446.028C325.355 445.758 325.536 445.527 325.793 445.441C326.05 445.355 326.333 445.427 326.516 445.626L329.299 448.653C329.431 448.796 329.494 448.988 329.479 449.181L328.621 458.373C328.589 458.722 328.297 458.992 327.948 458.995Z" fill="#01AA89"/>
<path d="M322.146 452.776L312.955 453.352C312.76 453.364 312.571 453.294 312.432 453.157L309.499 450.275C309.307 450.086 309.243 449.8 309.336 449.546C309.431 449.292 309.666 449.117 309.935 449.101L318.512 448.562L318.877 439.957C318.889 439.686 319.058 439.446 319.31 439.348C319.563 439.248 319.849 439.306 320.041 439.496L322.974 442.378C323.113 442.514 323.186 442.703 323.18 442.897L322.788 452.12C322.773 452.471 322.495 452.755 322.146 452.776Z" fill="#01AA89"/>
<path d="M315.624 446.563L306.505 447.851C306.311 447.878 306.117 447.823 305.968 447.698L302.82 445.052C302.613 444.878 302.528 444.598 302.601 444.338C302.676 444.077 302.896 443.884 303.163 443.847L311.673 442.644L311.369 434.036C311.36 433.765 311.51 433.513 311.753 433.395C311.998 433.277 312.287 433.312 312.494 433.486L315.642 436.132C315.791 436.257 315.878 436.44 315.887 436.634L316.212 445.859C316.224 446.21 315.969 446.515 315.624 446.563Z" fill="#01AA89"/>
<path d="M308.934 441.157L299.966 443.251C299.775 443.295 299.577 443.258 299.418 443.146L296.047 440.791C295.825 440.636 295.715 440.365 295.765 440.099C295.817 439.832 296.019 439.621 296.281 439.56L304.651 437.605L303.583 429.058C303.549 428.789 303.676 428.525 303.908 428.386C304.141 428.246 304.433 428.256 304.654 428.41L308.025 430.766C308.185 430.877 308.287 431.051 308.314 431.243L309.458 440.404C309.501 440.752 309.274 441.079 308.934 441.157Z" fill="#01AA89"/>
<path d="M301.372 436.931L292.49 439.369C292.301 439.421 292.102 439.39 291.939 439.285L288.48 437.061C288.252 436.915 288.132 436.648 288.171 436.381C288.213 436.112 288.407 435.893 288.667 435.822L296.954 433.547L295.559 425.047C295.515 424.779 295.632 424.51 295.858 424.363C296.085 424.214 296.377 424.212 296.604 424.358L300.063 426.582C300.227 426.688 300.336 426.858 300.37 427.049L301.866 436.159C301.923 436.505 301.709 436.84 301.372 436.931Z" fill="#01AA89"/>
<path d="M294.468 432.734L285.684 435.504C285.497 435.562 285.298 435.54 285.13 435.441L281.59 433.348C281.357 433.211 281.227 432.949 281.256 432.68C281.287 432.41 281.473 432.184 281.73 432.103L289.927 429.518L288.212 421.076C288.159 420.811 288.265 420.538 288.486 420.381C288.707 420.224 288.999 420.212 289.232 420.349L292.772 422.442C292.939 422.541 293.055 422.706 293.096 422.896L294.933 431.944C295.003 432.287 294.801 432.63 294.468 432.734Z" fill="#01AA89"/>
<path d="M103.656 524.787L112.798 525.898C112.992 525.922 113.165 526.025 113.276 526.185L115.634 529.553C115.789 529.775 115.799 530.067 115.661 530.3C115.521 530.533 115.259 530.662 114.991 530.629L106.46 529.593L104.531 537.987C104.47 538.251 104.26 538.456 103.994 538.507C103.728 538.558 103.457 538.449 103.302 538.228L100.944 534.859C100.833 534.699 100.796 534.501 100.837 534.311L102.906 525.315C102.985 524.973 103.31 524.744 103.656 524.787Z" fill="#01AA89"/>
<path d="M99.9613 516.774L108.992 518.575C109.184 518.613 109.348 518.729 109.448 518.897L111.543 522.435C111.681 522.667 111.669 522.959 111.514 523.181C111.356 523.402 111.085 523.512 110.821 523.458L102.393 521.778L99.8323 530.001C99.7514 530.26 99.5267 530.448 99.2581 530.479C98.9884 530.51 98.7268 530.381 98.5892 530.148L96.4938 526.61C96.3947 526.443 96.3729 526.242 96.4283 526.056L99.1734 517.243C99.2777 516.908 99.6193 516.705 99.9613 516.774Z" fill="#01AA89"/>
<path d="M108.444 531.976L117.629 532.643C117.824 532.658 118.001 532.752 118.12 532.906L120.638 536.157C120.804 536.37 120.829 536.662 120.702 536.901C120.573 537.14 120.317 537.282 120.049 537.262L111.478 536.641L109.956 545.118C109.908 545.385 109.709 545.6 109.446 545.663C109.182 545.728 108.906 545.632 108.741 545.418L106.223 542.167C106.104 542.014 106.057 541.817 106.089 541.625L107.72 532.54C107.782 532.194 108.096 531.95 108.444 531.976Z" fill="#01AA89"/>
<path d="M114.052 539.005L123.261 538.893C123.457 538.891 123.641 538.97 123.773 539.114L126.557 542.14C126.74 542.339 126.789 542.627 126.683 542.877C126.575 543.126 126.332 543.289 126.063 543.291L117.469 543.396L116.67 551.972C116.645 552.242 116.464 552.473 116.207 552.559C115.95 552.645 115.667 552.573 115.484 552.374L112.701 549.347C112.569 549.204 112.506 549.012 112.521 548.819L113.379 539.627C113.411 539.278 113.703 539.008 114.052 539.005Z" fill="#01AA89"/>
<path d="M119.854 545.224L129.045 544.648C129.24 544.636 129.429 544.706 129.568 544.843L132.501 547.725C132.693 547.914 132.757 548.2 132.664 548.454C132.569 548.708 132.334 548.883 132.065 548.899L123.488 549.438L123.123 558.043C123.111 558.314 122.942 558.554 122.69 558.652C122.437 558.752 122.151 558.694 121.959 558.504L119.026 555.622C118.887 555.486 118.814 555.297 118.82 555.103L119.212 545.88C119.227 545.529 119.505 545.245 119.854 545.224Z" fill="#01AA89"/>
<path d="M126.376 551.437L135.495 550.149C135.689 550.122 135.883 550.177 136.032 550.302L139.18 552.948C139.387 553.122 139.472 553.402 139.399 553.662C139.324 553.923 139.104 554.116 138.837 554.153L130.327 555.356L130.631 563.964C130.64 564.235 130.49 564.487 130.247 564.605C130.002 564.723 129.713 564.688 129.506 564.514L126.358 561.868C126.209 561.743 126.122 561.56 126.113 561.366L125.788 552.141C125.776 551.79 126.031 551.485 126.376 551.437Z" fill="#01AA89"/>
<path d="M133.066 556.843L142.034 554.749C142.225 554.705 142.423 554.742 142.582 554.854L145.953 557.209C146.175 557.364 146.285 557.635 146.235 557.901C146.183 558.168 145.981 558.379 145.719 558.44L137.349 560.395L138.417 568.942C138.451 569.211 138.324 569.475 138.092 569.614C137.859 569.754 137.567 569.744 137.346 569.59L133.975 567.234C133.815 567.123 133.713 566.949 133.686 566.757L132.542 557.596C132.499 557.248 132.726 556.921 133.066 556.843Z" fill="#01AA89"/>
<path d="M140.628 561.069L149.51 558.631C149.699 558.579 149.898 558.61 150.061 558.715L153.52 560.939C153.748 561.085 153.868 561.352 153.829 561.619C153.787 561.888 153.593 562.107 153.333 562.178L145.046 564.453L146.441 572.953C146.485 573.221 146.368 573.49 146.142 573.637C145.915 573.786 145.623 573.788 145.396 573.642L141.937 571.418C141.773 571.312 141.664 571.142 141.63 570.951L140.134 561.841C140.077 561.495 140.291 561.16 140.628 561.069Z" fill="#01AA89"/>
<path d="M147.532 565.266L156.316 562.496C156.503 562.438 156.702 562.46 156.87 562.559L160.41 564.652C160.643 564.789 160.773 565.051 160.744 565.32C160.713 565.59 160.527 565.816 160.27 565.897L152.073 568.482L153.788 576.924C153.841 577.189 153.735 577.462 153.514 577.619C153.293 577.776 153.001 577.788 152.768 577.651L149.228 575.558C149.061 575.459 148.945 575.294 148.904 575.104L147.067 566.056C146.997 565.713 147.199 565.37 147.532 565.266Z" fill="#01AA89"/>
</svg>
