<svg width="388" height="772" viewBox="0 0 388 772" fill="none" xmlns="http://www.w3.org/2000/svg">
<path d="M363.162 197.03L377.018 195.349C377.312 195.312 377.574 195.155 377.743 194.913L381.314 189.798C381.549 189.462 381.565 189.018 381.355 188.664C381.143 188.311 380.745 188.114 380.34 188.164L367.41 189.733L364.481 176.983C364.388 176.582 364.07 176.271 363.667 176.194C363.263 176.115 362.853 176.281 362.619 176.617L359.047 181.732C358.878 181.974 358.822 182.276 358.885 182.564L362.025 196.228C362.145 196.748 362.638 197.095 363.162 197.03Z" fill="#01AA89"/>
<path d="M369.919 185.475L383.607 182.747C383.897 182.688 384.146 182.512 384.296 182.258L387.47 176.887C387.678 176.534 387.66 176.09 387.424 175.753C387.186 175.417 386.774 175.251 386.374 175.332L373.601 177.876L369.714 165.386C369.591 164.993 369.25 164.707 368.843 164.661C368.434 164.613 368.038 164.809 367.829 165.162L364.656 170.533C364.506 170.788 364.473 171.093 364.557 171.375L368.725 184.761C368.883 185.27 369.401 185.579 369.919 185.475Z" fill="#01AA89"/>
<path d="M355.201 207.512L369.121 206.504C369.417 206.481 369.686 206.338 369.867 206.104L373.682 201.168C373.932 200.843 373.97 200.401 373.778 200.037C373.583 199.674 373.195 199.458 372.787 199.489L359.797 200.429L357.488 187.552C357.415 187.147 357.112 186.821 356.714 186.724C356.314 186.626 355.897 186.772 355.646 187.096L351.831 192.032C351.65 192.266 351.58 192.564 351.628 192.855L354.104 206.656C354.198 207.181 354.673 207.552 355.201 207.512Z" fill="#01AA89"/>
<path d="M345.518 217.344L359.475 217.515C359.772 217.518 360.051 217.397 360.251 217.18L364.47 212.583C364.747 212.281 364.822 211.843 364.661 211.464C364.497 211.086 364.129 210.838 363.721 210.834L350.697 210.674L349.484 197.647C349.445 197.237 349.171 196.887 348.782 196.756C348.392 196.625 347.964 196.735 347.687 197.037L343.468 201.634C343.268 201.851 343.173 202.143 343.196 202.437L344.497 216.398C344.547 216.929 344.989 217.339 345.518 217.344Z" fill="#01AA89"/>
<path d="M336.051 226.241L349.982 227.116C350.279 227.134 350.564 227.028 350.775 226.821L355.22 222.443C355.512 222.155 355.609 221.721 355.467 221.335C355.323 220.949 354.968 220.683 354.56 220.658L341.56 219.841L341.006 206.769C340.989 206.358 340.732 205.994 340.351 205.844C339.968 205.693 339.534 205.781 339.242 206.069L334.797 210.447C334.586 210.654 334.476 210.941 334.485 211.236L335.08 225.245C335.102 225.778 335.524 226.209 336.051 226.241Z" fill="#01AA89"/>
<path d="M325.191 234.764L339.012 236.718C339.306 236.759 339.599 236.675 339.825 236.485L344.597 232.465C344.911 232.201 345.041 231.776 344.93 231.38C344.816 230.984 344.482 230.691 344.078 230.635L331.18 228.81L331.643 215.734C331.657 215.323 331.43 214.94 331.061 214.761C330.691 214.581 330.251 214.636 329.938 214.9L325.166 218.92C324.94 219.11 324.808 219.387 324.794 219.681L324.299 233.696C324.28 234.228 324.667 234.691 325.191 234.764Z" fill="#01AA89"/>
<path d="M314.02 241.84L327.614 245.016C327.903 245.083 328.202 245.025 328.444 244.856L333.555 241.276C333.891 241.041 334.058 240.629 333.983 240.225C333.905 239.82 333.598 239.499 333.201 239.407L320.516 236.443L322.139 223.459C322.19 223.05 321.998 222.649 321.646 222.438C321.294 222.225 320.851 222.241 320.516 222.476L315.405 226.056C315.163 226.225 315.007 226.489 314.966 226.781L313.227 240.697C313.161 241.226 313.505 241.721 314.02 241.84Z" fill="#01AA89"/>
<path d="M302.149 247.74L315.611 251.437C315.898 251.514 316.199 251.469 316.447 251.309L321.692 247.928C322.037 247.706 322.22 247.301 322.16 246.894C322.097 246.487 321.804 246.154 321.41 246.046L308.848 242.596L310.97 229.684C311.036 229.278 310.859 228.87 310.516 228.645C310.172 228.419 309.729 228.417 309.385 228.639L304.14 232.02C303.892 232.18 303.726 232.438 303.674 232.728L301.401 246.567C301.314 247.093 301.639 247.601 302.149 247.74Z" fill="#01AA89"/>
<path d="M291.307 253.594L304.621 257.795C304.904 257.883 305.207 257.849 305.461 257.698L310.83 254.517C311.182 254.308 311.381 253.91 311.336 253.501C311.289 253.092 311.008 252.748 310.618 252.626L298.194 248.706L300.8 235.883C300.881 235.479 300.72 235.064 300.386 234.827C300.051 234.588 299.608 234.57 299.256 234.779L293.887 237.96C293.633 238.11 293.457 238.362 293.395 238.65L290.603 252.394C290.497 252.916 290.803 253.436 291.307 253.594Z" fill="#01AA89"/>
<path d="M16.1527 182.173L30.008 183.855C30.3024 183.891 30.5639 184.048 30.733 184.29L34.3045 189.405C34.539 189.741 34.5549 190.185 34.3454 190.539C34.1331 190.893 33.7352 191.089 33.3299 191.039L20.4006 189.471L17.4709 202.22C17.3782 202.621 17.06 202.932 16.6577 203.01C16.2536 203.089 15.8434 202.922 15.6088 202.587L12.0373 197.471C11.8683 197.229 11.8124 196.928 11.8749 196.639L15.0157 182.975C15.135 182.456 15.6279 182.108 16.1527 182.173Z" fill="#01AA89"/>
<path d="M10.5532 170.002L24.2404 172.729C24.5312 172.788 24.78 172.964 24.9302 173.218L28.1034 178.59C28.3117 178.942 28.2939 179.386 28.0582 179.723C27.8197 180.059 27.408 180.225 27.0077 180.145L14.2353 177.6L10.3473 190.09C10.2244 190.483 9.88366 190.769 9.4766 190.816C9.06775 190.864 8.6713 190.667 8.46293 190.314L5.28979 184.943C5.1396 184.689 5.10678 184.384 5.19093 184.101L9.35869 170.715C9.51706 170.206 10.0349 169.897 10.5532 170.002Z" fill="#01AA89"/>
<path d="M23.4086 193.093L37.3294 194.101C37.6253 194.123 37.8941 194.267 38.0746 194.501L41.8898 199.437C42.1403 199.761 42.1778 200.204 41.9856 200.568C41.7906 200.931 41.4027 201.147 40.9954 201.116L28.005 200.176L25.6962 213.053C25.623 213.458 25.3203 213.784 24.9221 213.881C24.5224 213.979 24.1045 213.833 23.854 213.509L20.0389 208.572C19.8583 208.339 19.7879 208.04 19.8363 207.749L22.3117 193.948C22.4057 193.424 22.8812 193.053 23.4086 193.093Z" fill="#01AA89"/>
<path d="M31.9085 203.767L45.8654 203.596C46.1621 203.593 46.4421 203.714 46.6418 203.931L50.8605 208.528C51.1376 208.83 51.2123 209.268 51.0516 209.647C50.8879 210.025 50.5196 210.273 50.1112 210.277L37.0872 210.437L35.8744 223.464C35.8357 223.874 35.5616 224.224 35.173 224.355C34.783 224.486 34.3543 224.376 34.0772 224.074L29.8585 219.477C29.6588 219.26 29.5634 218.968 29.5871 218.674L30.8878 204.713C30.9372 204.182 31.3797 203.773 31.9085 203.767Z" fill="#01AA89"/>
<path d="M40.6999 213.214L54.6308 212.338C54.927 212.321 55.2127 212.427 55.4231 212.634L59.8686 217.012C60.1605 217.3 60.2573 217.734 60.1159 218.12C59.9715 218.506 59.6161 218.772 59.2084 218.796L46.2087 219.614L45.6549 232.686C45.637 233.097 45.3809 233.461 44.9994 233.611C44.6165 233.762 44.1827 233.673 43.8908 233.386L39.4453 229.008C39.2349 228.801 39.1249 228.514 39.1337 228.219L39.7282 214.21C39.7507 213.677 40.172 213.246 40.6999 213.214Z" fill="#01AA89"/>
<path d="M50.5842 222.65L64.4058 220.696C64.6997 220.655 64.9928 220.739 65.2187 220.929L69.9909 224.949C70.3042 225.213 70.4344 225.638 70.3233 226.034C70.2094 226.43 69.8757 226.723 69.4712 226.779L56.5736 228.604L57.0361 241.68C57.0502 242.091 56.8231 242.474 56.4543 242.653C56.0843 242.833 55.645 242.778 55.3316 242.515L50.5594 238.495C50.3336 238.304 50.2017 238.027 50.1876 237.733L49.6927 223.718C49.6739 223.186 50.0604 222.723 50.5842 222.65Z" fill="#01AA89"/>
<path d="M60.7213 230.86L74.315 227.684C74.6042 227.618 74.9036 227.675 75.1456 227.844L80.2566 231.424C80.5922 231.659 80.7597 232.071 80.6843 232.475C80.606 232.88 80.2996 233.201 79.9017 233.293L67.2167 236.258L68.8403 249.241C68.891 249.65 68.6988 250.051 68.3474 250.262C67.9948 250.475 67.5524 250.46 67.2167 250.225L62.1057 246.645C61.8638 246.475 61.7078 246.211 61.6675 245.919L59.9282 232.004C59.8621 231.475 60.2059 230.979 60.7213 230.86Z" fill="#01AA89"/>
<path d="M72.1835 237.279L85.6452 233.582C85.9317 233.504 86.2331 233.55 86.4814 233.71L91.7264 237.09C92.0708 237.312 92.254 237.718 92.1942 238.124C92.1316 238.532 91.8378 238.865 91.4437 238.972L78.8819 242.422L81.0038 255.334C81.0701 255.741 80.8935 256.149 80.5505 256.373C80.2064 256.6 79.7636 256.601 79.4192 256.379L74.1742 252.999C73.9259 252.839 73.7599 252.581 73.7084 252.29L71.435 238.452C71.3486 237.926 71.6731 237.417 72.1835 237.279Z" fill="#01AA89"/>
<path d="M82.6453 243.654L95.9589 239.453C96.2423 239.365 96.5452 239.4 96.7993 239.55L102.168 242.731C102.52 242.94 102.719 243.338 102.674 243.747C102.627 244.157 102.346 244.5 101.956 244.622L89.5323 248.542L92.1378 261.365C92.2193 261.769 92.0582 262.184 91.7238 262.421C91.3884 262.66 90.9461 262.678 90.5935 262.469L85.2251 259.288C84.971 259.138 84.7954 258.886 84.733 258.598L81.9414 244.854C81.8353 244.332 82.1404 243.812 82.6453 243.654Z" fill="#01AA89"/>
<path d="M24.8375 65.9699L10.9823 67.6513C10.6878 67.688 10.4263 67.8445 10.2573 68.0867L6.68576 73.2019C6.45123 73.5378 6.43529 73.982 6.64479 74.3358C6.85718 74.6891 7.25508 74.8857 7.66037 74.8356L20.5896 73.2672L23.5194 86.0168C23.6121 86.4181 23.9302 86.7289 24.3326 86.8065C24.7366 86.8852 25.1469 86.719 25.3814 86.3831L28.9529 81.2679C29.122 81.0257 29.1778 80.7242 29.1153 80.4359L25.9746 66.7715C25.8552 66.2523 25.3623 65.9048 24.8375 65.9699Z" fill="#01AA89"/>
<path d="M18.0806 77.5255L4.39343 80.253C4.10263 80.3119 3.85376 80.4878 3.70357 80.7421L0.530428 86.1133C0.322059 86.466 0.339845 86.9101 0.575559 87.247C0.814116 87.5832 1.22576 87.749 1.62606 87.6683L14.3985 85.1237L18.2865 97.6138C18.4093 98.0069 18.7501 98.2926 19.1572 98.3395C19.566 98.3874 19.9625 98.1905 20.1709 97.8378L23.344 92.4666C23.4942 92.2123 23.527 91.9074 23.4429 91.6247L19.2751 78.2385C19.1167 77.7298 18.5989 77.4207 18.0806 77.5255Z" fill="#01AA89"/>
<path d="M32.7994 55.4878L18.8786 56.4962C18.5827 56.5185 18.3139 56.6623 18.1334 56.8959L14.3182 61.8323C14.0677 62.1565 14.0302 62.5994 14.2224 62.963C14.4174 63.3262 14.8053 63.5418 15.2126 63.5114L28.203 62.571L30.5118 75.448C30.585 75.8533 30.8877 76.1792 31.2859 76.2761C31.6856 76.3744 32.1035 76.2283 32.354 75.9041L36.1691 70.9677C36.3497 70.734 36.4201 70.4355 36.3717 70.1445L33.8963 56.3436C33.8023 55.8192 33.3268 55.4482 32.7994 55.4878Z" fill="#01AA89"/>
<path d="M42.4821 45.6563L28.5252 45.485C28.2285 45.4823 27.9485 45.6028 27.7488 45.8204L23.5301 50.4171C23.2531 50.719 23.1783 51.1572 23.3391 51.5357C23.5027 51.914 23.8711 52.1617 24.2794 52.1658L37.3034 52.3262L38.5163 65.353C38.5549 65.763 38.829 66.1133 39.2176 66.2436C39.6077 66.3753 40.0364 66.2649 40.3134 65.9631L44.5321 61.3664C44.7318 61.1488 44.8272 60.8573 44.8035 60.5632L43.5028 46.6018C43.4534 46.0713 43.0109 45.6614 42.4821 45.6563Z" fill="#01AA89"/>
<path d="M51.9485 36.759L38.0177 35.8835C37.7215 35.8658 37.4357 35.9721 37.2253 36.1793L32.7798 40.5573C32.4879 40.8448 32.3912 41.2787 32.5326 41.6649C32.6769 42.051 33.0323 42.317 33.44 42.3416L46.4397 43.1592L46.9935 56.231C47.0115 56.6424 47.2676 57.0061 47.649 57.1559C48.032 57.3071 48.4657 57.2185 48.7576 56.931L53.2031 52.553C53.4135 52.3457 53.5235 52.0594 53.5147 51.7645L52.9203 37.7548C52.8977 37.2225 52.4765 36.7908 51.9485 36.759Z" fill="#01AA89"/>
<path d="M62.8093 28.2361L48.9878 26.2817C48.6938 26.2411 48.4007 26.3248 48.1748 26.5151L43.4027 30.5351C43.0893 30.799 42.9592 31.2241 43.0702 31.6201C43.1842 32.0163 43.5178 32.309 43.9224 32.3653L56.82 34.1896L56.3575 47.2655C56.3434 47.6771 56.5705 48.0596 56.9392 48.2385C57.3093 48.419 57.7486 48.3644 58.062 48.1004L62.8341 44.0805C63.06 43.8902 63.1919 43.6132 63.206 43.3185L63.7009 29.3044C63.7197 28.7718 63.3332 28.3087 62.8093 28.2361Z" fill="#01AA89"/>
<path d="M73.9799 21.1598L60.3862 17.9838C60.0969 17.9172 59.7975 17.9746 59.5556 18.144L54.4446 21.7237C54.109 21.9588 53.9415 22.3707 54.0169 22.775C54.0952 23.1798 54.4015 23.501 54.7995 23.5931L67.4845 26.5574L65.8608 39.5409C65.8102 39.9497 66.0024 40.3509 66.3538 40.5619C66.7064 40.7746 67.1488 40.7593 67.4844 40.5242L72.5955 36.9444C72.8374 36.775 72.9934 36.5108 73.0336 36.2185L74.773 22.3033C74.839 21.7745 74.4953 21.2788 73.9799 21.1598Z" fill="#01AA89"/>
<path d="M85.8507 15.2601L72.3889 11.5633C72.1025 11.4856 71.8011 11.5314 71.5528 11.6914L66.3078 15.0719C65.9633 15.2939 65.7802 15.699 65.84 16.1059C65.9026 16.5135 66.1964 16.8463 66.5905 16.9536L79.1523 20.4039L77.0304 33.3157C76.964 33.7222 77.1407 34.1305 77.4837 34.3549C77.8278 34.581 78.2705 34.5827 78.615 34.3607L83.86 30.9801C84.1083 30.8201 84.2743 30.5622 84.3258 30.2716L86.5992 16.4332C86.6856 15.9074 86.3611 15.3988 85.8507 15.2601Z" fill="#01AA89"/>
<path d="M96.6926 9.40569L83.379 5.20545C83.0956 5.11705 82.7927 5.15147 82.5386 5.30204L77.1702 8.48314C76.8176 8.69203 76.6194 9.08998 76.6638 9.49886C76.7111 9.90847 76.9922 10.2521 77.382 10.3741L89.8056 14.2942L87.2001 27.1174C87.1185 27.5212 87.2797 27.9358 87.6141 28.1729C87.9495 28.4118 88.3918 28.4302 88.7444 28.2213L94.1128 25.0402C94.3669 24.8896 94.5425 24.6381 94.6049 24.3496L97.3965 10.6061C97.5026 10.0839 97.1975 9.5635 96.6926 9.40569Z" fill="#01AA89"/>
<path d="M371.847 80.8268L357.992 79.1454C357.698 79.1087 357.436 78.9521 357.267 78.71L353.696 73.5947C353.461 73.2588 353.445 72.8146 353.655 72.4608C353.867 72.1075 354.265 71.9109 354.67 71.961L367.599 73.5295L370.529 60.7798C370.622 60.3785 370.94 60.0677 371.342 59.9901C371.746 59.9114 372.157 60.0776 372.391 60.4135L375.963 65.5287C376.132 65.7709 376.188 66.0724 376.125 66.3607L372.984 80.0251C372.865 80.5444 372.372 80.8919 371.847 80.8268Z" fill="#01AA89"/>
<path d="M377.447 92.9982L363.76 90.2707C363.469 90.2118 363.22 90.0358 363.07 89.7816L359.897 84.4104C359.688 84.0577 359.706 83.6135 359.942 83.2767C360.18 82.9405 360.592 82.7747 360.992 82.8554L373.765 85.4L377.653 72.9098C377.776 72.5168 378.116 72.231 378.523 72.1842C378.932 72.1363 379.329 72.3331 379.537 72.6858L382.71 78.0571C382.86 78.3113 382.893 78.6163 382.809 78.899L378.641 92.2852C378.483 92.7938 377.965 93.1029 377.447 92.9982Z" fill="#01AA89"/>
<path d="M364.591 69.9075L350.671 68.8991C350.375 68.8767 350.106 68.733 349.925 68.4993L346.11 63.5629C345.86 63.2388 345.822 62.7958 346.014 62.4323C346.209 62.0691 346.597 61.8535 347.005 61.8839L359.995 62.8243L362.304 49.9472C362.377 49.5419 362.68 49.2161 363.078 49.1191C363.478 49.0208 363.895 49.167 364.146 49.4911L367.961 54.4275C368.142 54.6612 368.212 54.9597 368.164 55.2507L365.688 69.0516C365.594 69.5761 365.119 69.9471 364.591 69.9075Z" fill="#01AA89"/>
<path d="M356.091 59.2326L342.135 59.4039C341.838 59.4066 341.558 59.2861 341.358 59.0685L337.139 54.4718C336.862 54.17 336.788 53.7318 336.948 53.3533C337.112 52.9749 337.48 52.7272 337.889 52.7232L350.913 52.5627L352.126 39.5359C352.164 39.1259 352.438 38.7756 352.827 38.6453C353.217 38.5136 353.646 38.6239 353.923 38.9258L358.142 43.5225C358.341 43.7401 358.437 44.0316 358.413 44.3257L357.112 58.2871C357.063 58.8176 356.62 59.2275 356.091 59.2326Z" fill="#01AA89"/>
<path d="M347.3 49.7862L333.369 50.6617C333.073 50.6794 332.787 50.5731 332.577 50.3659L328.131 45.9878C327.839 45.7003 327.743 45.2664 327.884 44.8803C328.029 44.4941 328.384 44.2282 328.792 44.2035L341.791 43.3859L342.345 30.3141C342.363 29.9027 342.619 29.539 343.001 29.3893C343.384 29.2381 343.817 29.3266 344.109 29.6141L348.555 33.9922C348.765 34.1994 348.875 34.4857 348.866 34.7807L348.272 48.7904C348.249 49.3227 347.828 49.7544 347.3 49.7862Z" fill="#01AA89"/>
<path d="M337.416 40.3499L323.594 42.3042C323.3 42.3448 323.007 42.2611 322.781 42.0708L318.009 38.0509C317.696 37.7869 317.566 37.3618 317.677 36.9658C317.791 36.5696 318.124 36.2769 318.529 36.2206L331.426 34.3963L330.964 21.3204C330.95 20.9088 331.177 20.5263 331.546 20.3474C331.916 20.1669 332.355 20.2215 332.668 20.4855L337.441 24.5054C337.666 24.6957 337.798 24.9727 337.812 25.2674L338.307 39.2816C338.326 39.8141 337.94 40.2772 337.416 40.3499Z" fill="#01AA89"/>
<path d="M327.279 32.1397L313.685 35.3157C313.396 35.3824 313.096 35.325 312.854 35.1556L307.743 31.5758C307.408 31.3407 307.24 30.9289 307.316 30.5246C307.394 30.1198 307.7 29.7985 308.098 29.7065L320.783 26.7422L319.16 13.7586C319.109 13.3498 319.301 12.9486 319.653 12.7376C320.005 12.5249 320.448 12.5403 320.783 12.7753L325.894 16.3551C326.136 16.5245 326.292 16.7887 326.332 17.081L328.072 30.9963C328.138 31.5251 327.794 32.0207 327.279 32.1397Z" fill="#01AA89"/>
<path d="M315.817 25.7214L302.355 29.4182C302.068 29.4959 301.767 29.4501 301.519 29.2901L296.274 25.9095C295.929 25.6875 295.746 25.2824 295.806 24.8755C295.868 24.468 296.162 24.1352 296.556 24.0279L309.118 20.5776L306.996 7.66574C306.93 7.25923 307.106 6.85092 307.449 6.62656C307.794 6.40044 308.236 6.39874 308.581 6.62073L313.826 10.0013C314.074 10.1613 314.24 10.4193 314.292 10.7098L316.565 24.5482C316.651 25.0741 316.327 25.5826 315.817 25.7214Z" fill="#01AA89"/>
<path d="M305.355 19.3463L292.041 23.5465C291.758 23.6349 291.455 23.6005 291.201 23.4499L285.832 20.2688C285.48 20.0599 285.281 19.662 285.326 19.2531C285.373 18.8435 285.654 18.4999 286.044 18.3778L298.468 14.4578L295.862 1.63451C295.781 1.23077 295.942 0.816104 296.276 0.579006C296.612 0.340113 297.054 0.321771 297.406 0.530664L302.775 3.71177C303.029 3.86234 303.205 4.11388 303.267 4.4023L306.059 18.1458C306.165 18.6681 305.86 19.1885 305.355 19.3463Z" fill="#01AA89"/>
<path d="M363.162 706.03L377.018 704.349C377.312 704.312 377.574 704.156 377.743 703.914L381.314 698.798C381.549 698.462 381.565 698.018 381.355 697.664C381.143 697.311 380.745 697.115 380.34 697.165L367.41 698.733L364.481 685.983C364.388 685.582 364.07 685.271 363.667 685.194C363.263 685.115 362.853 685.281 362.619 685.617L359.047 690.732C358.878 690.974 358.822 691.276 358.885 691.564L362.025 705.229C362.145 705.748 362.638 706.095 363.162 706.03Z" fill="#01AA89"/>
<path d="M369.915 694.474L383.603 691.747C383.893 691.688 384.142 691.512 384.293 691.258L387.466 685.886C387.674 685.534 387.656 685.09 387.421 684.753C387.182 684.417 386.77 684.251 386.37 684.331L373.598 686.876L369.71 674.386C369.587 673.993 369.246 673.707 368.839 673.66C368.43 673.612 368.034 673.809 367.825 674.162L364.652 679.533C364.502 679.787 364.469 680.092 364.553 680.375L368.721 693.761C368.879 694.27 369.397 694.579 369.915 694.474Z" fill="#01AA89"/>
<path d="M355.201 716.512L369.121 715.504C369.417 715.481 369.686 715.337 369.867 715.104L373.682 710.167C373.932 709.843 373.97 709.4 373.778 709.037C373.583 708.674 373.195 708.458 372.787 708.488L359.797 709.429L357.488 696.552C357.415 696.146 357.112 695.821 356.714 695.724C356.314 695.625 355.897 695.771 355.646 696.096L351.831 701.032C351.65 701.266 351.58 701.564 351.628 701.855L354.104 715.656C354.198 716.181 354.673 716.552 355.201 716.512Z" fill="#01AA89"/>
<path d="M345.518 726.344L359.475 726.515C359.772 726.518 360.051 726.397 360.251 726.18L364.47 721.583C364.747 721.281 364.822 720.843 364.661 720.464C364.497 720.086 364.129 719.838 363.721 719.834L350.697 719.674L349.484 706.647C349.445 706.237 349.171 705.887 348.782 705.756C348.392 705.625 347.964 705.735 347.687 706.037L343.468 710.634C343.268 710.851 343.173 711.143 343.196 711.437L344.497 725.398C344.547 725.929 344.989 726.339 345.518 726.344Z" fill="#01AA89"/>
<path d="M336.051 735.241L349.982 736.116C350.279 736.134 350.564 736.028 350.775 735.82L355.22 731.442C355.512 731.155 355.609 730.721 355.467 730.335C355.323 729.949 354.968 729.683 354.56 729.658L341.56 728.841L341.006 715.769C340.989 715.357 340.732 714.994 340.351 714.844C339.968 714.693 339.534 714.781 339.242 715.069L334.797 719.447C334.586 719.654 334.476 719.94 334.485 720.235L335.08 734.245C335.102 734.777 335.524 735.209 336.051 735.241Z" fill="#01AA89"/>
<path d="M325.191 743.764L339.012 745.718C339.306 745.759 339.599 745.675 339.825 745.485L344.597 741.465C344.911 741.201 345.041 740.776 344.93 740.38C344.816 739.983 344.482 739.691 344.078 739.634L331.18 737.81L331.643 724.734C331.657 724.323 331.43 723.94 331.061 723.761C330.691 723.581 330.251 723.635 329.938 723.899L325.166 727.919C324.94 728.11 324.808 728.387 324.794 728.681L324.299 742.695C324.28 743.228 324.667 743.691 325.191 743.764Z" fill="#01AA89"/>
<path d="M314.02 750.84L327.614 754.016C327.903 754.083 328.202 754.026 328.444 753.856L333.555 750.276C333.891 750.041 334.058 749.63 333.983 749.225C333.905 748.82 333.598 748.499 333.201 748.407L320.516 745.443L322.139 732.459C322.19 732.051 321.998 731.649 321.646 731.438C321.294 731.226 320.851 731.241 320.516 731.476L315.405 735.056C315.163 735.225 315.007 735.489 314.966 735.782L313.227 749.697C313.161 750.226 313.505 750.721 314.02 750.84Z" fill="#01AA89"/>
<path d="M302.149 756.74L315.611 760.437C315.898 760.515 316.199 760.469 316.447 760.309L321.692 756.928C322.037 756.706 322.22 756.301 322.16 755.894C322.097 755.487 321.804 755.154 321.41 755.047L308.848 751.596L310.97 738.685C311.036 738.278 310.859 737.87 310.516 737.645C310.172 737.419 309.729 737.418 309.385 737.64L304.14 741.02C303.892 741.18 303.726 741.438 303.674 741.729L301.401 755.567C301.314 756.093 301.639 756.601 302.149 756.74Z" fill="#01AA89"/>
<path d="M291.307 762.594L304.621 766.794C304.904 766.883 305.207 766.848 305.461 766.698L310.83 763.517C311.182 763.308 311.381 762.91 311.336 762.501C311.289 762.091 311.008 761.748 310.618 761.626L298.194 757.706L300.8 744.882C300.881 744.479 300.72 744.064 300.386 743.827C300.051 743.588 299.608 743.57 299.256 743.778L293.887 746.96C293.633 747.11 293.457 747.362 293.395 747.65L290.603 761.394C290.497 761.916 290.803 762.436 291.307 762.594Z" fill="#01AA89"/>
<path d="M16.1527 691.173L30.008 692.855C30.3024 692.891 30.5639 693.048 30.733 693.29L34.3045 698.405C34.539 698.741 34.5549 699.185 34.3454 699.539C34.1331 699.893 33.7352 700.089 33.3299 700.039L20.4006 698.471L17.4709 711.22C17.3782 711.621 17.06 711.932 16.6577 712.01C16.2536 712.089 15.8434 711.922 15.6088 711.587L12.0373 706.471C11.8683 706.229 11.8124 705.928 11.8749 705.639L15.0157 691.975C15.135 691.456 15.6279 691.108 16.1527 691.173Z" fill="#01AA89"/>
<path d="M10.5493 679.002L24.2365 681.729C24.5273 681.788 24.7761 681.964 24.9263 682.218L28.0995 687.59C28.3078 687.942 28.29 688.386 28.0543 688.723C27.8158 689.059 27.4041 689.225 27.0038 689.145L14.2314 686.6L10.3434 699.09C10.2205 699.483 9.87975 699.769 9.47269 699.816C9.06384 699.864 8.66739 699.667 8.45903 699.314L5.28589 693.943C5.13569 693.689 5.10287 693.384 5.18702 693.101L9.35478 679.715C9.51316 679.206 10.031 678.897 10.5493 679.002Z" fill="#01AA89"/>
<path d="M23.4086 702.093L37.3294 703.101C37.6253 703.123 37.8941 703.267 38.0746 703.501L41.8898 708.437C42.1403 708.761 42.1778 709.204 41.9856 709.568C41.7906 709.931 41.4027 710.147 40.9954 710.116L28.005 709.176L25.6962 722.053C25.623 722.458 25.3203 722.784 24.9221 722.881C24.5224 722.979 24.1045 722.833 23.854 722.509L20.0389 717.572C19.8583 717.339 19.7879 717.04 19.8363 716.749L22.3117 702.948C22.4057 702.424 22.8812 702.053 23.4086 702.093Z" fill="#01AA89"/>
<path d="M31.9085 712.768L45.8654 712.596C46.1621 712.594 46.4421 712.714 46.6418 712.932L50.8605 717.528C51.1376 717.83 51.2123 718.268 51.0516 718.647C50.8879 719.025 50.5196 719.273 50.1112 719.277L37.0872 719.438L35.8744 732.464C35.8357 732.874 35.5616 733.225 35.173 733.355C34.783 733.487 34.3543 733.376 34.0772 733.074L29.8585 728.478C29.6588 728.26 29.5634 727.969 29.5871 727.675L30.8878 713.713C30.9372 713.183 31.3797 712.773 31.9085 712.768Z" fill="#01AA89"/>
<path d="M40.6999 722.214L54.6308 721.338C54.927 721.321 55.2127 721.427 55.4231 721.634L59.8686 726.012C60.1605 726.3 60.2573 726.734 60.1159 727.12C59.9715 727.506 59.6161 727.772 59.2084 727.796L46.2087 728.614L45.6549 741.686C45.637 742.097 45.3809 742.461 44.9994 742.611C44.6165 742.762 44.1827 742.673 43.8908 742.386L39.4453 738.008C39.2349 737.801 39.1249 737.514 39.1337 737.219L39.7282 723.21C39.7507 722.677 40.172 722.246 40.6999 722.214Z" fill="#01AA89"/>
<path d="M50.5842 731.65L64.4058 729.696C64.6997 729.655 64.9928 729.739 65.2187 729.929L69.9909 733.949C70.3042 734.213 70.4344 734.638 70.3233 735.034C70.2094 735.431 69.8757 735.723 69.4712 735.78L56.5736 737.604L57.0361 750.68C57.0502 751.091 56.8231 751.474 56.4543 751.653C56.0843 751.833 55.645 751.779 55.3316 751.515L50.5594 747.495C50.3336 747.305 50.2017 747.028 50.1876 746.733L49.6927 732.719C49.6739 732.186 50.0604 731.723 50.5842 731.65Z" fill="#01AA89"/>
<path d="M60.7213 739.86L74.315 736.684C74.6042 736.618 74.9036 736.675 75.1456 736.844L80.2566 740.424C80.5922 740.659 80.7597 741.071 80.6843 741.475C80.606 741.88 80.2996 742.201 79.9017 742.293L67.2167 745.258L68.8403 758.241C68.891 758.65 68.6988 759.051 68.3474 759.262C67.9948 759.475 67.5524 759.46 67.2167 759.225L62.1057 755.645C61.8638 755.475 61.7078 755.211 61.6675 754.919L59.9282 741.004C59.8621 740.475 60.2059 739.979 60.7213 739.86Z" fill="#01AA89"/>
<path d="M72.1835 746.278L85.6452 742.582C85.9317 742.504 86.2331 742.55 86.4814 742.71L91.7264 746.09C92.0708 746.312 92.254 746.717 92.1942 747.124C92.1316 747.532 91.8378 747.865 91.4437 747.972L78.8819 751.422L81.0038 764.334C81.0701 764.741 80.8935 765.149 80.5505 765.373C80.2064 765.599 79.7636 765.601 79.4192 765.379L74.1742 761.998C73.9259 761.838 73.7599 761.581 73.7084 761.29L71.435 747.452C71.3486 746.926 71.6731 746.417 72.1835 746.278Z" fill="#01AA89"/>
<path d="M82.6453 752.653L95.9589 748.453C96.2423 748.365 96.5452 748.399 96.7993 748.55L102.168 751.731C102.52 751.94 102.719 752.338 102.674 752.747C102.627 753.156 102.346 753.5 101.956 753.622L89.5323 757.542L92.1378 770.365C92.2193 770.769 92.0582 771.184 91.7238 771.421C91.3884 771.66 90.9461 771.678 90.5935 771.469L85.2251 768.288C84.971 768.137 84.7954 767.886 84.733 767.597L81.9414 753.854C81.8353 753.332 82.1404 752.811 82.6453 752.653Z" fill="#01AA89"/>
<path d="M24.8375 574.97L10.9823 576.651C10.6878 576.688 10.4263 576.844 10.2573 577.086L6.68576 582.202C6.45123 582.538 6.43529 582.982 6.64479 583.336C6.85718 583.689 7.25508 583.885 7.66037 583.835L20.5896 582.267L23.5194 595.017C23.6121 595.418 23.9302 595.729 24.3326 595.806C24.7366 595.885 25.1469 595.719 25.3814 595.383L28.9529 590.268C29.122 590.026 29.1778 589.724 29.1153 589.436L25.9746 575.771C25.8552 575.252 25.3623 574.905 24.8375 574.97Z" fill="#01AA89"/>
<path d="M18.0845 586.526L4.39734 589.253C4.10653 589.312 3.85767 589.488 3.70748 589.742L0.534334 595.114C0.325965 595.466 0.343751 595.91 0.579465 596.247C0.818022 596.583 1.22967 596.749 1.62997 596.669L14.4024 594.124L18.2904 606.614C18.4133 607.007 18.754 607.293 19.1611 607.34C19.5699 607.388 19.9664 607.191 20.1748 606.838L23.3479 601.467C23.4981 601.213 23.5309 600.908 23.4468 600.625L19.279 587.239C19.1206 586.73 18.6028 586.421 18.0845 586.526Z" fill="#01AA89"/>
<path d="M32.7994 564.488L18.8786 565.496C18.5827 565.519 18.3139 565.663 18.1334 565.896L14.3182 570.833C14.0677 571.157 14.0302 571.6 14.2224 571.963C14.4174 572.326 14.8053 572.542 15.2126 572.512L28.203 571.571L30.5118 584.448C30.585 584.854 30.8877 585.179 31.2859 585.276C31.6856 585.375 32.1035 585.229 32.354 584.904L36.1691 579.968C36.3497 579.734 36.4201 579.436 36.3717 579.145L33.8963 565.344C33.8023 564.819 33.3268 564.448 32.7994 564.488Z" fill="#01AA89"/>
<path d="M42.4821 554.656L28.5252 554.485C28.2285 554.482 27.9485 554.603 27.7488 554.82L23.5301 559.417C23.2531 559.719 23.1783 560.157 23.3391 560.536C23.5027 560.914 23.8711 561.162 24.2794 561.166L37.3034 561.326L38.5163 574.353C38.5549 574.763 38.829 575.113 39.2176 575.244C39.6077 575.375 40.0364 575.265 40.3134 574.963L44.5321 570.366C44.7318 570.149 44.8272 569.857 44.8035 569.563L43.5028 555.602C43.4534 555.071 43.0109 554.661 42.4821 554.656Z" fill="#01AA89"/>
<path d="M51.9485 545.759L38.0177 544.884C37.7215 544.866 37.4357 544.972 37.2253 545.179L32.7798 549.557C32.4879 549.845 32.3912 550.279 32.5326 550.665C32.6769 551.051 33.0323 551.317 33.44 551.342L46.4397 552.159L46.9935 565.231C47.0115 565.642 47.2676 566.006 47.649 566.156C48.032 566.307 48.4657 566.219 48.7576 565.931L53.2031 561.553C53.4135 561.346 53.5235 561.059 53.5147 560.764L52.9203 546.755C52.8977 546.222 52.4765 545.791 51.9485 545.759Z" fill="#01AA89"/>
<path d="M62.8093 537.236L48.9878 535.282C48.6938 535.241 48.4007 535.325 48.1748 535.515L43.4027 539.535C43.0893 539.799 42.9592 540.224 43.0702 540.62C43.1842 541.016 43.5178 541.309 43.9224 541.365L56.82 543.19L56.3575 556.266C56.3434 556.677 56.5705 557.06 56.9392 557.239C57.3093 557.419 57.7486 557.364 58.062 557.1L62.8341 553.08C63.06 552.89 63.1919 552.613 63.206 552.319L63.7009 538.304C63.7197 537.772 63.3332 537.309 62.8093 537.236Z" fill="#01AA89"/>
<path d="M73.9799 530.16L60.3862 526.984C60.0969 526.917 59.7975 526.975 59.5556 527.144L54.4446 530.724C54.109 530.959 53.9415 531.371 54.0169 531.775C54.0952 532.18 54.4015 532.501 54.7995 532.593L67.4845 535.557L65.8608 548.541C65.8102 548.95 66.0024 549.351 66.3538 549.562C66.7064 549.775 67.1488 549.759 67.4844 549.524L72.5955 545.944C72.8374 545.775 72.9934 545.511 73.0336 545.219L74.773 531.303C74.839 530.774 74.4953 530.279 73.9799 530.16Z" fill="#01AA89"/>
<path d="M85.8507 524.26L72.3889 520.563C72.1025 520.486 71.8011 520.531 71.5528 520.691L66.3078 524.072C65.9633 524.294 65.7802 524.699 65.84 525.106C65.9026 525.513 66.1964 525.846 66.5905 525.954L79.1523 529.404L77.0304 542.316C76.964 542.722 77.1407 543.13 77.4837 543.355C77.8278 543.581 78.2705 543.583 78.615 543.361L83.86 539.98C84.1083 539.82 84.2743 539.562 84.3258 539.272L86.5992 525.433C86.6856 524.907 86.3611 524.399 85.8507 524.26Z" fill="#01AA89"/>
<path d="M96.6926 518.406L83.379 514.206C83.0956 514.117 82.7927 514.152 82.5386 514.302L77.1702 517.483C76.8176 517.692 76.6194 518.09 76.6638 518.499C76.7111 518.909 76.9922 519.252 77.382 519.374L89.8056 523.294L87.2001 536.118C87.1185 536.521 87.2797 536.936 87.6141 537.173C87.9495 537.412 88.3918 537.43 88.7444 537.222L94.1128 534.04C94.3669 533.89 94.5425 533.638 94.6049 533.35L97.3965 519.606C97.5026 519.084 97.1975 518.564 96.6926 518.406Z" fill="#01AA89"/>
<path d="M371.847 589.827L357.992 588.145C357.698 588.109 357.436 587.952 357.267 587.71L353.696 582.595C353.461 582.259 353.445 581.815 353.655 581.461C353.867 581.107 354.265 580.911 354.67 580.961L367.599 582.529L370.529 569.78C370.622 569.379 370.94 569.068 371.342 568.99C371.746 568.911 372.157 569.078 372.391 569.413L375.963 574.529C376.132 574.771 376.188 575.072 376.125 575.361L372.984 589.025C372.865 589.544 372.372 589.892 371.847 589.827Z" fill="#01AA89"/>
<path d="M377.451 601.998L363.764 599.271C363.473 599.212 363.224 599.036 363.074 598.782L359.901 593.41C359.692 593.058 359.71 592.614 359.946 592.277C360.184 591.941 360.596 591.775 360.996 591.855L373.769 594.4L377.657 581.91C377.779 581.517 378.12 581.231 378.527 581.184C378.936 581.136 379.333 581.333 379.541 581.686L382.714 587.057C382.864 587.311 382.897 587.616 382.813 587.899L378.645 601.285C378.487 601.794 377.969 602.103 377.451 601.998Z" fill="#01AA89"/>
<path d="M364.591 578.907L350.671 577.899C350.375 577.877 350.106 577.733 349.925 577.499L346.11 572.563C345.86 572.239 345.822 571.796 346.014 571.432C346.209 571.069 346.597 570.853 347.005 570.884L359.995 571.824L362.304 558.947C362.377 558.542 362.68 558.216 363.078 558.119C363.478 558.021 363.895 558.167 364.146 558.491L367.961 563.428C368.142 563.661 368.212 563.96 368.164 564.251L365.688 578.052C365.594 578.576 365.119 578.947 364.591 578.907Z" fill="#01AA89"/>
<path d="M356.091 568.232L342.135 568.404C341.838 568.406 341.558 568.286 341.358 568.068L337.139 563.472C336.862 563.17 336.788 562.732 336.948 562.353C337.112 561.975 337.48 561.727 337.889 561.723L350.913 561.562L352.126 548.536C352.164 548.126 352.438 547.775 352.827 547.645C353.217 547.513 353.646 547.624 353.923 547.926L358.142 552.522C358.341 552.74 358.437 553.031 358.413 553.325L357.112 567.287C357.063 567.817 356.62 568.227 356.091 568.232Z" fill="#01AA89"/>
<path d="M347.3 558.786L333.369 559.662C333.073 559.679 332.787 559.573 332.577 559.366L328.131 554.988C327.839 554.7 327.743 554.266 327.884 553.88C328.029 553.494 328.384 553.228 328.792 553.204L341.791 552.386L342.345 539.314C342.363 538.903 342.619 538.539 343.001 538.389C343.384 538.238 343.817 538.327 344.109 538.614L348.555 542.992C348.765 543.199 348.875 543.486 348.866 543.781L348.272 557.79C348.249 558.323 347.828 558.754 347.3 558.786Z" fill="#01AA89"/>
<path d="M337.416 549.35L323.594 551.304C323.3 551.345 323.007 551.261 322.781 551.071L318.009 547.051C317.696 546.787 317.566 546.362 317.677 545.966C317.791 545.569 318.124 545.277 318.529 545.22L331.426 543.396L330.964 530.32C330.95 529.909 331.177 529.526 331.546 529.347C331.916 529.167 332.355 529.221 332.668 529.485L337.441 533.505C337.666 533.695 337.798 533.972 337.812 534.267L338.307 548.281C338.326 548.814 337.94 549.277 337.416 549.35Z" fill="#01AA89"/>
<path d="M327.279 541.14L313.685 544.316C313.396 544.382 313.096 544.325 312.854 544.156L307.743 540.576C307.408 540.341 307.24 539.929 307.316 539.525C307.394 539.12 307.7 538.799 308.098 538.707L320.783 535.742L319.16 522.759C319.109 522.35 319.301 521.949 319.653 521.738C320.005 521.525 320.448 521.54 320.783 521.775L325.894 525.355C326.136 525.525 326.292 525.789 326.332 526.081L328.072 539.996C328.138 540.525 327.794 541.021 327.279 541.14Z" fill="#01AA89"/>
<path d="M315.817 534.722L302.355 538.418C302.068 538.496 301.767 538.45 301.519 538.29L296.274 534.91C295.929 534.688 295.746 534.283 295.806 533.876C295.868 533.468 296.162 533.135 296.556 533.028L309.118 529.578L306.996 516.666C306.93 516.259 307.106 515.851 307.449 515.627C307.794 515.401 308.236 515.399 308.581 515.621L313.826 519.002C314.074 519.162 314.24 519.419 314.292 519.71L316.565 533.548C316.651 534.074 316.327 534.583 315.817 534.722Z" fill="#01AA89"/>
<path d="M305.355 528.347L292.041 532.547C291.758 532.635 291.455 532.601 291.201 532.45L285.832 529.269C285.48 529.06 285.281 528.662 285.326 528.253C285.373 527.844 285.654 527.5 286.044 527.378L298.468 523.458L295.862 510.635C295.781 510.231 295.942 509.816 296.276 509.579C296.612 509.34 297.054 509.322 297.406 509.531L302.775 512.712C303.029 512.863 303.205 513.114 303.267 513.403L306.059 527.146C306.165 527.668 305.86 528.189 305.355 528.347Z" fill="#01AA89"/>
</svg>
