<svg width="175" height="34" viewBox="0 0 175 34" fill="none" xmlns="http://www.w3.org/2000/svg">
<path d="M42 24.2488V6.89453H60.9919V10.9088H47.7684V13.3588H57.56V17.4617H47.7684V20.2074H60.518L62.2933 23.926C62.2933 24.0045 62.027 24.0788 61.4944 24.1474C60.9618 24.216 60.0455 24.2502 58.7441 24.2502H42V24.2488Z" fill="#01AA89"/>
<path d="M64.6602 29.7401V11.0258H68.8609L69.6011 11.4087C70.4887 11.3101 71.4451 11.2216 72.4702 11.143C73.4954 11.0644 74.7968 11.0244 76.376 11.0244H77.2637C78.5852 11.0244 79.5659 11.2301 80.2073 11.6444C80.8487 12.0573 81.2725 12.5944 81.4801 13.253C81.6863 13.913 81.7908 14.6258 81.7908 15.393V19.8501C81.7908 20.7158 81.6376 21.483 81.3327 22.153C81.0263 22.823 80.4994 23.3387 79.7492 23.703C78.9989 24.0673 77.9738 24.2487 76.6724 24.2487H75.7847C74.7195 24.2487 73.6586 24.2044 72.6048 24.1158C71.5496 24.0273 70.6963 23.953 70.0463 23.8944V29.7387H64.6602V29.7401ZM70.9612 20.5301H74.8956C75.842 20.5301 76.3159 20.1373 76.3159 19.3501V15.9258C76.3159 15.533 76.2371 15.2373 76.0796 15.0401C75.9207 14.843 75.527 14.7444 74.897 14.7444H74.6307C73.3679 14.7444 72.3872 14.7744 71.6871 14.833C70.987 14.8916 70.44 14.9416 70.0449 14.9801V19.6144C70.0449 20.0473 70.0893 20.3073 70.178 20.3973C70.2654 20.4858 70.526 20.5301 70.9612 20.5301Z" fill="#01AA89"/>
<path d="M88.029 9.75735C86.0375 9.75735 85.041 8.91163 85.041 7.21878C85.041 6.27449 85.293 5.62021 85.7955 5.25592C86.2981 4.89163 87.0426 4.71021 88.029 4.71021C89.0742 4.71021 89.8387 4.89306 90.3212 5.25592C90.8037 5.62021 91.0457 6.27449 91.0457 7.21878C91.0471 8.91163 90.0406 9.75735 88.029 9.75735ZM85.3073 24.2488V11.0259H90.6906V24.2488H85.3073Z" fill="#01AA89"/>
<path d="M99.1209 24.2489C97.8195 24.2489 96.8187 24.0617 96.1186 23.6889C95.4184 23.3146 94.9402 22.7989 94.684 22.1389C94.4277 21.4803 94.2988 20.7174 94.2988 19.8517V15.3946C94.2988 14.6074 94.432 13.8846 94.6983 13.2246C94.9646 12.566 95.4428 12.0346 96.1329 11.6303C96.823 11.2274 97.8195 11.026 99.1209 11.026H102.908C105.176 11.026 106.842 11.1246 107.907 11.3217C108.973 11.5189 109.574 11.716 109.711 11.9117L108.824 15.0403C108.41 15.0017 107.66 14.9417 106.576 14.8631C105.491 14.7846 104.298 14.7446 102.997 14.7446H101.193C100.68 14.7446 100.315 14.8431 100.099 15.0403C99.8811 15.2374 99.7738 15.5317 99.7738 15.926V19.3503C99.7738 19.7446 99.8726 20.0389 100.07 20.236C100.266 20.4331 100.641 20.5317 101.194 20.5317H102.703C104.162 20.5317 105.419 20.4974 106.474 20.4289C107.529 20.3603 108.304 20.296 108.797 20.2374L110.572 23.0417C110.572 23.3174 110.084 23.5874 109.107 23.8531C108.131 24.1189 106.676 24.2517 104.743 24.2517H99.1209V24.2489Z" fill="#01AA89"/>
<path d="M111.104 24.2488L119.771 6.89307H127.462L136.1 24.2488H129.74L128.291 21.0902H118.944L117.317 24.2488H111.104ZM120.57 17.0174H126.635L123.766 10.7302H123.469L120.57 17.0174Z" fill="white"/>
<path d="M142.312 24.2488C141.01 24.2488 140.038 24.0574 139.398 23.6731C138.757 23.2888 138.333 22.7674 138.125 22.1088C137.919 21.4502 137.814 20.6974 137.814 19.8502V15.3931C137.814 14.6459 137.918 13.9416 138.125 13.2831C138.333 12.6245 138.757 12.0831 139.398 11.6602C140.038 11.2374 141.01 11.0259 142.312 11.0259H143.228C144.667 11.0259 145.974 11.0659 147.148 11.1445C148.32 11.2231 149.125 11.2916 149.559 11.3516V5.53735H155.031V24.2502H150.742L149.588 23.6602C148.76 23.7988 147.867 23.9316 146.91 24.0588C145.954 24.1874 144.717 24.2502 143.198 24.2502H142.312V24.2488ZM144.708 20.5302H148.643C149.056 20.5302 149.313 20.4816 149.411 20.3831C149.51 20.2845 149.559 20.0388 149.559 19.6445V14.9516C149.065 14.9131 148.484 14.8688 147.814 14.8188C147.142 14.7702 146.403 14.7445 145.594 14.7445H144.707C143.76 14.7445 143.287 15.1388 143.287 15.9245V19.3488C143.287 19.7431 143.395 20.0374 143.612 20.2345C143.831 20.4331 144.194 20.5302 144.708 20.5302Z" fill="white"/>
<path d="M161.925 24.2487C160.603 24.2487 159.667 24.1802 159.114 24.043C158.561 23.9059 158.285 23.7673 158.285 23.6302L159.468 20.5316C159.704 20.5902 160.41 20.6545 161.582 20.723C162.755 20.7916 164.467 20.8259 166.715 20.8259H168.816C169.308 20.8259 169.619 20.7716 169.748 20.663C169.876 20.5545 169.939 20.363 169.939 20.0873C169.939 19.753 169.865 19.5416 169.718 19.453C169.57 19.3645 169.268 19.3202 168.816 19.3202H162.811C161.371 19.3202 160.257 19.0502 159.468 18.5087C158.679 17.9673 158.285 16.9987 158.285 15.6016V15.0116C158.285 14.283 158.384 13.6187 158.582 13.0187C158.779 12.4187 159.203 11.9373 159.854 11.5716C160.504 11.2073 161.491 11.0259 162.812 11.0259H171.569C172.751 11.0259 173.59 11.0945 174.083 11.2316C174.575 11.3687 174.823 11.5073 174.823 11.6445L174.527 14.773C174.212 14.7145 173.417 14.6502 172.146 14.5816C170.874 14.513 169.123 14.4787 166.896 14.4787H164.795C164.303 14.4787 163.992 14.533 163.863 14.6416C163.734 14.7502 163.671 14.9316 163.671 15.1873C163.671 15.443 163.734 15.6259 163.863 15.733C163.991 15.8416 164.301 15.8959 164.795 15.8959H170.919C172.456 15.8959 173.59 16.2302 174.321 16.8987C175.049 17.5673 175.414 18.503 175.414 19.703V20.263C175.414 20.9716 175.326 21.6259 175.148 22.2259C174.971 22.8259 174.567 23.313 173.935 23.6873C173.304 24.0616 172.299 24.2473 170.919 24.2473H161.925V24.2487Z" fill="white"/>
<path d="M74.5569 32.4645H77.0911V33.0116H73.9355V28.6088H77.0037V29.1559H74.5569V32.4645ZM74.5011 30.5088H76.7374V31.043H74.5011V30.5088Z" fill="white"/>
<path d="M79.0293 33.0115V28.6086H80.7245C81.1053 28.6086 81.4303 28.6701 81.6995 28.7915C81.9686 28.9129 82.1762 29.0886 82.3208 29.3201C82.4654 29.5501 82.5385 29.8258 82.5385 30.1444C82.5385 30.4629 82.4654 30.7372 82.3208 30.9658C82.1762 31.1944 81.9686 31.3701 81.6995 31.4944C81.4303 31.6186 81.1053 31.6801 80.7245 31.6801H79.37L79.6492 31.3844V33.0129H79.0293V33.0115ZM79.6507 31.4458L79.3715 31.1315H80.7073C81.1053 31.1315 81.406 31.0458 81.6107 30.8744C81.8154 30.7029 81.9185 30.4586 81.9185 30.1444C81.9185 29.8301 81.8154 29.5872 81.6107 29.4158C81.406 29.2444 81.1039 29.1572 80.7073 29.1572H79.3715L79.6507 28.8429V31.4458Z" fill="white"/>
<path d="M84.3848 33.0115V28.6086H85.0061V33.0115H84.3848Z" fill="white"/>
<path d="M89.1861 33.0616C88.8553 33.0616 88.549 33.0059 88.2698 32.8945C87.9906 32.7831 87.7472 32.6259 87.5425 32.423C87.3377 32.2202 87.1774 31.9816 87.0614 31.7088C86.9454 31.4359 86.8867 31.1359 86.8867 30.8088C86.8867 30.4816 86.9454 30.1816 87.0614 29.9088C87.1774 29.6359 87.3391 29.3988 87.5453 29.1945C87.7529 28.9916 87.9963 28.8345 88.2755 28.723C88.5547 28.6116 88.8611 28.5559 89.1918 28.5559C89.5268 28.5559 89.8375 28.613 90.121 28.7288C90.4045 28.8445 90.645 29.0145 90.844 29.2416L90.4403 29.6373C90.2742 29.4616 90.0881 29.3302 89.8819 29.2445C89.6743 29.1588 89.4538 29.1159 89.2176 29.1159C88.9728 29.1159 88.7465 29.1573 88.5375 29.2416C88.3285 29.3259 88.1466 29.443 87.9934 29.5945C87.8402 29.7459 87.7214 29.9245 87.6369 30.133C87.5525 30.3402 87.5095 30.5659 87.5095 30.8088C87.5095 31.0516 87.5525 31.2773 87.6369 31.4845C87.7214 31.6916 87.8402 31.8716 87.9934 32.0216C88.1466 32.1716 88.3285 32.2902 88.5375 32.3745C88.7465 32.4588 88.9728 32.5002 89.2176 32.5002C89.4538 32.5002 89.6757 32.4573 89.8819 32.3716C90.0881 32.2859 90.2756 32.153 90.4403 31.9716L90.844 32.3673C90.645 32.5945 90.4045 32.7659 90.121 32.883C89.8375 33.003 89.5254 33.0616 89.1861 33.0616Z" fill="white"/>
<path d="M94.6094 33.0115L96.578 28.6086H97.1936L99.1694 33.0115H98.5166L96.7584 28.9615H97.0075L95.2494 33.0115H94.6094ZM95.4484 31.9115L95.6159 31.4086H98.0641L98.2445 31.9115H95.4484Z" fill="white"/>
<path d="M100.748 33.0115V28.6086H102.581C103.045 28.6086 103.454 28.7015 103.808 28.8858C104.161 29.0701 104.438 29.3286 104.634 29.6601C104.83 29.9915 104.929 30.3744 104.929 30.8115C104.929 31.2486 104.83 31.6315 104.634 31.9629C104.438 32.2944 104.161 32.5515 103.808 32.7372C103.454 32.9229 103.045 33.0144 102.581 33.0144H100.748V33.0115ZM101.369 32.4644H102.543C102.904 32.4644 103.215 32.3958 103.478 32.2572C103.742 32.1186 103.945 31.9244 104.09 31.6758C104.234 31.4258 104.307 31.1372 104.307 30.8101C104.307 30.4786 104.234 30.1901 104.09 29.9415C103.945 29.6944 103.74 29.5015 103.478 29.3629C103.215 29.2244 102.904 29.1558 102.543 29.1558H101.369V32.4644Z" fill="white"/>
<path d="M109.414 33.0115V28.6086H109.924L112.8 32.2244H112.532V28.6086H113.154V33.0115H112.644L109.768 29.3958H110.035V33.0115H109.414Z" fill="white"/>
<path d="M116.012 32.4644H118.546V33.0115H115.391V28.6086H118.459V29.1558H116.011V32.4644H116.012ZM115.956 30.5086H118.193V31.0429H115.956V30.5086Z" fill="white"/>
<path d="M121.348 33.0115V29.1558H119.857V28.6086H123.454V29.1558H121.963V33.0115H121.348Z" fill="white"/>
<path d="M126.012 33.0115L124.559 28.6086H125.199L126.534 32.6715H126.211L127.597 28.6086H128.168L129.522 32.6715H129.212L130.566 28.6086H131.156L129.703 33.0115H129.05L127.783 29.2444H127.95L126.676 33.0115H126.012Z" fill="white"/>
<path d="M134.766 33.0617C134.435 33.0617 134.127 33.0045 133.844 32.8917C133.56 32.7788 133.314 32.6202 133.108 32.4159C132.9 32.2131 132.74 31.9745 132.622 31.7017C132.506 31.4288 132.449 31.1317 132.449 30.8088C132.449 30.4859 132.508 30.1888 132.622 29.9159C132.738 29.6431 132.9 29.4059 133.108 29.2017C133.314 28.9988 133.559 28.8402 133.841 28.7274C134.123 28.6145 134.431 28.5574 134.766 28.5574C135.096 28.5574 135.403 28.6131 135.685 28.7245C135.967 28.8359 136.21 28.9931 136.418 29.1959C136.626 29.3988 136.786 29.6388 136.899 29.9131C137.014 30.1874 137.069 30.4874 137.069 30.8088C137.069 31.1359 137.012 31.4359 136.899 31.7088C136.786 31.9817 136.624 32.2188 136.418 32.4231C136.21 32.6259 135.967 32.7831 135.685 32.8945C135.404 33.0074 135.098 33.0617 134.766 33.0617ZM134.76 32.5017C135.005 32.5017 135.228 32.4602 135.434 32.3759C135.639 32.2917 135.817 32.1731 135.968 32.0202C136.12 31.8674 136.238 31.6874 136.322 31.4817C136.407 31.2759 136.449 31.0517 136.449 30.8088C136.449 30.5659 136.407 30.3431 136.322 30.1388C136.238 29.9359 136.119 29.7559 135.968 29.6002C135.817 29.4445 135.639 29.3259 135.434 29.2417C135.23 29.1574 135.005 29.1159 134.76 29.1159C134.52 29.1159 134.298 29.1574 134.091 29.2417C133.887 29.3259 133.708 29.4445 133.555 29.6002C133.401 29.7559 133.282 29.9345 133.198 30.1388C133.114 30.3417 133.071 30.5659 133.071 30.8088C133.071 31.0517 133.114 31.2759 133.198 31.4817C133.282 31.6874 133.401 31.8659 133.555 32.0202C133.708 32.1731 133.887 32.2917 134.091 32.3759C134.298 32.4602 134.52 32.5017 134.76 32.5017Z" fill="white"/>
<path d="M138.953 33.0115V28.6086H140.648C141.029 28.6086 141.354 28.6701 141.623 28.7915C141.892 28.9129 142.1 29.0886 142.245 29.3201C142.389 29.5501 142.462 29.8258 142.462 30.1444C142.462 30.4629 142.389 30.7372 142.245 30.9658C142.1 31.1944 141.892 31.3686 141.623 31.4915C141.354 31.6129 141.029 31.6744 140.648 31.6744H139.294L139.573 31.3858V33.0144H138.953V33.0115ZM139.574 31.4458L139.295 31.1372H140.631C141.029 31.1372 141.33 31.0501 141.536 30.8758C141.741 30.7015 141.844 30.4572 141.844 30.1429C141.844 29.8286 141.741 29.5858 141.536 29.4144C141.331 29.2429 141.029 29.1558 140.631 29.1558H139.295L139.574 28.8415V31.4458ZM141.86 33.0115L140.754 31.4144H141.419L142.537 33.0115H141.86Z" fill="white"/>
<path d="M144.4 33.0115V28.6086H145.022V33.0115H144.4ZM144.947 31.9486L144.916 31.1815L147.383 28.6086H148.091L146.184 30.6472L145.836 31.0372L144.947 31.9486ZM147.481 33.0115L145.699 30.9101L146.116 30.4444L148.209 33.0101H147.481V33.0115Z" fill="white"/>
<path d="M23.9779 24.708V21.6078H21.8537L23.6389 22.8582L21.5852 21.6078H20.9241C19.1367 20.2733 17.6018 19.1047 16.2911 18.0884H23.2099V14.429H14.2625C14.3228 14.5725 14.5389 14.9568 15.324 15.6784C15.3638 15.7915 15.7143 16.1769 15.8315 16.2632C16.2888 16.6094 17.8351 17.5047 18.3107 17.8408C17.6382 17.4666 15.9964 16.801 15.2034 16.3215C13.7175 15.4218 14.8393 16.5994 14.8826 16.6442C14.3979 16.3204 13.8847 16.075 13.5343 15.9248C13.532 15.9237 13.5309 15.9226 13.5286 15.9226C13.2885 15.8206 13.1258 15.7624 13.1031 15.7545C12.9506 15.694 12.7947 15.6414 12.648 15.5674C12.4454 15.4666 12.2611 15.3512 12.0438 15.2761C11.9937 15.2571 11.9403 15.2492 11.8879 15.2492C10.7684 14.1747 9.73413 13.1977 9.61011 13.0789C11.1939 14.4604 12.1621 15.0375 12.574 15.1506C12.8448 15.2246 12.8721 15.0991 12.6764 14.8694C12.1974 14.3069 9.7273 11.5282 9.5737 11.3545L11.4829 13.0162C11.4453 12.9657 11.1563 12.2968 10.2245 11.4509C10.1801 11.3008 9.44513 10.4952 9.2574 10.1153C9.24943 10.0974 9.24147 10.0817 9.2335 10.0638C9.01733 9.62569 8.44844 9.09235 8.24819 8.7114C9.69316 10.4022 11.7002 12.4257 11.831 12.5915C11.9095 12.6912 12.2099 12.9243 12.5751 13.1921V10.8929C13.4581 11.2873 14.0679 11.601 14.1578 11.6459C13.2737 11.1293 12.8095 10.6677 12.5751 10.2935V9.99992H23.5933V6.34053H9.90593C9.89569 6.31364 9.88545 6.28787 9.87635 6.26098L5.87935 3.33325L9.64196 6.34166H8.9081L10.0846 7.4128L11.9471 9.11028C11.7673 8.96126 10.0527 7.52261 8.62479 6.34166C8.61797 6.33717 8.61342 6.33157 8.60659 6.32485C8.59863 6.31925 8.5918 6.31364 8.58497 6.30692C7.5587 5.56182 6.71902 4.96911 6.63824 4.91308C6.74064 5.00496 8.20154 6.30132 7.9592 6.42457C7.71571 6.55118 3.69254 3.6974 3.33301 3.44642C6.3117 5.71532 6.60752 6.17583 8.09004 7.39376V11.5394C6.37542 10.8391 5.12955 10.2251 4.97254 10.1478C8.36538 12.0559 7.5075 13.4834 7.5075 13.4834C7.65882 13.6257 7.85566 13.7971 8.0889 13.991V20.4391L11.9448 23.9517C11.7423 23.7826 9.57939 21.9719 8.0889 20.7417V25.266H23.2441L22.7776 24.8918L21.9527 24.2307L20.0901 22.7372L22.2917 24.2812L23.6958 25.266L23.747 25.303C24.6538 25.6918 25.333 25.9999 25.333 25.9999C24.9644 25.5999 24.4956 25.1596 23.9779 24.708ZM12.5751 21.6078V18.7058L16.761 21.6078H12.5751ZM20.0276 21.6078C19.5486 21.2593 19.156 20.9803 18.9103 20.8078C18.908 20.819 18.9057 20.8302 18.9012 20.8403C19.1242 21.0296 19.4587 21.3131 19.7989 21.6078H19.3517C19.2493 21.5338 19.1458 21.4565 19.0388 21.3781C19.0991 21.452 19.1629 21.5248 19.2288 21.5966C19.2345 21.5999 19.2391 21.6044 19.2448 21.6078H16.8873L12.5751 18.4022V18.0896H13.4512L11.8436 16.7999L11.8322 16.791L11.7275 16.7069L13.6993 18.0896L15.6335 19.4498C15.6597 19.4677 15.6824 19.4834 15.704 19.4991C15.7268 19.5159 15.7484 19.5293 15.7677 19.5428C15.778 19.5506 15.7882 19.5562 15.7973 19.5629L15.9088 19.6403C15.8246 19.5674 14.8154 18.7013 14.275 18.0896H15.1715C16.5505 18.9041 18.8488 20.4078 20.659 21.6089H20.0276V21.6078Z" fill="white"/>
<path d="M32 32H0V0H32V32ZM1.66861 30.3314H30.3325V1.66861H1.66861V30.3314Z" fill="#01AA89"/>
</svg>
