<svg width="68" height="65" viewBox="0 0 68 65" fill="none" xmlns="http://www.w3.org/2000/svg">
<path d="M16.389 43.4283L7.24709 44.5388C7.05281 44.563 6.88023 44.6662 6.76864 44.8257L4.41097 48.1945C4.25614 48.4157 4.24551 48.7082 4.38365 48.9411C4.52369 49.1736 4.78617 49.303 5.05359 49.2699L13.5845 48.234L15.5143 56.6278C15.5754 56.8919 15.7852 57.0965 16.0507 57.1475C16.3172 57.1992 16.588 57.0897 16.7428 56.8685L19.1004 53.4997C19.212 53.3402 19.249 53.1416 19.2078 52.9518L17.139 43.9559C17.0603 43.614 16.7352 43.3853 16.389 43.4283Z" fill="#01AA89"/>
<path d="M11.9323 51.0354L2.90122 52.8361C2.70934 52.875 2.54509 52.991 2.44592 53.1584L0.35059 56.6963C0.212997 56.9286 0.22458 57.2211 0.379977 57.4428C0.537251 57.6641 0.808776 57.7731 1.0729 57.7198L9.50042 56.0399L12.0613 64.2629C12.1422 64.5217 12.3669 64.7097 12.6354 64.7404C12.9052 64.7718 13.1668 64.6421 13.3044 64.4098L15.3997 60.8719C15.4989 60.7044 15.5206 60.5036 15.4652 60.3175L12.7201 51.5045C12.6158 51.1696 12.2743 50.9663 11.9323 51.0354Z" fill="#01AA89"/>
<path d="M21.6424 36.5281L12.4574 37.1945C12.2622 37.2093 12.0848 37.304 11.9656 37.4579L9.4475 40.7086C9.28214 40.922 9.25736 41.2137 9.38406 41.453C9.51267 41.6921 9.76858 41.834 10.0373 41.8138L18.6084 41.1924L20.1295 49.67C20.1777 49.9368 20.3774 50.1513 20.64 50.215C20.9038 50.2797 21.1795 50.1834 21.3449 49.9699L23.863 46.7192C23.9822 46.5653 24.0287 46.3687 23.9967 46.1772L22.366 37.0914C22.304 36.7461 21.9904 36.5019 21.6424 36.5281Z" fill="#01AA89"/>
<path d="M28.0298 30.0567L18.8211 29.9447C18.6253 29.943 18.4406 30.0223 18.3088 30.1656L15.525 33.192C15.3422 33.3908 15.2929 33.6793 15.3989 33.9285C15.5069 34.1775 15.7499 34.3406 16.0194 34.3432L24.6126 34.4481L25.412 43.0241C25.4375 43.294 25.6183 43.5246 25.8747 43.6104C26.1321 43.697 26.4149 43.6244 26.5977 43.4256L29.3815 40.3992C29.5133 40.2559 29.5762 40.064 29.5606 39.8704L28.7033 30.6791C28.6707 30.3298 28.3788 30.06 28.0298 30.0567Z" fill="#01AA89"/>
<path d="M34.2754 24.2L25.0839 23.6234C24.8884 23.6117 24.6999 23.6817 24.5611 23.8181L21.6281 26.7003C21.4355 26.8895 21.3716 27.1752 21.4649 27.4294C21.5602 27.6836 21.7947 27.8587 22.0637 27.8749L30.6408 28.4134L31.0064 37.0189C31.0182 37.2898 31.1872 37.5292 31.4389 37.6278C31.6915 37.7274 31.9777 37.6691 32.1703 37.4798L35.1034 34.5977C35.2422 34.4612 35.3147 34.2727 35.3089 34.0786L34.9165 24.8556C34.9016 24.5051 34.6237 24.2209 34.2754 24.2Z" fill="#01AA89"/>
<path d="M41.4401 18.5897L32.3209 17.3014C32.1269 17.2746 31.9336 17.3297 31.7846 17.4549L28.6366 20.1008C28.4299 20.2745 28.3441 20.5543 28.4174 20.815C28.4926 21.0759 28.7128 21.2686 28.9797 21.3057L37.4893 22.5084L37.1858 31.1166C37.1766 31.3875 37.3265 31.6394 37.5698 31.7572C37.8139 31.8761 38.1038 31.8402 38.3105 31.6664L41.4585 29.0206C41.6075 28.8953 41.6945 28.713 41.7037 28.519L42.0285 19.2931C42.0408 18.9426 41.7858 18.6377 41.4401 18.5897Z" fill="#01AA89"/>
<path d="M48.8094 13.9318L39.8406 11.8375C39.6498 11.7936 39.4523 11.8312 39.2927 11.9427L35.9218 14.2981C35.7005 14.4528 35.5901 14.7239 35.6399 14.9901C35.6917 15.2566 35.8939 15.4682 36.1564 15.5289L44.5256 17.4837L43.4578 26.0309C43.4245 26.3 43.5514 26.5642 43.7832 26.7032C44.0159 26.8433 44.3078 26.8333 44.5291 26.6786L47.9 24.3232C48.0596 24.2117 48.1624 24.0379 48.1889 23.8454L49.3329 14.6848C49.3764 14.3367 49.1494 14.0103 48.8094 13.9318Z" fill="#01AA89"/>
<path d="M56.6413 10.0483L47.7596 7.61036C47.5707 7.55912 47.3718 7.58917 47.2081 7.69444L43.749 9.91846C43.5219 10.0645 43.4012 10.3312 43.4407 10.5991C43.4822 10.8674 43.6761 11.0866 43.9361 11.1573L52.224 13.4327L50.8281 21.9327C50.7844 22.2003 50.9011 22.4691 51.1274 22.617C51.3545 22.7659 51.6466 22.7672 51.8737 22.6211L55.3328 20.3971C55.4965 20.2918 55.606 20.1221 55.6398 19.9308L57.1354 10.8208C57.1922 10.4746 56.978 10.1398 56.6413 10.0483Z" fill="#01AA89"/>
<path d="M63.7943 6.19425L55.0104 3.42427C54.8235 3.36597 54.6237 3.38853 54.4561 3.48757L50.9159 5.58006C50.6834 5.71747 50.5528 5.9794 50.5822 6.24861C50.6136 6.51831 50.7991 6.74464 51.0563 6.8251L59.2529 9.41033L57.5386 17.8519C57.485 18.1177 57.5915 18.3908 57.8121 18.547C58.0334 18.7044 58.3252 18.7166 58.5577 18.5792L62.0979 16.4867C62.2655 16.3877 62.3813 16.2222 62.4223 16.0323L64.2591 6.98484C64.3289 6.64104 64.1274 6.29833 63.7943 6.19425Z" fill="#01AA89"/>
</svg>
