<svg width="768" height="969" viewBox="0 0 768 969" fill="none" xmlns="http://www.w3.org/2000/svg">
<g clip-path="url(#clip0_351_371)">
<path opacity="0.8" d="M156.046 477.779C156.498 474.341 157.399 470.949 158.749 467.693L159.21 467.884C159.865 466.303 160.627 464.755 161.496 463.25L164.439 458.154L164.006 457.904L169.89 447.712L170.323 447.962L176.207 437.771L175.774 437.521L181.658 427.329L182.091 427.579L187.975 417.387L187.542 417.137L193.427 406.945L193.86 407.195L199.744 397.003L199.311 396.753L205.195 386.562L205.628 386.812L211.512 376.62L211.079 376.37L216.964 366.178L217.397 366.428L223.281 356.236L222.848 355.986L228.732 345.795L229.165 346.045L235.049 335.853L234.616 335.603L240.5 325.411L240.933 325.661L246.818 315.469L246.385 315.219L252.269 305.027L252.702 305.277L255.644 300.182C256.513 298.676 257.473 297.242 258.514 295.885L258.117 295.581C260.263 292.784 262.75 290.308 265.501 288.197L265.806 288.594C268.544 286.493 271.547 284.759 274.736 283.438L274.545 282.976C277.748 281.649 281.136 280.733 284.631 280.273L284.696 280.769C286.392 280.546 288.114 280.432 289.852 280.432H295.736V279.932H307.505V280.432H319.273V279.932H331.042V280.432H342.81V279.932H354.579V280.432H366.347V279.932H378.115V280.432H389.884V279.932H401.652V280.432H413.421V279.932H425.189V280.432H436.958V279.932H448.726V280.432H460.495V279.932H472.263V280.432H478.147C479.885 280.432 481.607 280.546 483.303 280.769L483.369 280.273C486.863 280.733 490.252 281.649 493.455 282.976L493.263 283.438C496.452 284.759 499.455 286.493 502.194 288.594L502.498 288.197C505.249 290.308 507.737 292.784 509.882 295.581L509.485 295.885C510.527 297.242 511.486 298.676 512.355 300.182L515.297 305.277L515.73 305.027L521.615 315.219L521.182 315.469L527.066 325.661L527.499 325.411L533.383 335.603L532.95 335.853L538.834 346.045L539.267 345.795L545.152 355.986L544.719 356.236L550.603 366.428L551.036 366.178L556.92 376.37L556.487 376.62L562.371 386.812L562.804 386.562L568.688 396.754L568.255 397.004L574.14 407.195L574.573 406.945L580.457 417.137L580.024 417.387L585.908 427.579L586.341 427.329L592.225 437.521L591.792 437.771L597.677 447.962L598.11 447.712L603.994 457.904L603.561 458.154L606.503 463.25C607.372 464.755 608.134 466.303 608.789 467.884L609.251 467.693C610.6 470.949 611.501 474.341 611.953 477.779L611.457 477.844C611.907 481.266 611.907 484.734 611.457 488.156L611.953 488.221C611.501 491.659 610.6 495.051 609.251 498.308L608.789 498.116C608.134 499.697 607.372 501.245 606.503 502.75L603.561 507.846L603.994 508.096L598.11 518.288L597.677 518.038L591.792 528.23L592.225 528.48L586.341 538.671L585.908 538.421L580.024 548.613L580.457 548.863L574.573 559.055L574.14 558.805L568.255 568.997L568.688 569.247L562.804 579.438L562.371 579.188L556.487 589.38L556.92 589.63L551.036 599.822L550.603 599.572L544.719 609.764L545.152 610.014L539.267 620.206L538.834 619.956L532.95 630.147L533.383 630.397L527.499 640.589L527.066 640.339L521.182 650.531L521.615 650.781L515.73 660.973L515.297 660.723L512.355 665.819C511.486 667.324 510.526 668.758 509.485 670.115L509.882 670.42C507.736 673.216 505.249 675.693 502.498 677.803L502.194 677.406C499.455 679.507 496.452 681.241 493.263 682.562L493.455 683.024C490.251 684.351 486.863 685.267 483.369 685.727L483.303 685.231C481.607 685.454 479.885 685.569 478.147 685.569H472.263V686.069H460.495V685.569H448.726V686.069H436.958V685.569H425.189V686.069H413.421V685.569H401.652V686.069H389.884V685.569H378.115V686.069H366.347V685.569H354.579V686.069H342.81V685.569H331.042V686.069H319.273V685.569H307.505V686.069H295.736V685.569H289.852C288.114 685.569 286.392 685.454 284.696 685.231L284.631 685.727C281.136 685.267 277.748 684.351 274.545 683.024L274.736 682.562C271.547 681.241 268.544 679.507 265.806 677.406L265.501 677.803C262.75 675.692 260.263 673.216 258.117 670.42L258.514 670.115C257.473 668.758 256.513 667.324 255.644 665.819L252.702 660.723L252.269 660.973L246.385 650.781L246.818 650.531L240.933 640.339L240.5 640.589L234.616 630.397L235.049 630.147L229.165 619.956L228.732 620.206L222.848 610.014L223.281 609.764L217.397 599.572L216.964 599.822L211.079 589.63L211.512 589.38L205.628 579.188L205.195 579.438L199.311 569.247L199.744 568.997L193.86 558.805L193.427 559.055L187.542 548.863L187.975 548.613L182.091 538.421L181.658 538.671L175.774 528.48L176.207 528.23L170.323 518.038L169.89 518.288L164.006 508.096L164.439 507.846L161.496 502.75C160.627 501.245 159.865 499.697 159.21 498.116L158.749 498.308C157.399 495.051 156.498 491.659 156.046 488.221L156.542 488.156C156.092 484.734 156.092 481.266 156.542 477.844L156.046 477.779Z" stroke="#01AA89" stroke-dasharray="12 12"/>
<path opacity="0.2" d="M-26.4697 477.779C-26.0175 474.341 -25.1167 470.949 -23.7674 467.693L-23.3055 467.884C-22.6506 466.303 -21.8886 464.755 -21.0195 463.25L-17.9295 457.898L-18.3625 457.648L-12.1823 446.943L-11.7493 447.193L-5.5691 436.489L-6.00211 436.239L0.178099 425.535L0.611113 425.785L6.79131 415.08L6.3583 414.83L12.5385 404.126L12.9716 404.376L19.1518 393.671L18.7187 393.421L24.899 382.717L25.332 382.967L31.5122 372.262L31.0792 372.012L37.2594 361.308L37.6924 361.558L43.8726 350.854L43.4396 350.604L49.6198 339.899L50.0528 340.149L56.233 329.445L55.8 329.195L61.9802 318.49L62.4132 318.74L68.5934 308.036L68.1604 307.786L74.3406 297.081L74.7736 297.331L80.9538 286.627L80.5208 286.377L86.701 275.673L87.134 275.923L93.3142 265.218L92.8812 264.968L99.0614 254.264L99.4944 254.514L105.675 243.809L105.242 243.559L111.422 232.855L111.855 233.105L118.035 222.401L117.602 222.151L123.782 211.446L124.215 211.696L130.396 200.992L129.963 200.742L136.143 190.037L136.576 190.287L142.756 179.583L142.323 179.333L148.503 168.628L148.936 168.878L155.116 158.174L154.683 157.924L160.864 147.22L161.297 147.47L164.387 142.117C165.256 140.612 166.216 139.178 167.257 137.821L166.86 137.516C169.006 134.72 171.493 132.243 174.244 130.133L174.548 130.53C177.287 128.429 180.29 126.695 183.479 125.374L183.287 124.912C186.491 123.585 189.879 122.669 193.373 122.209L193.439 122.705C195.135 122.482 196.857 122.367 198.595 122.367H204.775V121.867H217.135V122.367H229.496V121.867H241.856V122.367H254.217V121.867H266.577V122.367H278.937V121.867H291.298V122.367H303.658V121.867H316.019V122.367H328.379V121.867H340.739V122.367H353.1V121.867H365.46V122.367H377.821V121.867H390.181V122.367H402.541V121.867H414.902V122.367H427.262V121.867H439.623V122.367H451.983V121.867H464.343V122.367H476.704V121.867H489.064V122.367H501.425V121.867H513.785V122.367H526.145V121.867H538.506V122.367H550.866V121.867H563.227V122.367H569.407C571.145 122.367 572.867 122.482 574.563 122.705L574.628 122.209C578.123 122.669 581.511 123.585 584.714 124.912L584.523 125.374C587.711 126.695 590.715 128.429 593.453 130.53L593.757 130.133C596.509 132.244 598.996 134.72 601.141 137.516L600.745 137.821C601.786 139.178 602.746 140.612 603.615 142.117L606.705 147.47L607.138 147.22L613.318 157.924L612.885 158.174L619.065 168.878L619.498 168.628L625.678 179.333L625.245 179.583L631.426 190.287L631.859 190.037L638.039 200.742L637.606 200.992L643.786 211.696L644.219 211.446L650.399 222.151L649.966 222.401L656.146 233.105L656.579 232.855L662.76 243.559L662.327 243.809L668.507 254.514L668.94 254.264L675.12 264.968L674.687 265.218L680.867 275.923L681.3 275.673L687.48 286.377L687.047 286.627L693.228 297.331L693.661 297.081L699.841 307.786L699.408 308.036L705.588 318.74L706.021 318.49L712.201 329.195L711.768 329.445L717.948 340.149L718.381 339.899L724.562 350.604L724.129 350.854L730.309 361.558L730.742 361.308L736.922 372.012L736.489 372.262L742.669 382.967L743.102 382.717L749.282 393.421L748.849 393.671L755.03 404.376L755.463 404.126L761.643 414.83L761.21 415.08L767.39 425.785L767.823 425.535L774.003 436.239L773.57 436.489L779.75 447.193L780.183 446.943L786.364 457.648L785.931 457.898L789.021 463.25C789.89 464.755 790.652 466.303 791.307 467.884L791.769 467.693C793.118 470.949 794.019 474.341 794.471 477.779L793.975 477.844C794.425 481.266 794.425 484.734 793.975 488.156L794.471 488.221C794.019 491.659 793.118 495.051 791.769 498.307L791.307 498.116C790.652 499.697 789.89 501.245 789.021 502.75L785.931 508.102L786.364 508.352L780.183 519.057L779.75 518.807L773.57 529.511L774.003 529.761L767.823 540.465L767.39 540.215L761.21 550.92L761.643 551.17L755.463 561.874L755.03 561.624L748.849 572.329L749.282 572.579L743.102 583.283L742.669 583.033L736.489 593.738L736.922 593.988L730.742 604.692L730.309 604.442L724.129 615.146L724.562 615.396L718.381 626.101L717.948 625.851L711.768 636.555L712.201 636.805L706.021 647.51L705.588 647.26L699.408 657.964L699.841 658.214L693.661 668.919L693.228 668.669L687.047 679.373L687.48 679.623L681.3 690.327L680.867 690.077L674.687 700.782L675.12 701.032L668.94 711.736L668.507 711.486L662.327 722.191L662.76 722.441L656.579 733.145L656.146 732.895L649.966 743.599L650.399 743.849L644.219 754.554L643.786 754.304L637.606 765.008L638.039 765.258L631.859 775.963L631.426 775.713L625.245 786.417L625.678 786.667L619.498 797.372L619.065 797.122L612.885 807.826L613.318 808.076L607.138 818.78L606.705 818.53L603.615 823.883C602.746 825.388 601.786 826.822 600.745 828.179L601.141 828.484C598.996 831.28 596.508 833.756 593.757 835.867L593.453 835.47C590.715 837.571 587.711 839.305 584.523 840.626L584.714 841.088C581.511 842.415 578.123 843.331 574.628 843.791L574.563 843.295C572.867 843.518 571.145 843.633 569.407 843.633H563.227V844.133H550.866V843.633H538.506V844.133H526.145V843.633H513.785V844.133H501.425V843.633H489.064V844.133H476.704V843.633H464.343V844.133H451.983V843.633H439.623V844.133H427.262V843.633H414.902V844.133H402.541V843.633H390.181V844.133H377.821V843.633H365.46V844.133H353.1V843.633H340.739V844.133H328.379V843.633H316.019V844.133H303.658V843.633H291.298V844.133H278.937V843.633H266.577V844.133H254.217V843.633H241.856V844.133H229.496V843.633H217.135V844.133H204.775V843.633H198.595C196.857 843.633 195.135 843.518 193.439 843.295L193.373 843.791C189.879 843.332 186.491 842.415 183.287 841.088L183.479 840.626C180.29 839.305 177.287 837.571 174.548 835.47L174.244 835.867C171.493 833.757 169.006 831.28 166.86 828.484L167.257 828.179C166.216 826.822 165.256 825.388 164.387 823.883L161.297 818.53L160.864 818.78L154.683 808.076L155.116 807.826L148.936 797.122L148.503 797.372L142.323 786.667L142.756 786.417L136.576 775.713L136.143 775.963L129.963 765.258L130.396 765.008L124.215 754.304L123.782 754.554L117.602 743.849L118.035 743.599L111.855 732.895L111.422 733.145L105.242 722.441L105.675 722.191L99.4944 711.486L99.0613 711.736L92.8811 701.032L93.3141 700.782L87.134 690.077L86.7009 690.327L80.5208 679.623L80.9537 679.373L74.7736 668.668L74.3405 668.918L68.1603 658.214L68.5934 657.964L62.4132 647.26L61.9802 647.51L55.7999 636.805L56.233 636.555L50.0528 625.851L49.6197 626.101L43.4396 615.396L43.8725 615.146L37.6924 604.442L37.2593 604.692L31.0791 593.988L31.5121 593.738L25.332 583.033L24.8989 583.283L18.7187 572.579L19.1518 572.329L12.9716 561.624L12.5386 561.874L6.35831 551.17L6.79136 550.92L0.611135 540.215L0.178139 540.465L-6.00206 529.761L-5.56907 529.511L-11.7492 518.807L-12.1823 519.057L-18.3624 508.352L-17.9294 508.102L-21.0195 502.75C-21.8886 501.245 -22.6505 499.697 -23.3055 498.116L-23.7674 498.307C-25.1167 495.051 -26.0175 491.659 -26.4697 488.221L-25.9739 488.156C-26.424 484.734 -26.4241 481.266 -25.9739 477.844L-26.4697 477.779Z" stroke="#01AA89" stroke-dasharray="12 12"/>
<path opacity="0.4" d="M69.8594 477.779C70.3116 474.341 71.2123 470.949 72.5617 467.693L73.0236 467.884C73.6785 466.303 74.4405 464.755 75.3095 463.25L78.4287 457.848L77.9956 457.598L84.2339 446.793L84.6669 447.043L90.9052 436.238L90.4722 435.988L96.7105 425.183L97.1435 425.433L103.381 414.628L102.948 414.378L109.187 403.573L109.62 403.823L115.858 393.018L115.425 392.768L121.663 381.963L122.096 382.213L128.335 371.408L127.901 371.158L134.14 360.353L134.573 360.603L140.811 349.798L140.378 349.548L146.616 338.743L147.049 338.993L153.288 328.188L152.855 327.938L159.093 317.133L159.526 317.383L165.764 306.578L165.331 306.328L171.569 295.523L172.002 295.773L178.241 284.968L177.808 284.718L184.046 273.913L184.479 274.163L190.717 263.358L190.284 263.108L196.522 252.303L196.955 252.553L203.194 241.748L202.761 241.498L208.999 230.693L209.432 230.943L212.551 225.54C213.42 224.035 214.38 222.601 215.421 221.244L215.025 220.939C217.17 218.142 219.657 215.666 222.408 213.556L222.713 213.953C225.451 211.852 228.454 210.118 231.643 208.797L231.452 208.335C234.655 207.007 238.043 206.091 241.538 205.632L241.603 206.127C243.299 205.904 245.021 205.79 246.759 205.79H252.997V205.29H265.474V205.79H277.95V205.29H290.427V205.79H302.903V205.29H315.38V205.79H327.857V205.29H340.333V205.79H352.81V205.29H365.286V205.79H377.763V205.29H390.239V205.79H402.716V205.29H415.192V205.79H427.669V205.29H440.145V205.79H452.622V205.29H465.098V205.79H477.575V205.29H490.051V205.79H502.528V205.29H515.005V205.79H521.243C522.981 205.79 524.703 205.904 526.399 206.127L526.464 205.632C529.959 206.091 533.347 207.007 536.55 208.335L536.359 208.797C539.547 210.118 542.551 211.852 545.289 213.953L545.593 213.556C548.345 215.666 550.832 218.142 552.977 220.939L552.581 221.244C553.622 222.601 554.582 224.035 555.451 225.54L558.57 230.943L559.003 230.693L565.241 241.498L564.808 241.748L571.046 252.553L571.479 252.303L577.718 263.108L577.285 263.358L583.523 274.163L583.956 273.913L590.194 284.718L589.761 284.968L596 295.773L596.433 295.523L602.671 306.328L602.238 306.578L608.476 317.383L608.909 317.133L615.147 327.938L614.714 328.188L620.953 338.993L621.386 338.743L627.624 349.548L627.191 349.798L633.429 360.603L633.862 360.353L640.1 371.158L639.667 371.408L645.906 382.213L646.339 381.963L652.577 392.768L652.144 393.018L658.382 403.823L658.815 403.573L665.053 414.378L664.62 414.628L670.859 425.433L671.292 425.183L677.53 435.988L677.097 436.238L683.335 447.043L683.768 446.793L690.007 457.598L689.573 457.848L692.693 463.25C693.562 464.755 694.324 466.303 694.979 467.884L695.441 467.693C696.79 470.949 697.691 474.341 698.143 477.779L697.647 477.844C698.097 481.266 698.097 484.734 697.647 488.156L698.143 488.221C697.691 491.659 696.79 495.051 695.441 498.308L694.979 498.116C694.324 499.697 693.562 501.245 692.693 502.75L689.574 508.153L690.007 508.403L683.768 519.208L683.335 518.958L677.097 529.763L677.53 530.013L671.292 540.818L670.859 540.568L664.62 551.373L665.053 551.623L658.815 562.428L658.382 562.178L652.144 572.983L652.577 573.233L646.339 584.038L645.906 583.788L639.667 594.592L640.1 594.842L633.862 605.647L633.429 605.397L627.191 616.202L627.624 616.452L621.386 627.257L620.953 627.007L614.714 637.812L615.147 638.062L608.909 648.867L608.476 648.617L602.238 659.422L602.671 659.672L596.433 670.477L596 670.227L589.761 681.032L590.194 681.282L583.956 692.087L583.523 691.837L577.285 702.642L577.718 702.892L571.479 713.697L571.046 713.447L564.808 724.252L565.241 724.502L559.003 735.307L558.57 735.057L555.451 740.46C554.582 741.965 553.622 743.399 552.581 744.757L552.977 745.061C550.832 747.858 548.345 750.334 545.593 752.444L545.289 752.048C542.551 754.148 539.548 755.882 536.359 757.204L536.55 757.665C533.347 758.993 529.959 759.909 526.464 760.368L526.399 759.873C524.703 760.096 522.981 760.21 521.243 760.21H515.005V760.71H502.528V760.21H490.051V760.71H477.575V760.21H465.098V760.71H452.622V760.21H440.145V760.71H427.669V760.21H415.192V760.71H402.716V760.21H390.239V760.71H377.763V760.21H365.286V760.71H352.81V760.21H340.333V760.71H327.857V760.21H315.38V760.71H302.904L302.903 760.21H290.427V760.71H277.95V760.21H265.474V760.71H252.997V760.21H246.759C245.021 760.21 243.299 760.096 241.603 759.873L241.538 760.368C238.043 759.909 234.655 758.993 231.452 757.665L231.643 757.204C228.454 755.882 225.451 754.148 222.713 752.048L222.408 752.444C219.657 750.334 217.17 747.858 215.024 745.061L215.421 744.757C214.38 743.399 213.42 741.965 212.551 740.46L209.432 735.057L208.999 735.307L202.761 724.502L203.194 724.252L196.955 713.447L196.522 713.697L190.284 702.892L190.717 702.642L184.479 691.837L184.046 692.087L177.808 681.282L178.241 681.032L172.002 670.227L171.569 670.477L165.331 659.672L165.764 659.422L159.526 648.617L159.093 648.867L152.855 638.062L153.288 637.812L147.049 627.007L146.616 627.257L140.378 616.452L140.811 616.202L134.573 605.397L134.14 605.647L127.902 594.842L128.334 594.593L122.096 583.788L121.663 584.037L115.425 573.232L115.858 572.982L109.62 562.177L109.187 562.428L102.948 551.623L103.381 551.373L97.1435 540.568L96.7105 540.818L90.4722 530.013L90.9052 529.763L84.6669 518.958L84.2339 519.208L77.9957 508.403L78.4287 508.153L75.3095 502.75C74.4405 501.245 73.6785 499.697 73.0236 498.116L72.5617 498.307C71.2123 495.051 70.3116 491.659 69.8594 488.221L70.3551 488.156C69.905 484.734 69.905 481.266 70.3551 477.844L69.8594 477.779Z" stroke="#01AA89" stroke-dasharray="12 12"/>
<path d="M230 724H157C145.954 724 137 732.954 137 744V745C137 756.046 145.954 765 157 765H230C241.046 765 250 756.046 250 745V744C250 732.954 241.046 724 230 724Z" fill="#696969" fill-opacity="0.31"/>
<path d="M154.559 739.318H164.855V751H162.047V741.298H157.367V751H154.559V739.318ZM167.265 742.288H169.749V743.152C169.905 742.768 170.211 742.498 170.667 742.342C171.123 742.186 171.801 742.108 172.701 742.108C173.457 742.108 174.063 742.168 174.519 742.288C174.987 742.408 175.341 742.6 175.581 742.864C175.809 743.128 175.965 743.422 176.049 743.746C176.133 744.058 176.175 744.49 176.175 745.042V747.904C176.175 748.768 176.049 749.434 175.797 749.902C175.545 750.37 175.155 750.7 174.627 750.892C174.111 751.084 173.403 751.18 172.503 751.18C171.639 751.18 171.015 751.108 170.631 750.964C170.247 750.82 170.001 750.538 169.893 750.118V754.744H167.265V742.288ZM171.693 749.542C172.209 749.542 172.599 749.506 172.863 749.434C173.127 749.362 173.307 749.236 173.403 749.056C173.499 748.876 173.547 748.606 173.547 748.246V745.024C173.547 744.628 173.505 744.346 173.421 744.178C173.337 743.998 173.169 743.878 172.917 743.818C172.665 743.758 172.251 743.728 171.675 743.728C171.183 743.728 170.805 743.77 170.541 743.854C170.289 743.938 170.115 744.07 170.019 744.25C169.935 744.43 169.893 744.688 169.893 745.024V748.246C169.893 748.606 169.935 748.876 170.019 749.056C170.115 749.236 170.289 749.362 170.541 749.434C170.793 749.506 171.177 749.542 171.693 749.542ZM178.234 742.288H180.862V747.976L184.3 742.288H186.928V751H184.3V745.15L180.862 751H178.234V742.288ZM193.504 751.18C192.472 751.18 191.65 751.108 191.038 750.964C190.438 750.82 189.964 750.496 189.616 749.992C189.28 749.476 189.112 748.702 189.112 747.67V744.016C189.112 742.948 189.28 742.072 189.616 741.388C189.964 740.704 190.426 740.17 191.002 739.786C191.59 739.402 192.316 739.084 193.18 738.832L194.08 738.598C194.572 738.478 195.112 738.34 195.7 738.184C196.288 738.016 196.792 737.848 197.212 737.68V739.912C196.528 740.248 195.364 740.596 193.72 740.956C193.012 741.112 192.448 741.298 192.028 741.514C191.62 741.718 191.314 742 191.11 742.36C190.906 742.72 190.804 743.194 190.804 743.782V744.754H190.822C190.99 744.046 191.338 743.53 191.866 743.206C192.394 742.882 193.222 742.72 194.35 742.72C195.334 742.72 196.078 742.852 196.582 743.116C197.098 743.38 197.446 743.776 197.626 744.304C197.806 744.832 197.896 745.558 197.896 746.482V747.67C197.896 748.522 197.776 749.2 197.536 749.704C197.296 750.196 196.858 750.568 196.222 750.82C195.586 751.06 194.68 751.18 193.504 751.18ZM193.54 749.542C194.068 749.542 194.452 749.494 194.692 749.398C194.932 749.302 195.088 749.158 195.16 748.966C195.232 748.774 195.268 748.486 195.268 748.102V745.87C195.268 745.426 195.232 745.108 195.16 744.916C195.088 744.712 194.938 744.568 194.71 744.484C194.482 744.4 194.11 744.358 193.594 744.358C193.054 744.358 192.652 744.412 192.388 744.52C192.136 744.616 191.962 744.778 191.866 745.006C191.782 745.222 191.74 745.54 191.74 745.96V748.102C191.74 748.474 191.782 748.762 191.866 748.966C191.962 749.158 192.136 749.302 192.388 749.398C192.652 749.494 193.036 749.542 193.54 749.542ZM199.943 742.288H202.571V745.204H203.471C204.683 745.204 205.571 745.27 206.135 745.402C206.711 745.534 207.101 745.768 207.305 746.104C207.521 746.428 207.629 746.944 207.629 747.652V748.678C207.629 749.518 207.299 750.118 206.639 750.478C205.991 750.826 204.953 751 203.525 751H199.943V742.288ZM209.051 742.288H211.679V751H209.051V742.288ZM203.399 749.362C203.879 749.362 204.233 749.332 204.461 749.272C204.689 749.2 204.839 749.092 204.911 748.948C204.983 748.804 205.019 748.588 205.019 748.3V747.814C205.019 747.55 204.971 747.352 204.875 747.22C204.791 747.076 204.635 746.98 204.407 746.932C204.191 746.884 203.867 746.86 203.435 746.86H202.535V749.362H203.399ZM214.384 751.144C214.12 751.144 213.808 751.108 213.448 751.036V749.092C213.592 749.116 213.742 749.128 213.898 749.128C214.342 749.128 214.702 748.99 214.978 748.714C215.254 748.438 215.464 747.898 215.608 747.094C215.764 746.29 215.842 745.126 215.842 743.602V742.288H222.664V751H220.036V743.962H218.038V744.178C218.038 746.038 217.876 747.478 217.552 748.498C217.228 749.518 216.802 750.214 216.274 750.586C215.746 750.958 215.116 751.144 214.384 751.144ZM224.974 742.288H227.602V745.204H228.61C229.822 745.204 230.722 745.27 231.31 745.402C231.91 745.534 232.318 745.768 232.534 746.104C232.762 746.44 232.876 746.956 232.876 747.652V748.678C232.876 749.506 232.534 750.1 231.85 750.46C231.166 750.82 230.104 751 228.664 751H224.974V742.288ZM228.538 749.362C229.018 749.362 229.372 749.332 229.6 749.272C229.828 749.2 229.978 749.092 230.05 748.948C230.122 748.804 230.158 748.588 230.158 748.3V747.814C230.158 747.55 230.11 747.352 230.014 747.22C229.93 747.076 229.774 746.98 229.546 746.932C229.33 746.884 229.006 746.86 228.574 746.86H227.566V749.362H228.538Z" fill="white"/>
<path d="M578 724H544C532.954 724 524 732.954 524 744V745C524 756.046 532.954 765 544 765H578C589.046 765 598 756.046 598 745V744C598 732.954 589.046 724 578 724Z" fill="#696969" fill-opacity="0.31"/>
<path d="M546.921 751.18C546.393 751.18 545.919 751.156 545.499 751.108C545.091 751.06 544.641 750.97 544.149 750.838C543.597 750.694 543.141 750.508 542.781 750.28C542.421 750.04 542.121 749.71 541.881 749.29C541.629 748.87 541.503 748.372 541.503 747.796V742.666C541.503 740.314 543.309 739.138 546.921 739.138C547.845 739.138 549.081 739.27 550.629 739.534V741.64C549.237 741.304 548.013 741.136 546.957 741.136C546.513 741.136 546.165 741.148 545.913 741.172C545.673 741.196 545.421 741.256 545.157 741.352C544.593 741.544 544.311 741.97 544.311 742.63V747.598C544.311 748.654 545.277 749.182 547.209 749.182C548.037 749.182 549.201 749.008 550.701 748.66V750.784C549.417 751.048 548.157 751.18 546.921 751.18ZM554.853 751.18C554.037 751.18 553.425 751.108 553.017 750.964C552.621 750.808 552.339 750.538 552.171 750.154C552.015 749.758 551.937 749.17 551.937 748.39C551.937 747.694 552.021 747.148 552.189 746.752C552.369 746.356 552.651 746.074 553.035 745.906C553.431 745.726 553.971 745.636 554.655 745.636H557.607V745.042C557.607 744.67 557.553 744.394 557.445 744.214C557.349 744.034 557.163 743.908 556.887 743.836C556.623 743.764 556.221 743.728 555.681 743.728C554.937 743.728 553.917 743.8 552.621 743.944V742.288C553.569 742.168 554.679 742.108 555.951 742.108C557.067 742.108 557.925 742.192 558.525 742.36C559.137 742.528 559.575 742.816 559.839 743.224C560.103 743.632 560.235 744.226 560.235 745.006V751H557.661V750.208C557.457 750.556 557.181 750.802 556.833 750.946C556.485 751.102 555.825 751.18 554.853 751.18ZM555.879 749.542C556.407 749.542 556.785 749.524 557.013 749.488C557.181 749.464 557.295 749.428 557.355 749.38C557.427 749.332 557.487 749.254 557.535 749.146C557.583 749.062 557.607 748.936 557.607 748.768V747.076H555.807C555.399 747.076 555.111 747.106 554.943 747.166C554.775 747.214 554.661 747.322 554.601 747.49C554.541 747.646 554.511 747.928 554.511 748.336C554.511 748.732 554.541 749.008 554.601 749.164C554.661 749.32 554.775 749.422 554.943 749.47C555.123 749.518 555.435 749.542 555.879 749.542ZM562.548 742.288H565.176V747.976L568.614 742.288H571.242V751H568.614V745.15L565.176 751H562.548V742.288ZM566.904 741.226C565.944 741.226 565.182 740.986 564.618 740.506C564.054 740.026 563.778 739.384 563.79 738.58H565.644C565.68 739.06 565.8 739.414 566.004 739.642C566.208 739.87 566.508 739.984 566.904 739.984C567.312 739.984 567.612 739.876 567.804 739.66C568.008 739.432 568.128 739.072 568.164 738.58H570.018C570.042 739.372 569.766 740.014 569.19 740.506C568.626 740.986 567.864 741.226 566.904 741.226ZM575.639 744.016H572.759V742.288H581.147V744.016H578.267V751H575.639V744.016Z" fill="white"/>
<path d="M599 214H545C533.954 214 525 222.954 525 234V235C525 246.046 533.954 255 545 255H599C610.046 255 619 246.046 619 235V234C619 222.954 610.046 214 599 214Z" fill="#696969" fill-opacity="0.31"/>
<path d="M547.763 241.18C547.115 241.18 546.515 241.138 545.963 241.054C545.423 240.97 544.859 240.826 544.271 240.622C543.635 240.406 543.137 240.058 542.777 239.578C542.417 239.086 542.237 238.492 542.237 237.796V232.684C542.237 232.108 542.363 231.592 542.615 231.136C542.879 230.68 543.215 230.32 543.623 230.056C543.983 229.828 544.427 229.636 544.955 229.48C545.483 229.324 545.975 229.228 546.431 229.192C546.851 229.156 547.295 229.138 547.763 229.138C548.315 229.138 548.795 229.162 549.203 229.21C549.611 229.246 550.067 229.33 550.571 229.462C551.147 229.63 551.621 229.834 551.993 230.074C552.365 230.314 552.677 230.65 552.929 231.082C553.193 231.526 553.325 232.06 553.325 232.684V237.796C553.325 238.444 553.151 239.002 552.803 239.47C552.467 239.938 551.999 240.292 551.399 240.532C550.319 240.964 549.107 241.18 547.763 241.18ZM547.799 239.182C548.195 239.182 548.525 239.17 548.789 239.146C549.065 239.11 549.347 239.05 549.635 238.966C549.923 238.882 550.139 238.744 550.283 238.552C550.439 238.348 550.517 238.096 550.517 237.796V232.666C550.517 232.114 550.295 231.724 549.851 231.496C549.407 231.256 548.717 231.136 547.781 231.136C546.845 231.136 546.155 231.25 545.711 231.478C545.267 231.706 545.045 232.102 545.045 232.666V237.796C545.045 238.096 545.123 238.348 545.279 238.552C545.435 238.744 545.663 238.882 545.963 238.966C546.251 239.05 546.527 239.11 546.791 239.146C547.067 239.17 547.403 239.182 547.799 239.182ZM559.923 241.144C558.939 241.144 558.123 241.084 557.475 240.964C556.839 240.844 556.305 240.556 555.873 240.1C555.441 239.632 555.225 238.924 555.225 237.976V235.474C555.225 234.538 555.423 233.83 555.819 233.35C556.215 232.87 556.743 232.552 557.403 232.396C558.063 232.24 558.903 232.156 559.923 232.144V228.4H562.443V232.144C563.463 232.156 564.303 232.24 564.963 232.396C565.623 232.552 566.151 232.87 566.547 233.35C566.943 233.83 567.141 234.538 567.141 235.474V237.976C567.141 238.924 566.925 239.632 566.493 240.1C566.061 240.556 565.521 240.844 564.873 240.964C564.237 241.084 563.427 241.144 562.443 241.144V244.744H559.923V241.144ZM559.941 233.746C559.353 233.758 558.909 233.812 558.609 233.908C558.321 234.004 558.117 234.16 557.997 234.376C557.889 234.592 557.835 234.904 557.835 235.312V237.958C557.835 238.39 557.889 238.714 557.997 238.93C558.105 239.146 558.303 239.302 558.591 239.398C558.891 239.482 559.341 239.524 559.941 239.524V233.746ZM562.425 239.524C563.013 239.524 563.457 239.482 563.757 239.398C564.057 239.302 564.261 239.146 564.369 238.93C564.477 238.714 564.531 238.39 564.531 237.958V235.312C564.531 234.904 564.471 234.592 564.351 234.376C564.243 234.16 564.039 234.004 563.739 233.908C563.439 233.812 563.001 233.758 562.425 233.746V239.524ZM573.634 241.144C572.65 241.144 571.834 241.084 571.186 240.964C570.55 240.844 570.016 240.556 569.584 240.1C569.152 239.632 568.936 238.924 568.936 237.976V235.474C568.936 234.538 569.134 233.83 569.53 233.35C569.926 232.87 570.454 232.552 571.114 232.396C571.774 232.24 572.614 232.156 573.634 232.144V228.4H576.154V232.144C577.174 232.156 578.014 232.24 578.674 232.396C579.334 232.552 579.862 232.87 580.258 233.35C580.654 233.83 580.852 234.538 580.852 235.474V237.976C580.852 238.924 580.636 239.632 580.204 240.1C579.772 240.556 579.232 240.844 578.584 240.964C577.948 241.084 577.138 241.144 576.154 241.144V244.744H573.634V241.144ZM573.652 233.746C573.064 233.758 572.62 233.812 572.32 233.908C572.032 234.004 571.828 234.16 571.708 234.376C571.6 234.592 571.546 234.904 571.546 235.312V237.958C571.546 238.39 571.6 238.714 571.708 238.93C571.816 239.146 572.014 239.302 572.302 239.398C572.602 239.482 573.052 239.524 573.652 239.524V233.746ZM576.136 239.524C576.724 239.524 577.168 239.482 577.468 239.398C577.768 239.302 577.972 239.146 578.08 238.93C578.188 238.714 578.242 238.39 578.242 237.958V235.312C578.242 234.904 578.182 234.592 578.062 234.376C577.954 234.16 577.75 234.004 577.45 233.908C577.15 233.812 576.712 233.758 576.136 233.746V239.524ZM587.273 241.18C584.189 241.18 582.647 240.238 582.647 238.354V235.222C582.647 234.13 582.995 233.338 583.691 232.846C584.399 232.354 585.485 232.108 586.949 232.108C588.329 232.108 589.337 232.348 589.973 232.828C590.621 233.296 590.945 234.094 590.945 235.222V237.346H585.293V238.138C585.293 238.642 585.473 239.002 585.833 239.218C586.193 239.434 586.841 239.542 587.777 239.542C588.641 239.542 589.613 239.416 590.693 239.164V240.838C589.625 241.066 588.485 241.18 587.273 241.18ZM588.443 235.852V234.592C588.443 234.304 588.323 234.088 588.083 233.944C587.855 233.8 587.465 233.728 586.913 233.728C586.277 233.728 585.851 233.8 585.635 233.944C585.407 234.1 585.293 234.316 585.293 234.592V235.852H588.443ZM592.954 232.288H595.438V233.152C595.594 232.768 595.9 232.498 596.356 232.342C596.812 232.186 597.49 232.108 598.39 232.108C599.146 232.108 599.752 232.168 600.208 232.288C600.676 232.408 601.03 232.6 601.27 232.864C601.498 233.128 601.654 233.422 601.738 233.746C601.822 234.058 601.864 234.49 601.864 235.042V237.904C601.864 238.768 601.738 239.434 601.486 239.902C601.234 240.37 600.844 240.7 600.316 240.892C599.8 241.084 599.092 241.18 598.192 241.18C597.328 241.18 596.704 241.108 596.32 240.964C595.936 240.82 595.69 240.538 595.582 240.118V244.744H592.954V232.288ZM597.382 239.542C597.898 239.542 598.288 239.506 598.552 239.434C598.816 239.362 598.996 239.236 599.092 239.056C599.188 238.876 599.236 238.606 599.236 238.246V235.024C599.236 234.628 599.194 234.346 599.11 234.178C599.026 233.998 598.858 233.878 598.606 233.818C598.354 233.758 597.94 233.728 597.364 233.728C596.872 233.728 596.494 233.77 596.23 233.854C595.978 233.938 595.804 234.07 595.708 234.25C595.624 234.43 595.582 234.688 595.582 235.024V238.246C595.582 238.606 595.624 238.876 595.708 239.056C595.804 239.236 595.978 239.362 596.23 239.434C596.482 239.506 596.866 239.542 597.382 239.542Z" fill="white"/>
<path d="M230 214H157C145.954 214 137 222.954 137 234V235C137 246.046 145.954 255 157 255H230C241.046 255 250 246.046 250 235V234C250 222.954 241.046 214 230 214Z" fill="#696969" fill-opacity="0.31"/>
<path d="M154.559 229.318H164.855V241H162.047V231.298H157.367V241H154.559V229.318ZM167.265 232.288H169.749V233.152C169.905 232.768 170.211 232.498 170.667 232.342C171.123 232.186 171.801 232.108 172.701 232.108C173.457 232.108 174.063 232.168 174.519 232.288C174.987 232.408 175.341 232.6 175.581 232.864C175.809 233.128 175.965 233.422 176.049 233.746C176.133 234.058 176.175 234.49 176.175 235.042V237.904C176.175 238.768 176.049 239.434 175.797 239.902C175.545 240.37 175.155 240.7 174.627 240.892C174.111 241.084 173.403 241.18 172.503 241.18C171.639 241.18 171.015 241.108 170.631 240.964C170.247 240.82 170.001 240.538 169.893 240.118V244.744H167.265V232.288ZM171.693 239.542C172.209 239.542 172.599 239.506 172.863 239.434C173.127 239.362 173.307 239.236 173.403 239.056C173.499 238.876 173.547 238.606 173.547 238.246V235.024C173.547 234.628 173.505 234.346 173.421 234.178C173.337 233.998 173.169 233.878 172.917 233.818C172.665 233.758 172.251 233.728 171.675 233.728C171.183 233.728 170.805 233.77 170.541 233.854C170.289 233.938 170.115 234.07 170.019 234.25C169.935 234.43 169.893 234.688 169.893 235.024V238.246C169.893 238.606 169.935 238.876 170.019 239.056C170.115 239.236 170.289 239.362 170.541 239.434C170.793 239.506 171.177 239.542 171.693 239.542ZM178.234 232.288H180.862V237.976L184.3 232.288H186.928V241H184.3V235.15L180.862 241H178.234V232.288ZM193.504 241.18C192.472 241.18 191.65 241.108 191.038 240.964C190.438 240.82 189.964 240.496 189.616 239.992C189.28 239.476 189.112 238.702 189.112 237.67V234.016C189.112 232.948 189.28 232.072 189.616 231.388C189.964 230.704 190.426 230.17 191.002 229.786C191.59 229.402 192.316 229.084 193.18 228.832L194.08 228.598C194.572 228.478 195.112 228.34 195.7 228.184C196.288 228.016 196.792 227.848 197.212 227.68V229.912C196.528 230.248 195.364 230.596 193.72 230.956C193.012 231.112 192.448 231.298 192.028 231.514C191.62 231.718 191.314 232 191.11 232.36C190.906 232.72 190.804 233.194 190.804 233.782V234.754H190.822C190.99 234.046 191.338 233.53 191.866 233.206C192.394 232.882 193.222 232.72 194.35 232.72C195.334 232.72 196.078 232.852 196.582 233.116C197.098 233.38 197.446 233.776 197.626 234.304C197.806 234.832 197.896 235.558 197.896 236.482V237.67C197.896 238.522 197.776 239.2 197.536 239.704C197.296 240.196 196.858 240.568 196.222 240.82C195.586 241.06 194.68 241.18 193.504 241.18ZM193.54 239.542C194.068 239.542 194.452 239.494 194.692 239.398C194.932 239.302 195.088 239.158 195.16 238.966C195.232 238.774 195.268 238.486 195.268 238.102V235.87C195.268 235.426 195.232 235.108 195.16 234.916C195.088 234.712 194.938 234.568 194.71 234.484C194.482 234.4 194.11 234.358 193.594 234.358C193.054 234.358 192.652 234.412 192.388 234.52C192.136 234.616 191.962 234.778 191.866 235.006C191.782 235.222 191.74 235.54 191.74 235.96V238.102C191.74 238.474 191.782 238.762 191.866 238.966C191.962 239.158 192.136 239.302 192.388 239.398C192.652 239.494 193.036 239.542 193.54 239.542ZM199.943 232.288H202.571V235.204H203.471C204.683 235.204 205.571 235.27 206.135 235.402C206.711 235.534 207.101 235.768 207.305 236.104C207.521 236.428 207.629 236.944 207.629 237.652V238.678C207.629 239.518 207.299 240.118 206.639 240.478C205.991 240.826 204.953 241 203.525 241H199.943V232.288ZM209.051 232.288H211.679V241H209.051V232.288ZM203.399 239.362C203.879 239.362 204.233 239.332 204.461 239.272C204.689 239.2 204.839 239.092 204.911 238.948C204.983 238.804 205.019 238.588 205.019 238.3V237.814C205.019 237.55 204.971 237.352 204.875 237.22C204.791 237.076 204.635 236.98 204.407 236.932C204.191 236.884 203.867 236.86 203.435 236.86H202.535V239.362H203.399ZM214.384 241.144C214.12 241.144 213.808 241.108 213.448 241.036V239.092C213.592 239.116 213.742 239.128 213.898 239.128C214.342 239.128 214.702 238.99 214.978 238.714C215.254 238.438 215.464 237.898 215.608 237.094C215.764 236.29 215.842 235.126 215.842 233.602V232.288H222.664V241H220.036V233.962H218.038V234.178C218.038 236.038 217.876 237.478 217.552 238.498C217.228 239.518 216.802 240.214 216.274 240.586C215.746 240.958 215.116 241.144 214.384 241.144ZM224.974 232.288H227.602V235.204H228.61C229.822 235.204 230.722 235.27 231.31 235.402C231.91 235.534 232.318 235.768 232.534 236.104C232.762 236.44 232.876 236.956 232.876 237.652V238.678C232.876 239.506 232.534 240.1 231.85 240.46C231.166 240.82 230.104 241 228.664 241H224.974V232.288ZM228.538 239.362C229.018 239.362 229.372 239.332 229.6 239.272C229.828 239.2 229.978 239.092 230.05 238.948C230.122 238.804 230.158 238.588 230.158 238.3V237.814C230.158 237.55 230.11 237.352 230.014 237.22C229.93 237.076 229.774 236.98 229.546 236.932C229.33 236.884 229.006 236.86 228.574 236.86H227.566V239.362H228.538Z" fill="white"/>
<path d="M553.161 300.03L567.017 298.349C567.311 298.312 567.573 298.155 567.742 297.913L571.314 292.798C571.549 292.462 571.564 292.018 571.354 291.664C571.142 291.311 570.745 291.114 570.34 291.164L557.409 292.733L554.481 279.983C554.388 279.582 554.069 279.271 553.666 279.194C553.262 279.115 552.853 279.281 552.619 279.617L549.046 284.732C548.877 284.974 548.822 285.276 548.885 285.564L552.025 299.228C552.145 299.748 552.637 300.095 553.161 300.03Z" fill="#01AA89"/>
<path d="M559.919 288.475L573.607 285.747C573.897 285.688 574.146 285.512 574.296 285.258L577.47 279.887C577.678 279.534 577.66 279.09 577.424 278.753C577.186 278.417 576.774 278.251 576.374 278.332L563.601 280.876L559.714 268.386C559.591 267.993 559.25 267.707 558.843 267.661C558.434 267.613 558.038 267.809 557.829 268.162L554.656 273.533C554.506 273.788 554.473 274.093 554.557 274.375L558.725 287.761C558.883 288.27 559.401 288.579 559.919 288.475Z" fill="#01AA89"/>
<path d="M545.201 310.512L559.121 309.504C559.417 309.481 559.686 309.338 559.867 309.104L563.682 304.168C563.932 303.843 563.97 303.401 563.778 303.037C563.583 302.674 563.195 302.458 562.787 302.489L549.797 303.429L547.488 290.552C547.415 290.147 547.112 289.821 546.714 289.724C546.314 289.626 545.897 289.772 545.646 290.096L541.831 295.032C541.65 295.266 541.58 295.564 541.628 295.855L544.104 309.656C544.198 310.181 544.673 310.552 545.201 310.512Z" fill="#01AA89"/>
<path d="M535.518 320.344L549.475 320.515C549.772 320.518 550.051 320.397 550.251 320.18L554.47 315.583C554.747 315.281 554.822 314.843 554.661 314.464C554.497 314.086 554.129 313.838 553.721 313.834L540.697 313.674L539.484 300.647C539.445 300.237 539.171 299.887 538.782 299.756C538.392 299.625 537.964 299.735 537.687 300.037L533.468 304.634C533.268 304.851 533.173 305.143 533.196 305.437L534.497 319.398C534.547 319.929 534.989 320.339 535.518 320.344Z" fill="#01AA89"/>
<path d="M526.051 329.241L539.982 330.116C540.279 330.134 540.564 330.028 540.775 329.821L545.22 325.443C545.512 325.155 545.609 324.721 545.467 324.335C545.323 323.949 544.968 323.683 544.56 323.658L531.56 322.841L531.006 309.769C530.989 309.358 530.732 308.994 530.351 308.844C529.968 308.693 529.534 308.781 529.242 309.069L524.797 313.447C524.586 313.654 524.476 313.941 524.485 314.236L525.08 328.245C525.102 328.778 525.524 329.209 526.051 329.241Z" fill="#01AA89"/>
<path d="M515.19 337.764L529.012 339.718C529.306 339.759 529.599 339.675 529.825 339.485L534.596 335.465C534.91 335.201 535.041 334.776 534.93 334.38C534.816 333.984 534.482 333.691 534.078 333.635L521.18 331.81L521.643 318.734C521.657 318.323 521.429 317.94 521.06 317.761C520.69 317.581 520.25 317.636 519.937 317.9L515.166 321.92C514.94 322.11 514.808 322.387 514.794 322.681L514.299 336.696C514.28 337.228 514.666 337.691 515.19 337.764Z" fill="#01AA89"/>
<path d="M504.02 344.84L517.614 348.016C517.903 348.083 518.202 348.025 518.444 347.856L523.555 344.276C523.891 344.041 524.058 343.629 523.983 343.225C523.905 342.82 523.598 342.499 523.201 342.407L510.516 339.443L512.139 326.459C512.19 326.05 511.998 325.649 511.646 325.438C511.294 325.225 510.851 325.241 510.516 325.476L505.405 329.056C505.163 329.225 505.007 329.489 504.966 329.781L503.227 343.697C503.161 344.226 503.505 344.721 504.02 344.84Z" fill="#01AA89"/>
<path d="M492.149 350.74L505.611 354.437C505.898 354.514 506.199 354.469 506.447 354.309L511.692 350.928C512.037 350.706 512.22 350.301 512.16 349.894C512.097 349.487 511.804 349.154 511.41 349.046L498.848 345.596L500.97 332.684C501.036 332.278 500.859 331.87 500.516 331.645C500.172 331.419 499.729 331.417 499.385 331.639L494.14 335.02C493.892 335.18 493.726 335.438 493.674 335.728L491.401 349.567C491.314 350.093 491.639 350.601 492.149 350.74Z" fill="#01AA89"/>
<path d="M481.307 356.594L494.621 360.795C494.904 360.883 495.207 360.849 495.461 360.698L500.83 357.517C501.182 357.308 501.381 356.91 501.336 356.501C501.289 356.092 501.008 355.748 500.618 355.626L488.194 351.706L490.8 338.883C490.881 338.479 490.72 338.064 490.386 337.827C490.051 337.588 489.608 337.57 489.256 337.779L483.887 340.96C483.633 341.11 483.457 341.362 483.395 341.65L480.603 355.394C480.497 355.916 480.803 356.436 481.307 356.594Z" fill="#01AA89"/>
<path d="M206.153 285.173L220.008 286.855C220.302 286.891 220.564 287.048 220.733 287.29L224.304 292.405C224.539 292.741 224.555 293.185 224.345 293.539C224.133 293.893 223.735 294.089 223.33 294.039L210.401 292.471L207.471 305.22C207.378 305.621 207.06 305.932 206.658 306.01C206.254 306.089 205.843 305.922 205.609 305.587L202.037 300.471C201.868 300.229 201.812 299.928 201.875 299.639L205.016 285.975C205.135 285.456 205.628 285.108 206.153 285.173Z" fill="#01AA89"/>
<path d="M200.553 273.002L214.24 275.729C214.531 275.788 214.78 275.964 214.93 276.218L218.103 281.59C218.312 281.942 218.294 282.386 218.058 282.723C217.82 283.059 217.408 283.225 217.008 283.145L204.235 280.6L200.347 293.09C200.224 293.483 199.884 293.769 199.477 293.816C199.068 293.864 198.671 293.667 198.463 293.314L195.29 287.943C195.14 287.689 195.107 287.384 195.191 287.101L199.359 273.715C199.517 273.206 200.035 272.897 200.553 273.002Z" fill="#01AA89"/>
<path d="M213.409 296.093L227.329 297.101C227.625 297.123 227.894 297.267 228.075 297.501L231.89 302.437C232.14 302.761 232.178 303.204 231.986 303.568C231.791 303.931 231.403 304.147 230.995 304.116L218.005 303.176L215.696 316.053C215.623 316.458 215.32 316.784 214.922 316.881C214.522 316.979 214.105 316.833 213.854 316.509L210.039 311.572C209.858 311.339 209.788 311.04 209.836 310.749L212.312 296.948C212.406 296.424 212.881 296.053 213.409 296.093Z" fill="#01AA89"/>
<path d="M221.909 306.767L235.865 306.596C236.162 306.593 236.442 306.714 236.642 306.931L240.861 311.528C241.138 311.83 241.212 312.268 241.052 312.647C240.888 313.025 240.52 313.273 240.111 313.277L227.087 313.437L225.874 326.464C225.836 326.874 225.562 327.224 225.173 327.355C224.783 327.486 224.354 327.376 224.077 327.074L219.858 322.477C219.659 322.26 219.563 321.968 219.587 321.674L220.888 307.713C220.937 307.182 221.38 306.773 221.909 306.767Z" fill="#01AA89"/>
<path d="M230.699 316.214L244.63 315.338C244.926 315.321 245.212 315.427 245.422 315.634L249.868 320.012C250.16 320.3 250.256 320.734 250.115 321.12C249.97 321.506 249.615 321.772 249.207 321.796L236.208 322.614L235.654 335.686C235.636 336.097 235.38 336.461 234.998 336.611C234.615 336.762 234.182 336.673 233.89 336.386L229.444 332.008C229.234 331.801 229.124 331.514 229.133 331.219L229.727 317.21C229.75 316.677 230.171 316.246 230.699 316.214Z" fill="#01AA89"/>
<path d="M240.584 325.65L254.406 323.696C254.7 323.655 254.993 323.739 255.219 323.929L259.991 327.949C260.304 328.213 260.434 328.638 260.323 329.034C260.209 329.43 259.876 329.723 259.471 329.779L246.574 331.604L247.036 344.68C247.05 345.091 246.823 345.474 246.454 345.653C246.084 345.833 245.645 345.778 245.332 345.515L240.559 341.495C240.334 341.304 240.202 341.027 240.188 340.733L239.693 326.718C239.674 326.186 240.06 325.723 240.584 325.65Z" fill="#01AA89"/>
<path d="M250.721 333.86L264.315 330.684C264.604 330.618 264.904 330.675 265.146 330.844L270.257 334.424C270.592 334.659 270.76 335.071 270.684 335.475C270.606 335.88 270.3 336.201 269.902 336.293L257.217 339.258L258.84 352.241C258.891 352.65 258.699 353.051 258.347 353.262C257.995 353.475 257.552 353.46 257.217 353.225L252.106 349.645C251.864 349.475 251.708 349.211 251.668 348.919L249.928 335.004C249.862 334.475 250.206 333.979 250.721 333.86Z" fill="#01AA89"/>
<path d="M262.183 340.279L275.645 336.582C275.932 336.504 276.233 336.55 276.481 336.71L281.726 340.09C282.071 340.312 282.254 340.718 282.194 341.124C282.132 341.532 281.838 341.865 281.444 341.972L268.882 345.422L271.004 358.334C271.07 358.741 270.894 359.149 270.551 359.373C270.206 359.6 269.764 359.601 269.419 359.379L264.174 355.999C263.926 355.839 263.76 355.581 263.708 355.29L261.435 341.452C261.349 340.926 261.673 340.417 262.183 340.279Z" fill="#01AA89"/>
<path d="M272.645 346.654L285.959 342.453C286.242 342.365 286.545 342.4 286.799 342.55L292.168 345.731C292.52 345.94 292.719 346.338 292.674 346.747C292.627 347.157 292.346 347.5 291.956 347.622L279.532 351.542L282.138 364.365C282.219 364.769 282.058 365.184 281.724 365.421C281.388 365.66 280.946 365.678 280.594 365.469L275.225 362.288C274.971 362.138 274.795 361.886 274.733 361.598L271.941 347.854C271.835 347.332 272.14 346.812 272.645 346.654Z" fill="#01AA89"/>
<path d="M214.838 168.97L200.982 170.651C200.688 170.688 200.426 170.845 200.257 171.087L196.686 176.202C196.451 176.538 196.435 176.982 196.645 177.336C196.857 177.689 197.255 177.886 197.66 177.836L210.59 176.267L213.519 189.017C213.612 189.418 213.93 189.729 214.333 189.806C214.737 189.885 215.147 189.719 215.381 189.383L218.953 184.268C219.122 184.026 219.178 183.724 219.115 183.436L215.975 169.772C215.855 169.252 215.362 168.905 214.838 168.97Z" fill="#01AA89"/>
<path d="M208.081 180.525L194.393 183.253C194.103 183.312 193.854 183.488 193.704 183.742L190.53 189.113C190.322 189.466 190.34 189.91 190.576 190.247C190.814 190.583 191.226 190.749 191.626 190.668L204.399 188.124L208.286 200.614C208.409 201.007 208.75 201.293 209.157 201.339C209.566 201.387 209.962 201.191 210.171 200.838L213.344 195.467C213.494 195.212 213.527 194.907 213.443 194.625L209.275 181.239C209.117 180.73 208.599 180.421 208.081 180.525Z" fill="#01AA89"/>
<path d="M222.799 158.488L208.879 159.496C208.583 159.519 208.314 159.662 208.133 159.896L204.318 164.832C204.068 165.157 204.03 165.599 204.222 165.963C204.417 166.326 204.805 166.542 205.213 166.511L218.203 165.571L220.512 178.448C220.585 178.853 220.888 179.179 221.286 179.276C221.686 179.374 222.103 179.228 222.354 178.904L226.169 173.968C226.35 173.734 226.42 173.436 226.372 173.145L223.896 159.344C223.802 158.819 223.327 158.448 222.799 158.488Z" fill="#01AA89"/>
<path d="M232.482 148.656L218.525 148.485C218.228 148.482 217.949 148.603 217.749 148.82L213.53 153.417C213.253 153.719 213.178 154.157 213.339 154.536C213.503 154.914 213.871 155.162 214.279 155.166L227.303 155.326L228.516 168.353C228.555 168.763 228.829 169.113 229.218 169.244C229.608 169.375 230.036 169.265 230.313 168.963L234.532 164.366C234.732 164.149 234.827 163.857 234.804 163.563L233.503 149.602C233.453 149.071 233.011 148.661 232.482 148.656Z" fill="#01AA89"/>
<path d="M241.949 139.759L228.018 138.884C227.721 138.866 227.436 138.972 227.225 139.179L222.78 143.557C222.488 143.845 222.391 144.279 222.533 144.665C222.677 145.051 223.032 145.317 223.44 145.342L236.44 146.159L236.994 159.231C237.011 159.642 237.268 160.006 237.649 160.156C238.032 160.307 238.466 160.219 238.758 159.931L243.203 155.553C243.414 155.346 243.524 155.059 243.515 154.764L242.92 140.755C242.898 140.222 242.476 139.791 241.949 139.759Z" fill="#01AA89"/>
<path d="M252.809 131.236L238.988 129.282C238.694 129.241 238.401 129.325 238.175 129.515L233.403 133.535C233.089 133.799 232.959 134.224 233.07 134.62C233.184 135.016 233.518 135.309 233.922 135.365L246.82 137.19L246.357 150.266C246.343 150.677 246.57 151.06 246.939 151.239C247.309 151.419 247.749 151.364 248.062 151.1L252.834 147.08C253.06 146.89 253.192 146.613 253.206 146.319L253.701 132.304C253.72 131.772 253.333 131.309 252.809 131.236Z" fill="#01AA89"/>
<path d="M263.98 124.16L250.386 120.984C250.097 120.917 249.798 120.975 249.556 121.144L244.445 124.724C244.109 124.959 243.942 125.371 244.017 125.775C244.095 126.18 244.402 126.501 244.799 126.593L257.484 129.557L255.861 142.541C255.81 142.95 256.002 143.351 256.354 143.562C256.706 143.775 257.149 143.759 257.484 143.524L262.595 139.944C262.837 139.775 262.993 139.511 263.034 139.219L264.773 125.303C264.839 124.774 264.495 124.279 263.98 124.16Z" fill="#01AA89"/>
<path d="M275.851 118.26L262.389 114.563C262.102 114.486 261.801 114.531 261.553 114.691L256.308 118.072C255.963 118.294 255.78 118.699 255.84 119.106C255.903 119.513 256.196 119.846 256.59 119.954L269.152 123.404L267.03 136.316C266.964 136.722 267.141 137.13 267.484 137.355C267.828 137.581 268.271 137.583 268.615 137.361L273.86 133.98C274.108 133.82 274.274 133.562 274.326 133.272L276.599 119.433C276.686 118.907 276.361 118.399 275.851 118.26Z" fill="#01AA89"/>
<path d="M286.693 112.406L273.379 108.205C273.096 108.117 272.794 108.151 272.54 108.302L267.171 111.483C266.819 111.692 266.62 112.09 266.665 112.499C266.712 112.908 266.992 113.252 267.382 113.374L279.806 117.294L277.201 130.117C277.12 130.521 277.281 130.936 277.615 131.173C277.95 131.412 278.392 131.43 278.744 131.221L284.114 128.04C284.368 127.89 284.544 127.638 284.606 127.35L287.398 113.606C287.504 113.084 287.197 112.564 286.693 112.406Z" fill="#01AA89"/>
<path d="M561.847 183.827L547.992 182.145C547.698 182.109 547.436 181.952 547.267 181.71L543.696 176.595C543.461 176.259 543.445 175.815 543.655 175.461C543.867 175.107 544.265 174.911 544.67 174.961L557.599 176.529L560.529 163.78C560.622 163.379 560.94 163.068 561.342 162.99C561.746 162.911 562.157 163.078 562.391 163.413L565.963 168.529C566.132 168.771 566.188 169.072 566.125 169.361L562.984 183.025C562.865 183.544 562.372 183.892 561.847 183.827Z" fill="#01AA89"/>
<path d="M567.446 195.998L553.759 193.271C553.468 193.212 553.219 193.036 553.069 192.782L549.896 187.41C549.687 187.058 549.705 186.614 549.941 186.277C550.179 185.941 550.591 185.775 550.991 185.855L563.764 188.4L567.652 175.91C567.775 175.517 568.115 175.231 568.522 175.184C568.931 175.136 569.328 175.333 569.536 175.686L572.709 181.057C572.859 181.311 572.892 181.616 572.808 181.899L568.64 195.285C568.482 195.794 567.964 196.103 567.446 195.998Z" fill="#01AA89"/>
<path d="M554.591 172.907L540.671 171.899C540.375 171.877 540.106 171.733 539.925 171.499L536.11 166.563C535.86 166.239 535.822 165.796 536.014 165.432C536.209 165.069 536.597 164.853 537.005 164.884L549.995 165.824L552.304 152.947C552.377 152.542 552.68 152.216 553.078 152.119C553.478 152.021 553.895 152.167 554.146 152.491L557.961 157.428C558.142 157.661 558.212 157.96 558.164 158.251L555.688 172.052C555.594 172.576 555.119 172.947 554.591 172.907Z" fill="#01AA89"/>
<path d="M546.091 162.233L532.135 162.404C531.838 162.407 531.558 162.286 531.358 162.069L527.139 157.472C526.862 157.17 526.788 156.732 526.948 156.353C527.112 155.975 527.48 155.727 527.889 155.723L540.913 155.563L542.126 142.536C542.164 142.126 542.438 141.776 542.827 141.645C543.217 141.514 543.646 141.624 543.923 141.926L548.142 146.523C548.341 146.74 548.437 147.032 548.413 147.326L547.112 161.287C547.063 161.818 546.62 162.227 546.091 162.233Z" fill="#01AA89"/>
<path d="M537.299 152.786L523.368 153.662C523.072 153.679 522.786 153.573 522.576 153.366L518.13 148.988C517.838 148.7 517.742 148.266 517.883 147.88C518.028 147.494 518.383 147.228 518.791 147.204L531.79 146.386L532.344 133.314C532.362 132.903 532.618 132.539 533 132.389C533.383 132.238 533.816 132.327 534.108 132.614L538.554 136.992C538.764 137.199 538.874 137.486 538.865 137.781L538.271 151.79C538.248 152.323 537.827 152.754 537.299 152.786Z" fill="#01AA89"/>
<path d="M527.416 143.35L513.594 145.304C513.3 145.345 513.007 145.261 512.781 145.071L508.009 141.051C507.696 140.787 507.566 140.362 507.677 139.966C507.791 139.57 508.124 139.277 508.529 139.221L521.426 137.396L520.964 124.32C520.95 123.909 521.177 123.526 521.546 123.347C521.916 123.167 522.355 123.222 522.668 123.485L527.441 127.505C527.666 127.696 527.798 127.973 527.812 128.267L528.307 142.282C528.326 142.814 527.94 143.277 527.416 143.35Z" fill="#01AA89"/>
<path d="M517.279 135.14L503.685 138.316C503.396 138.382 503.096 138.325 502.854 138.156L497.743 134.576C497.408 134.341 497.24 133.929 497.316 133.525C497.394 133.12 497.7 132.799 498.098 132.707L510.783 129.742L509.16 116.759C509.109 116.35 509.301 115.949 509.653 115.738C510.005 115.525 510.448 115.54 510.783 115.775L515.894 119.355C516.136 119.525 516.292 119.789 516.332 120.081L518.072 133.996C518.138 134.525 517.794 135.021 517.279 135.14Z" fill="#01AA89"/>
<path d="M505.816 128.721L492.354 132.418C492.067 132.496 491.766 132.45 491.518 132.29L486.273 128.91C485.928 128.688 485.745 128.282 485.805 127.876C485.867 127.468 486.161 127.135 486.555 127.028L499.117 123.578L496.995 110.666C496.929 110.259 497.105 109.851 497.448 109.627C497.793 109.4 498.235 109.399 498.58 109.621L503.825 113.001C504.073 113.161 504.239 113.419 504.291 113.71L506.564 127.548C506.65 128.074 506.326 128.583 505.816 128.721Z" fill="#01AA89"/>
<path d="M495.355 122.346L482.041 126.547C481.758 126.635 481.455 126.6 481.201 126.45L475.832 123.269C475.48 123.06 475.281 122.662 475.326 122.253C475.373 121.843 475.654 121.5 476.044 121.378L488.468 117.458L485.862 104.635C485.781 104.231 485.942 103.816 486.276 103.579C486.612 103.34 487.054 103.322 487.406 103.531L492.775 106.712C493.029 106.862 493.205 107.114 493.267 107.402L496.059 121.146C496.165 121.668 495.86 122.188 495.355 122.346Z" fill="#01AA89"/>
<path d="M553.161 809.03L567.017 807.349C567.311 807.312 567.573 807.156 567.742 806.914L571.314 801.798C571.549 801.462 571.564 801.018 571.354 800.664C571.142 800.311 570.745 800.115 570.34 800.165L557.409 801.733L554.481 788.983C554.388 788.582 554.069 788.271 553.666 788.194C553.262 788.115 552.853 788.281 552.619 788.617L549.046 793.732C548.877 793.974 548.822 794.276 548.885 794.564L552.025 808.229C552.145 808.748 552.637 809.095 553.161 809.03Z" fill="#01AA89"/>
<path d="M559.915 797.474L573.603 794.747C573.893 794.688 574.142 794.512 574.293 794.258L577.466 788.886C577.674 788.534 577.656 788.09 577.421 787.753C577.182 787.417 576.77 787.251 576.37 787.331L563.598 789.876L559.71 777.386C559.587 776.993 559.246 776.707 558.839 776.66C558.43 776.612 558.034 776.809 557.825 777.162L554.652 782.533C554.502 782.787 554.469 783.092 554.553 783.375L558.721 796.761C558.879 797.27 559.397 797.579 559.915 797.474Z" fill="#01AA89"/>
<path d="M545.201 819.512L559.121 818.504C559.417 818.481 559.686 818.337 559.867 818.104L563.682 813.167C563.932 812.843 563.97 812.4 563.778 812.037C563.583 811.674 563.195 811.458 562.787 811.488L549.797 812.429L547.488 799.552C547.415 799.146 547.112 798.821 546.714 798.724C546.314 798.625 545.897 798.771 545.646 799.096L541.831 804.032C541.65 804.266 541.58 804.564 541.628 804.855L544.104 818.656C544.198 819.181 544.673 819.552 545.201 819.512Z" fill="#01AA89"/>
<path d="M535.518 829.344L549.475 829.515C549.772 829.518 550.051 829.397 550.251 829.18L554.47 824.583C554.747 824.281 554.822 823.843 554.661 823.464C554.497 823.086 554.129 822.838 553.721 822.834L540.697 822.674L539.484 809.647C539.445 809.237 539.171 808.887 538.782 808.756C538.392 808.625 537.964 808.735 537.687 809.037L533.468 813.634C533.268 813.851 533.173 814.143 533.196 814.437L534.497 828.398C534.547 828.929 534.989 829.339 535.518 829.344Z" fill="#01AA89"/>
<path d="M526.051 838.241L539.982 839.116C540.279 839.134 540.564 839.028 540.775 838.82L545.22 834.442C545.512 834.155 545.609 833.721 545.467 833.335C545.323 832.949 544.968 832.683 544.56 832.658L531.56 831.841L531.006 818.769C530.989 818.357 530.732 817.994 530.351 817.844C529.968 817.693 529.534 817.781 529.242 818.069L524.797 822.447C524.586 822.654 524.476 822.94 524.485 823.235L525.08 837.245C525.102 837.777 525.524 838.209 526.051 838.241Z" fill="#01AA89"/>
<path d="M515.19 846.764L529.012 848.718C529.306 848.759 529.599 848.675 529.825 848.485L534.596 844.465C534.91 844.201 535.041 843.776 534.93 843.38C534.816 842.983 534.482 842.691 534.078 842.634L521.18 840.81L521.643 827.734C521.657 827.323 521.429 826.94 521.06 826.761C520.69 826.581 520.25 826.635 519.937 826.899L515.166 830.919C514.94 831.11 514.808 831.387 514.794 831.681L514.299 845.695C514.28 846.228 514.666 846.691 515.19 846.764Z" fill="#01AA89"/>
<path d="M504.02 853.84L517.614 857.016C517.903 857.083 518.202 857.026 518.444 856.856L523.555 853.276C523.891 853.041 524.058 852.63 523.983 852.225C523.905 851.82 523.598 851.499 523.201 851.407L510.516 848.443L512.139 835.459C512.19 835.051 511.998 834.649 511.646 834.438C511.294 834.226 510.851 834.241 510.516 834.476L505.405 838.056C505.163 838.225 505.007 838.489 504.966 838.782L503.227 852.697C503.161 853.226 503.505 853.721 504.02 853.84Z" fill="#01AA89"/>
<path d="M492.149 859.74L505.611 863.437C505.898 863.515 506.199 863.469 506.447 863.309L511.692 859.928C512.037 859.706 512.22 859.301 512.16 858.894C512.097 858.487 511.804 858.154 511.41 858.047L498.848 854.596L500.97 841.685C501.036 841.278 500.859 840.87 500.516 840.645C500.172 840.419 499.729 840.418 499.385 840.64L494.14 844.02C493.892 844.18 493.726 844.438 493.674 844.729L491.401 858.567C491.314 859.093 491.639 859.601 492.149 859.74Z" fill="#01AA89"/>
<path d="M481.307 865.594L494.621 869.794C494.904 869.883 495.207 869.848 495.461 869.698L500.83 866.517C501.182 866.308 501.381 865.91 501.336 865.501C501.289 865.091 501.008 864.748 500.618 864.626L488.194 860.706L490.8 847.882C490.881 847.479 490.72 847.064 490.386 846.827C490.051 846.588 489.608 846.57 489.256 846.778L483.887 849.96C483.633 850.11 483.457 850.362 483.395 850.65L480.603 864.394C480.497 864.916 480.803 865.436 481.307 865.594Z" fill="#01AA89"/>
<path d="M206.153 794.173L220.008 795.855C220.302 795.891 220.564 796.048 220.733 796.29L224.304 801.405C224.539 801.741 224.555 802.185 224.345 802.539C224.133 802.893 223.735 803.089 223.33 803.039L210.401 801.471L207.471 814.22C207.378 814.621 207.06 814.932 206.658 815.01C206.254 815.089 205.843 814.922 205.609 814.587L202.037 809.471C201.868 809.229 201.812 808.928 201.875 808.639L205.016 794.975C205.135 794.456 205.628 794.108 206.153 794.173Z" fill="#01AA89"/>
<path d="M200.549 782.002L214.236 784.729C214.527 784.788 214.776 784.964 214.926 785.218L218.099 790.59C218.308 790.942 218.29 791.386 218.054 791.723C217.816 792.059 217.404 792.225 217.004 792.145L204.231 789.6L200.343 802.09C200.221 802.483 199.88 802.769 199.473 802.816C199.064 802.864 198.667 802.667 198.459 802.314L195.286 796.943C195.136 796.689 195.103 796.384 195.187 796.101L199.355 782.715C199.513 782.206 200.031 781.897 200.549 782.002Z" fill="#01AA89"/>
<path d="M213.409 805.093L227.329 806.101C227.625 806.123 227.894 806.267 228.075 806.501L231.89 811.437C232.14 811.761 232.178 812.204 231.986 812.568C231.791 812.931 231.403 813.147 230.995 813.116L218.005 812.176L215.696 825.053C215.623 825.458 215.32 825.784 214.922 825.881C214.522 825.979 214.105 825.833 213.854 825.509L210.039 820.572C209.858 820.339 209.788 820.04 209.836 819.749L212.312 805.948C212.406 805.424 212.881 805.053 213.409 805.093Z" fill="#01AA89"/>
<path d="M221.909 815.768L235.865 815.596C236.162 815.594 236.442 815.714 236.642 815.932L240.861 820.528C241.138 820.83 241.212 821.268 241.052 821.647C240.888 822.025 240.52 822.273 240.111 822.277L227.087 822.438L225.874 835.464C225.836 835.874 225.562 836.225 225.173 836.355C224.783 836.487 224.354 836.376 224.077 836.074L219.858 831.478C219.659 831.26 219.563 830.969 219.587 830.675L220.888 816.713C220.937 816.183 221.38 815.773 221.909 815.768Z" fill="#01AA89"/>
<path d="M230.7 825.214L244.631 824.338C244.927 824.321 245.213 824.427 245.423 824.634L249.869 829.012C250.161 829.3 250.257 829.734 250.116 830.12C249.971 830.506 249.616 830.772 249.208 830.796L236.209 831.614L235.655 844.686C235.637 845.097 235.381 845.461 234.999 845.611C234.616 845.762 234.183 845.673 233.891 845.386L229.445 841.008C229.235 840.801 229.125 840.514 229.134 840.219L229.728 826.21C229.751 825.677 230.172 825.246 230.7 825.214Z" fill="#01AA89"/>
<path d="M240.584 834.65L254.406 832.696C254.7 832.655 254.993 832.739 255.219 832.929L259.991 836.949C260.304 837.213 260.434 837.638 260.323 838.034C260.209 838.431 259.876 838.723 259.471 838.78L246.574 840.604L247.036 853.68C247.05 854.091 246.823 854.474 246.454 854.653C246.084 854.833 245.645 854.779 245.332 854.515L240.559 850.495C240.334 850.305 240.202 850.028 240.188 849.733L239.693 835.719C239.674 835.186 240.06 834.723 240.584 834.65Z" fill="#01AA89"/>
<path d="M250.721 842.86L264.315 839.684C264.604 839.618 264.904 839.675 265.146 839.844L270.257 843.424C270.592 843.659 270.76 844.071 270.684 844.475C270.606 844.88 270.3 845.201 269.902 845.293L257.217 848.258L258.84 861.241C258.891 861.65 258.699 862.051 258.347 862.262C257.995 862.475 257.552 862.46 257.217 862.225L252.106 858.645C251.864 858.475 251.708 858.211 251.668 857.919L249.928 844.004C249.862 843.475 250.206 842.979 250.721 842.86Z" fill="#01AA89"/>
<path d="M262.183 849.278L275.645 845.582C275.932 845.504 276.233 845.55 276.481 845.71L281.726 849.09C282.071 849.312 282.254 849.717 282.194 850.124C282.132 850.532 281.838 850.865 281.444 850.972L268.882 854.422L271.004 867.334C271.07 867.741 270.894 868.149 270.551 868.373C270.206 868.599 269.764 868.601 269.419 868.379L264.174 864.998C263.926 864.838 263.76 864.581 263.708 864.29L261.435 850.452C261.349 849.926 261.673 849.417 262.183 849.278Z" fill="#01AA89"/>
<path d="M272.645 855.653L285.959 851.453C286.242 851.365 286.545 851.399 286.799 851.55L292.168 854.731C292.52 854.94 292.719 855.338 292.674 855.747C292.627 856.156 292.346 856.5 291.956 856.622L279.532 860.542L282.138 873.365C282.219 873.769 282.058 874.184 281.724 874.421C281.388 874.66 280.946 874.678 280.594 874.469L275.225 871.288C274.971 871.137 274.795 870.886 274.733 870.597L271.941 856.854C271.835 856.332 272.14 855.811 272.645 855.653Z" fill="#01AA89"/>
<path d="M214.838 677.97L200.982 679.651C200.688 679.688 200.426 679.844 200.257 680.086L196.686 685.202C196.451 685.538 196.435 685.982 196.645 686.336C196.857 686.689 197.255 686.885 197.66 686.835L210.59 685.267L213.519 698.017C213.612 698.418 213.93 698.729 214.333 698.806C214.737 698.885 215.147 698.719 215.381 698.383L218.953 693.268C219.122 693.026 219.178 692.724 219.115 692.436L215.975 678.771C215.855 678.252 215.362 677.905 214.838 677.97Z" fill="#01AA89"/>
<path d="M208.085 689.526L194.397 692.253C194.107 692.312 193.858 692.488 193.707 692.742L190.534 698.114C190.326 698.466 190.344 698.91 190.579 699.247C190.818 699.583 191.23 699.749 191.63 699.669L204.402 697.124L208.29 709.614C208.413 710.007 208.754 710.293 209.161 710.34C209.57 710.388 209.966 710.191 210.175 709.838L213.348 704.467C213.498 704.213 213.531 703.908 213.447 703.625L209.279 690.239C209.121 689.73 208.603 689.421 208.085 689.526Z" fill="#01AA89"/>
<path d="M222.799 667.488L208.879 668.496C208.583 668.519 208.314 668.663 208.133 668.896L204.318 673.833C204.068 674.157 204.03 674.6 204.222 674.963C204.417 675.326 204.805 675.542 205.213 675.512L218.203 674.571L220.512 687.448C220.585 687.854 220.888 688.179 221.286 688.276C221.686 688.375 222.103 688.229 222.354 687.904L226.169 682.968C226.35 682.734 226.42 682.436 226.372 682.145L223.896 668.344C223.802 667.819 223.327 667.448 222.799 667.488Z" fill="#01AA89"/>
<path d="M232.482 657.656L218.525 657.485C218.228 657.482 217.949 657.603 217.749 657.82L213.53 662.417C213.253 662.719 213.178 663.157 213.339 663.536C213.503 663.914 213.871 664.162 214.279 664.166L227.303 664.326L228.516 677.353C228.555 677.763 228.829 678.113 229.218 678.244C229.608 678.375 230.036 678.265 230.313 677.963L234.532 673.366C234.732 673.149 234.827 672.857 234.804 672.563L233.503 658.602C233.453 658.071 233.011 657.661 232.482 657.656Z" fill="#01AA89"/>
<path d="M241.949 648.759L228.018 647.884C227.721 647.866 227.436 647.972 227.225 648.179L222.78 652.557C222.488 652.845 222.391 653.279 222.533 653.665C222.677 654.051 223.032 654.317 223.44 654.342L236.44 655.159L236.994 668.231C237.011 668.642 237.268 669.006 237.649 669.156C238.032 669.307 238.466 669.219 238.758 668.931L243.203 664.553C243.414 664.346 243.524 664.059 243.515 663.764L242.92 649.755C242.898 649.222 242.476 648.791 241.949 648.759Z" fill="#01AA89"/>
<path d="M252.809 640.236L238.988 638.282C238.694 638.241 238.401 638.325 238.175 638.515L233.403 642.535C233.089 642.799 232.959 643.224 233.07 643.62C233.184 644.016 233.518 644.309 233.922 644.365L246.82 646.19L246.357 659.266C246.343 659.677 246.57 660.06 246.939 660.239C247.309 660.419 247.749 660.364 248.062 660.1L252.834 656.08C253.06 655.89 253.192 655.613 253.206 655.319L253.701 641.304C253.72 640.772 253.333 640.309 252.809 640.236Z" fill="#01AA89"/>
<path d="M263.98 633.16L250.386 629.984C250.097 629.917 249.798 629.975 249.556 630.144L244.445 633.724C244.109 633.959 243.942 634.371 244.017 634.775C244.095 635.18 244.402 635.501 244.799 635.593L257.484 638.557L255.861 651.541C255.81 651.95 256.002 652.351 256.354 652.562C256.706 652.775 257.149 652.759 257.484 652.524L262.595 648.944C262.837 648.775 262.993 648.511 263.034 648.219L264.773 634.303C264.839 633.774 264.495 633.279 263.98 633.16Z" fill="#01AA89"/>
<path d="M275.851 627.26L262.389 623.563C262.102 623.486 261.801 623.531 261.553 623.691L256.308 627.072C255.963 627.294 255.78 627.699 255.84 628.106C255.903 628.513 256.196 628.846 256.59 628.954L269.152 632.404L267.03 645.316C266.964 645.722 267.141 646.13 267.484 646.355C267.828 646.581 268.271 646.583 268.615 646.361L273.86 642.98C274.108 642.82 274.274 642.562 274.326 642.272L276.599 628.433C276.686 627.907 276.361 627.399 275.851 627.26Z" fill="#01AA89"/>
<path d="M286.693 621.406L273.379 617.206C273.096 617.117 272.794 617.152 272.54 617.302L267.171 620.483C266.819 620.692 266.62 621.09 266.665 621.499C266.712 621.909 266.992 622.252 267.382 622.374L279.806 626.294L277.201 639.118C277.12 639.521 277.281 639.936 277.615 640.173C277.95 640.412 278.392 640.43 278.744 640.222L284.114 637.04C284.368 636.89 284.544 636.638 284.606 636.35L287.398 622.606C287.504 622.084 287.197 621.564 286.693 621.406Z" fill="#01AA89"/>
<path d="M561.847 692.827L547.992 691.145C547.698 691.109 547.436 690.952 547.267 690.71L543.696 685.595C543.461 685.259 543.445 684.815 543.655 684.461C543.867 684.107 544.265 683.911 544.67 683.961L557.599 685.529L560.529 672.78C560.622 672.379 560.94 672.068 561.342 671.99C561.746 671.911 562.157 672.078 562.391 672.413L565.963 677.529C566.132 677.771 566.188 678.072 566.125 678.361L562.984 692.025C562.865 692.544 562.372 692.892 561.847 692.827Z" fill="#01AA89"/>
<path d="M567.451 704.998L553.764 702.271C553.473 702.212 553.224 702.036 553.074 701.782L549.901 696.41C549.692 696.058 549.71 695.614 549.946 695.277C550.184 694.941 550.596 694.775 550.996 694.855L563.769 697.4L567.657 684.91C567.779 684.517 568.12 684.231 568.527 684.184C568.936 684.136 569.333 684.333 569.541 684.686L572.714 690.057C572.864 690.311 572.897 690.616 572.813 690.899L568.645 704.285C568.487 704.794 567.969 705.103 567.451 704.998Z" fill="#01AA89"/>
<path d="M554.591 681.907L540.671 680.899C540.375 680.877 540.106 680.733 539.925 680.499L536.11 675.563C535.86 675.239 535.822 674.796 536.014 674.432C536.209 674.069 536.597 673.853 537.005 673.884L549.995 674.824L552.304 661.947C552.377 661.542 552.68 661.216 553.078 661.119C553.478 661.021 553.895 661.167 554.146 661.491L557.961 666.428C558.142 666.661 558.212 666.96 558.164 667.251L555.688 681.052C555.594 681.576 555.119 681.947 554.591 681.907Z" fill="#01AA89"/>
<path d="M546.091 671.232L532.135 671.404C531.838 671.406 531.558 671.286 531.358 671.068L527.139 666.472C526.862 666.17 526.788 665.732 526.948 665.353C527.112 664.975 527.48 664.727 527.889 664.723L540.913 664.562L542.126 651.536C542.164 651.126 542.438 650.775 542.827 650.645C543.217 650.513 543.646 650.624 543.923 650.926L548.142 655.522C548.341 655.74 548.437 656.031 548.413 656.325L547.112 670.287C547.063 670.817 546.62 671.227 546.091 671.232Z" fill="#01AA89"/>
<path d="M537.299 661.786L523.368 662.662C523.072 662.679 522.786 662.573 522.576 662.366L518.13 657.988C517.838 657.7 517.742 657.266 517.883 656.88C518.028 656.494 518.383 656.228 518.791 656.204L531.79 655.386L532.344 642.314C532.362 641.903 532.618 641.539 533 641.389C533.383 641.238 533.816 641.327 534.108 641.614L538.554 645.992C538.764 646.199 538.874 646.486 538.865 646.781L538.271 660.79C538.248 661.323 537.827 661.754 537.299 661.786Z" fill="#01AA89"/>
<path d="M527.416 652.35L513.594 654.304C513.3 654.345 513.007 654.261 512.781 654.071L508.009 650.051C507.696 649.787 507.566 649.362 507.677 648.966C507.791 648.569 508.124 648.277 508.529 648.22L521.426 646.396L520.964 633.32C520.95 632.909 521.177 632.526 521.546 632.347C521.916 632.167 522.355 632.221 522.668 632.485L527.441 636.505C527.666 636.695 527.798 636.972 527.812 637.267L528.307 651.281C528.326 651.814 527.94 652.277 527.416 652.35Z" fill="#01AA89"/>
<path d="M517.279 644.14L503.685 647.316C503.396 647.382 503.096 647.325 502.854 647.156L497.743 643.576C497.408 643.341 497.24 642.929 497.316 642.525C497.394 642.12 497.7 641.799 498.098 641.707L510.783 638.742L509.16 625.759C509.109 625.35 509.301 624.949 509.653 624.738C510.005 624.525 510.448 624.54 510.783 624.775L515.894 628.355C516.136 628.525 516.292 628.789 516.332 629.081L518.072 642.996C518.138 643.525 517.794 644.021 517.279 644.14Z" fill="#01AA89"/>
<path d="M505.816 637.722L492.354 641.418C492.067 641.496 491.766 641.45 491.518 641.29L486.273 637.91C485.928 637.688 485.745 637.283 485.805 636.876C485.867 636.468 486.161 636.135 486.555 636.028L499.117 632.578L496.995 619.666C496.929 619.259 497.105 618.851 497.448 618.627C497.793 618.401 498.235 618.399 498.58 618.621L503.825 622.002C504.073 622.162 504.239 622.419 504.291 622.71L506.564 636.548C506.65 637.074 506.326 637.583 505.816 637.722Z" fill="#01AA89"/>
<path d="M495.355 631.347L482.041 635.547C481.758 635.635 481.455 635.601 481.201 635.45L475.832 632.269C475.48 632.06 475.281 631.662 475.326 631.253C475.373 630.844 475.654 630.5 476.044 630.378L488.468 626.458L485.862 613.635C485.781 613.231 485.942 612.816 486.276 612.579C486.612 612.34 487.054 612.322 487.406 612.531L492.775 615.712C493.029 615.863 493.205 616.114 493.267 616.403L496.059 630.146C496.165 630.668 495.86 631.189 495.355 631.347Z" fill="#01AA89"/>
<path d="M479.144 836C485.906 847.713 489.287 853.569 489.287 860C489.287 866.431 485.906 872.287 479.144 884L452.356 930.397C445.594 942.11 442.213 947.966 436.644 951.181C431.074 954.397 424.312 954.397 410.787 954.397H357.213C343.688 954.397 336.926 954.397 331.356 951.181C325.787 947.966 322.406 942.11 315.644 930.397L288.856 884C282.094 872.287 278.713 866.431 278.713 860C278.713 853.569 282.094 847.713 288.856 836L315.644 789.603C322.406 777.89 325.787 772.034 331.356 768.819C336.926 765.603 343.688 765.603 357.213 765.603H410.787C424.312 765.603 431.074 765.603 436.644 768.819C442.213 772.034 445.594 777.89 452.356 789.603L479.144 836Z" fill="#D3D3D3" fill-opacity="0.12"/>
<path d="M348.285 912.914H351.967C352.835 912.914 353.502 912.979 353.969 913.11C354.445 913.231 354.781 913.432 354.977 913.712C355.173 913.983 355.271 914.365 355.271 914.86V915.98C355.271 916.232 355.168 916.47 354.963 916.694C354.767 916.918 354.533 917.072 354.263 917.156V917.226C354.617 917.263 354.939 917.417 355.229 917.688C355.527 917.949 355.677 918.243 355.677 918.57V919.97C355.677 920.707 355.383 921.23 354.795 921.538C354.207 921.846 353.297 922 352.065 922H348.285V912.914ZM351.967 916.61C352.312 916.61 352.569 916.582 352.737 916.526C352.905 916.47 353.017 916.381 353.073 916.26C353.138 916.129 353.171 915.943 353.171 915.7V915.252C353.171 915.037 353.143 914.879 353.087 914.776C353.031 914.664 352.914 914.585 352.737 914.538C352.569 914.491 352.298 914.468 351.925 914.468H350.469V916.61H351.967ZM352.023 920.446C352.555 920.446 352.933 920.385 353.157 920.264C353.381 920.143 353.493 919.947 353.493 919.676V918.948C353.493 918.612 353.404 918.374 353.227 918.234C353.059 918.094 352.755 918.024 352.317 918.024H350.469V920.446H352.023ZM360.489 922.14C358.091 922.14 356.891 921.407 356.891 919.942V917.506C356.891 916.657 357.162 916.041 357.703 915.658C358.254 915.275 359.099 915.084 360.237 915.084C361.311 915.084 362.095 915.271 362.589 915.644C363.093 916.008 363.345 916.629 363.345 917.506V919.158H358.949V919.774C358.949 920.166 359.089 920.446 359.369 920.614C359.649 920.782 360.153 920.866 360.881 920.866C361.553 920.866 362.309 920.768 363.149 920.572V921.874C362.319 922.051 361.432 922.14 360.489 922.14ZM361.399 917.996V917.016C361.399 916.792 361.306 916.624 361.119 916.512C360.942 916.4 360.639 916.344 360.209 916.344C359.715 916.344 359.383 916.4 359.215 916.512C359.038 916.633 358.949 916.801 358.949 917.016V917.996H361.399ZM368.226 922.14C367.423 922.14 366.784 922.084 366.308 921.972C365.841 921.86 365.472 921.608 365.202 921.216C364.94 920.815 364.81 920.213 364.81 919.41V916.568C364.81 915.737 364.94 915.056 365.202 914.524C365.472 913.992 365.832 913.577 366.28 913.278C366.737 912.979 367.302 912.732 367.974 912.536L368.674 912.354C369.056 912.261 369.476 912.153 369.934 912.032C370.391 911.901 370.783 911.771 371.11 911.64V913.376C370.578 913.637 369.672 913.908 368.394 914.188C367.843 914.309 367.404 914.454 367.078 914.622C366.76 914.781 366.522 915 366.364 915.28C366.205 915.56 366.126 915.929 366.126 916.386V917.142H366.14C366.27 916.591 366.541 916.19 366.952 915.938C367.362 915.686 368.006 915.56 368.884 915.56C369.649 915.56 370.228 915.663 370.62 915.868C371.021 916.073 371.292 916.381 371.432 916.792C371.572 917.203 371.642 917.767 371.642 918.486V919.41C371.642 920.073 371.548 920.6 371.362 920.992C371.175 921.375 370.834 921.664 370.34 921.86C369.845 922.047 369.14 922.14 368.226 922.14ZM368.254 920.866C368.664 920.866 368.963 920.829 369.15 920.754C369.336 920.679 369.458 920.567 369.514 920.418C369.57 920.269 369.598 920.045 369.598 919.746V918.01C369.598 917.665 369.57 917.417 369.514 917.268C369.458 917.109 369.341 916.997 369.164 916.932C368.986 916.867 368.697 916.834 368.296 916.834C367.876 916.834 367.563 916.876 367.358 916.96C367.162 917.035 367.026 917.161 366.952 917.338C366.886 917.506 366.854 917.753 366.854 918.08V919.746C366.854 920.035 366.886 920.259 366.952 920.418C367.026 920.567 367.162 920.679 367.358 920.754C367.563 920.829 367.862 920.866 368.254 920.866ZM373.234 915.224H375.838L377.49 919.9L379.24 915.224H381.704V922H379.856V917.632H379.772L378.134 922H376.692L375.11 917.632H375.026V922H373.234V915.224ZM385.419 922.14C384.785 922.14 384.309 922.084 383.991 921.972C383.683 921.851 383.464 921.641 383.333 921.342C383.212 921.034 383.151 920.577 383.151 919.97C383.151 919.429 383.217 919.004 383.347 918.696C383.487 918.388 383.707 918.169 384.005 918.038C384.313 917.898 384.733 917.828 385.265 917.828H387.561V917.366C387.561 917.077 387.519 916.862 387.435 916.722C387.361 916.582 387.216 916.484 387.001 916.428C386.796 916.372 386.483 916.344 386.063 916.344C385.485 916.344 384.691 916.4 383.683 916.512V915.224C384.421 915.131 385.284 915.084 386.273 915.084C387.141 915.084 387.809 915.149 388.275 915.28C388.751 915.411 389.092 915.635 389.297 915.952C389.503 916.269 389.605 916.731 389.605 917.338V922H387.603V921.384C387.445 921.655 387.23 921.846 386.959 921.958C386.689 922.079 386.175 922.14 385.419 922.14ZM386.217 920.866C386.628 920.866 386.922 920.852 387.099 920.824C387.23 920.805 387.319 920.777 387.365 920.74C387.421 920.703 387.468 920.642 387.505 920.558C387.543 920.493 387.561 920.395 387.561 920.264V918.948H386.161C385.844 918.948 385.62 918.971 385.489 919.018C385.359 919.055 385.27 919.139 385.223 919.27C385.177 919.391 385.153 919.611 385.153 919.928C385.153 920.236 385.177 920.451 385.223 920.572C385.27 920.693 385.359 920.773 385.489 920.81C385.629 920.847 385.872 920.866 386.217 920.866ZM394.708 922.14C394.353 922.14 394.073 922.131 393.868 922.112C393.662 922.103 393.41 922.079 393.112 922.042C392.813 922.005 392.566 921.939 392.37 921.846C392.183 921.753 391.987 921.613 391.782 921.426C391.399 921.109 391.208 920.567 391.208 919.802V917.548C391.208 916.932 391.348 916.419 391.628 916.008C391.73 915.859 391.88 915.723 392.076 915.602C392.281 915.471 392.486 915.369 392.692 915.294C392.86 915.238 393.084 915.191 393.364 915.154C393.644 915.117 393.891 915.093 394.106 915.084H394.848C395.37 915.084 396.056 915.168 396.906 915.336V916.68C395.944 916.456 395.207 916.344 394.694 916.344C393.751 916.344 393.28 916.661 393.28 917.296V919.788C393.28 920.507 393.798 920.866 394.834 920.866C395.338 920.866 396.061 920.763 397.004 920.558V921.902C396.154 922.061 395.389 922.14 394.708 922.14ZM399.782 916.568H397.542V915.224H404.066V916.568H401.826V922H399.782V916.568ZM408.642 922.14C406.243 922.14 405.044 921.407 405.044 919.942V917.506C405.044 916.657 405.314 916.041 405.856 915.658C406.406 915.275 407.251 915.084 408.39 915.084C409.463 915.084 410.247 915.271 410.742 915.644C411.246 916.008 411.498 916.629 411.498 917.506V919.158H407.102V919.774C407.102 920.166 407.242 920.446 407.522 920.614C407.802 920.782 408.306 920.866 409.034 920.866C409.706 920.866 410.462 920.768 411.302 920.572V921.874C410.471 922.051 409.584 922.14 408.642 922.14ZM409.552 917.996V917.016C409.552 916.792 409.458 916.624 409.272 916.512C409.094 916.4 408.791 916.344 408.362 916.344C407.867 916.344 407.536 916.4 407.368 916.512C407.19 916.633 407.102 916.801 407.102 917.016V917.996H409.552ZM413.06 915.224H414.992V915.896C415.113 915.597 415.351 915.387 415.706 915.266C416.061 915.145 416.588 915.084 417.288 915.084C417.876 915.084 418.347 915.131 418.702 915.224C419.066 915.317 419.341 915.467 419.528 915.672C419.705 915.877 419.827 916.106 419.892 916.358C419.957 916.601 419.99 916.937 419.99 917.366V919.592C419.99 920.264 419.892 920.782 419.696 921.146C419.5 921.51 419.197 921.767 418.786 921.916C418.385 922.065 417.834 922.14 417.134 922.14C416.462 922.14 415.977 922.084 415.678 921.972C415.379 921.86 415.188 921.641 415.104 921.314V924.912H413.06V915.224ZM416.504 920.866C416.905 920.866 417.209 920.838 417.414 920.782C417.619 920.726 417.759 920.628 417.834 920.488C417.909 920.348 417.946 920.138 417.946 919.858V917.352C417.946 917.044 417.913 916.825 417.848 916.694C417.783 916.554 417.652 916.461 417.456 916.414C417.26 916.367 416.938 916.344 416.49 916.344C416.107 916.344 415.813 916.377 415.608 916.442C415.412 916.507 415.277 916.61 415.202 916.75C415.137 916.89 415.104 917.091 415.104 917.352V919.858C415.104 920.138 415.137 920.348 415.202 920.488C415.277 920.628 415.412 920.726 415.608 920.782C415.804 920.838 416.103 920.866 416.504 920.866Z" fill="white"/>
<path d="M399.356 866.018H368.642C366.625 866.018 364.628 866.415 362.765 867.187C360.902 867.958 359.209 869.089 357.783 870.516C356.357 871.942 355.226 873.634 354.454 875.498C353.682 877.361 353.285 879.358 353.285 881.375C353.285 884.767 353.97 886.356 359.428 887.517C359.428 887.517 377.803 890.75 383.999 890.75C390.195 890.75 408.57 887.517 408.57 887.517C414.028 886.356 414.713 884.767 414.713 881.375C414.713 879.358 414.316 877.361 413.544 875.498C412.772 873.634 411.641 871.942 410.215 870.516C408.789 869.089 407.096 867.958 405.233 867.187C403.37 866.415 401.373 866.018 399.356 866.018Z" fill="url(#paint0_linear_351_371)"/>
<path d="M404.394 813.32C386.105 799.48 385.228 800.314 384 800.314C382.742 800.314 381.855 799.51 363.606 813.32C360.001 816.048 361.073 829.595 361.073 829.595H406.927C406.927 829.595 407.999 816.048 404.394 813.32Z" fill="url(#paint1_radial_351_371)"/>
<path d="M383.999 875.232C381.556 875.232 379.212 874.261 377.484 872.533C375.756 870.805 374.785 868.461 374.785 866.018V859.875H393.213V866.018C393.213 868.462 392.243 870.805 390.515 872.533C388.787 874.261 386.443 875.232 383.999 875.232Z" fill="url(#paint2_linear_351_371)"/>
<path d="M405.258 846.304C405.312 845.986 405.463 845.693 405.691 845.465C405.919 845.238 406.212 845.087 406.53 845.033C407.953 844.78 409.243 844.038 410.177 842.934C411.11 841.83 411.629 840.435 411.642 838.989V834.382C411.629 832.931 411.106 831.53 410.165 830.424C409.224 829.318 407.925 828.578 406.494 828.332C406.187 828.28 405.902 828.137 405.677 827.922C405.452 827.707 405.296 827.43 405.229 827.126C404.618 824.394 403.095 821.952 400.912 820.2C398.728 818.449 396.013 817.493 393.214 817.49H374.786C371.987 817.493 369.272 818.449 367.088 820.2C364.905 821.952 363.382 824.394 362.771 827.126C362.704 827.43 362.548 827.707 362.323 827.922C362.097 828.137 361.813 828.28 361.506 828.332C360.075 828.578 358.776 829.318 357.835 830.424C356.894 831.53 356.371 832.931 356.357 834.382V838.989C356.371 840.435 356.889 841.83 357.823 842.934C358.757 844.038 360.047 844.78 361.47 845.033C361.788 845.086 362.081 845.237 362.309 845.465C362.537 845.693 362.688 845.986 362.741 846.304C363.817 853.015 368.031 865.096 384 865.096C399.969 865.096 404.183 853.015 405.258 846.304Z" fill="url(#paint3_radial_351_371)"/>
<path d="M376.713 837.408C377.907 836.213 377.907 834.276 376.713 833.082C375.518 831.887 373.58 831.887 372.386 833.082C371.191 834.276 371.191 836.213 372.386 837.408C373.58 838.602 375.518 838.602 376.713 837.408Z" fill="url(#paint4_linear_351_371)"/>
<path d="M395.594 837.41C396.789 836.215 396.789 834.278 395.594 833.084C394.4 831.889 392.463 831.889 391.268 833.084C390.074 834.278 390.074 836.215 391.268 837.41C392.463 838.604 394.4 838.604 395.594 837.41Z" fill="url(#paint5_linear_351_371)"/>
<path d="M366.139 866.224C362.549 866.817 359.286 868.666 356.932 871.441C354.578 874.215 353.286 877.735 353.285 881.374C353.285 884.766 353.97 886.355 359.428 887.517C359.428 887.517 362.292 888.021 366.139 888.63V866.224Z" fill="#01AA89"/>
<path d="M364.186 888.317C365.359 888.508 366.686 888.719 368.092 888.936V866.031C366.767 866.077 365.454 866.293 364.186 866.676V888.317Z" fill="#01AA89"/>
<path d="M401.859 866.224C405.449 866.817 408.712 868.666 411.066 871.441C413.42 874.215 414.712 877.735 414.713 881.374C414.713 884.766 414.028 886.355 408.57 887.517C408.57 887.517 405.706 888.021 401.859 888.63V866.224Z" fill="#01AA89"/>
<path d="M403.812 888.317C402.639 888.508 401.312 888.719 399.906 888.936V866.031C401.231 866.077 402.544 866.293 403.812 866.676V888.317Z" fill="#01AA89"/>
<path d="M479.144 85.0001C485.906 96.7129 489.287 102.569 489.287 109C489.287 115.431 485.906 121.287 479.144 133L452.356 179.397C445.594 191.11 442.213 196.966 436.644 200.181C431.074 203.397 424.312 203.397 410.787 203.397H357.213C343.688 203.397 336.926 203.397 331.356 200.181C325.787 196.966 322.406 191.11 315.644 179.397L288.856 133C282.094 121.287 278.713 115.431 278.713 109C278.713 102.569 282.094 96.7129 288.856 85.0001L315.644 38.6033C322.406 26.8905 325.787 21.0341 331.356 17.8187C336.926 14.6033 343.688 14.6033 357.213 14.6033H410.787C424.312 14.6033 431.074 14.6033 436.644 17.8187C442.213 21.0341 445.594 26.8905 452.356 38.6033L479.144 85.0001Z" fill="#D3D3D3" fill-opacity="0.12"/>
<path d="M331.441 161.914H335.081C335.968 161.914 336.668 161.975 337.181 162.096C337.704 162.217 338.082 162.432 338.315 162.74C338.558 163.039 338.679 163.459 338.679 164V165.722C338.679 166.319 338.548 166.786 338.287 167.122C338.035 167.458 337.629 167.696 337.069 167.836C336.518 167.976 335.772 168.046 334.829 168.046H333.625V171H331.441V161.914ZM335.011 166.548C335.58 166.548 335.982 166.483 336.215 166.352C336.448 166.212 336.565 165.979 336.565 165.652V164.196C336.565 163.897 336.453 163.701 336.229 163.608C336.014 163.515 335.599 163.468 334.983 163.468H333.625V166.548H335.011ZM343.536 171.14C341.138 171.14 339.938 170.407 339.938 168.942V166.506C339.938 165.657 340.209 165.041 340.75 164.658C341.301 164.275 342.146 164.084 343.284 164.084C344.358 164.084 345.142 164.271 345.636 164.644C346.14 165.008 346.392 165.629 346.392 166.506V168.158H341.996V168.774C341.996 169.166 342.136 169.446 342.416 169.614C342.696 169.782 343.2 169.866 343.928 169.866C344.6 169.866 345.356 169.768 346.196 169.572V170.874C345.366 171.051 344.479 171.14 343.536 171.14ZM344.446 166.996V166.016C344.446 165.792 344.353 165.624 344.166 165.512C343.989 165.4 343.686 165.344 343.256 165.344C342.762 165.344 342.43 165.4 342.262 165.512C342.085 165.633 341.996 165.801 341.996 166.016V166.996H344.446ZM347.955 164.224H349.999V166.968C350.148 166.968 350.269 166.949 350.363 166.912C350.456 166.865 350.549 166.786 350.643 166.674L352.603 164.224H354.731L352.015 167.36C352.397 167.537 352.771 167.887 353.135 168.41L354.941 171H352.589L351.091 168.788C350.923 168.545 350.764 168.391 350.615 168.326C350.465 168.261 350.26 168.228 349.999 168.228V171H347.955V164.224ZM356.151 171.112C355.946 171.112 355.703 171.084 355.423 171.028V169.516C355.535 169.535 355.652 169.544 355.773 169.544C356.119 169.544 356.399 169.437 356.613 169.222C356.828 169.007 356.991 168.587 357.103 167.962C357.225 167.337 357.285 166.431 357.285 165.246V164.224H362.591V171H360.547V165.526H358.993V165.694C358.993 167.141 358.867 168.261 358.615 169.054C358.363 169.847 358.032 170.389 357.621 170.678C357.211 170.967 356.721 171.112 356.151 171.112ZM366.306 171.14C365.672 171.14 365.196 171.084 364.878 170.972C364.57 170.851 364.351 170.641 364.22 170.342C364.099 170.034 364.038 169.577 364.038 168.97C364.038 168.429 364.104 168.004 364.234 167.696C364.374 167.388 364.594 167.169 364.892 167.038C365.2 166.898 365.62 166.828 366.152 166.828H368.448V166.366C368.448 166.077 368.406 165.862 368.322 165.722C368.248 165.582 368.103 165.484 367.888 165.428C367.683 165.372 367.37 165.344 366.95 165.344C366.372 165.344 365.578 165.4 364.57 165.512V164.224C365.308 164.131 366.171 164.084 367.16 164.084C368.028 164.084 368.696 164.149 369.162 164.28C369.638 164.411 369.979 164.635 370.184 164.952C370.39 165.269 370.492 165.731 370.492 166.338V171H368.49V170.384C368.332 170.655 368.117 170.846 367.846 170.958C367.576 171.079 367.062 171.14 366.306 171.14ZM367.104 169.866C367.515 169.866 367.809 169.852 367.986 169.824C368.117 169.805 368.206 169.777 368.252 169.74C368.308 169.703 368.355 169.642 368.392 169.558C368.43 169.493 368.448 169.395 368.448 169.264V167.948H367.048C366.731 167.948 366.507 167.971 366.376 168.018C366.246 168.055 366.157 168.139 366.11 168.27C366.064 168.391 366.04 168.611 366.04 168.928C366.04 169.236 366.064 169.451 366.11 169.572C366.157 169.693 366.246 169.773 366.376 169.81C366.516 169.847 366.759 169.866 367.104 169.866ZM372.291 164.224H374.895L376.547 168.9L378.297 164.224H380.761V171H378.913V166.632H378.829L377.191 171H375.749L374.167 166.632H374.083V171H372.291V164.224ZM385.806 171.14C385.386 171.14 385.041 171.126 384.77 171.098C384.499 171.07 384.21 171.014 383.902 170.93C383.566 170.837 383.295 170.706 383.09 170.538C382.885 170.361 382.712 170.113 382.572 169.796C382.432 169.488 382.362 169.115 382.362 168.676V166.674C382.362 166.226 382.432 165.834 382.572 165.498C382.712 165.162 382.894 164.901 383.118 164.714C383.314 164.555 383.571 164.425 383.888 164.322C384.215 164.21 384.532 164.14 384.84 164.112C385.195 164.093 385.517 164.084 385.806 164.084C386.235 164.084 386.576 164.098 386.828 164.126C387.089 164.145 387.374 164.201 387.682 164.294C388.018 164.397 388.289 164.537 388.494 164.714C388.709 164.891 388.891 165.143 389.04 165.47C389.18 165.806 389.25 166.207 389.25 166.674V168.676C389.25 169.096 389.18 169.465 389.04 169.782C388.909 170.099 388.737 170.347 388.522 170.524C388.335 170.683 388.079 170.813 387.752 170.916C387.435 171.009 387.122 171.07 386.814 171.098C386.534 171.126 386.198 171.14 385.806 171.14ZM385.806 169.866C386.189 169.866 386.478 169.838 386.674 169.782C386.87 169.717 387.005 169.619 387.08 169.488C387.164 169.357 387.206 169.166 387.206 168.914V166.352C387.206 165.979 387.108 165.717 386.912 165.568C386.716 165.419 386.347 165.344 385.806 165.344C385.265 165.344 384.896 165.419 384.7 165.568C384.504 165.717 384.406 165.979 384.406 166.352V168.914C384.406 169.166 384.443 169.357 384.518 169.488C384.602 169.619 384.742 169.717 384.938 169.782C385.134 169.838 385.423 169.866 385.806 169.866ZM390.227 169.656H390.633C390.82 169.656 391.002 169.53 391.179 169.278C391.366 169.017 391.525 168.559 391.655 167.906C391.786 167.243 391.851 166.357 391.851 165.246V164.224H397.115V169.656H398.165V172.876H396.485V171H392.089V172.876H390.227V169.656ZM395.071 169.698V165.512H393.531V165.694C393.531 166.637 393.461 167.449 393.321 168.13C393.181 168.811 392.981 169.334 392.719 169.698H395.071ZM401.32 171.14C400.685 171.14 400.209 171.084 399.892 170.972C399.584 170.851 399.365 170.641 399.234 170.342C399.113 170.034 399.052 169.577 399.052 168.97C399.052 168.429 399.117 168.004 399.248 167.696C399.388 167.388 399.607 167.169 399.906 167.038C400.214 166.898 400.634 166.828 401.166 166.828H403.462V166.366C403.462 166.077 403.42 165.862 403.336 165.722C403.261 165.582 403.117 165.484 402.902 165.428C402.697 165.372 402.384 165.344 401.964 165.344C401.385 165.344 400.592 165.4 399.584 165.512V164.224C400.321 164.131 401.185 164.084 402.174 164.084C403.042 164.084 403.709 164.149 404.176 164.28C404.652 164.411 404.993 164.635 405.198 164.952C405.403 165.269 405.506 165.731 405.506 166.338V171H403.504V170.384C403.345 170.655 403.131 170.846 402.86 170.958C402.589 171.079 402.076 171.14 401.32 171.14ZM402.118 169.866C402.529 169.866 402.823 169.852 403 169.824C403.131 169.805 403.219 169.777 403.266 169.74C403.322 169.703 403.369 169.642 403.406 169.558C403.443 169.493 403.462 169.395 403.462 169.264V167.948H402.062C401.745 167.948 401.521 167.971 401.39 168.018C401.259 168.055 401.171 168.139 401.124 168.27C401.077 168.391 401.054 168.611 401.054 168.928C401.054 169.236 401.077 169.451 401.124 169.572C401.171 169.693 401.259 169.773 401.39 169.81C401.53 169.847 401.773 169.866 402.118 169.866ZM408.928 165.568H406.688V164.224H413.212V165.568H410.972V171H408.928V165.568ZM417.788 171.14C415.39 171.14 414.19 170.407 414.19 168.942V166.506C414.19 165.657 414.461 165.041 415.002 164.658C415.553 164.275 416.398 164.084 417.536 164.084C418.61 164.084 419.394 164.271 419.888 164.644C420.392 165.008 420.644 165.629 420.644 166.506V168.158H416.248V168.774C416.248 169.166 416.388 169.446 416.668 169.614C416.948 169.782 417.452 169.866 418.18 169.866C418.852 169.866 419.608 169.768 420.448 169.572V170.874C419.618 171.051 418.731 171.14 417.788 171.14ZM418.698 166.996V166.016C418.698 165.792 418.605 165.624 418.418 165.512C418.241 165.4 417.938 165.344 417.508 165.344C417.014 165.344 416.682 165.4 416.514 165.512C416.337 165.633 416.248 165.801 416.248 166.016V166.996H418.698ZM422.515 171.112C422.309 171.112 422.067 171.084 421.787 171.028V169.516C421.899 169.535 422.015 169.544 422.137 169.544C422.482 169.544 422.762 169.437 422.977 169.222C423.191 169.007 423.355 168.587 423.467 167.962C423.588 167.337 423.649 166.431 423.649 165.246V164.224H428.955V171H426.911V165.526H425.357V165.694C425.357 167.141 425.231 168.261 424.979 169.054C424.727 169.847 424.395 170.389 423.985 170.678C423.574 170.967 423.084 171.112 422.515 171.112ZM430.751 164.224H432.795V166.492H433.579C434.522 166.492 435.222 166.543 435.679 166.646C436.146 166.749 436.463 166.931 436.631 167.192C436.809 167.453 436.897 167.855 436.897 168.396V169.194C436.897 169.838 436.631 170.3 436.099 170.58C435.567 170.86 434.741 171 433.621 171H430.751V164.224ZM433.523 169.726C433.897 169.726 434.172 169.703 434.349 169.656C434.527 169.6 434.643 169.516 434.699 169.404C434.755 169.292 434.783 169.124 434.783 168.9V168.522C434.783 168.317 434.746 168.163 434.671 168.06C434.606 167.948 434.485 167.873 434.307 167.836C434.139 167.799 433.887 167.78 433.551 167.78H432.767V169.726H433.523Z" fill="white"/>
<path d="M399.357 115.018H368.643C366.626 115.018 364.629 115.415 362.766 116.187C360.903 116.959 359.21 118.09 357.784 119.516C356.358 120.942 355.227 122.635 354.455 124.498C353.683 126.361 353.286 128.358 353.286 130.375C353.286 133.767 353.971 135.356 359.429 136.518C359.429 136.518 377.804 139.75 384 139.75C390.196 139.75 408.571 136.518 408.571 136.518C414.029 135.356 414.714 133.767 414.714 130.375C414.714 128.358 414.317 126.361 413.545 124.498C412.773 122.635 411.642 120.942 410.216 119.516C408.79 118.09 407.097 116.959 405.234 116.187C403.371 115.415 401.374 115.018 399.357 115.018Z" fill="#01AA89"/>
<path d="M393.214 114.979C396.471 122.441 389.731 129.974 389.731 129.974C388.99 130.747 388.1 131.362 387.115 131.782C386.13 132.202 385.07 132.419 384 132.419C382.929 132.419 381.869 132.202 380.884 131.782C379.9 131.362 379.01 130.747 378.269 129.974C378.269 129.974 371.528 122.441 374.786 114.979H393.214Z" fill="#EAF5FB"/>
<path d="M386.223 132.101L384.976 127.052H383.023L381.777 132.101C383.229 132.522 384.771 132.522 386.223 132.101Z" fill="url(#paint6_linear_351_371)"/>
<path d="M384 130.266C385.667 130.266 387.017 128.915 387.017 127.249C387.017 125.583 385.667 124.232 384 124.232C382.334 124.232 380.983 125.583 380.983 127.249C380.983 128.915 382.334 130.266 384 130.266Z" fill="url(#paint7_radial_351_371)"/>
<path d="M393.214 114.979C396.471 122.441 389.731 129.974 389.731 129.974L384 124.232L378.269 129.974C378.269 129.974 371.528 122.441 374.786 114.979H393.214Z" fill="white"/>
<path d="M393.214 114.979C396.471 122.441 389.731 129.974 389.731 129.974L384 124.232L378.269 129.974C378.269 129.974 371.528 122.441 374.786 114.979H393.214Z" fill="url(#paint8_linear_351_371)"/>
<path d="M384 124.232C384 124.232 374.786 120.107 374.786 115.018V108.875H393.214V115.018C393.214 120.107 384 124.232 384 124.232Z" fill="url(#paint9_linear_351_371)"/>
<path d="M398.925 55.8273C402.013 57.7443 404.515 60.8037 405.341 65.6239C406.221 70.7554 405.62 79.544 405.62 79.544L361.05 79.3614C361.05 79.3614 360.602 68.0265 362.331 62.9674C364.06 57.9083 374.563 53.8098 374.563 53.8098C374.563 53.8098 373.986 55.4748 373.41 57.0758C372.834 58.6768 379.045 53.6177 381.927 53.1054C383.393 52.8449 388.773 52.2942 394.038 53.7447C394.038 53.7447 390.401 55.7809 389.585 58.7843C394.425 56.3349 397.396 54.8781 398.925 55.8273Z" fill="url(#paint10_radial_351_371)"/>
<path d="M405.258 95.3041C405.312 94.9863 405.463 94.6931 405.691 94.4653C405.919 94.2375 406.212 94.0865 406.53 94.0333C407.953 93.7803 409.243 93.0377 410.177 91.934C411.11 90.8304 411.629 89.435 411.642 87.9895V83.3824C411.629 81.9306 411.106 80.5298 410.165 79.4241C409.224 78.3185 407.925 77.5782 406.494 77.3323C406.187 77.2799 405.902 77.1371 405.677 76.9221C405.452 76.7072 405.296 76.4299 405.229 76.1257C404.618 73.394 403.095 70.9516 400.912 69.2003C398.728 67.449 396.013 66.4931 393.214 66.4897H374.786C371.987 66.4931 369.272 67.449 367.088 69.2003C364.905 70.9516 363.382 73.394 362.771 76.1257C362.704 76.4299 362.548 76.7072 362.323 76.9221C362.097 77.1371 361.813 77.2799 361.506 77.3323C360.075 77.5782 358.776 78.3185 357.835 79.4241C356.894 80.5298 356.371 81.9306 356.357 83.3824V87.9895C356.371 89.435 356.889 90.8303 357.823 91.9339C358.757 93.0376 360.047 93.7802 361.47 94.0332C361.788 94.0864 362.081 94.2375 362.309 94.4653C362.537 94.6931 362.688 94.9863 362.741 95.304C363.817 102.015 368.031 114.096 384 114.096C399.969 114.096 404.183 102.015 405.258 95.3041Z" fill="url(#paint11_radial_351_371)"/>
<path d="M376.713 86.4076C377.907 85.213 377.907 83.2762 376.713 82.0817C375.518 80.8871 373.58 80.8871 372.386 82.0817C371.191 83.2762 371.191 85.213 372.386 86.4076C373.58 87.6022 375.518 87.6022 376.713 86.4076Z" fill="url(#paint12_linear_351_371)"/>
<path d="M395.596 86.4099C396.791 85.2153 396.791 83.2785 395.596 82.0839C394.402 80.8894 392.466 80.8894 391.271 82.0839C390.076 83.2785 390.076 85.2153 391.271 86.4099C392.466 87.6045 394.402 87.6045 395.596 86.4099Z" fill="url(#paint13_linear_351_371)"/>
</g>
<defs>
<linearGradient id="paint0_linear_351_371" x1="383.999" y1="890.75" x2="383.999" y2="866.018" gradientUnits="userSpaceOnUse">
<stop stop-color="#EAF5FB"/>
<stop offset="0.4672" stop-color="#E7F3F9"/>
<stop offset="0.8772" stop-color="#DCECF4"/>
<stop offset="1" stop-color="#D7E9F2"/>
</linearGradient>
<radialGradient id="paint1_radial_351_371" cx="0" cy="0" r="1" gradientUnits="userSpaceOnUse" gradientTransform="translate(356.593 802.343) scale(55.5219 55.5218)">
<stop stop-color="#3D3C3B"/>
<stop offset="0.5534" stop-color="#2E2D2C"/>
<stop offset="1" stop-color="#1E1E1D"/>
</radialGradient>
<linearGradient id="paint2_linear_351_371" x1="383.999" y1="875.232" x2="383.999" y2="859.875" gradientUnits="userSpaceOnUse">
<stop stop-color="#FFD5B3"/>
<stop offset="0.7336" stop-color="#E29E86"/>
</linearGradient>
<radialGradient id="paint3_radial_351_371" cx="0" cy="0" r="1" gradientUnits="userSpaceOnUse" gradientTransform="translate(356.105 818.17) scale(57.4693 57.4693)">
<stop stop-color="#FFD5B3"/>
<stop offset="0.5522" stop-color="#FED3B2"/>
<stop offset="0.7511" stop-color="#FACCAD"/>
<stop offset="0.8924" stop-color="#F3C1A4"/>
<stop offset="1" stop-color="#EAB198"/>
</radialGradient>
<linearGradient id="paint4_linear_351_371" x1="371.051" y1="831.566" x2="375.641" y2="836.393" gradientUnits="userSpaceOnUse">
<stop stop-color="#3D3C3B"/>
<stop offset="0.5534" stop-color="#2E2D2C"/>
<stop offset="1" stop-color="#1E1E1D"/>
</linearGradient>
<linearGradient id="paint5_linear_351_371" x1="390.565" y1="831.281" x2="393.978" y2="836.01" gradientUnits="userSpaceOnUse">
<stop stop-color="#3D3C3B"/>
<stop offset="0.5534" stop-color="#2E2D2C"/>
<stop offset="1" stop-color="#1E1E1D"/>
</linearGradient>
<linearGradient id="paint6_linear_351_371" x1="384" y1="132.417" x2="384" y2="127.052" gradientUnits="userSpaceOnUse">
<stop stop-color="#333130"/>
<stop offset="0.4031" stop-color="#3A3938"/>
<stop offset="1" stop-color="#3D3C3B"/>
</linearGradient>
<radialGradient id="paint7_radial_351_371" cx="0" cy="0" r="1" gradientUnits="userSpaceOnUse" gradientTransform="translate(381.054 124.625) scale(5.5252 5.5252)">
<stop stop-color="#3D3C3B"/>
<stop offset="1" stop-color="#333130"/>
</radialGradient>
<linearGradient id="paint8_linear_351_371" x1="384" y1="129.974" x2="384" y2="114.978" gradientUnits="userSpaceOnUse">
<stop stop-color="white"/>
<stop offset="0.176" stop-color="white" stop-opacity="0.988"/>
<stop offset="0.3081" stop-color="#FEFEFE" stop-opacity="0.951"/>
<stop offset="0.4258" stop-color="#FDFDFD" stop-opacity="0.887"/>
<stop offset="0.5352" stop-color="#FCFBFB" stop-opacity="0.798"/>
<stop offset="0.6388" stop-color="#FAF9F8" stop-opacity="0.682"/>
<stop offset="0.7381" stop-color="#F8F7F5" stop-opacity="0.54"/>
<stop offset="0.8341" stop-color="#F5F4F2" stop-opacity="0.371"/>
<stop offset="0.9249" stop-color="#F2F0EE" stop-opacity="0.181"/>
<stop offset="1" stop-color="#EFEDEA" stop-opacity="0"/>
</linearGradient>
<linearGradient id="paint9_linear_351_371" x1="384" y1="124.232" x2="384" y2="108.875" gradientUnits="userSpaceOnUse">
<stop stop-color="#FFD5B3"/>
<stop offset="0.7336" stop-color="#E29E86"/>
</linearGradient>
<radialGradient id="paint10_radial_351_371" cx="0" cy="0" r="1" gradientUnits="userSpaceOnUse" gradientTransform="translate(360.509 48.6825) scale(40.8189 40.8189)">
<stop stop-color="#594A47"/>
<stop offset="0.7296" stop-color="#584845"/>
<stop offset="0.9921" stop-color="#54413E"/>
<stop offset="1" stop-color="#54413E"/>
</radialGradient>
<radialGradient id="paint11_radial_351_371" cx="0" cy="0" r="1" gradientUnits="userSpaceOnUse" gradientTransform="translate(357.708 73.0361) scale(50.2318 50.2318)">
<stop stop-color="#FFD5B3"/>
<stop offset="0.5522" stop-color="#FED3B2"/>
<stop offset="0.7511" stop-color="#FACCAD"/>
<stop offset="0.8924" stop-color="#F3C1A4"/>
<stop offset="1" stop-color="#EAB198"/>
</radialGradient>
<linearGradient id="paint12_linear_351_371" x1="371.051" y1="80.5655" x2="375.64" y2="85.3933" gradientUnits="userSpaceOnUse">
<stop stop-color="#3D3C3B"/>
<stop offset="0.5534" stop-color="#2E2D2C"/>
<stop offset="1" stop-color="#1E1E1D"/>
</linearGradient>
<linearGradient id="paint13_linear_351_371" x1="390.567" y1="80.2818" x2="393.98" y2="85.0103" gradientUnits="userSpaceOnUse">
<stop stop-color="#3D3C3B"/>
<stop offset="0.5534" stop-color="#2E2D2C"/>
<stop offset="1" stop-color="#1E1E1D"/>
</linearGradient>
<clipPath id="clip0_351_371">
<rect width="768" height="969" fill="white"/>
</clipPath>
</defs>
</svg>
