<svg width="1211" height="972" viewBox="0 0 1211 972" fill="none" xmlns="http://www.w3.org/2000/svg">
<path opacity="0.8" d="M761.927 201.552C765.044 203.95 768.037 206.523 770.895 209.273L770.548 209.633C771.961 210.992 773.341 212.395 774.686 213.841C776.032 215.288 777.331 216.765 778.585 218.272L778.969 217.952C781.506 221.001 783.856 224.172 786.023 227.455L785.606 227.73C787.771 231.011 789.752 234.405 791.551 237.903L791.996 237.674C793.795 241.173 795.413 244.774 796.851 248.47L796.385 248.651C797.801 252.29 799.043 256.02 800.112 259.833L800.593 259.698C801.65 263.468 802.539 267.318 803.261 271.24L802.77 271.331C803.474 275.155 804.02 279.049 804.41 283.004L804.907 282.955C805.29 286.843 805.522 290.789 805.604 294.786L805.104 294.797C805.184 298.683 805.123 302.618 804.921 306.594L805.42 306.619C805.223 310.514 804.891 314.448 804.428 318.414L803.931 318.356C803.478 322.225 802.9 326.125 802.196 330.05L802.688 330.138C801.999 333.981 801.19 337.847 800.264 341.732L799.777 341.616C798.874 345.402 797.859 349.206 796.732 353.022L797.211 353.164C796.105 356.91 794.892 360.668 793.573 364.432L793.101 364.267C791.811 367.949 790.419 371.638 788.927 375.329L789.39 375.517C787.924 379.145 786.36 382.774 784.701 386.401L784.246 386.193C782.62 389.746 780.902 393.296 779.093 396.839L779.539 397.066C777.76 400.55 775.894 404.028 773.94 407.494L773.505 407.249C771.586 410.653 769.584 414.047 767.498 417.427L767.923 417.69C765.867 421.023 763.729 424.342 761.512 427.644L761.096 427.365C758.915 430.613 756.657 433.844 754.322 437.055L754.726 437.349C752.421 440.52 750.04 443.67 747.586 446.798L747.193 446.49C744.776 449.57 742.287 452.628 739.728 455.661L740.11 455.983C737.58 458.981 734.981 461.953 732.313 464.898L731.942 464.562C729.312 467.466 726.615 470.342 723.852 473.188L724.211 473.537C721.477 476.352 718.679 479.138 715.818 481.892L715.471 481.532C714.05 482.899 712.614 484.258 711.162 485.609C709.711 486.959 708.252 488.294 706.786 489.612L707.12 489.983C704.167 492.639 701.186 495.229 698.18 497.752L697.859 497.369C694.821 499.919 691.757 502.402 688.672 504.816L688.98 505.21C685.85 507.658 682.698 510.036 679.525 512.343L679.231 511.938C676.022 514.273 672.792 516.534 669.545 518.722L669.825 519.137C666.528 521.359 663.214 523.506 659.886 525.576L659.621 525.152C656.25 527.249 652.865 529.269 649.468 531.21L649.716 531.644C646.262 533.617 642.797 535.51 639.325 537.32L639.093 536.877C635.572 538.713 632.042 540.466 628.508 542.134L628.721 542.586C625.123 544.284 621.52 545.895 617.917 547.417L617.722 546.957C614.058 548.505 610.393 549.963 606.732 551.328L606.907 551.796C603.17 553.189 599.437 554.487 595.713 555.688L595.559 555.212C591.77 556.434 587.99 557.556 584.224 558.578L584.355 559.06C580.505 560.104 576.67 561.043 572.854 561.876L572.747 561.388C568.86 562.236 564.992 562.974 561.151 563.602L561.231 564.095C557.29 564.739 553.375 565.267 549.493 565.677L549.44 565.179C545.475 565.598 541.543 565.894 537.652 566.066L537.674 566.566C533.684 566.742 529.737 566.789 525.838 566.705L525.849 566.205C521.868 566.119 517.939 565.897 514.069 565.536L514.023 566.034C510.042 565.664 506.123 565.148 502.272 564.485L502.357 563.993C498.441 563.319 494.597 562.493 490.833 561.514L490.707 561.998C486.848 560.995 483.072 559.831 479.388 558.504L479.557 558.034C475.831 556.693 472.2 555.185 468.673 553.51L468.459 553.962C464.877 552.26 461.401 550.387 458.041 548.34L458.301 547.913C454.943 545.866 451.701 543.646 448.584 541.249L448.279 541.645C445.162 539.247 442.169 536.674 439.311 533.924L439.658 533.564C438.245 532.205 436.865 530.802 435.52 529.356C434.174 527.909 432.875 526.432 431.621 524.925L431.237 525.245C428.7 522.196 426.35 519.025 424.183 515.743L424.601 515.467C422.435 512.186 420.454 508.792 418.655 505.295L418.21 505.523C416.411 502.024 414.793 498.423 413.355 494.727L413.821 494.546C412.405 490.907 411.163 487.177 410.094 483.364L409.613 483.499C408.556 479.729 407.667 475.879 406.945 471.957L407.436 471.867C406.732 468.042 406.186 464.148 405.796 460.193L405.299 460.242C404.916 456.354 404.684 452.408 404.602 448.411L405.102 448.401C405.022 444.514 405.083 440.58 405.285 436.603L404.786 436.578C404.983 432.683 405.315 428.749 405.779 424.783L406.275 424.841C406.728 420.973 407.306 417.073 408.01 413.147L407.518 413.059C408.207 409.216 409.016 405.35 409.942 401.465L410.429 401.581C411.332 397.795 412.347 393.991 413.474 390.175L412.995 390.033C414.101 386.287 415.314 382.529 416.633 378.765L417.105 378.93C418.395 375.248 419.787 371.559 421.279 367.868L420.816 367.681C422.282 364.053 423.846 360.423 425.506 356.797L425.96 357.005C427.586 353.452 429.304 349.901 431.113 346.358L430.667 346.131C432.446 342.647 434.312 339.17 436.266 335.703L436.701 335.949C438.62 332.544 440.622 329.15 442.708 325.77L442.283 325.508C444.34 322.175 446.477 318.855 448.694 315.553L449.11 315.832C451.291 312.584 453.549 309.353 455.884 306.142L455.48 305.848C457.785 302.677 460.166 299.527 462.62 296.399L463.013 296.708C465.43 293.627 467.919 290.569 470.478 287.536L470.096 287.214C472.626 284.216 475.225 281.244 477.893 278.299L478.264 278.635C480.894 275.731 483.591 272.855 486.354 270.009L485.995 269.661C488.729 266.845 491.527 264.059 494.389 261.305L494.735 261.665C496.156 260.298 497.592 258.939 499.044 257.589C500.496 256.238 501.955 254.904 503.42 253.586L503.086 253.214C506.039 250.558 509.02 247.969 512.026 245.445L512.347 245.828C515.385 243.278 518.449 240.795 521.534 238.382L521.226 237.988C524.356 235.539 527.508 233.162 530.681 230.854L530.975 231.259C534.184 228.925 537.414 226.663 540.661 224.475L540.381 224.06C543.678 221.838 546.992 219.692 550.32 217.621L550.585 218.045C553.956 215.948 557.341 213.929 560.738 211.988L560.49 211.554C563.944 209.58 567.409 207.688 570.881 205.877L571.113 206.32C574.634 204.484 578.164 202.731 581.698 201.064L581.485 200.611C585.083 198.913 588.686 197.302 592.289 195.78L592.484 196.24C596.148 194.692 599.813 193.235 603.474 191.87L603.299 191.401C607.036 190.008 610.769 188.71 614.493 187.509L614.647 187.985C618.436 186.763 622.216 185.641 625.982 184.62L625.851 184.137C629.701 183.093 633.536 182.154 637.352 181.321L637.459 181.81C641.346 180.961 645.214 180.223 649.055 179.595L648.975 179.102C652.916 178.458 656.831 177.931 660.713 177.521L660.766 178.018C664.732 177.599 668.663 177.303 672.554 177.131L672.532 176.632C676.522 176.455 680.469 176.408 684.368 176.492L684.357 176.992C688.338 177.078 692.267 177.301 696.137 177.661L696.183 177.163C700.164 177.534 704.083 178.049 707.934 178.712L707.849 179.205C711.765 179.878 715.609 180.704 719.373 181.683L719.499 181.199C723.358 182.203 727.134 183.367 730.818 184.693L730.649 185.163C734.375 186.505 738.006 188.012 741.533 189.687L741.747 189.236C745.329 190.937 748.805 192.81 752.165 194.857L751.905 195.284C755.263 197.331 758.505 199.552 761.622 201.948L761.927 201.552Z" stroke="#01AA89" stroke-dasharray="12 12"/>
<path opacity="0.4" d="M839.379 128.655C842.417 131.341 845.379 134.134 848.259 137.035L847.905 137.388C849.336 138.829 850.747 140.297 852.137 141.792C853.528 143.287 854.891 144.8 856.225 146.331L856.602 146.003C859.288 149.086 861.86 152.241 864.319 155.465L863.921 155.768C866.391 159.006 868.746 162.313 870.988 165.686L871.404 165.41C873.661 168.805 875.802 172.268 877.83 175.793L877.397 176.042C879.422 179.563 881.333 183.146 883.13 186.788L883.579 186.567C885.379 190.214 887.066 193.92 888.64 197.681L888.179 197.874C889.743 201.613 891.196 205.406 892.539 209.251L893.011 209.086C894.349 212.918 895.577 216.801 896.696 220.731L896.215 220.868C897.324 224.76 898.325 228.699 899.219 232.679L899.707 232.57C900.595 236.526 901.379 240.524 902.058 244.559L901.565 244.642C902.235 248.63 902.804 252.656 903.27 256.715L903.767 256.658C904.23 260.681 904.592 264.737 904.856 268.822L904.357 268.854C904.617 272.885 904.78 276.945 904.848 281.03L905.348 281.021C905.414 285.067 905.387 289.138 905.266 293.231L904.766 293.216C904.646 297.253 904.436 301.311 904.135 305.388L904.633 305.425C904.335 309.461 903.949 313.514 903.474 317.583L902.977 317.525C902.509 321.538 901.955 325.566 901.315 329.606L901.809 329.685C901.176 333.684 900.459 337.695 899.659 341.714L899.169 341.617C898.379 345.584 897.509 349.559 896.558 353.54L897.045 353.657C896.104 357.595 895.085 361.54 893.987 365.487L893.506 365.353C892.424 369.244 891.266 373.138 890.033 377.033L890.509 377.184C889.288 381.042 887.992 384.901 886.622 388.757L886.151 388.59C884.798 392.401 883.372 396.21 881.876 400.015L882.341 400.198C880.857 403.97 879.303 407.737 877.68 411.498L877.221 411.3C875.615 415.019 873.942 418.732 872.2 422.436L872.652 422.649C870.931 426.31 869.144 429.963 867.29 433.606L866.845 433.379C865.011 436.983 863.112 440.578 861.15 444.16L861.588 444.4C859.641 447.955 857.631 451.498 855.557 455.026L855.126 454.773C853.074 458.267 850.959 461.747 848.784 465.212L849.208 465.478C847.053 468.909 844.839 472.325 842.565 475.724L842.15 475.446C839.901 478.808 837.593 482.154 835.228 485.481L835.635 485.77C833.286 489.075 830.88 492.361 828.416 495.627L828.017 495.326C825.576 498.563 823.078 501.78 820.525 504.976L820.916 505.289C818.387 508.454 815.805 511.598 813.168 514.72L812.786 514.397C810.174 517.489 807.51 520.558 804.792 523.604L805.165 523.937C802.464 526.964 799.711 529.968 796.906 532.947L796.542 532.604C793.762 535.556 790.931 538.483 788.049 541.384L788.404 541.736C785.551 544.609 782.648 547.456 779.695 550.276L779.35 549.915C777.876 551.322 776.391 552.722 774.893 554.116C773.395 555.509 771.891 556.89 770.381 558.258L770.717 558.628C767.691 561.37 764.642 564.06 761.571 566.698L761.245 566.319C758.144 568.984 755.02 571.596 751.875 574.156L752.191 574.543C749.017 577.126 745.823 579.656 742.608 582.131L742.303 581.735C739.069 584.226 735.816 586.662 732.544 589.044L732.838 589.448C729.534 591.853 726.211 594.202 722.872 596.495L722.589 596.083C719.217 598.399 715.828 600.657 712.423 602.859L712.694 603.279C709.259 605.5 705.808 607.663 702.343 609.768L702.083 609.341C698.594 611.46 695.091 613.52 691.575 615.521L691.823 615.955C688.268 617.978 684.701 619.94 681.124 621.84L680.889 621.399C677.276 623.319 673.653 625.176 670.02 626.971L670.241 627.42C666.572 629.233 662.893 630.982 659.208 632.668L659 632.213C655.285 633.912 651.563 635.546 647.836 637.115L648.03 637.576C644.263 639.162 640.49 640.681 636.714 642.134L636.535 641.667C632.714 643.137 628.891 644.538 625.066 645.871L625.23 646.343C621.362 647.691 617.492 648.969 613.623 650.177L613.474 649.7C609.571 650.918 605.669 652.065 601.77 653.139L601.903 653.621C597.958 654.709 594.016 655.723 590.079 656.663L589.963 656.177C585.99 657.126 582.022 658 578.063 658.798L578.162 659.288C574.146 660.098 570.138 660.83 566.142 661.484L566.061 660.99C562.021 661.651 557.994 662.233 553.98 662.733L554.042 663.23C549.975 663.737 545.923 664.163 541.889 664.506L541.846 664.007C537.771 664.354 533.713 664.616 529.676 664.794L529.698 665.293C525.606 665.473 521.535 665.566 517.488 665.572L517.488 665.072C513.4 665.079 509.337 664.996 505.301 664.823L505.28 665.323C501.19 665.148 497.127 664.882 493.097 664.524L493.141 664.026C489.072 663.664 485.034 663.208 481.033 662.658L480.965 663.153C476.909 662.595 472.89 661.941 468.911 661.189L469.004 660.698C464.989 659.94 461.015 659.082 457.085 658.125L456.967 658.611C452.991 657.643 449.06 656.573 445.179 655.401L445.323 654.923C441.417 653.744 437.562 652.461 433.759 651.075L433.588 651.544C429.749 650.145 425.965 648.639 422.239 647.028L422.437 646.569C418.7 644.953 415.022 643.23 411.405 641.399L411.18 641.846C407.542 640.004 403.967 638.054 400.459 635.996L400.712 635.565C397.209 633.509 393.773 631.344 390.408 629.07L390.128 629.485C386.759 627.208 383.46 624.822 380.236 622.326L380.542 621.931C377.339 619.452 374.21 616.864 371.159 614.167L370.828 614.542C367.79 611.857 364.829 609.063 361.948 606.162L362.303 605.81C360.872 604.368 359.461 602.9 358.07 601.405C356.679 599.91 355.317 598.397 353.983 596.866L353.606 597.194C350.92 594.112 348.348 590.957 345.888 587.732L346.286 587.429C343.817 584.192 341.461 580.884 339.22 577.511L338.803 577.788C336.547 574.392 334.405 570.93 332.377 567.405L332.811 567.155C330.786 563.635 328.875 560.051 327.077 556.409L326.629 556.631C324.828 552.983 323.142 549.277 321.568 545.516L322.029 545.323C320.464 541.584 319.011 537.791 317.669 533.947L317.197 534.112C315.858 530.279 314.63 526.396 313.511 522.467L313.992 522.33C312.884 518.437 311.883 514.499 310.988 510.518L310.501 510.628C309.612 506.671 308.829 502.674 308.15 498.638L308.643 498.555C307.972 494.567 307.404 490.541 306.937 486.482L306.44 486.539C305.978 482.516 305.615 478.46 305.351 474.375L305.85 474.343C305.59 470.312 305.427 466.253 305.36 462.168L304.86 462.176C304.793 458.13 304.821 454.059 304.942 449.967L305.442 449.981C305.561 445.944 305.772 441.886 306.073 437.809L305.574 437.772C305.872 433.737 306.259 429.683 306.734 425.615L307.23 425.673C307.699 421.659 308.253 417.631 308.893 413.591L308.399 413.513C309.032 409.513 309.749 405.503 310.548 401.483L311.039 401.581C311.828 397.614 312.698 393.638 313.649 389.657L313.163 389.541C314.103 385.602 315.123 381.658 316.22 377.71L316.702 377.844C317.783 373.953 318.941 370.059 320.175 366.164L319.698 366.013C320.92 362.155 322.216 358.297 323.585 354.44L324.056 354.607C325.41 350.796 326.835 346.987 328.332 343.182L327.867 342.999C329.35 339.228 330.904 335.46 332.528 331.699L332.987 331.897C334.592 328.178 336.266 324.466 338.008 320.761L337.555 320.548C339.276 316.887 341.064 313.234 342.917 309.592L343.363 309.818C345.197 306.214 347.095 302.62 349.058 299.037L348.619 298.797C350.566 295.242 352.577 291.7 354.65 288.171L355.081 288.424C357.134 284.93 359.248 281.45 361.423 277.985L361 277.719C363.154 274.288 365.368 270.872 367.642 267.473L368.058 267.751C370.307 264.389 372.614 261.044 374.979 257.717L374.572 257.427C376.921 254.123 379.328 250.837 381.791 247.571L382.19 247.872C384.632 244.635 387.129 241.417 389.682 238.221L389.292 237.909C391.82 234.744 394.403 231.599 397.04 228.478L397.422 228.8C400.033 225.709 402.698 222.639 405.416 219.593L405.042 219.26C407.743 216.233 410.497 213.229 413.302 210.251L413.666 210.594C416.446 207.642 419.276 204.714 422.158 201.813L421.803 201.461C424.657 198.588 427.56 195.741 430.512 192.921L430.858 193.283C432.331 191.875 433.817 190.475 435.315 189.082C436.812 187.688 438.316 186.308 439.826 184.94L439.49 184.569C442.516 181.828 445.565 179.138 448.636 176.499L448.962 176.878C452.064 174.213 455.188 171.601 458.332 169.042L458.017 168.654C461.19 166.071 464.385 163.542 467.599 161.066L467.904 161.462C471.138 158.972 474.392 156.535 477.664 154.154L477.37 153.749C480.674 151.345 483.996 148.996 487.335 146.702L487.619 147.114C490.991 144.799 494.38 142.54 497.785 140.338L497.513 139.918C500.949 137.697 504.4 135.534 507.865 133.429L508.124 133.857C511.613 131.737 515.117 129.677 518.632 127.677L518.385 127.242C521.939 125.22 525.506 123.258 529.084 121.357L529.318 121.798C532.931 119.879 536.555 118.021 540.188 116.226L539.966 115.778C543.636 113.965 547.314 112.215 551 110.529L551.208 110.984C554.923 109.285 558.645 107.651 562.372 106.082L562.178 105.621C565.945 104.036 569.717 102.516 573.493 101.064L573.673 101.53C577.493 100.061 581.317 98.6591 585.142 97.3263L584.977 96.8541C588.846 95.5061 592.715 94.2282 596.584 93.0205L596.733 93.4978C600.636 92.2794 604.538 91.1327 608.437 90.058L608.304 89.576C612.25 88.4883 616.192 87.4742 620.128 86.534L620.244 87.0203C624.218 86.0711 628.185 85.1973 632.144 84.3992L632.045 83.9091C636.062 83.0994 640.069 82.3674 644.066 81.7135L644.146 82.207C648.186 81.546 652.214 80.9649 656.227 80.4639L656.166 79.9678C660.232 79.4602 664.284 79.0347 668.319 78.6917L668.361 79.1899C672.437 78.8435 676.494 78.5813 680.531 78.4038L680.509 77.9043C684.601 77.7243 688.672 77.6311 692.719 77.625L692.72 78.125C696.808 78.1188 700.871 78.2017 704.906 78.374L704.927 77.8744C709.018 78.049 713.08 78.3153 717.111 78.6737L717.066 79.1717C721.136 79.5336 725.173 79.9894 729.174 80.5396L729.242 80.0443C733.298 80.602 737.317 81.2564 741.296 82.0079L741.203 82.4993C745.218 83.2576 749.193 84.1151 753.122 85.072L753.241 84.5862C757.216 85.5543 761.147 86.6242 765.029 87.796L764.884 88.2747C768.79 89.4538 772.646 90.7363 776.448 92.1228L776.62 91.6531C780.458 93.0526 784.242 94.5579 787.969 96.1693L787.77 96.6282C791.507 98.2444 795.186 99.9674 798.802 101.798L799.028 101.352C802.665 103.193 806.24 105.143 809.748 107.202L809.495 107.633C812.998 109.689 816.434 111.853 819.799 114.127L820.079 113.713C823.449 115.989 826.748 118.375 829.972 120.871L829.666 121.267C832.868 123.746 835.997 126.333 839.048 129.03L839.379 128.655Z" stroke="#01AA89" stroke-dasharray="12 12"/>
<path opacity="0.2" d="M939.117 36.2993C941.995 39.0522 944.827 41.869 947.614 44.7496L947.254 45.0972C948.645 46.5351 950.024 47.9891 951.391 49.4589C952.759 50.9289 954.109 52.4094 955.443 53.9003L955.816 53.5669C958.488 56.5535 961.093 59.582 963.631 62.6507L963.246 62.9694C965.8 66.0579 968.287 69.1873 970.706 72.3561L971.104 72.0528C973.534 75.236 975.896 78.459 978.19 81.7202L977.781 82.0079C980.083 85.28 982.316 88.5907 984.481 91.9383L984.901 91.6668C987.076 95.0293 989.182 98.4293 991.22 101.865L990.79 102.12C992.827 105.556 994.796 109.027 996.697 112.533L997.137 112.294C999.044 115.812 1000.88 119.365 1002.65 122.95L1002.2 123.172C1003.97 126.752 1005.67 130.364 1007.3 134.008L1007.76 133.804C1009.39 137.454 1010.96 141.135 1012.45 144.846L1011.99 145.033C1013.48 148.732 1014.91 152.461 1016.26 156.218L1016.73 156.048C1018.09 159.806 1019.38 163.592 1020.6 167.405L1020.13 167.558C1021.35 171.355 1022.5 175.179 1023.58 179.028L1024.06 178.892C1025.15 182.734 1026.16 186.6 1027.11 190.49L1026.63 190.608C1027.57 194.484 1028.46 198.383 1029.27 202.304L1029.76 202.202C1030.57 206.106 1031.32 210.031 1032.01 213.976L1031.51 214.061C1032.19 217.988 1032.81 221.934 1033.36 225.899L1033.86 225.83C1034.41 229.784 1034.89 233.757 1035.32 237.746L1034.82 237.799C1035.24 241.756 1035.6 245.729 1035.9 249.718L1036.4 249.681C1036.69 253.663 1036.93 257.66 1037.1 261.67L1036.6 261.692C1036.77 265.668 1036.88 269.658 1036.93 273.66L1037.43 273.654C1037.48 277.641 1037.47 281.64 1037.4 285.649L1036.9 285.64C1036.83 289.627 1036.7 293.624 1036.52 297.63L1037.01 297.653C1036.83 301.631 1036.58 305.617 1036.28 309.611L1035.78 309.573C1035.48 313.55 1035.13 317.534 1034.71 321.525L1035.21 321.576C1034.8 325.538 1034.33 329.505 1033.8 333.478L1033.31 333.412C1032.79 337.361 1032.21 341.315 1031.58 345.272L1032.07 345.351C1031.44 349.291 1030.76 353.234 1030.02 357.179L1029.53 357.087C1028.8 360.997 1028.01 364.91 1027.17 368.824L1027.66 368.929C1026.82 372.836 1025.93 376.744 1024.99 380.652L1024.5 380.534C1023.57 384.397 1022.58 388.259 1021.54 392.121L1022.03 392.25C1020.99 396.106 1019.9 399.96 1018.77 403.812L1018.29 403.67C1017.16 407.486 1015.98 411.3 1014.75 415.11L1015.23 415.263C1014 419.059 1012.73 422.851 1011.41 426.639L1010.93 426.474C1009.62 430.235 1008.26 433.992 1006.84 437.743L1007.31 437.92C1005.91 441.648 1004.45 445.372 1002.95 449.089L1002.49 448.901C1001 452.6 999.456 456.293 997.867 459.978L998.326 460.176C996.75 463.832 995.127 467.48 993.458 471.12L993.003 470.911C991.338 474.541 989.627 478.162 987.87 481.774L988.319 481.993C986.579 485.57 984.793 489.138 982.962 492.695L982.517 492.466C980.691 496.015 978.819 499.554 976.903 503.081L977.342 503.32C975.442 506.818 973.498 510.305 971.509 513.78L971.075 513.531C969.094 516.994 967.069 520.444 965.001 523.882L965.43 524.14C963.376 527.553 961.28 530.954 959.141 534.341L958.718 534.074C956.589 537.445 954.418 540.803 952.204 544.147L952.621 544.423C950.421 547.746 948.179 551.055 945.896 554.349L945.485 554.065C943.214 557.34 940.903 560.601 938.55 563.847L938.955 564.14C936.615 567.368 934.234 570.581 931.813 573.777L931.414 573.475C929.009 576.651 926.563 579.811 924.077 582.954L924.469 583.265C921.995 586.393 919.482 589.504 916.93 592.597L916.544 592.279C914.008 595.352 911.434 598.407 908.821 601.445L909.2 601.771C906.599 604.794 903.96 607.8 901.282 610.786L900.91 610.453C898.25 613.419 895.554 616.366 892.819 619.294L893.185 619.635C890.462 622.55 887.703 625.446 884.906 628.322L884.548 627.973C881.77 630.829 878.957 633.665 876.106 636.481L876.458 636.836C873.62 639.639 870.747 642.421 867.838 645.182L867.494 644.82C866.04 646.199 864.578 647.573 863.106 648.942C861.635 650.311 860.158 651.671 858.678 653.021L859.015 653.39C856.051 656.093 853.068 658.758 850.068 661.385L849.739 661.009C846.725 663.649 843.693 666.251 840.645 668.815L840.966 669.197C837.896 671.779 834.809 674.323 831.705 676.828L831.391 676.438C828.273 678.954 825.139 681.432 821.989 683.87L822.295 684.265C819.123 686.72 815.935 689.136 812.731 691.512L812.433 691.111C809.216 693.498 805.982 695.845 802.735 698.152L803.024 698.559C799.755 700.882 796.47 703.164 793.172 705.406L792.891 704.992C789.576 707.245 786.248 709.456 782.907 711.627L783.179 712.046C779.816 714.23 776.441 716.373 773.052 718.474L772.789 718.049C769.382 720.161 765.963 722.231 762.531 724.26L762.786 724.69C759.336 726.73 755.873 728.727 752.4 730.681L752.155 730.246C748.66 732.212 745.154 734.136 741.638 736.016L741.874 736.457C738.341 738.346 734.798 740.191 731.246 741.993L731.02 741.547C727.441 743.362 723.854 745.132 720.257 746.858L720.474 747.309C716.864 749.042 713.246 750.729 709.621 752.372L709.414 751.917C705.758 753.574 702.093 755.185 698.422 756.751L698.618 757.211C694.937 758.78 691.25 760.304 687.557 761.782L687.371 761.317C683.642 762.81 679.907 764.255 676.166 765.654L676.341 766.122C672.591 767.525 668.835 768.88 665.075 770.188L664.91 769.716C661.12 771.034 657.326 772.305 653.529 773.528L653.682 774.004C649.867 775.232 646.048 776.412 642.228 777.543L642.086 777.064C638.242 778.202 634.397 779.291 630.551 780.33L630.681 780.813C626.808 781.86 622.934 782.857 619.059 783.804L618.941 783.318C615.052 784.269 611.163 785.169 607.276 786.018L607.383 786.507C603.459 787.364 599.536 788.171 595.616 788.925L595.521 788.434C591.595 789.19 587.672 789.894 583.752 790.546L583.834 791.039C579.868 791.699 575.906 792.306 571.949 792.86L571.879 792.365C567.915 792.92 563.956 793.421 560.003 793.869L560.059 794.366C556.071 794.818 552.089 795.216 548.114 795.559L548.071 795.061C544.078 795.406 540.093 795.696 536.117 795.931L536.146 796.43C532.147 796.667 528.156 796.847 524.175 796.973L524.159 796.473C520.149 796.599 516.15 796.668 512.161 796.681L512.163 797.181C508.158 797.194 504.164 797.15 500.184 797.048L500.197 796.548C496.187 796.446 492.192 796.286 488.21 796.067L488.183 796.566C484.179 796.347 480.19 796.068 476.217 795.73L476.259 795.232C472.271 794.894 468.3 794.495 464.346 794.038L464.289 794.535C460.301 794.073 456.332 793.551 452.381 792.969L452.454 792.474C448.497 791.89 444.56 791.246 440.643 790.541L440.555 791.033C436.607 790.322 432.68 789.549 428.775 788.715L428.88 788.226C424.965 787.389 421.074 786.49 417.207 785.528L417.086 786.013C413.201 785.047 409.34 784.018 405.505 782.926L405.642 782.445C401.79 781.348 397.965 780.188 394.167 778.963L394.014 779.439C390.203 778.211 386.42 776.918 382.667 775.561L382.837 775.091C379.077 773.731 375.346 772.307 371.646 770.818L371.459 771.282C367.745 769.787 364.061 768.227 360.411 766.602L360.614 766.145C356.965 764.521 353.349 762.831 349.767 761.075L349.547 761.524C345.954 759.764 342.395 757.937 338.873 756.044L339.109 755.604C335.593 753.714 332.112 751.759 328.669 749.738L328.416 750.169C324.968 748.145 321.557 746.055 318.186 743.898L318.455 743.477C315.096 741.328 311.775 739.114 308.496 736.834L308.21 737.244C304.931 734.964 301.692 732.618 298.495 730.206L298.796 729.807C295.613 727.406 292.472 724.939 289.375 722.408L289.058 722.795C285.971 720.271 282.927 717.683 279.927 715.029L280.259 714.655C277.273 712.013 274.331 709.307 271.435 706.536L271.089 706.898C268.211 704.145 265.379 701.328 262.593 698.447L262.952 698.1C261.562 696.662 260.182 695.208 258.815 693.738C257.448 692.268 256.097 690.788 254.763 689.297L254.39 689.63C251.718 686.643 249.113 683.615 246.575 680.546L246.961 680.228C244.406 677.139 241.919 674.01 239.5 670.841L239.103 671.144C236.673 667.961 234.311 664.738 232.017 661.477L232.425 661.189C230.124 657.917 227.89 654.606 225.725 651.259L225.305 651.53C223.13 648.168 221.024 644.768 218.987 641.332L219.417 641.077C217.379 637.642 215.41 634.17 213.509 630.664L213.07 630.903C211.162 627.385 209.324 623.832 207.554 620.247L208.002 620.025C206.234 616.445 204.535 612.833 202.905 609.189L202.448 609.393C200.815 605.743 199.25 602.062 197.753 598.351L198.216 598.164C196.724 594.465 195.299 590.736 193.942 586.979L193.472 587.149C192.115 583.391 190.824 579.605 189.602 575.792L190.078 575.639C188.86 571.842 187.709 568.018 186.624 564.169L186.143 564.305C185.06 560.463 184.044 556.597 183.093 552.707L183.579 552.589C182.632 548.713 181.75 544.814 180.934 540.893L180.445 540.995C179.632 537.091 178.885 533.166 178.201 529.221L178.694 529.136C178.014 525.209 177.398 521.263 176.846 517.298L176.351 517.367C175.8 513.413 175.312 509.441 174.888 505.451L175.385 505.399C174.965 501.441 174.606 497.468 174.31 493.479L173.811 493.516C173.515 489.534 173.281 485.537 173.109 481.527L173.608 481.505C173.437 477.529 173.326 473.539 173.276 469.537L172.776 469.544C172.727 465.556 172.737 461.558 172.806 457.548L173.306 457.557C173.376 453.57 173.504 449.573 173.691 445.567L173.192 445.544C173.378 441.566 173.622 437.58 173.924 433.586L174.422 433.624C174.723 429.647 175.08 425.663 175.496 421.672L174.998 421.621C175.41 417.659 175.879 413.692 176.403 409.719L176.899 409.785C177.42 405.836 177.997 401.882 178.629 397.925L178.135 397.846C178.765 393.906 179.449 389.963 180.187 386.018L180.679 386.11C181.411 382.2 182.197 378.287 183.036 374.373L182.548 374.268C183.385 370.361 184.277 366.453 185.221 362.545L185.707 362.663C186.64 358.8 187.626 354.938 188.663 351.076L188.18 350.947C189.215 347.091 190.302 343.237 191.441 339.385L191.92 339.527C193.048 335.711 194.227 331.897 195.455 328.087L194.979 327.934C196.204 324.138 197.477 320.346 198.801 316.558L199.273 316.723C200.588 312.962 201.951 309.205 203.364 305.454L202.896 305.278C204.3 301.549 205.752 297.825 207.253 294.108L207.716 294.296C209.21 290.597 210.751 286.904 212.339 283.219L211.88 283.021C213.456 279.365 215.079 275.717 216.749 272.077L217.203 272.286C218.868 268.656 220.579 265.035 222.337 261.423L221.887 261.204C223.628 257.627 225.413 254.059 227.244 250.502L227.689 250.731C229.516 247.182 231.387 243.643 233.304 240.116L232.864 239.877C234.764 236.379 236.709 232.892 238.697 229.417L239.131 229.666C241.112 226.203 243.137 222.753 245.205 219.315L244.777 219.057C246.83 215.644 248.927 212.243 251.066 208.856L251.488 209.123C253.617 205.752 255.789 202.394 258.003 199.05L257.586 198.774C259.786 195.451 262.027 192.142 264.311 188.848L264.721 189.132C266.992 185.857 269.304 182.596 271.656 179.35L271.252 179.057C273.592 175.829 275.972 172.616 278.393 169.42L278.792 169.722C281.198 166.546 283.644 163.386 286.13 160.243L285.737 159.933C288.211 156.804 290.724 153.693 293.277 150.6L293.663 150.918C296.198 147.845 298.772 144.79 301.385 141.752L301.006 141.426C303.607 138.403 306.247 135.397 308.925 132.411L309.297 132.744C311.956 129.778 314.653 126.831 317.387 123.903L317.022 123.562C319.744 120.647 322.504 117.751 325.3 114.875L325.659 115.224C328.436 112.368 331.25 109.532 334.1 106.716L333.749 106.361C336.586 103.558 339.459 100.776 342.369 98.0147L342.713 98.3773C344.166 96.9979 345.629 95.6237 347.1 94.2549C348.572 92.886 350.048 91.5264 351.529 90.1762L351.192 89.8068C354.156 87.1043 357.138 84.4392 360.138 81.8116L360.468 82.1877C363.481 79.548 366.513 76.9462 369.562 74.3823L369.24 73.9996C372.31 71.4178 375.398 68.8744 378.502 66.3694L378.816 66.7585C381.933 64.2426 385.067 61.7655 388.217 59.3273L387.911 58.9319C391.083 56.4767 394.272 54.061 397.475 51.6847L397.773 52.0863C400.991 49.6994 404.224 47.3523 407.472 45.0453L407.182 44.6376C410.452 42.315 413.736 40.0329 417.035 37.7913L417.316 38.2048C420.63 35.9524 423.958 33.7408 427.3 31.5704L427.028 31.1511C430.39 28.967 433.766 26.8244 437.154 24.7233L437.418 25.1482C440.825 23.0359 444.244 20.9655 447.675 18.9373L447.421 18.5068C450.871 16.4673 454.333 14.4702 457.806 12.5158L458.051 12.9515C461.546 10.9849 465.052 9.06151 468.568 7.18129L468.332 6.74037C471.865 4.85135 475.408 3.00587 478.961 1.20408L479.187 1.65C482.765 -0.164826 486.353 -1.93532 489.949 -3.66143L489.733 -4.1122C493.342 -5.84455 496.96 -7.53221 500.586 -9.17513L500.792 -8.7197C504.449 -10.3766 508.113 -11.988 511.785 -13.5537L511.589 -14.0136C515.269 -15.5831 518.956 -17.1068 522.649 -18.5847L522.835 -18.1204C526.565 -19.6128 530.3 -21.0582 534.04 -22.4567L533.865 -22.9251C537.616 -24.3276 541.372 -25.6829 545.132 -26.9911L545.296 -26.5188C549.086 -27.8375 552.88 -29.1081 556.678 -30.3306L556.524 -30.8066C560.34 -32.0349 564.158 -33.2149 567.979 -34.3462L568.121 -33.8668C571.964 -35.0049 575.809 -36.0938 579.656 -37.1334L579.525 -37.6161C583.399 -38.6629 587.273 -39.6599 591.147 -40.6069L591.266 -40.1212C595.155 -41.0717 599.043 -41.9718 602.931 -42.8214L602.824 -43.3099C606.748 -44.1674 610.67 -44.9735 614.59 -45.7282L614.685 -45.2371C618.611 -45.9929 622.535 -46.6969 626.455 -47.3491L626.373 -47.8424C630.338 -48.5022 634.3 -49.109 638.258 -49.6629L638.327 -49.1677C642.291 -49.7225 646.251 -50.224 650.204 -50.6721L650.147 -51.1689C654.136 -51.621 658.118 -52.0188 662.092 -52.3622L662.135 -51.864C666.128 -52.209 670.113 -52.4991 674.09 -52.7341L674.06 -53.2332C678.06 -53.4697 682.051 -53.6505 686.032 -53.7756L686.047 -53.2758C690.057 -53.4018 694.057 -53.4713 698.045 -53.484L698.043 -53.984C702.049 -53.9968 706.042 -53.9525 710.023 -53.851L710.01 -53.3512C714.019 -53.2489 718.015 -53.0885 721.996 -52.87L722.024 -53.3693C726.027 -53.1495 730.017 -52.8709 733.99 -52.5334L733.947 -52.0353C737.935 -51.6965 741.907 -51.2984 745.86 -50.8408L745.918 -51.3375C749.905 -50.876 753.875 -50.3541 757.825 -49.7716L757.752 -49.2769C761.709 -48.6934 765.646 -48.0492 769.563 -47.3439L769.652 -47.836C773.6 -47.1251 777.527 -46.3523 781.431 -45.5176L781.327 -45.0287C785.241 -44.1919 789.132 -43.2927 793 -42.3311L793.12 -42.8163C797.006 -41.8502 800.867 -40.8211 804.702 -39.729L804.565 -39.2481C808.416 -38.1512 812.242 -36.9908 816.039 -35.7664L816.192 -36.2423C820.003 -35.0138 823.786 -33.721 827.539 -32.364L827.369 -31.8938C831.13 -30.5343 834.861 -29.1101 838.561 -27.6213L838.747 -28.0851C842.462 -26.5903 846.145 -25.0304 849.795 -23.4052L849.592 -22.9484C853.241 -21.3238 856.858 -19.6338 860.439 -17.8784L860.66 -18.3274C864.253 -16.5665 867.811 -14.7398 871.334 -12.8473L871.097 -12.4068C874.614 -10.5173 878.094 -8.56204 881.537 -6.54096L881.791 -6.97215C885.239 -4.94788 888.65 -2.8576 892.021 -0.70126L891.752 -0.280014C895.111 1.86866 898.431 4.08305 901.711 6.36328L901.996 5.95276C905.276 8.23301 908.515 10.579 911.712 12.9908L911.411 13.39C914.593 15.7911 917.734 18.2576 920.832 20.7895L921.148 20.4024C924.235 22.9259 927.279 25.5143 930.279 28.1678L929.948 28.5423C932.934 31.1838 935.876 33.8899 938.772 36.6606L939.117 36.2993Z" stroke="#01AA89" stroke-dasharray="12 12"/>
</svg>
