<svg width="128" height="40" viewBox="0 0 128 40" fill="none" xmlns="http://www.w3.org/2000/svg">
<path d="M25.3967 26.6651H23.6301C23.5692 26.6651 23.5107 26.6891 23.4677 26.732C23.4245 26.7749 23.4003 26.8329 23.4003 26.8935V32.7062C23.4003 32.7381 23.394 32.7696 23.3817 32.799C23.3695 32.8285 23.3515 32.8553 23.3288 32.8778C23.3061 32.9004 23.2792 32.9183 23.2496 32.9305C23.22 32.9427 23.1883 32.9489 23.1562 32.9489H19.58C19.5481 32.9489 19.5162 32.9427 19.4867 32.9305C19.457 32.9183 19.4301 32.9004 19.4074 32.8778C19.3848 32.8553 19.3667 32.8285 19.3545 32.799C19.3422 32.7696 19.3359 32.7381 19.3359 32.7062V16.5109C19.3359 16.4465 19.3616 16.3848 19.4074 16.3392C19.4532 16.2937 19.5153 16.2681 19.58 16.2681H25.4972C29.1737 16.2681 32.0605 17.5963 32.0605 21.4095C32.0605 25.2227 28.9153 26.6651 25.3967 26.6651ZM25.1525 19.5243H23.6301C23.5692 19.5243 23.5107 19.5483 23.4677 19.5912C23.4245 19.634 23.4003 19.6922 23.4003 19.7528V23.2233C23.4003 23.2838 23.4245 23.3419 23.4677 23.3848C23.5107 23.4277 23.5692 23.4517 23.6301 23.4517H25.0663C26.5887 23.4517 27.9386 23.009 27.9386 21.4237C27.9386 19.8385 26.6174 19.5243 25.1668 19.5243H25.1525Z" fill="white"/>
<path d="M47.7298 32.806L46.5378 29.8212C46.5204 29.7787 46.4907 29.7423 46.4522 29.7168C46.4138 29.6913 46.3685 29.678 46.3223 29.6784H40.1467C40.1005 29.678 40.0552 29.6913 40.0169 29.7168C39.9785 29.7423 39.9486 29.7787 39.9313 29.8212L38.8111 32.806C38.7937 32.8487 38.764 32.8851 38.7255 32.9105C38.6871 32.936 38.6418 32.9494 38.5956 32.9489H34.6892C34.6514 32.9492 34.6141 32.9404 34.5805 32.9229C34.5469 32.9056 34.5183 32.8802 34.497 32.8491C34.4756 32.818 34.4624 32.7822 34.4583 32.7449C34.4543 32.7074 34.4596 32.6696 34.4739 32.6347L41.3244 16.4109C41.3417 16.3683 41.3715 16.3319 41.4099 16.3064C41.4484 16.281 41.4937 16.2675 41.5398 16.2681H45.1733C45.2195 16.2675 45.2648 16.281 45.3033 16.3064C45.3417 16.3319 45.3715 16.3683 45.3888 16.4109L52.1675 32.6489C52.1818 32.6839 52.1871 32.7217 52.1831 32.7591C52.179 32.7965 52.1657 32.8323 52.1444 32.8634C52.1231 32.8945 52.0944 32.9198 52.0609 32.9373C52.0273 32.9547 51.9899 32.9636 51.9522 32.9632H47.9452C47.8973 32.9626 47.8508 32.9471 47.8121 32.9189C47.7736 32.8907 47.7447 32.8513 47.7298 32.806ZM43.0622 21.2952L41.2669 26.1366C41.2557 26.1707 41.2526 26.207 41.258 26.2424C41.2635 26.2779 41.2772 26.3117 41.2982 26.3409C41.3193 26.3701 41.3468 26.394 41.3788 26.4106C41.4107 26.4271 41.4463 26.436 41.4824 26.4365H45.0441C45.0803 26.436 45.1157 26.4271 45.1476 26.4106C45.1797 26.394 45.2073 26.3701 45.2282 26.3409C45.2492 26.3117 45.263 26.2779 45.2684 26.2424C45.2738 26.207 45.2708 26.1707 45.2595 26.1366L43.4931 21.2952C43.4753 21.2519 43.4447 21.2151 43.4053 21.1897C43.3658 21.1643 43.3195 21.1515 43.2726 21.153C43.2257 21.1546 43.1803 21.1705 43.1427 21.1985C43.1051 21.2263 43.077 21.2651 43.0622 21.3095V21.2952Z" fill="white"/>
<path d="M67.0619 32.8484L63.6582 27.3786C63.6374 27.3461 63.6088 27.3195 63.5749 27.301C63.541 27.2824 63.503 27.2728 63.4643 27.2728C63.4257 27.2728 63.3877 27.2824 63.3538 27.301C63.3198 27.3195 63.2912 27.3461 63.2704 27.3786L59.9959 32.8484C59.9756 32.8835 59.9463 32.9126 59.911 32.9325C59.8756 32.9526 59.8356 32.9631 59.7948 32.9626H55.4863C55.4448 32.9621 55.4043 32.9503 55.369 32.9287C55.3337 32.907 55.3049 32.8763 55.2857 32.8396C55.2665 32.803 55.2577 32.7619 55.2602 32.7207C55.2627 32.6795 55.2763 32.6398 55.2996 32.6057L60.8576 24.2652C60.8836 24.2273 60.8975 24.1826 60.8975 24.1367C60.8975 24.0909 60.8836 24.046 60.8576 24.0082L55.831 16.6246C55.8077 16.5904 55.7941 16.5507 55.7916 16.5095C55.7892 16.4683 55.798 16.4272 55.8171 16.3906C55.8363 16.354 55.865 16.3232 55.9003 16.3016C55.9357 16.2799 55.9762 16.2681 56.0178 16.2676H60.3263C60.3669 16.2671 60.407 16.2776 60.4423 16.2977C60.4776 16.3178 60.507 16.3467 60.5273 16.3818L63.3997 21.1232C63.4204 21.1558 63.449 21.1824 63.483 21.201C63.5169 21.2194 63.5549 21.2292 63.5935 21.2292C63.6322 21.2292 63.6703 21.2194 63.7041 21.201C63.738 21.1824 63.7668 21.1558 63.7875 21.1232L66.6598 16.3818C66.6802 16.3467 66.7095 16.3178 66.7448 16.2977C66.7801 16.2776 66.8202 16.2671 66.8609 16.2676H71.0114C71.053 16.2681 71.0935 16.2799 71.1288 16.3016C71.1641 16.3232 71.193 16.354 71.2121 16.3906C71.2312 16.4272 71.24 16.4683 71.2375 16.5095C71.2351 16.5507 71.2216 16.5904 71.1982 16.6246L66.1572 23.9938C66.1312 24.0318 66.1173 24.0765 66.1173 24.1224C66.1173 24.1682 66.1312 24.213 66.1572 24.251L71.9019 32.5771C71.9252 32.6112 71.9389 32.651 71.9413 32.6922C71.9437 32.7334 71.9349 32.7745 71.9158 32.8111C71.8966 32.8477 71.8679 32.8785 71.8326 32.9001C71.7973 32.9218 71.7567 32.9335 71.7152 32.9341H67.3205C67.2738 32.9491 67.2236 32.9489 67.177 32.9335C67.1306 32.9181 67.0902 32.8882 67.0619 32.8484Z" fill="white"/>
<path d="M83.9935 33.4053C79.5843 33.4053 76.8125 30.6633 76.8125 26.6645V16.496C76.8125 16.4354 76.8367 16.3773 76.8799 16.3345C76.923 16.2916 76.9814 16.2675 77.0423 16.2675H80.604C80.6649 16.2675 80.7234 16.2916 80.7665 16.3345C80.8097 16.3773 80.8339 16.4354 80.8339 16.496V26.3217C80.8047 26.7512 80.8646 27.182 81.0098 27.5876C81.155 27.993 81.3825 28.3645 81.6781 28.679C81.9737 28.9934 82.331 29.2441 82.7282 29.4155C83.1252 29.587 83.5534 29.6754 83.9863 29.6754C84.4191 29.6754 84.8474 29.587 85.2444 29.4155C85.6414 29.2441 85.9989 28.9934 86.2945 28.679C86.5901 28.3645 86.8175 27.993 86.9628 27.5876C87.108 27.182 87.1679 26.7512 87.1387 26.3217V16.496C87.1375 16.4606 87.1447 16.4253 87.1596 16.3931C87.1747 16.3608 87.1969 16.3325 87.2248 16.3103C87.2527 16.2882 87.2854 16.2728 87.3202 16.2653C87.3552 16.2579 87.3913 16.2587 87.426 16.2675H91.0164C91.0773 16.2675 91.1358 16.2916 91.1788 16.3345C91.222 16.3773 91.2462 16.4354 91.2462 16.496V26.6645C91.2175 30.6633 88.3738 33.4053 83.9935 33.4053Z" fill="white"/>
<path d="M113.278 32.9489C113.214 32.9489 113.151 32.9233 113.106 32.8777C113.06 32.8322 113.034 32.7705 113.034 32.7061L113.135 21.1381L108.826 32.7918C108.809 32.8382 108.777 32.8781 108.736 32.9062C108.695 32.9342 108.646 32.9491 108.596 32.9489H106.097C106.047 32.9491 105.999 32.9342 105.958 32.9062C105.917 32.8781 105.885 32.8382 105.868 32.7918L101.616 21.1381L101.703 32.7061C101.703 32.738 101.696 32.7695 101.684 32.799C101.672 32.8284 101.654 32.8552 101.631 32.8777C101.608 32.9003 101.581 32.9181 101.552 32.9304C101.522 32.9426 101.49 32.9489 101.458 32.9489H98.0547C98.0227 32.9489 97.9909 32.9426 97.9613 32.9304C97.9317 32.9181 97.9048 32.9003 97.8821 32.8777C97.8594 32.8552 97.8415 32.8284 97.8292 32.799C97.8169 32.7695 97.8105 32.738 97.8105 32.7061V16.5109C97.8105 16.4465 97.8362 16.3846 97.8821 16.3391C97.9278 16.2936 97.99 16.2681 98.0547 16.2681H103.397C103.447 16.2677 103.496 16.2826 103.537 16.3107C103.578 16.3388 103.609 16.3788 103.627 16.4252L107.39 26.9649H107.533L111.124 16.4252C111.142 16.3788 111.173 16.3388 111.214 16.3107C111.255 16.2826 111.304 16.2677 111.354 16.2681H116.797C116.862 16.2681 116.924 16.2936 116.97 16.3391C117.015 16.3846 117.041 16.4465 117.041 16.5109V32.7204C117.041 32.7848 117.015 32.8465 116.97 32.8921C116.924 32.9376 116.862 32.9631 116.797 32.9631L113.278 32.9489Z" fill="white"/>
<path d="M7 18.2815H11.3804C11.3992 15.6549 12.4568 13.1411 14.3246 11.2837C16.1925 9.42631 18.7204 8.37457 21.3618 8.35587V4C17.5528 4 13.8998 5.50466 11.2065 8.18296C8.51312 10.8613 7 14.4938 7 18.2815Z" fill="#FF5252"/>
</svg>
