<svg width="128" height="40" viewBox="0 0 128 40" fill="none" xmlns="http://www.w3.org/2000/svg">
<path d="M49.6819 28.2774C50.8641 28.2774 51.9984 27.9758 53.0847 27.4127L53.2924 25.0198C52.238 25.5426 51.2635 25.8041 50.3209 25.8041C47.9246 25.8041 46.7265 24.1552 46.7265 20.8574C46.7265 17.5597 47.9086 15.9108 50.289 15.9108C51.2635 15.9108 52.2061 16.1722 53.1646 16.7353V14.3424C52.0144 13.7391 50.8801 13.4375 49.7138 13.4375C46.2631 13.4375 44.3301 16.1119 44.3301 20.8574C44.3301 25.603 46.2631 28.2774 49.6819 28.2774Z" fill="#9FCE4F"/>
<path d="M66.8662 17.2983C65.9396 17.2983 65.1728 17.6603 64.5338 18.4043H64.4858V17.5397H62.2812V30.811L64.5018 31.8969V27.071H64.5338C65.1249 27.8753 65.9396 28.2775 66.9301 28.2775C69.1028 28.2775 70.3489 26.2867 70.3489 22.7879C70.3489 19.3293 69.0709 17.2983 66.8662 17.2983ZM66.2272 26.2063C65.4923 26.2063 64.8852 25.7438 64.5018 24.8993V20.576C64.9012 19.7918 65.5083 19.3695 66.2432 19.3695C67.4733 19.3695 68.1283 20.5559 68.1283 22.7879C68.1283 24.9998 67.4573 26.2063 66.2272 26.2063Z" fill="#9FCE4F"/>
<path d="M71.4004 16.3331H73.7648V14.3877H71.4004V16.3331ZM71.4803 28.0361H73.685V17.5396H71.4803V28.0361Z" fill="#9FCE4F"/>
<path d="M78.6778 26.2063C78.1666 26.2063 77.911 25.8444 77.911 25.1607V19.5304H79.173V17.5397H77.911V15.6093L75.7064 14.6592V17.5397H74.668V19.5304H75.7064V25.1407C75.7064 27.2118 76.4732 28.2776 77.9749 28.2776C78.3583 28.2776 78.7098 28.1971 79.173 28.0161L79.3488 26.0053C79.0932 26.146 78.8855 26.2063 78.6778 26.2063Z" fill="#9FCE4F"/>
<path d="M87.2047 26.2259C86.9171 26.2259 86.7893 26.065 86.7893 25.683V21.2189C86.7893 18.625 85.6071 17.2979 83.2588 17.2979C82.2682 17.2979 81.2778 17.519 80.3192 17.9815V19.9924C81.2139 19.5902 82.0925 19.369 82.8753 19.369C84.0895 19.369 84.5687 19.9119 84.5687 21.2189V21.581L82.0127 21.9831C80.463 22.2445 79.7441 23.1695 79.7441 24.9591C79.7441 27.0102 80.7505 28.277 82.4121 28.277C83.4025 28.277 84.2812 27.8145 84.8563 26.9498H84.9042C85.1119 27.8145 85.6551 28.277 86.4378 28.277C86.7734 28.277 87.0929 28.1966 87.3964 28.0357L87.652 26.1455C87.4603 26.2058 87.3165 26.2259 87.2047 26.2259ZM82.9871 26.2058C82.2842 26.2058 81.9008 25.7434 81.9008 24.8787C81.9008 24.1548 82.1564 23.7727 82.7635 23.6923L84.1547 23.4108V24.8307C84.0299 25.5171 83.6102 26.2058 82.9871 26.2058Z" fill="#9FCE4F"/>
<path d="M90.5768 28.2773C90.9922 28.2773 91.3595 28.1969 91.7909 28.0159L91.9826 26.0453C91.7111 26.1458 91.5034 26.2061 91.3117 26.2061C90.8004 26.2061 90.5449 25.8442 90.5449 25.1605V13.6787L88.3242 12.7588V25.1404C88.3242 27.2116 89.091 28.2773 90.5768 28.2773Z" fill="#9FCE4F"/>
<path d="M92.6973 16.3331H95.0617V14.3877H92.6973V16.3331ZM92.7772 28.0361H94.9818V17.5396H92.7772V28.0361Z" fill="#9FCE4F"/>
<path d="M99.1287 28.277C101.589 28.277 102.787 27.1509 102.787 24.8385C102.787 23.0086 102.068 21.9831 100.583 21.7016L99.0489 21.4201C98.5377 21.3195 98.33 21.038 98.33 20.4749C98.33 19.6907 98.7454 19.369 99.7677 19.369C100.487 19.369 101.349 19.5299 102.308 19.8315V17.7402C101.43 17.4386 100.503 17.2979 99.5921 17.2979C97.1957 17.2979 96.1094 18.2832 96.1094 20.4549C96.1094 22.2445 96.8123 23.2298 98.314 23.5113L99.7358 23.7928C100.343 23.9135 100.567 24.2352 100.567 24.8988C100.567 25.8238 100.119 26.2058 98.937 26.2058C98.1543 26.2058 97.3395 26.045 96.5088 25.7232L96.1573 27.7742C97.1159 28.096 98.1543 28.277 99.1287 28.277Z" fill="#9FCE4F"/>
<path d="M107.328 26.2062C106.817 26.2062 106.561 25.8443 106.561 25.1606V19.5303H107.823V17.5396H106.561V15.6092L104.357 14.5234V17.5396H103.318V19.5303H104.357V25.1406C104.357 27.2117 105.124 28.2775 106.625 28.2775C107.009 28.2775 107.36 28.197 107.823 28.016L108 26.0052C107.743 26.1459 107.536 26.2062 107.328 26.2062Z" fill="#9FCE4F"/>
<path d="M61.359 26.2259C61.0714 26.2259 60.9436 26.065 60.9436 25.683V21.2189C60.9436 18.625 59.7615 17.2979 57.4131 17.2979C56.4225 17.2979 55.4321 17.519 54.4736 17.9815V19.9924C55.3682 19.5902 56.2469 19.369 57.0296 19.369C58.2438 19.369 58.7231 19.9119 58.7231 21.2189V21.5809L56.167 21.9831C54.6173 22.2445 53.8984 23.1695 53.8984 24.9591C53.8984 27.0101 54.9049 28.2769 56.5664 28.2769C57.5568 28.2769 58.4355 27.8145 59.0106 26.9498H59.0585C59.2662 27.8145 59.8094 28.2769 60.5922 28.2769C60.9277 28.2769 61.2472 28.1965 61.5507 28.0357L61.8063 26.1455C61.6147 26.2058 61.4708 26.2259 61.359 26.2259ZM57.1414 26.2058C56.4386 26.2058 56.0551 25.7433 56.0551 24.8787C56.0551 24.1548 56.3107 23.7727 56.9178 23.6923L58.309 23.4108V24.8307C58.1842 25.5171 57.7645 26.2058 57.1414 26.2058Z" fill="#9FCE4F"/>
<path d="M24.1352 5.1774C23.4148 5.47976 23.4702 6.20571 23.558 6.87945C23.75 8.35345 23.9668 9.82586 24.1811 11.2964C24.2491 11.7634 24.2291 12.6635 24.5533 13.015C24.7593 13.2384 25.0989 13.2044 25.3674 13.2063L27.1622 13.2064H32.9952C33.6796 13.2064 34.8075 13.4366 35.4375 13.1344C35.9208 12.9025 35.8855 11.895 35.9577 11.4158C36.1797 9.9457 36.4067 8.4736 36.5993 6.99882C36.6809 6.37457 36.8154 5.71011 36.2416 5.29678C35.5337 4.78676 34.0444 5.08879 33.2195 5.08879H26.9378C26.1145 5.08879 24.908 4.85305 24.1352 5.1774Z" fill="#9FCE4F"/>
<path d="M24.9542 14.2841C24.563 14.5621 24.7356 15.1919 24.7974 15.5939C24.9538 16.6107 24.859 17.9599 25.8165 18.5286C27.6082 19.593 30.1504 19.4623 32.0977 19.1752C32.9106 19.0554 33.8758 18.8711 34.5532 18.3436C35.3044 17.7589 35.2439 16.2509 35.3783 15.3551C35.4314 15.0015 35.5382 14.5227 35.2029 14.2841C34.6883 13.9178 33.4837 14.1614 32.8829 14.1614H27.1621C26.5847 14.1614 25.45 13.9319 24.9542 14.2841ZM21.5555 17.5973C20.8489 17.8581 20.8591 18.8782 21.3456 19.3508C22.2464 20.2258 23.6774 20.7577 24.8064 21.1983C28.402 22.6014 32.2349 22.5637 35.7994 21.0609C36.8133 20.6335 38.0952 20.1261 38.9017 19.3231C39.5186 18.7087 39.2938 17.6354 38.3793 17.6338C37.8199 17.6329 37.378 18.0218 36.9211 18.3153C36.2772 18.7289 35.601 19.0651 34.902 19.3602C32.9616 20.1796 30.7975 20.4402 28.7325 20.2294C27.012 20.0537 25.3209 19.4606 23.7969 18.6045C23.2022 18.2703 22.2762 17.3315 21.5555 17.5973Z" fill="#9FCE4F"/>
<path fill-rule="evenodd" clip-rule="evenodd" d="M29.1792 25.2634C29.7746 25.0761 30.4907 25.0761 31.0861 25.2634C31.998 21.9658 36.7072 22.9527 36.5781 26.3379C36.4815 28.8707 33.4779 30.1476 31.7698 28.3547C31.4936 28.0649 31.3485 27.6415 31.2083 27.2325C30.9748 26.5509 30.755 25.9093 29.965 25.9933C29.3969 26.0535 29.2357 26.6081 29.074 27.1645C28.9847 27.4715 28.8953 27.7791 28.7373 28.0045C27.5908 29.6408 25.1802 29.5392 24.092 27.8897C22.3914 25.3117 25.4446 21.9398 27.9453 23.5916C28.5426 23.9862 28.9136 24.589 29.1792 25.2634ZM26.1528 24.0141C23.5114 24.5541 24.1867 28.8204 26.8258 28.3281C29.3975 27.8483 28.6738 23.4989 26.1528 24.0141ZM33.5563 24.0106C30.9327 24.3908 31.3691 28.6643 34.0049 28.3449C36.6051 28.0297 36.1371 23.6367 33.5563 24.0106Z" fill="#9FCE4F"/>
<path d="M22.5625 31.7098C22.7257 35.5025 28.2096 35.956 30.0781 33.381C32.3118 35.6493 37.1951 35.7269 37.7059 31.7098C36.752 32.0458 36.1037 32.8167 35.0138 32.6093C33.6567 32.3513 33.0396 31.1648 31.8729 30.5844C31.2085 30.2539 30.5112 30.5659 30.1903 31.2323C29.9204 30.96 29.6489 30.6618 29.2929 30.5189C28.7743 30.3108 28.2444 30.6076 27.8347 30.9377C27.1373 31.4993 26.567 32.2107 25.7034 32.4925C24.4179 32.9121 23.6845 32.2053 22.5625 31.7098Z" fill="#9FCE4F"/>
</svg>
