<svg width="128" height="40" viewBox="0 0 128 40" fill="none" xmlns="http://www.w3.org/2000/svg">
<path d="M50.2804 36.9272V34.7189C50.2804 33.8742 49.746 33.3211 48.8287 33.3211C48.37 33.3211 47.8713 33.4668 47.5284 33.9471C47.2612 33.544 46.8783 33.3211 46.3039 33.3211C45.9209 33.3211 45.5379 33.4325 45.2351 33.8356V33.3939H44.4336V36.9272H45.2351V34.9762C45.2351 34.3501 45.578 34.0543 46.1124 34.0543C46.6467 34.0543 46.9139 34.3844 46.9139 34.9762V36.9272H47.7154V34.9762C47.7154 34.3501 48.0984 34.0543 48.5927 34.0543C49.127 34.0543 49.3942 34.3844 49.3942 34.9762V36.9272H50.2804ZM62.1699 33.3939H60.8696V32.3263H60.068V33.3939H59.3422V34.0929H60.068V35.7137C60.068 36.5241 60.4109 37.0001 61.3282 37.0001C61.6711 37.0001 62.0541 36.8886 62.3213 36.7428L62.0897 36.0782C61.8582 36.2239 61.591 36.2625 61.3995 36.2625C61.0165 36.2625 60.8651 36.0396 60.8651 35.6751V34.0929H62.1654V33.3939H62.1699ZM68.974 33.3168C68.5154 33.3168 68.2081 33.5397 68.0166 33.8313V33.3897H67.2151V36.9229H68.0166V34.9333C68.0166 34.3459 68.2838 34.0114 68.7826 34.0114C68.934 34.0114 69.1254 34.05 69.2813 34.0843L69.5128 33.3468C69.3525 33.3168 69.1254 33.3168 68.974 33.3168ZM58.6921 33.6855C58.3091 33.4282 57.7748 33.3168 57.2003 33.3168C56.283 33.3168 55.6729 33.7584 55.6729 34.4573C55.6729 35.0448 56.1316 35.3792 56.9331 35.4864L57.3161 35.525C57.7347 35.5979 57.9662 35.7094 57.9662 35.8938C57.9662 36.1511 57.659 36.3354 57.1246 36.3354C56.5903 36.3354 56.1672 36.1511 55.9 35.9667L55.5171 36.5541C55.9357 36.85 56.5101 36.9958 57.0845 36.9958C58.1533 36.9958 58.7678 36.5155 58.7678 35.8552C58.7678 35.2292 58.269 34.899 57.5076 34.7875L57.1246 34.7489C56.7817 34.7103 56.5146 34.6374 56.5146 34.4187C56.5146 34.1615 56.7817 34.0157 57.2048 34.0157C57.6634 34.0157 58.1221 34.2001 58.3536 34.3116L58.6921 33.6855ZM80.0175 33.3168C79.5588 33.3168 79.2515 33.5397 79.0601 33.8313V33.3897H78.2585V36.9229H79.0601V34.9333C79.0601 34.3459 79.3272 34.0114 79.826 34.0114C79.9774 34.0114 80.1689 34.05 80.3247 34.0843L80.5563 33.3554C80.4004 33.3168 80.1733 33.3168 80.0175 33.3168ZM69.7756 35.1606C69.7756 36.2282 70.5415 37.0001 71.726 37.0001C72.2603 37.0001 72.6433 36.8886 73.0263 36.597L72.6433 35.971C72.336 36.1939 72.0332 36.3011 71.6859 36.3011C71.0358 36.3011 70.5771 35.8595 70.5771 35.1606C70.5771 34.4959 71.0358 34.0543 71.6859 34.02C72.0288 34.02 72.336 34.1315 72.6433 34.3501L73.0263 33.7241C72.6433 33.4282 72.2603 33.3211 71.726 33.3211C70.5415 33.3168 69.7756 34.0929 69.7756 35.1606ZM77.1898 35.1606V33.3939H76.3883V33.8356C76.1211 33.5054 75.7381 33.3211 75.2394 33.3211C74.2063 33.3211 73.4048 34.0929 73.4048 35.1606C73.4048 36.2282 74.2063 37.0001 75.2394 37.0001C75.7738 37.0001 76.1567 36.8157 76.3883 36.4855V36.9272H77.1898V35.1606ZM74.2464 35.1606C74.2464 34.5345 74.665 34.02 75.3552 34.02C76.0053 34.02 76.464 34.5002 76.464 35.1606C76.464 35.7866 76.0053 36.3011 75.3552 36.3011C74.6694 36.2625 74.2464 35.7823 74.2464 35.1606ZM64.6546 33.3168C63.5859 33.3168 62.82 34.0543 62.82 35.1563C62.82 36.2625 63.5859 36.9958 64.6947 36.9958C65.2291 36.9958 65.7634 36.85 66.1865 36.5155L65.8035 35.9624C65.4962 36.1854 65.1133 36.3311 64.7348 36.3311C64.2361 36.3311 63.7418 36.1082 63.626 35.4864H66.3379C66.3379 35.3749 66.3379 35.3021 66.3379 35.1906C66.3735 34.0543 65.6833 33.3168 64.6546 33.3168ZM64.6546 33.9814C65.1534 33.9814 65.4962 34.2772 65.5719 34.8261H63.6616C63.7373 34.3501 64.0802 33.9814 64.6546 33.9814ZM84.5684 35.1606V31.9961H83.7669V33.8356C83.4997 33.5054 83.1167 33.3211 82.618 33.3211C81.5849 33.3211 80.7834 34.0929 80.7834 35.1606C80.7834 36.2282 81.5849 37.0001 82.618 37.0001C83.1524 37.0001 83.5353 36.8157 83.7669 36.4855V36.9272H84.5684V35.1606ZM81.625 35.1606C81.625 34.5345 82.0436 34.02 82.7338 34.02C83.3839 34.02 83.8426 34.5002 83.8426 35.1606C83.8426 35.7866 83.3839 36.3011 82.7338 36.3011C82.0436 36.2625 81.625 35.7823 81.625 35.1606ZM54.7913 35.1606V33.3939H53.9897V33.8356C53.7225 33.5054 53.3396 33.3211 52.8408 33.3211C51.8077 33.3211 51.0062 34.0929 51.0062 35.1606C51.0062 36.2282 51.8077 37.0001 52.8408 37.0001C53.3752 37.0001 53.7582 36.8157 53.9897 36.4855V36.9272H54.7913V35.1606ZM51.8122 35.1606C51.8122 34.5345 52.2308 34.02 52.921 34.02C53.5711 34.02 54.0298 34.5002 54.0298 35.1606C54.0298 35.7866 53.5711 36.3011 52.921 36.3011C52.2308 36.2625 51.8122 35.7823 51.8122 35.1606Z" fill="white"/>
<path d="M70.5702 4.97852H58.3926V26.8721H70.5702V4.97852Z" fill="#FF5A00"/>
<path d="M59.2036 15.9258C59.2036 11.4776 61.2933 7.52974 64.4998 4.97894C62.14 3.12217 59.1631 2 55.916 2C48.2239 2 42 8.22828 42 15.9258C42 23.6232 48.2239 29.8515 55.916 29.8515C59.1631 29.8515 62.14 28.7293 64.4998 26.8726C61.2888 24.3578 59.2036 20.3739 59.2036 15.9258Z" fill="#EB001B"/>
<path d="M86.9998 15.9258C86.9998 23.6232 80.7759 29.8515 73.0838 29.8515C69.8367 29.8515 66.8599 28.7293 64.5 26.8726C67.7471 24.3173 69.7962 20.3739 69.7962 15.9258C69.7962 11.4776 67.7065 7.52974 64.5 4.97894C66.8554 3.12217 69.8322 2 73.0793 2C80.7759 2 86.9998 8.26884 86.9998 15.9258Z" fill="#F79E1B"/>
</svg>
