<svg width="128" height="40" viewBox="0 0 128 40" fill="none" xmlns="http://www.w3.org/2000/svg">
<path d="M59.7333 30.4458H54.5488L57.7916 10.3647H62.9757L59.7333 30.4458Z" fill="#00579F"/>
<path d="M78.5285 10.8549C77.5059 10.4486 75.884 10 73.8784 10C68.7586 10 65.1533 12.7343 65.1312 16.6435C65.0887 19.5277 67.7125 21.1297 69.6749 22.0914C71.6807 23.0741 72.3625 23.7155 72.3625 24.5914C72.3421 25.9367 70.7417 26.5568 69.2491 26.5568C67.1792 26.5568 66.0702 26.2371 64.3847 25.4887L63.702 25.1678L62.9766 29.6756C64.1925 30.2304 66.4328 30.7227 68.7586 30.7443C74.1985 30.7443 77.7401 28.0523 77.782 23.8864C77.8027 21.6005 76.4172 19.8489 73.4302 18.4175C71.6169 17.4987 70.5064 16.8792 70.5064 15.9391C70.5277 15.0844 71.4457 14.2091 73.4926 14.2091C75.178 14.1662 76.4164 14.5719 77.3545 14.978L77.8234 15.1912L78.5285 10.8549Z" fill="#00579F"/>
<path d="M85.4177 23.3318C85.8446 22.1781 87.4875 17.7133 87.4875 17.7133C87.466 17.7561 87.9137 16.5383 88.1697 15.7907L88.532 17.521C88.532 17.521 89.5137 22.3278 89.7269 23.3318C88.9167 23.3318 86.4417 23.3318 85.4177 23.3318ZM91.8172 10.3647H87.8071C86.5704 10.3647 85.6309 10.7276 85.0973 12.0309L77.3965 30.4455H82.8364C82.8364 30.4455 83.732 27.967 83.9245 27.4332C84.5212 27.4332 89.8131 27.4332 90.5809 27.4332C90.7297 28.1382 91.1995 30.4455 91.1995 30.4455H95.9998L91.8172 10.3647Z" fill="#00579F"/>
<path d="M50.2179 10.3647L45.1406 24.0581L44.5858 21.2809C43.6471 18.0764 40.7032 14.5948 37.418 12.8637L42.0686 30.4245H47.551L55.7 10.3647H50.2179Z" fill="#00579F"/>
<path d="M40.4266 10.3647H32.0853L32 10.7705C38.5067 12.4369 42.816 16.4537 44.5865 21.2818L42.7732 12.0527C42.4746 10.7702 41.5572 10.4071 40.4266 10.3647Z" fill="#FAA61A"/>
</svg>
