<svg width="128" height="40" viewBox="0 0 128 40" fill="none" xmlns="http://www.w3.org/2000/svg">
<path d="M24.3363 18.8261C24.3223 18.3758 24.1195 18.1434 23.7259 18.1281H21.623C21.1253 18.16 20.8682 18.4459 20.8562 18.9837V22.9437C20.8682 23.4989 21.1525 23.782 21.7052 23.7979H23.6324C23.8326 23.7979 23.9989 23.7202 24.1315 23.5613C24.27 23.442 24.3363 23.2886 24.3363 23.0985V18.8261ZM18.1562 18.2641C18.1702 17.2732 18.3809 16.5203 18.7898 16.0055C19.0039 15.7896 19.2716 15.6092 19.5977 15.46C19.9364 15.3011 20.2644 15.2241 20.5825 15.2241H24.4423C26.1449 15.2394 27.0104 16.2143 27.0376 18.151V24.1116C27.025 24.7992 26.7678 25.396 26.2708 25.8949C25.7784 26.4195 25.1905 26.6866 24.5059 26.7026H20.8562V30.9999H18.1562V18.2641Z" fill="#008AC9"/>
<path d="M31.9116 23.2232C31.9116 23.389 31.9845 23.5202 32.127 23.6187C32.2542 23.7367 32.4146 23.7984 32.6174 23.7984H34.6911C35.1596 23.7984 35.4029 23.6083 35.4168 23.2232V22.4127C35.4168 21.97 35.1696 21.7466 34.6712 21.7466H32.6174C32.347 21.7466 32.1601 21.7937 32.0561 21.8826C31.96 21.9873 31.9116 22.1948 31.9116 22.5022V23.2232ZM35.4168 18.7566C35.4307 18.3222 35.1888 18.1147 34.6904 18.1286H29.2527V15.2246H35.375C37.1585 15.2551 38.0638 16.1572 38.0942 17.9384V24.0135C38.079 24.7817 37.8543 25.4152 37.4182 25.919C36.9623 26.4408 36.3744 26.7031 35.654 26.7031H31.9533C30.152 26.6871 29.2388 25.826 29.2109 24.1141V21.7702C29.2249 19.9813 30.0977 19.0723 31.8254 19.0411H35.4168V18.7566Z" fill="#008AC9"/>
<path d="M45.6778 28.0952C45.8918 28.0814 46.0774 28.0009 46.2278 27.8565C46.3723 27.7219 46.4452 27.5672 46.4452 27.3916V26.7026H42.9884C42.5377 26.7026 42.1772 26.6422 41.9081 26.5222C41.6238 26.4132 41.3408 26.2099 41.0558 25.9213C40.7861 25.6152 40.5919 25.2954 40.474 24.9609C40.3514 24.6549 40.2891 24.2656 40.2891 23.7979V15.2241H42.9884V22.8778C42.9884 23.4912 43.2276 23.7979 43.7121 23.7979H45.6181C45.8448 23.7979 46.0416 23.7202 46.2066 23.5613C46.3657 23.4267 46.4452 23.2671 46.4452 23.0797V15.2241H49.1227V27.8725C49.1074 28.8086 48.8781 29.558 48.4361 30.1263C47.9874 30.6946 47.3737 30.9853 46.591 30.9999H40.2891V28.0952H45.6778Z" fill="#008AC9"/>
<path d="M51.2422 23.7979H56.053C56.493 23.782 56.7217 23.5974 56.7356 23.2435V22.9826C56.7356 22.907 56.7137 22.823 56.6713 22.7328C56.564 22.5135 56.4321 22.4046 56.275 22.4046H53.8898C53.182 22.39 52.5783 22.1347 52.0706 21.642C51.557 21.1868 51.2939 20.6268 51.2786 19.9697V17.804C51.3065 16.1144 52.1833 15.2547 53.9104 15.2241H59.4899V18.1281H54.7626C54.2079 18.1281 53.9283 18.3064 53.9283 18.6617V18.9427C53.9283 19.3112 54.2139 19.4958 54.7832 19.4958H57.1611C57.7946 19.511 58.3348 19.765 58.7848 20.2604C59.2394 20.7593 59.4753 21.3526 59.4899 22.0417V24.1601C59.4753 24.7555 59.2122 25.3495 58.7066 25.9421C58.46 26.2328 58.2075 26.4327 57.955 26.5458C57.6939 26.6499 57.3394 26.7026 56.8867 26.7026H51.2422V23.7979Z" fill="#008AC9"/>
<path d="M64.1082 23.2227C64.1082 23.3885 64.1811 23.5197 64.3269 23.6182C64.4528 23.7362 64.6138 23.7979 64.814 23.7979H66.8916C67.3602 23.7979 67.6021 23.6078 67.616 23.2227V22.4122C67.616 21.9695 67.3655 21.7461 66.8691 21.7461H64.814C64.5442 21.7461 64.358 21.7933 64.2546 21.8821C64.1585 21.9869 64.1082 22.1943 64.1082 22.5017V23.2227ZM67.616 18.7561C67.6279 18.3217 67.386 18.1142 66.887 18.1281H61.4506V15.2241H67.5749C69.3564 15.2547 70.2623 16.1567 70.2901 17.938V24.013C70.2756 24.7812 70.0489 25.4147 69.6155 25.9185C69.1628 26.4403 68.5743 26.7026 67.8533 26.7026H64.1492C62.3493 26.6866 61.4353 25.8255 61.4102 24.1137V21.7697C61.4221 19.9808 62.2942 19.0718 64.0233 19.0406H67.616V18.7561Z" fill="#008AC9"/>
<path d="M72.4883 13.5777C72.5048 12.7935 72.7805 12.1642 73.3213 11.6923C73.8462 11.2128 74.5355 10.9665 75.3877 10.9526H77.1022V13.7581H76.0637C75.4931 13.7719 75.2022 14.0578 75.1896 14.6102V15.225H77.1022V18.1317H75.1896V26.7041H72.4883V13.5777Z" fill="#008AC9"/>
<path d="M84.7792 18.7024V18.6351C84.7792 18.4859 84.7215 18.3589 84.6055 18.2646C84.4796 18.173 84.3258 18.1286 84.1409 18.1286H82.2614C82.0202 18.1286 81.826 18.1994 81.6756 18.3444C81.4887 18.4783 81.3939 18.6545 81.3939 18.8717V20.0375L84.7792 18.7024ZM81.437 22.8075V22.9886C81.437 23.2211 81.4946 23.4057 81.6119 23.5396C81.6968 23.711 81.8108 23.7984 81.9625 23.7984H87.509V26.7031H81.6119C81.0738 26.7031 80.6543 26.6503 80.358 26.5449C80.034 26.4331 79.743 26.2507 79.4892 25.9967C79.1923 25.6893 78.9902 25.3763 78.8888 25.0544C78.7774 24.7185 78.7224 24.273 78.7224 23.7179L78.6992 17.9051C78.729 16.1489 79.6052 15.2551 81.327 15.2246H84.9667C86.6481 15.2551 87.4997 16.1801 87.5269 18.0044V20.3005L81.437 22.8075Z" fill="#008AC9"/>
<path d="M93.2427 26.7028C92.8338 26.7028 92.4607 26.6633 92.122 26.5911C91.7674 26.5307 91.4142 26.3586 91.053 26.0679C90.6825 25.73 90.4261 25.3511 90.2856 24.9327C90.1371 24.5212 90.0655 24.0549 90.0655 23.5303V18.1103C90.0503 17.6683 90.0927 17.2804 90.1914 16.9438C90.2822 16.608 90.4731 16.2791 90.7614 15.9571C91.0901 15.6192 91.4255 15.3944 91.7794 15.284C92.12 15.1945 92.5037 15.1494 92.9338 15.1494H97.072V15.8287H93.0299C92.3162 15.8287 91.7555 15.9821 91.3453 16.2895C90.9258 16.6246 90.7117 17.2027 90.7117 18.0173V23.4408C90.7117 23.8224 90.7674 24.1937 90.878 24.5517C90.9914 24.9035 91.1802 25.2123 91.4513 25.4823C91.7456 25.7161 92.0385 25.8618 92.3241 25.9215C92.6217 25.9902 92.9411 26.0228 93.2798 26.0228H97.1369V26.7028H93.2427Z" fill="#008AC9"/>
<path d="M107.716 19.6709H102.291C101.641 19.6861 101.132 19.8964 100.766 20.3016C100.387 20.7131 100.199 21.2772 100.199 21.994V23.7239C100.199 24.0591 100.232 24.3658 100.301 24.6419C100.369 24.9327 100.54 25.1922 100.809 25.4149C101.277 25.8216 101.796 26.0228 102.363 26.0228H105.651C107.024 26.0075 107.716 25.2498 107.716 23.7454V19.6709ZM108.361 23.5761C108.361 24.0126 108.329 24.3956 108.275 24.7328C108.188 25.0992 108.008 25.4524 107.736 25.7883C107.169 26.4135 106.466 26.7181 105.628 26.7028H102.403C101.564 26.7028 100.885 26.4405 100.359 25.9187C99.8212 25.4032 99.5488 24.6864 99.5488 23.7669V22.0197C99.576 20.0483 100.514 19.0387 102.361 18.9929H107.736V18.2282C107.736 17.5982 107.561 17.0465 107.215 16.5719C106.995 16.2638 106.734 16.0577 106.439 15.9516C106.14 15.8697 105.804 15.8287 105.431 15.8287H99.568V15.1494H105.126C105.634 15.1494 106.093 15.1869 106.51 15.2604C106.724 15.3048 106.918 15.3923 107.097 15.5186C107.288 15.6386 107.465 15.8142 107.63 16.0445C108.128 16.7176 108.371 17.4941 108.361 18.3684V23.5761Z" fill="#008AC9"/>
<path d="M114.428 15.8287C112.923 15.8579 112.182 16.7176 112.209 18.4093V26.7028H111.563V18.4121C111.533 16.2361 112.522 15.1494 114.532 15.1494H115.25V15.8287H114.428Z" fill="#008AC9"/>
<path d="M125.354 15.8319H120.24C119.871 15.8319 119.541 15.875 119.244 15.9568C118.932 16.0304 118.631 16.2281 118.35 16.5501C118.08 16.8436 117.91 17.1344 117.839 17.4251C117.745 17.7186 117.702 18.0704 117.717 18.4805V23.768C117.717 24.6472 117.96 25.2454 118.453 25.5666C118.696 25.7158 118.963 25.8275 119.263 25.9025C119.561 25.9857 119.894 26.0267 120.26 26.0267H122.497C123.332 26.0267 124.015 25.8255 124.54 25.4195C125.067 25.0386 125.336 24.3815 125.354 23.4447V15.8319ZM125.999 23.4912C125.942 25.6797 124.836 26.7525 122.681 26.7074H120.284C119.778 26.7074 119.325 26.6609 118.925 26.5728C118.513 26.4611 118.119 26.1981 117.739 25.788C117.453 25.4195 117.27 25.0469 117.196 24.6653C117.097 24.2843 117.054 23.8603 117.069 23.3975V18.4632C117.097 16.2406 118.166 15.136 120.279 15.1526H125.354V11.4062H125.999V23.4912Z" fill="#008AC9"/>
<path d="M3.15911 14.7878C3.37119 14.69 3.58326 14.6136 3.79534 14.5658C4.18503 12.6173 5.83325 11.1559 7.80886 11.1559C9.7858 11.1559 11.4347 12.6194 11.8237 14.5671C12.4301 14.6879 12.9318 14.9446 13.3228 15.327C13.3387 14.953 13.3241 14.5928 13.2817 14.2535C13.0319 11.31 10.6745 9 7.80025 9C4.84113 9 2.43209 11.4557 2.30683 14.5255C2.2896 14.7906 2.2843 15.0668 2.29358 15.3554C2.54211 15.1361 2.82576 14.9391 3.15911 14.7878Z" fill="#E3001B"/>
<path d="M11.0212 15.2241H4.42694C4.10949 15.2241 3.78077 15.3011 3.44211 15.46C3.11538 15.6092 2.84764 15.7896 2.63291 16.0055C2.224 16.5203 2.01458 17.2732 2 18.2641V23.6612C2.01458 24.6542 2.224 25.4064 2.63291 25.9185C2.84764 26.1378 3.11538 26.3182 3.44211 26.4687C3.78077 26.6242 4.10949 26.7026 4.42694 26.7026H11.0212C12.7244 26.6866 13.5906 25.7082 13.6177 23.7743V18.151C13.5906 16.2143 12.7244 15.2394 11.0212 15.2241Z" fill="#E3001B"/>
</svg>
