<svg width="128" height="40" viewBox="0 0 128 40" fill="none" xmlns="http://www.w3.org/2000/svg">
<path fill-rule="evenodd" clip-rule="evenodd" d="M38.9277 7H41.6504V32.4785H38.9277V7Z" fill="white"/>
<path fill-rule="evenodd" clip-rule="evenodd" d="M42.5078 7H43.3496V32.4785H42.5078V7Z" fill="white"/>
<path fill-rule="evenodd" clip-rule="evenodd" d="M44.0859 7H45.5957V32.4785H44.0859V7Z" fill="white"/>
<path fill-rule="evenodd" clip-rule="evenodd" d="M47.0508 7H47.8926V32.4785H47.0508V7Z" fill="white"/>
<path fill-rule="evenodd" clip-rule="evenodd" d="M48.2598 7H48.9102V32.4785H48.2598V7Z" fill="white"/>
<path fill-rule="evenodd" clip-rule="evenodd" d="M36.8594 7H37.7031V32.4785H36.8594V7Z" fill="white"/>
<path fill-rule="evenodd" clip-rule="evenodd" d="M35 7H36.5098V32.4785H35V7Z" fill="white"/>
<path fill-rule="evenodd" clip-rule="evenodd" d="M53.416 7H56.1387V32.4785H53.416V7Z" fill="white"/>
<path fill-rule="evenodd" clip-rule="evenodd" d="M56.9961 7H57.8379V32.4785H56.9961V7Z" fill="white"/>
<path fill-rule="evenodd" clip-rule="evenodd" d="M58.5742 7H60.084V32.4785H58.5742V7Z" fill="white"/>
<path fill-rule="evenodd" clip-rule="evenodd" d="M61.5391 7H62.3809V32.4785H61.5391V7Z" fill="white"/>
<path fill-rule="evenodd" clip-rule="evenodd" d="M62.748 7H63.3984V32.4785H62.748V7Z" fill="white"/>
<path fill-rule="evenodd" clip-rule="evenodd" d="M51.3477 7H52.1914V32.4785H51.3477V7Z" fill="white"/>
<path fill-rule="evenodd" clip-rule="evenodd" d="M49.4883 7H50.998V32.4785H49.4883V7Z" fill="white"/>
<path fill-rule="evenodd" clip-rule="evenodd" d="M64.4668 7H65.9766V32.4785H64.4668V7Z" fill="white"/>
<path fill-rule="evenodd" clip-rule="evenodd" d="M67.4316 7H68.2754V32.4785H67.4316V7Z" fill="white"/>
<path fill-rule="evenodd" clip-rule="evenodd" d="M68.6445 7H69.293V32.4785H68.6445V7Z" fill="white"/>
<path fill-rule="evenodd" clip-rule="evenodd" d="M71.7266 7H72.5703V32.4785H71.7266V7Z" fill="white"/>
<path fill-rule="evenodd" clip-rule="evenodd" d="M69.8672 7H71.377V32.4785H69.8672V7Z" fill="white"/>
<path fill-rule="evenodd" clip-rule="evenodd" d="M73.6934 7H74.5371V32.4785H73.6934V7Z" fill="white"/>
<path fill-rule="evenodd" clip-rule="evenodd" d="M74.9043 7H75.5547V32.4785H74.9043V7Z" fill="white"/>
<path fill-rule="evenodd" clip-rule="evenodd" d="M77.9922 7H78.834V32.4785H77.9922V7Z" fill="white"/>
<path fill-rule="evenodd" clip-rule="evenodd" d="M76.1309 7H77.6406V32.4785H76.1309V7Z" fill="white"/>
<path fill-rule="evenodd" clip-rule="evenodd" d="M79.5703 7H82.291V32.4785H79.5703V7Z" fill="white"/>
<path fill-rule="evenodd" clip-rule="evenodd" d="M83.1484 7H83.9922V32.4785H83.1484V7Z" fill="white"/>
<path fill-rule="evenodd" clip-rule="evenodd" d="M84.7266 7H86.2363V32.4785H84.7266V7Z" fill="white"/>
<path fill-rule="evenodd" clip-rule="evenodd" d="M87.6914 7H88.5352V32.4785H87.6914V7Z" fill="white"/>
<path fill-rule="evenodd" clip-rule="evenodd" d="M88.8984 7H89.5488V32.4785H88.8984V7Z" fill="white"/>
<path fill-rule="evenodd" clip-rule="evenodd" d="M90.6211 7H92.1289V32.4785H90.6211V7Z" fill="white"/>
<path fill-rule="evenodd" clip-rule="evenodd" d="M38.0781 32.5371H90.2363V18.2578H38.0781V32.5371Z" fill="#00010D"/>
<path d="M39.0605 31.9902V19.0684H43.9082C44.8965 19.0684 45.6875 19.1992 46.2852 19.4609C46.8809 19.7227 47.3457 20.125 47.6836 20.6699C48.0234 21.2109 48.1914 21.7793 48.1914 22.375C48.1914 22.9238 48.041 23.4453 47.7441 23.9316C47.4453 24.4199 46.9941 24.8125 46.3906 25.1133C47.1719 25.3418 47.7734 25.7344 48.1914 26.2871C48.6133 26.8379 48.8223 27.4902 48.8223 28.2422C48.8223 28.8496 48.6934 29.4121 48.4375 29.9316C48.1836 30.4531 47.8672 30.8516 47.4902 31.1348C47.1152 31.4141 46.6426 31.6289 46.0781 31.7734C45.5098 31.918 44.8145 31.9902 43.9902 31.9902H39.0605ZM40.7754 24.5H43.5684C44.3262 24.5 44.8711 24.4492 45.1992 24.3496C45.6348 24.2207 45.9629 24.0039 46.1836 23.7031C46.4023 23.4023 46.5137 23.0273 46.5137 22.5723C46.5137 22.1426 46.4121 21.7637 46.2031 21.4395C46 21.1113 45.7051 20.8848 45.3223 20.7656C44.9414 20.6445 44.2852 20.584 43.3594 20.584H40.7754V24.5ZM40.7754 30.4727H43.9941C44.5469 30.4727 44.9355 30.4531 45.1602 30.4102C45.5508 30.3418 45.8828 30.2246 46.1465 30.0586C46.4121 29.8926 46.627 29.6523 46.7988 29.3359C46.9707 29.0215 47.0547 28.6563 47.0547 28.2441C47.0547 27.7617 46.9316 27.3418 46.6816 26.9844C46.4355 26.627 46.0918 26.377 45.6543 26.2324C45.2168 26.0879 44.5859 26.0156 43.7656 26.0156H40.7754V30.4727Z" fill="white"/>
<path d="M50.375 27.3066C50.375 25.5781 50.8555 24.2969 51.8223 23.4629C52.625 22.7715 53.6074 22.4258 54.7656 22.4258C56.0508 22.4258 57.1035 22.8457 57.9199 23.6895C58.7363 24.5273 59.1445 25.6914 59.1445 27.1738C59.1445 28.377 58.9648 29.3223 58.6035 30.0098C58.2422 30.6992 57.7168 31.2344 57.0254 31.6172C56.3359 31.998 55.582 32.1875 54.7656 32.1875C53.4551 32.1875 52.3965 31.7695 51.5879 30.9297C50.7793 30.0918 50.375 28.8828 50.375 27.3066ZM52 27.3086C52 28.5059 52.2617 29.4023 52.7832 29.9961C53.3105 30.5898 53.9688 30.8887 54.7656 30.8887C55.5547 30.8887 56.209 30.5898 56.7363 29.9922C57.2598 29.3945 57.5215 28.4824 57.5215 27.2578C57.5215 26.1035 57.2559 25.2285 56.7305 24.6367C56.2031 24.041 55.5488 23.7422 54.7656 23.7422C53.9688 23.7422 53.3105 24.0371 52.7832 24.6309C52.2617 25.2227 52 26.1152 52 27.3086Z" fill="white"/>
<path d="M60.9707 31.9902V19.0684H62.5586V31.9902H60.9707Z" fill="white"/>
<path d="M71.4043 28.957L73.0449 29.1738C72.7891 30.127 72.3125 30.8711 71.6133 31.3965C70.916 31.9238 70.0254 32.1875 68.9395 32.1875C67.5742 32.1875 66.4922 31.7676 65.6914 30.9238C64.8926 30.0859 64.4922 28.9043 64.4922 27.3848C64.4922 25.8145 64.8945 24.5938 65.7051 23.7285C66.5137 22.8594 67.5625 22.4258 68.8535 22.4258C70.1016 22.4258 71.1211 22.8496 71.9121 23.7012C72.7031 24.5508 73.0996 25.748 73.0996 27.291C73.0996 27.3848 73.0957 27.5254 73.0898 27.7129H66.1172C66.1758 28.7383 66.4648 29.5254 66.9883 30.0703C67.5078 30.6152 68.1621 30.8887 68.9395 30.8887C69.5215 30.8887 70.0176 30.7344 70.4258 30.4277C70.8379 30.1211 71.1621 29.6309 71.4043 28.957ZM66.207 26.4141H71.4219C71.3516 25.625 71.1504 25.0352 70.8223 24.6426C70.3203 24.0313 69.6641 23.7246 68.8613 23.7246C68.1348 23.7246 67.5234 23.9688 67.0273 24.4551C66.5352 24.9434 66.2598 25.5957 66.207 26.4141Z" fill="white"/>
<path d="M78.498 30.5723L78.7148 31.9746C78.2695 32.0684 77.8691 32.1152 77.5215 32.1152C76.9453 32.1152 76.502 32.0254 76.1816 31.8418C75.8672 31.6582 75.6445 31.4199 75.5137 31.123C75.3848 30.8262 75.3223 30.1992 75.3223 29.2461V23.8516H74.1484V22.623H75.3223V20.3086L76.9102 19.3555V22.623H78.498V23.8516H76.9102V29.3359C76.9102 29.791 76.9375 30.082 76.9941 30.2109C77.0488 30.3418 77.1387 30.4434 77.2656 30.5215C77.3906 30.5957 77.5723 30.6367 77.8066 30.6367C77.9805 30.6367 78.2129 30.6152 78.498 30.5723Z" fill="white"/>
<path d="M79.4688 27.3066C79.4688 25.5781 79.9512 24.2969 80.916 23.4629C81.7188 22.7715 82.7031 22.4258 83.8594 22.4258C85.1445 22.4258 86.1973 22.8457 87.0156 23.6895C87.8301 24.5273 88.2402 25.6914 88.2402 27.1738C88.2402 28.377 88.0586 29.3223 87.6973 30.0098C87.3359 30.6992 86.8105 31.2344 86.1191 31.6172C85.4297 31.998 84.6758 32.1875 83.8594 32.1875C82.5488 32.1875 81.4902 31.7695 80.6816 30.9297C79.873 30.0918 79.4688 28.8828 79.4688 27.3066ZM81.0938 27.3086C81.0938 28.5059 81.3555 29.4023 81.8789 29.9961C82.4043 30.5898 83.0645 30.8887 83.8594 30.8887C84.6484 30.8887 85.3047 30.5898 85.8301 29.9922C86.3535 29.3945 86.6152 28.4824 86.6152 27.2578C86.6152 26.1035 86.3516 25.2285 85.8242 24.6367C85.2969 24.041 84.6426 23.7422 83.8594 23.7422C83.0645 23.7422 82.4043 24.0371 81.8789 24.6309C81.3555 25.2227 81.0938 26.1152 81.0938 27.3086Z" fill="white"/>
</svg>
