<svg width="128" height="40" viewBox="0 0 128 40" fill="none" xmlns="http://www.w3.org/2000/svg">
<path d="M102 13.388H98.0465L95.7584 23.1415L95.4375 24.48C95.2168 24.5408 94.9961 24.6014 94.7753 24.6423C94.3739 24.7232 93.9525 24.7638 93.5113 24.7638C93.0093 24.7638 92.6082 24.6828 92.3071 24.5408C92.0259 24.3989 91.8052 24.1963 91.6848 23.9122C91.5643 23.6485 91.5242 23.3241 91.5442 22.9592C91.5643 22.5943 91.6445 22.1885 91.7449 21.7833L92.949 16.7135L93.7315 13.3476H89.6977L87.8716 21.134C87.6507 22.0666 87.5304 22.959 87.4902 23.8108C87.45 24.6623 87.5905 25.3924 87.8716 26.0616C88.1526 26.7105 88.6541 27.2173 89.3366 27.6025C90.0189 27.9878 91.0023 28.17 92.2468 28.17C93.1098 28.17 93.8723 28.0893 94.5146 27.9471C94.5347 27.9471 94.5748 27.927 94.5949 27.927C94.4143 28.7379 94.053 29.3867 93.4909 29.8939C92.9089 30.4009 92.0659 30.6645 90.942 30.6645C90.4603 30.6645 90.0189 30.6442 89.6175 30.5837L88.8348 33.889C89.3568 33.9498 89.9388 33.9903 90.5808 33.9903C91.785 33.9903 92.8285 33.8484 93.7315 33.5846C94.6347 33.3006 95.3976 32.8953 96.0595 32.3273C96.7017 31.7595 97.2436 31.0498 97.685 30.2186C98.1264 29.367 98.4675 28.373 98.7285 27.197L101.458 15.5982L102 13.388ZM85.4434 21.7219C85.2025 22.7359 85.1222 23.7699 85.2225 24.7839C85.3229 25.818 85.7243 27.3793 86.1057 28.1701H82.2926C81.8311 27.3796 81.8513 26.9943 81.751 26.751C81.2491 27.1566 80.7075 27.5013 80.1055 27.765C79.5034 28.0287 78.841 28.1706 78.0784 28.1706C77.1953 28.1706 76.4328 28.0082 75.8107 27.7041C75.1886 27.4002 74.6668 26.9743 74.2653 26.4469C73.8637 25.9195 73.5831 25.3112 73.4021 24.6014C73.2215 23.8917 73.1413 23.1415 73.1413 22.3306C73.1413 21.0933 73.3621 19.9377 73.7838 18.8428C74.225 17.7478 74.8271 16.7945 75.59 15.9836C76.3526 15.1725 78.219 13.3679 81.2693 13.3679H87.3904L85.4434 21.7219ZM82.6539 16.7539C80.8077 16.7539 80.4663 16.7539 79.704 17.1394C79.1622 17.4233 78.7204 17.8491 78.3392 18.3357C77.958 18.8223 77.6368 19.3901 77.4161 20.0391C77.1954 20.688 77.0749 21.357 77.0749 22.0466C77.0749 22.8982 77.2156 23.5875 77.4964 24.0945C77.7771 24.6014 78.2991 24.8447 79.0617 24.8447C79.4633 24.8447 79.8442 24.7638 80.1657 24.6014C80.4865 24.4391 80.8477 24.1759 81.2091 23.7905C81.2494 23.3445 81.3095 22.8779 81.3897 22.3917C81.4698 21.9047 81.5703 21.4384 81.6507 21.0328L82.6539 16.7539ZM72.0577 19.2481C72.0577 20.5662 71.8368 21.7625 71.4153 22.8575C70.994 23.9524 70.3919 24.8853 69.6292 25.6762C68.8664 26.4672 67.9636 27.0754 66.8999 27.5217C65.8363 27.9674 64.6924 28.1905 63.4481 28.1905C62.846 28.1905 62.2439 28.1297 61.6217 28.0284L60.4178 32.9152H56.464L61.0597 13.408H66.3378C67.3416 13.408 68.2042 13.5703 68.9066 13.8741C69.629 14.1782 70.211 14.6042 70.6927 15.1316C71.1543 15.6589 71.4953 16.2874 71.716 16.9971C71.9573 17.6867 72.0577 18.4371 72.0577 19.2481ZM62.3643 24.7839C62.6651 24.8648 63.0467 24.8853 63.4882 24.8853C64.1906 24.8853 64.8129 24.7635 65.3946 24.4998C65.9564 24.2362 66.4583 23.8712 66.8596 23.405C67.2612 22.9386 67.562 22.3708 67.8029 21.7219C68.0236 21.0727 68.1441 20.3429 68.1441 19.5522C68.1441 18.7814 67.9835 18.1124 67.6424 17.585C67.3011 17.0378 66.7194 16.7538 65.8766 16.7538H64.311L62.3643 24.7839ZM54.056 24.7839C53.5541 24.7839 53.1531 24.7028 52.8519 24.5609C52.5708 24.419 52.35 24.2163 52.2297 23.9321C52.1092 23.6686 52.0691 23.3442 52.0893 22.9791C52.1092 22.6141 52.1895 22.2085 52.2898 21.803L53.4938 16.7337H57.9892L58.8121 13.3676H54.2965L55.34 9.10916L51.1254 9.77802L48.4563 21.1742C48.2355 22.1068 48.1151 22.9994 48.075 23.8507C48.0347 24.7024 48.1753 25.4328 48.4563 26.1017C48.7372 26.7505 49.239 27.2574 49.9213 27.6427C50.6036 28.0281 51.5871 28.2104 52.8313 28.2104C53.6944 28.2104 54.4568 28.1294 55.0992 27.9874C55.1594 27.9668 55.2597 27.9467 55.3197 27.9265L56.1427 24.4589C55.8616 24.5603 55.5807 24.6214 55.3197 24.6615C54.9189 24.7432 54.4973 24.7839 54.056 24.7839ZM44.0017 13.388L40.5096 28.1904H44.4631L47.935 13.388H44.0017ZM48.3565 11.6845L48.9585 9.10916H45.005L44.4029 11.6845H48.3565ZM35.2516 13.408C36.0945 13.408 36.837 13.5703 37.4591 13.8741C38.0813 14.1782 38.583 14.5838 39.0044 15.1112C39.4058 15.6386 39.7068 16.247 39.9074 16.9364C40.108 17.6255 40.2084 18.3761 40.2084 19.1872C40.2084 20.4241 39.9876 21.58 39.526 22.6952C39.0644 23.7902 38.4623 24.7635 37.6798 25.5744C36.8972 26.3855 35.9739 27.0347 34.9104 27.501C33.8467 27.9672 32.7027 28.2105 31.4586 28.2105C31.298 28.2105 31.0171 28.2105 30.6158 28.1904C30.2144 28.1904 29.7529 28.1497 29.2511 28.0686C28.7293 27.9877 28.1874 27.8861 27.6255 27.7444C27.0647 27.6066 26.5199 27.4095 26 27.1563L30.5956 7.6492L34.7098 7L33.0841 13.9145C33.4453 13.7525 33.7664 13.6307 34.1277 13.5497C34.4688 13.4487 34.8502 13.408 35.2516 13.408ZM31.7997 24.8853C32.4218 24.8853 33.0039 24.7432 33.5457 24.419C34.0948 24.1114 34.5789 23.6981 34.9706 23.2023C35.372 22.6952 35.693 22.1071 35.9139 21.4783C36.1346 20.8294 36.255 20.1606 36.255 19.4711C36.255 18.6194 36.1145 17.9505 35.8335 17.4636C35.5526 16.9769 34.9706 16.7539 34.208 16.7539C33.9671 16.7539 33.7062 16.7744 33.3048 16.8757C32.9034 16.9567 32.5623 17.1597 32.2413 17.4434L30.5153 24.8042C31.0371 24.8853 31.1976 24.9054 31.3382 24.9054C31.4386 24.8853 31.5991 24.8853 31.7997 24.8853Z" fill="#1D63B1"/>
</svg>
