<svg width="128" height="40" viewBox="0 0 128 40" fill="none" xmlns="http://www.w3.org/2000/svg">
<path d="M88.4114 9.55034L95.1554 8.42282V32.7315H88.4114V9.55034ZM98.256 9.55034V32.7181H105V8.42282L98.256 9.55034ZM78.824 32.7181H85.568V14.9463H78.824V32.7181ZM34.259 17.4564C33.4017 17.4027 31.4299 17.2819 31.4299 15.6174C31.4299 13.604 34.2732 13.604 35.3306 13.604C37.2023 13.604 39.6313 14.1275 41.3602 14.6107C41.3602 14.6107 42.3318 14.9329 43.1462 15.255L43.2177 15.2685V9.7651L43.1177 9.73826C41.0744 9.06711 38.7026 8.42282 34.2875 8.42282C26.6862 8.42282 24 12.5839 24 16.1409C24 18.1946 24.943 23.0268 33.6446 23.5906C34.3875 23.6309 36.345 23.7383 36.345 25.4698C36.345 26.8926 34.7448 27.7383 32.0443 27.7383C29.0866 27.7383 26.229 27.0268 24.4858 26.3557V32.0336C27.0863 32.6779 30.0296 33 33.4731 33C40.903 33 44.2321 29.0671 44.2321 25.1611C44.2321 20.7315 40.5172 17.8591 34.259 17.4564ZM75.0233 14.6913C68.7936 14.8792 65.6359 17.5101 65.6359 22.7315V32.7315H72.4371V24.5705C72.4371 21.443 72.8658 20.1007 76.8236 19.9799V14.7718C76.1378 14.651 75.0233 14.6913 75.0233 14.6913ZM56.7343 14.9329C56.5915 15.2819 55.5056 18.1544 52.8908 21.1208V8.42282L45.9324 9.71141V32.7181H52.8908V25.604C54.9055 28.4497 55.9056 32.7181 55.9056 32.7181H64.2357C63.407 29.4966 59.8063 23.5638 59.8063 23.5638C63.0355 19.7114 64.4643 15.604 64.6929 14.9195H56.7343V14.9329ZM82.1817 13.2416C84.0106 13.2416 85.5108 11.8456 85.5108 10.1275C85.5108 8.4094 84.0249 7 82.1817 7C80.3528 7 78.8668 8.39597 78.8668 10.1275C78.8668 11.8456 80.3528 13.2416 82.1817 13.2416Z" fill="#862165"/>
</svg>
