<svg width="128" height="40" viewBox="0 0 128 40" fill="none" xmlns="http://www.w3.org/2000/svg">
<path d="M52.1778 6.04146C53.5545 6.04146 54.623 6.33171 55.4244 6.9122C56.2052 7.49268 56.5956 8.38415 56.6162 9.56585C56.6162 10.1463 56.4929 10.7268 56.2258 11.2451C55.9997 11.722 55.6093 12.1159 55.1367 12.3439V12.4268C55.671 12.6756 56.123 13.0695 56.4518 13.5878C56.6573 13.8988 56.8011 14.2305 56.9038 14.5829C57.0271 14.9976 57.0888 15.4537 57.0682 15.889C57.0888 16.5524 56.9449 17.1951 56.6778 17.7756C56.4312 18.3146 56.0408 18.7707 55.5888 19.1232C55.1162 19.4963 54.5819 19.7659 54.0066 19.9317C53.4107 20.1183 52.7737 20.2012 52.1573 20.2012H44.6367V6H52.1778V6.04146ZM48.2532 11.2659H51.5614C51.9723 11.3073 52.3627 11.1829 52.671 10.9134C52.8764 10.6854 52.9997 10.3744 52.9792 10.0634C52.9792 9.77317 52.8764 9.48293 52.671 9.25488C52.3627 8.98537 51.9518 8.86098 51.5614 8.90244H48.2532V11.2659ZM48.2532 17.361H51.6025C52.1162 17.4024 52.6299 17.2573 53.0203 16.9256C53.308 16.6146 53.4518 16.2207 53.4312 15.7854C53.4723 15.3085 53.2874 14.8524 52.9381 14.5415C52.5477 14.2512 52.0751 14.1061 51.6025 14.1268H48.2532V17.361Z" fill="#336699"/>
<path d="M60.4997 20.2425H56.6777L61.6503 6.06201H65.349L70.4449 20.2425H66.4175L65.7394 17.7754H61.1983L60.4997 20.2425ZM63.4791 9.77299H63.3969L61.938 15.0388H64.9175L63.4791 9.77299Z" fill="#336699"/>
<path d="M74.6791 11.8459H74.5969V20.2422H70.9805V6.04102H74.9873L79.775 13.9605H79.8572V6.04102H83.4736V20.2422H79.8366L74.6791 11.8459Z" fill="#336699"/>
<path d="M88.5061 6.04102V11.0166L93.1294 6.04102H97.8965L92.2253 11.452L98.2253 20.2422H93.6842L89.5335 13.9398L88.4856 14.9556V20.2422H84.8691V6.04102H88.5061Z" fill="#336699"/>
<path d="M36.6036 22.4194V24.8036H34.1378V33.1585H31.5283V24.8036H29.0625V22.4194H36.6036Z" fill="#336699"/>
<path d="M42.8704 22.4194C43.2403 22.4194 43.6307 22.5024 43.9594 22.6475C44.2882 22.7926 44.5964 23.0207 44.8225 23.3109C45.069 23.6011 45.254 23.9328 45.3772 24.306C45.5211 24.6999 45.5827 25.1146 45.5827 25.5292C45.6033 26.1511 45.4389 26.7524 45.1307 27.2914C44.8225 27.7889 44.3909 28.1621 43.8772 28.4109L45.8088 33.1585H43.0348L41.432 28.7841H39.3362V33.1585H36.7266V22.4194H42.8704ZM42.0896 26.545C42.3362 26.5658 42.5827 26.4621 42.7266 26.2548C42.8704 26.0682 42.932 25.8402 42.932 25.6121C42.932 25.5085 42.9115 25.3841 42.8909 25.2804C42.8704 25.1768 42.8088 25.0731 42.7471 24.9694C42.6855 24.8865 42.5827 24.8036 42.48 24.7414C42.3567 24.6792 42.2334 24.6377 42.0896 24.6585H39.3567V26.545H42.0896Z" fill="#336699"/>
<path d="M47.8823 33.1585H45.1289L48.7042 22.4194H51.3755L55.033 33.1585H52.1358L51.6426 31.2926H48.3755L47.8823 33.1585ZM50.0399 25.2389H49.9988L48.9508 29.2194H51.0878L50.0399 25.2389Z" fill="#336699"/>
<path d="M57.7064 26.8146H57.6447V33.1585H55.0352V22.4194H57.9119L61.3639 28.4109H61.4256V22.4194H64.0352V33.1585H61.405L57.7064 26.8146Z" fill="#336699"/>
<path d="M68.4926 33.4277C67.9173 33.4484 67.342 33.3655 66.7872 33.1996C66.3351 33.0545 65.9242 32.8472 65.5543 32.5777C65.2255 32.3082 64.9379 31.9972 64.7324 31.6033C64.5269 31.2094 64.3625 30.7948 64.2598 30.3801L66.7461 29.3643C66.7666 29.9033 66.9721 30.4009 67.342 30.774C67.7324 31.1057 68.2255 31.2716 68.7187 31.2509C68.8625 31.2509 69.0063 31.2301 69.1502 31.2094C69.294 31.1887 69.4173 31.1472 69.5406 31.0643C69.6639 31.0021 69.7461 30.8984 69.8283 30.774C69.9105 30.6496 69.9515 30.4838 69.9515 30.3387C69.9515 30.1935 69.931 30.0484 69.8899 29.9033C69.8283 29.7582 69.7461 29.6338 69.6433 29.5509C69.4995 29.4265 69.3351 29.3228 69.1502 29.2399C68.8831 29.1155 68.6159 29.0326 68.3488 28.9496C67.7735 28.7838 67.2187 28.5765 66.6844 28.3484C66.2529 28.1618 65.8625 27.9131 65.4926 27.6021C65.1844 27.3326 64.9378 27.0009 64.7735 26.6277C64.6091 26.2131 64.5269 25.7777 64.5269 25.3423C64.5269 24.8655 64.6296 24.3887 64.8351 23.974C65.0406 23.5801 65.3283 23.2277 65.6981 22.9582C66.0885 22.6679 66.52 22.4606 66.9926 22.3362C67.5269 22.1911 68.0817 22.1289 68.6365 22.1289C69.1296 22.1289 69.6433 22.1704 70.1159 22.2948C70.5063 22.3984 70.8762 22.5643 71.205 22.7923C71.5132 22.9996 71.7803 23.2692 71.9858 23.5801C72.2118 23.9326 72.3762 24.285 72.52 24.6789L70.2803 25.674C70.1981 25.2594 69.9926 24.8862 69.705 24.596C69.0885 24.1813 68.3077 24.1606 67.6707 24.5338C67.4858 24.6789 67.3831 24.8862 67.3625 25.1143C67.3625 25.2594 67.3831 25.3838 67.4447 25.5082C67.5063 25.6326 67.6091 25.757 67.7324 25.8399C67.8968 25.9643 68.0817 26.0679 68.2872 26.1301C68.5954 26.2545 68.8831 26.3374 69.1913 26.4204C69.6844 26.5655 70.1776 26.7106 70.6091 26.8557C71.02 27.0009 71.4105 27.2082 71.7598 27.4777C72.0885 27.7472 72.3557 28.0789 72.5406 28.4521C72.7461 28.9289 72.8488 29.4679 72.8283 29.9862C72.8488 30.5045 72.7255 31.0021 72.4995 31.4789C72.2735 31.8935 71.9652 32.2667 71.5748 32.5362C71.1639 32.8265 70.6913 33.0545 70.1981 33.1789C69.6228 33.3655 69.0474 33.4484 68.4926 33.4277Z" fill="#336699"/>
<path d="M75.6252 26.3999H79.6732V28.7841H75.6252V33.1585H73.0156V22.4194H80.906V24.8036H75.6252V26.3999Z" fill="#336699"/>
<path d="M81.1094 22.4194H88.9998V24.8036H83.719V26.2548H88.3423V28.6389H83.719V30.795H89.1436V33.1792H81.1094V22.4194Z" fill="#336699"/>
<path d="M95.472 22.4194C95.8418 22.4194 96.2322 22.5024 96.561 22.6475C96.8898 22.7926 97.198 23.0207 97.424 23.3109C97.6706 23.6011 97.8555 23.9328 97.9788 24.306C98.1226 24.6999 98.1843 25.1146 98.1843 25.5292C98.2048 26.1511 98.0405 26.7524 97.7322 27.2914C97.424 27.7889 96.9925 28.1621 96.4788 28.4109L98.4103 33.1585H95.6363L94.0336 28.7841H91.9377V33.1585H89.3281V22.4194H95.472ZM94.6911 26.545C94.9377 26.5658 95.1843 26.4621 95.3281 26.2548C95.472 26.0682 95.5336 25.8402 95.5336 25.6121C95.5336 25.5085 95.5131 25.3841 95.4925 25.2804C95.472 25.1768 95.4103 25.0731 95.3487 24.9694C95.287 24.8865 95.1843 24.8036 95.0815 24.7414C94.9583 24.6792 94.835 24.6377 94.6911 24.6585H91.9583V26.545H94.6911Z" fill="#336699"/>
<path d="M43.2397 6.0415H29V8.92321H43.2397V6.0415Z" fill="#336699"/>
<path d="M43.2397 11.4521H29V14.3339H43.2397V11.4521Z" fill="#336699"/>
<path d="M43.2397 17.3818H29V20.2635H43.2397V17.3818Z" fill="#336699"/>
</svg>
