<svg width="128" height="40" viewBox="0 0 128 40" fill="none" xmlns="http://www.w3.org/2000/svg">
<path d="M45.9755 11.5991C45.7697 11.5991 45.5949 11.7569 45.5627 11.9718L43.1805 27.9276C43.1718 27.9859 43.1752 28.0455 43.1904 28.1023C43.2056 28.159 43.2323 28.2116 43.2686 28.2565C43.3049 28.3013 43.35 28.3373 43.4007 28.362C43.4515 28.3867 43.5067 28.3995 43.5625 28.3995H46.3877C46.5932 28.3995 46.7683 28.2414 46.8005 28.0268L47.5003 23.3413C47.5322 23.1267 47.7073 22.9686 47.9131 22.9686H50.4817C53.4828 22.9686 56.0305 20.6559 56.4958 17.5221C56.965 14.3618 54.6273 11.606 51.3141 11.5991H45.9755ZM48.7219 15.1611H50.7769C52.4689 15.1611 53.0199 16.2155 52.8456 17.3815C52.6714 18.55 51.8157 19.4107 50.179 19.4107H48.0873L48.7219 15.1611ZM62.2418 16.2457C61.5284 16.2485 60.7076 16.4029 59.786 16.8083C57.6722 17.7388 56.657 19.662 56.2259 21.0641C56.2259 21.0641 54.8538 25.3418 57.9539 27.6919C57.9539 27.6919 60.8289 29.9544 64.0654 27.5525L64.0096 27.9276C64.001 27.9859 64.0044 28.0454 64.0196 28.1021C64.0347 28.1588 64.0614 28.2114 64.0976 28.2562C64.1338 28.3011 64.1788 28.3371 64.2295 28.3618C64.2802 28.3865 64.3353 28.3994 64.3911 28.3995H67.0731C67.2789 28.3995 67.4537 28.2414 67.4859 28.0268L69.1173 17.1002C69.126 17.0419 69.1227 16.9823 69.1076 16.9255C69.0924 16.8687 69.0658 16.8161 69.0295 16.7712C68.9933 16.7263 68.9483 16.6902 68.8975 16.6654C68.8468 16.6407 68.7916 16.6278 68.7358 16.6277H66.0538C65.848 16.6277 65.6729 16.7858 65.641 17.0004L65.5533 17.5885C65.5533 17.5885 64.3823 16.2373 62.2418 16.2457ZM62.3295 19.697C62.6375 19.697 62.9192 19.7419 63.1719 19.8276C64.3291 20.2199 64.9852 21.3941 64.7953 22.6667C64.5612 24.2338 63.3444 25.3876 61.7839 25.3876C61.4762 25.3876 61.1945 25.343 60.9414 25.2573C59.7846 24.865 59.1243 23.6908 59.3142 22.4182C59.5483 20.8511 60.769 19.697 62.3295 19.697Z" fill="#003087"/>
<path d="M84.5986 11.5991C84.3928 11.5991 84.2179 11.7569 84.1858 11.9718L81.8035 27.9276C81.7948 27.9859 81.7982 28.0455 81.8135 28.1023C81.8287 28.159 81.8554 28.2116 81.8917 28.2565C81.928 28.3013 81.9731 28.3373 82.0238 28.362C82.0745 28.3867 82.1297 28.3995 82.1856 28.3995H85.0108C85.2163 28.3995 85.3914 28.2414 85.4236 28.0268L86.1234 23.3413C86.1552 23.1267 86.3303 22.9686 86.5361 22.9686H89.1047C92.1059 22.9686 94.6532 20.6559 95.1183 17.5221C95.5877 14.3618 93.2504 11.606 89.9371 11.5991H84.5986ZM87.3449 15.1611H89.4C91.0919 15.1611 91.6429 16.2155 91.4687 17.3815C91.2945 18.55 90.4391 19.4107 88.8021 19.4107H86.7104L87.3449 15.1611ZM100.865 16.2457C100.151 16.2485 99.3303 16.4029 98.4088 16.8083C96.2949 17.7388 95.2798 19.662 94.8487 21.0641C94.8487 21.0641 93.4771 25.3418 96.5772 27.6919C96.5772 27.6919 99.4517 29.9544 102.688 27.5525L102.633 27.9276C102.624 27.9859 102.627 28.0455 102.643 28.1023C102.658 28.159 102.685 28.2116 102.721 28.2565C102.757 28.3013 102.802 28.3373 102.853 28.362C102.904 28.3867 102.959 28.3995 103.015 28.3995H105.696C105.902 28.3995 106.077 28.2414 106.109 28.0268L107.741 17.1002C107.75 17.0418 107.747 16.9822 107.731 16.9254C107.716 16.8685 107.69 16.8158 107.653 16.7709C107.617 16.726 107.572 16.69 107.521 16.6652C107.47 16.6405 107.415 16.6277 107.359 16.6277H104.677C104.471 16.6277 104.296 16.7858 104.264 17.0004L104.177 17.5885C104.177 17.5885 103.005 16.2373 100.865 16.2457ZM100.952 19.697C101.26 19.697 101.542 19.7419 101.795 19.8276C102.952 20.2199 103.608 21.3941 103.418 22.6667C103.184 24.2338 101.967 25.3876 100.407 25.3876C100.099 25.3876 99.8172 25.343 99.5642 25.2573C98.4073 24.865 97.7471 23.6908 97.9369 22.4182C98.1711 20.8511 99.3918 19.697 100.952 19.697Z" fill="#0070E0"/>
<path d="M70.3902 16.6278C70.1776 16.6278 70.0264 16.847 70.0914 17.0606L73.0317 26.6971L70.3731 31.2383C70.244 31.4588 70.394 31.7435 70.6394 31.7435H73.7817C73.8716 31.7434 73.9599 31.7189 74.0382 31.6722C74.1164 31.6256 74.182 31.5584 74.2285 31.4772L82.4403 17.1298C82.5664 16.9094 82.4158 16.6274 82.1719 16.6274H79.0299C78.9392 16.6275 78.85 16.6526 78.7712 16.7001C78.6924 16.7476 78.6267 16.816 78.5805 16.8984L75.3481 22.6621L73.7073 16.9412C73.6539 16.755 73.4912 16.6274 73.3072 16.6274L70.3902 16.6278Z" fill="#003087"/>
<path d="M110.789 11.5991C110.583 11.5991 110.408 11.7572 110.376 11.9718L107.993 27.927C107.984 27.9854 107.988 28.045 108.003 28.1018C108.018 28.1587 108.045 28.2114 108.081 28.2563C108.117 28.3012 108.162 28.3372 108.213 28.362C108.264 28.3867 108.319 28.3995 108.375 28.3995H111.2C111.406 28.3995 111.581 28.2414 111.613 28.0268L113.995 12.071C114.004 12.0127 114.001 11.9532 113.985 11.8965C113.97 11.8398 113.944 11.7872 113.907 11.7424C113.871 11.6975 113.826 11.6615 113.775 11.6368C113.725 11.6121 113.67 11.5992 113.614 11.5991H110.789Z" fill="#0070E0"/>
<path d="M22.4248 11.5991C22.2428 11.5993 22.0668 11.668 21.9285 11.7929C21.7901 11.9178 21.6985 12.0907 21.67 12.2805L20.416 20.6805C20.4745 20.2882 20.7945 19.9991 21.1707 19.9991H24.8454C28.5437 19.9991 31.6819 17.1498 32.2553 13.2884C32.2979 13.0001 32.3221 12.7091 32.3276 12.4174C31.3878 11.8969 30.2837 11.5991 29.074 11.5991H22.4248Z" fill="#001C64"/>
<path d="M32.3278 12.418C32.3223 12.7097 32.2981 13.0007 32.2555 13.289C31.682 17.1503 28.5436 19.9997 24.8456 19.9997H21.1709C20.795 19.9997 20.4747 20.2885 20.4162 20.6811L19.2631 28.4L18.5409 33.2425C18.5268 33.336 18.5321 33.4317 18.5564 33.5229C18.5807 33.6141 18.6235 33.6986 18.6817 33.7706C18.74 33.8427 18.8123 33.9005 18.8938 33.9402C18.9753 33.9798 19.0639 34.0003 19.1536 34.0003H23.1422C23.3241 34.0001 23.5001 33.9314 23.6384 33.8065C23.7768 33.6816 23.8684 33.5087 23.8969 33.3189L24.9474 26.2813C24.9759 26.0914 25.0676 25.9184 25.2061 25.7935C25.3446 25.6686 25.5207 25.5999 25.7028 25.5999H28.0511C31.7494 25.5999 34.8875 22.7505 35.461 18.8892C35.8681 16.1486 34.5613 13.6548 32.3278 12.418Z" fill="#0070E0"/>
<path d="M17.8923 6C17.5164 6 17.1961 6.28877 17.1376 6.68077L14.0077 27.6422C13.9484 28.0401 14.2395 28.4 14.621 28.4H19.2624L20.4148 20.681L21.6689 12.281C21.6973 12.0911 21.789 11.9182 21.9273 11.7934C22.0656 11.6685 22.2416 11.5998 22.4236 11.5996H29.0728C30.2829 11.5996 31.3866 11.8977 32.3265 12.4179C32.3908 8.9024 29.6442 6 25.8679 6H17.8923Z" fill="#003087"/>
</svg>
