<svg width="128" height="40" viewBox="0 0 128 40" fill="none" xmlns="http://www.w3.org/2000/svg">
<path d="M116.008 12.3682C114.619 11.4588 112.517 11.0002 109.762 11.0002H102.545L99.8621 24.9188H90.4081L91.0158 21.7609H96.7107L97.3855 18.2142L91.6939 18.222L92.3032 15.0783H98.1692L98.9497 11.001H87.037L84.4901 24.2036H80.1184L82.6826 11.0003H76.4554L73.9085 24.203H69.6498L72.2164 11.0003H65.9925L63.3063 24.9189H53.7844L54.3863 21.7611H60.1041L60.7798 18.2345L55.0674 18.229L55.6734 15.079H61.6053L62.3808 11H25.2588L23.1459 22.0294L18.9381 11H12.4773L9 29H15.1702L17.2749 17.6664L21.3581 29H43.4714L46.16 15.0773H49.6185L46.9299 29H105.114L106.801 20.2114L109.53 29H115.704L112.876 21.8187L113.523 21.6856C114.948 21.3937 116.059 20.7669 116.833 19.827C117.606 18.8785 118 17.6607 118 16.1979C118 14.495 117.348 13.242 116.007 12.3672L116.008 12.3682ZM38.102 24.9188H28.6571L29.2672 21.7609H35.1914L35.863 18.2041H29.9958L30.5609 15.0792H39.992L38.1003 24.9187L38.102 24.9188ZM110.922 18.8558C110.301 19.2706 109.401 19.4725 108.17 19.4725H106.95L107.886 14.6421H108.783C109.805 14.6421 110.551 14.7986 111.065 15.1179C111.466 15.3684 111.944 15.8638 111.944 16.8006C111.942 17.9338 111.387 18.5426 110.92 18.8557L110.922 18.8558Z" fill="#83BA3B"/>
</svg>
