<svg width="128" height="40" viewBox="0 0 128 40" fill="none" xmlns="http://www.w3.org/2000/svg">
<path d="M38.4784 8.13336H23.5245C21.5771 8.13336 20 9.76335 20 11.7753V27.2254C20 29.2361 21.5771 30.8667 23.5245 30.8667H38.4784C40.4254 30.8667 42.0016 29.2361 42.0016 27.2254V11.7753C42.0016 9.76335 40.4254 8.13336 38.4784 8.13336Z" fill="#1677FF"/>
<path d="M25.9439 25.6153C22.5211 25.6153 21.5091 22.8295 23.2007 21.3054C23.7652 20.7903 24.7967 20.5388 25.3466 20.4824C27.3799 20.2748 29.2621 21.0762 31.4832 22.1965C29.9219 24.3009 27.9334 25.6153 25.9439 25.6153ZM38.1136 22.4077C37.2332 22.103 36.0519 21.6371 34.7361 21.1452C35.5263 19.7258 36.1575 18.1095 36.5723 16.3528H32.2354V14.7388H37.5481V13.8379H32.2354V11.1473H30.0672C29.6869 11.1473 29.6869 11.5352 29.6869 11.5352V13.8379H24.3137V14.7388H29.6869V16.3528H25.2506V17.2535H33.8546C33.5398 18.3744 33.117 19.4267 32.6153 20.3827C29.8234 19.4309 26.8443 18.6595 24.9727 19.1343C23.7758 19.439 23.0049 19.9828 22.552 20.5527C20.4735 23.1657 21.9643 27.1348 26.354 27.1348C28.9495 27.1348 31.4498 25.6396 33.3876 23.1755C36.278 24.6111 42.0006 27.076 42.0006 27.076V23.5631C42.0006 23.5631 41.2819 23.5039 38.1136 22.4077Z" fill="white"/>
<path d="M67.7754 11.4615C67.7754 12.6375 68.6142 13.4292 69.7843 13.4292C70.9545 13.4292 71.7933 12.6375 71.7933 11.4615C71.7933 10.3081 70.9545 9.4936 69.7843 9.4936C68.6142 9.4936 67.7754 10.3081 67.7754 11.4615Z" fill="#1677FF"/>
<path d="M62.166 26.5023H65.6541V9.99121H62.166V26.5023Z" fill="white"/>
<path d="M50.9755 20.7799L53.0506 13.4291H53.1391L55.104 20.7799H50.9755ZM56.0534 10.5567H51.3729L46.1406 26.5024H49.364L50.2471 23.3811H55.7884L56.627 26.5024H60.7557L56.0534 10.5567Z" fill="white"/>
<path d="M68.0391 26.5021H71.5272V14.3789H68.0391V26.5021Z" fill="white"/>
<path d="M107.978 14.4014L108 14.3789H104.71L102.635 21.7522H102.525L100.14 14.3789H96.2324L100.935 26.5474L98.9703 30.2567V30.3472H102.039L107.978 14.4014Z" fill="white"/>
<path d="M77.9949 24.4208C77.5978 24.4208 77.2222 24.3757 76.803 24.2398V17.6807C77.5315 17.1605 78.1275 16.9116 78.878 16.9116C80.1808 16.9116 81.2183 17.9748 81.2183 20.2365C81.2183 23.1315 79.6951 24.4208 77.9949 24.4208ZM80.2028 14.1297C78.9223 14.1297 77.9289 14.6273 76.803 15.5772V14.3784H73.3145V30.3467H76.803V26.3885C77.4652 26.5695 78.0833 26.66 78.834 26.66C81.9468 26.66 84.7507 24.3078 84.7507 20.1235C84.7507 16.3688 82.7193 14.1297 80.2028 14.1297Z" fill="white"/>
<path d="M92.0599 23.5617C91.1328 24.0819 90.6026 24.2855 89.9849 24.2855C89.1458 24.2855 88.6161 23.7201 88.6161 22.8154C88.6161 22.476 88.6821 22.1368 88.9469 21.8655C89.3665 21.4356 90.1836 21.119 92.0599 20.6667V23.5617ZM95.548 23.4712V18.4049C95.548 15.6454 93.9587 14.1301 91.155 14.1301C89.3666 14.1301 88.1303 14.4466 85.8784 15.1477L86.4963 17.9299C88.5495 16.9798 89.4549 16.5727 90.4043 16.5727C91.5524 16.5727 92.0599 17.4095 92.0599 18.6988V18.7893C88.0638 19.5584 86.8276 19.9881 86.0549 20.7798C85.481 21.3679 85.2383 22.2047 85.2383 23.1771C85.2383 25.5068 87.0045 26.751 88.6603 26.751C89.8965 26.751 90.8898 26.2759 92.2368 25.2353L92.4795 26.5021H95.9677L95.548 23.4712Z" fill="white"/>
</svg>
