<svg width="128" height="40" viewBox="0 0 128 40" fill="none" xmlns="http://www.w3.org/2000/svg">
<path d="M47.5556 3.00049H61.0089C62.8869 3.00049 64.0549 4.54253 63.6168 6.44067L57.3533 33.5314C56.9113 35.4229 55.031 36.9663 53.1518 36.9663H39.6998C37.8245 36.9663 36.6538 35.4229 37.0919 33.5314L43.358 6.44067C43.7961 4.54253 45.6754 3.00049 47.5556 3.00049Z" fill="#E21836"/>
<path d="M59.8907 3H75.3617C77.2393 3 76.3926 4.54204 75.9509 6.44018L69.6884 33.5309C69.249 35.4224 69.3861 36.9658 67.5045 36.9658H52.0336C50.152 36.9658 48.9876 35.4224 49.4296 33.5309L55.6918 6.44018C56.1364 4.54204 58.0118 3 59.8907 3Z" fill="#00447C"/>
<path d="M74.7475 3H88.2008C90.0814 3 91.2494 4.54204 90.8077 6.44018L84.5452 33.5309C84.1032 35.4224 82.2216 36.9658 80.3414 36.9658H66.8943C65.0127 36.9658 63.8457 35.4224 64.2864 33.5309L70.5499 6.44018C70.988 4.54204 72.8659 3 74.7475 3Z" fill="#007B84"/>
<path d="M51.0699 11.6816C49.6864 11.6958 49.2778 11.6816 49.1473 11.6506C49.0971 11.8907 48.1636 16.2291 48.1609 16.2327C47.9599 17.1105 47.8137 17.7361 47.3169 18.1401C47.0349 18.375 46.7057 18.4883 46.324 18.4883C45.7104 18.4883 45.353 18.1814 45.293 17.5994L45.2815 17.3995C45.2815 17.3995 45.4684 16.2238 45.4684 16.2172C45.4684 16.2172 46.4482 12.2637 46.6237 11.7411C46.6329 11.7114 46.6355 11.6958 46.6378 11.6816C44.7306 11.6985 44.3926 11.6816 44.3693 11.6506C44.3565 11.6932 44.3093 11.9383 44.3093 11.9383L43.3088 16.3943L43.2229 16.7722L43.0566 18.0083C43.0566 18.375 43.1281 18.6743 43.2704 18.9273C43.7262 19.7297 45.0264 19.85 45.7619 19.85C46.7096 19.85 47.5986 19.6472 48.1993 19.2768C49.2421 18.6561 49.5149 17.6859 49.7582 16.8237L49.871 16.3814C49.871 16.3814 50.8803 12.2752 51.0518 11.7411C51.0584 11.7114 51.061 11.6958 51.0699 11.6816ZM54.504 14.9941C54.2607 14.9941 53.816 15.0536 53.4166 15.2508C53.2717 15.3258 53.1346 15.4123 52.99 15.4985L53.1205 15.0238L53.049 14.9439C52.202 15.1167 52.0125 15.1398 51.2301 15.2508L51.1645 15.2947C51.0737 16.0535 50.993 16.624 50.6563 18.1155C50.528 18.6652 50.3949 19.2202 50.2615 19.7685L50.2975 19.8382C51.0993 19.7956 51.3426 19.7956 52.0394 19.8072L52.0958 19.7454C52.1843 19.2885 52.1958 19.1815 52.3919 18.2562C52.484 17.8175 52.6762 16.8536 52.771 16.5104C52.9451 16.4291 53.1169 16.3492 53.2809 16.3492C53.6714 16.3492 53.6239 16.6924 53.6088 16.8291C53.5921 17.0587 53.4498 17.8086 53.3038 18.4524L53.2064 18.868C53.1386 19.1749 53.0641 19.4732 52.9962 19.7774L53.0258 19.8382C53.816 19.7956 54.057 19.7956 54.7319 19.8072L54.8112 19.7454C54.9332 19.0319 54.969 18.8409 55.1854 17.802L55.2943 17.3247C55.5058 16.3905 55.612 15.9167 55.452 15.5309C55.2828 15.0985 54.8768 14.9941 54.504 14.9941ZM58.3403 15.9722C57.9203 16.0535 57.6524 16.1076 57.3861 16.1427C57.1221 16.1853 56.8647 16.2239 56.4587 16.2807L56.4266 16.3101L56.3971 16.3336C56.3548 16.6382 56.3253 16.9015 56.2692 17.211C56.2217 17.5311 56.1485 17.8948 56.0295 18.4174C55.9374 18.8174 55.8898 18.9568 55.8374 19.0976C55.7862 19.2383 55.7298 19.3751 55.6262 19.7685L55.6504 19.8048L55.6708 19.8382C56.0502 19.82 56.2984 19.8071 56.5535 19.8048C56.8083 19.7956 57.0723 19.8048 57.4809 19.8071L57.5166 19.7777L57.555 19.7454C57.614 19.3906 57.6228 19.2951 57.6589 19.122C57.6947 18.9364 57.7563 18.6794 57.9075 17.9929C57.979 17.6705 58.0586 17.3491 58.1327 17.0201C58.2098 16.6924 58.2905 16.3696 58.3672 16.0472L58.3557 16.0082L58.3403 15.9722ZM58.3493 14.6534C57.9676 14.4265 57.2976 14.4985 56.8468 14.812C56.3972 15.1192 56.346 15.5552 56.7264 15.7852C57.1016 16.0058 57.7741 15.9401 58.2211 15.624C58.6696 15.3101 58.7257 14.878 58.3493 14.6534ZM60.6576 19.9093C61.4298 19.9093 62.2214 19.6949 62.8172 19.0587C63.2757 18.5427 63.4859 17.775 63.5587 17.4588C63.7957 16.411 63.6111 15.9218 63.3793 15.6238C63.0271 15.1696 62.4047 15.0239 61.7591 15.0239C61.3708 15.0239 60.4461 15.0625 59.7237 15.7335C59.205 16.2174 58.9653 16.8741 58.8206 17.5038C58.6747 18.1453 58.5068 19.3002 59.5611 19.7299C59.8864 19.8707 60.3553 19.9093 60.6576 19.9093ZM60.5973 17.5517C60.7753 16.7582 60.9855 16.0922 61.522 16.0922C61.9424 16.0922 61.9729 16.5877 61.786 17.3839C61.7525 17.5606 61.599 18.2176 61.3915 18.4974C61.2465 18.7039 61.075 18.8291 60.8855 18.8291C60.8291 18.8291 60.4937 18.8291 60.4884 18.3273C60.4858 18.0796 60.536 17.8265 60.5973 17.5517ZM65.4891 19.8073L65.5494 19.7455C65.635 19.2886 65.6491 19.1813 65.8386 18.2563C65.9334 17.8176 66.1295 16.8537 66.2216 16.5105C66.3961 16.4289 66.565 16.3489 66.7342 16.3489C67.1221 16.3489 67.0749 16.6922 67.0595 16.8289C67.0454 17.0588 66.903 17.8084 66.7545 18.4522L66.6624 18.8678C66.5919 19.175 66.5151 19.473 66.4472 19.7775L66.4768 19.8383C67.2697 19.7957 67.5015 19.7957 68.1803 19.8073L68.2622 19.7455C68.3813 19.0316 68.4134 18.8407 68.6364 17.8021L68.7426 17.3244C68.9551 16.3902 69.0627 15.9168 68.9053 15.531C68.7312 15.0986 68.3226 14.9942 67.955 14.9942C67.7114 14.9942 67.2644 15.0533 66.8673 15.2509C66.7253 15.3259 66.583 15.4121 66.4433 15.4986L66.565 15.0239L66.4997 14.9437C65.653 15.1168 65.4596 15.1399 64.6782 15.2509L64.6181 15.2948C64.5234 16.0536 64.4463 16.6238 64.1096 18.1156C63.9813 18.6653 63.8482 19.2203 63.7151 19.7686L63.7508 19.8383C64.5539 19.7957 64.7936 19.7957 65.4891 19.8073ZM71.3146 19.8382C71.3645 19.5931 71.6606 18.1402 71.6632 18.1402C71.6632 18.1402 71.9154 17.0742 71.9308 17.0355C71.9308 17.0355 72.0101 16.9245 72.0895 16.8806H72.2062C73.3077 16.8806 74.5515 16.8806 75.5263 16.1582C76.1897 15.6626 76.6432 14.9309 76.8455 14.0417C76.898 13.8236 76.9367 13.5643 76.9367 13.305C76.9367 12.9644 76.8688 12.6275 76.6727 12.3642C76.1756 11.6635 75.1856 11.6506 74.0429 11.6454C74.0393 11.6454 73.4795 11.6506 73.4795 11.6506C72.0167 11.6688 71.4301 11.6635 71.189 11.6338C71.1687 11.7412 71.1303 11.9321 71.1303 11.9321C71.1303 11.9321 70.6063 14.3786 70.6063 14.3826C70.6063 14.3826 69.3524 19.5841 69.2934 19.8292C70.5706 19.8137 71.0943 19.8137 71.3146 19.8382ZM72.2856 15.4922C72.2856 15.4922 72.8427 13.0506 72.8401 13.0599L72.8581 12.9347L72.866 12.8392L73.0886 12.8623C73.0886 12.8623 74.2376 12.9618 74.2645 12.9644C74.718 13.1411 74.9049 13.5967 74.7744 14.1913C74.6554 14.7347 74.3055 15.1916 73.856 15.4122C73.4857 15.5992 73.0322 15.6147 72.565 15.6147H72.2626L72.2856 15.4922ZM75.7544 17.5969C75.6071 18.2292 75.4379 19.384 76.4869 19.7957C76.8214 19.939 77.1211 19.9816 77.4258 19.9661C77.7474 19.9486 78.0455 19.7861 78.3216 19.5522C78.2967 19.6483 78.2718 19.7444 78.2468 19.8409L78.2944 19.9027C79.0489 19.8706 79.283 19.8706 80.1005 19.8769L80.1746 19.8201C80.294 19.1132 80.4065 18.4267 80.7167 17.0743C80.8679 16.4265 81.0187 15.785 81.1738 15.1398L81.1495 15.0688C80.3055 15.2264 80.0799 15.2601 79.268 15.376L79.2063 15.4265C79.1981 15.4923 79.1896 15.5554 79.1817 15.6185C79.0555 15.413 78.8725 15.2376 78.5902 15.1282C78.2291 14.9852 77.3812 15.1695 76.6522 15.8382C76.14 16.3155 75.8941 16.9696 75.7544 17.5969ZM77.5271 17.6355C77.7078 16.8563 77.9153 16.1969 78.4531 16.1969C78.7931 16.1969 78.9722 16.513 78.9358 17.0522C78.9069 17.1866 78.8758 17.3283 78.8387 17.4885C78.7849 17.7201 78.7266 17.9497 78.6699 18.1796C78.6121 18.3369 78.5449 18.4852 78.4711 18.584C78.3328 18.7815 78.0035 18.9041 77.814 18.9041C77.7602 18.9041 77.4284 18.9041 77.4169 18.4112C77.4143 18.1657 77.4644 17.913 77.5271 17.6355ZM86.7842 15.0625L86.719 14.9875C85.8838 15.1579 85.7326 15.185 84.9653 15.2894L84.9089 15.3462C84.9063 15.3555 84.904 15.3697 84.9 15.3826L84.8974 15.3697C84.3262 16.6973 84.3429 16.4109 83.8779 17.4561C83.8753 17.4086 83.8753 17.3788 83.8727 17.3283L83.7563 15.0625L83.6832 14.9875C82.8083 15.1579 82.7876 15.185 81.9796 15.2894L81.9167 15.3462C81.9078 15.3733 81.9078 15.4031 81.9026 15.4354L81.9078 15.447C82.0088 15.967 81.9846 15.851 82.0859 16.6716C82.1331 17.0743 82.1961 17.4793 82.2433 17.877C82.323 18.5426 82.3676 18.8703 82.465 19.8861C81.9193 20.7933 81.7901 21.1365 81.2648 21.9326L81.2684 21.9405L80.8985 22.5299C80.8562 22.592 80.8179 22.6346 80.7641 22.6527C80.705 22.6821 80.6283 22.6874 80.5217 22.6874H80.3168L80.0122 23.7082L81.0572 23.7264C81.6707 23.7237 82.0564 23.4347 82.2639 23.0462L82.9211 21.9118H82.9106L82.9798 21.8318C83.4218 20.8732 86.7842 15.0625 86.7842 15.0625ZM75.7543 28.4686H75.311L76.9519 23.0011H77.4962L77.669 22.4379L77.6857 23.0642C77.6654 23.4514 77.9678 23.7946 78.762 23.7378H79.6804L79.9966 22.685H79.6509C79.4522 22.685 79.3601 22.6344 79.3716 22.5261L79.3548 21.8888H77.6539V21.8921C77.104 21.9037 75.4618 21.9453 75.1293 22.0345C74.727 22.1389 74.303 22.4461 74.303 22.4461L74.4696 21.8822H72.8785L72.547 23.0011L70.8842 28.5522H70.5615L70.2451 29.5974H73.414L73.3078 29.9459H74.8693L74.9729 29.5974H75.411L75.7543 28.4686ZM74.4542 24.112C74.1994 24.1831 73.7252 24.3984 73.7252 24.3984L74.1469 23.0011H75.411L75.1061 24.0192C75.1061 24.0192 74.7155 24.0423 74.4542 24.112ZM74.4784 26.1083C74.4784 26.1083 74.0813 26.1585 73.82 26.218C73.5626 26.2966 73.0799 26.5443 73.0799 26.5443L73.5154 25.0902H74.786L74.4784 26.1083ZM73.7701 28.4815H72.5021L72.8697 27.2542H74.1338L73.7701 28.4815ZM76.8239 25.0902H78.6516L78.389 25.9471H76.5369L76.2589 26.8839H77.8794L76.6524 28.6245C76.5665 28.7524 76.4894 28.7976 76.4038 28.8336C76.3179 28.8775 76.2051 28.9291 76.0746 28.9291H75.625L75.3161 29.9551H76.492C77.1032 29.9551 77.4643 29.675 77.7309 29.3073L78.5723 28.1472L78.753 29.3252C78.7913 29.5458 78.9487 29.675 79.0553 29.7252C79.173 29.7847 79.2947 29.8867 79.4665 29.9019C79.6508 29.9099 79.7839 29.9161 79.8725 29.9161H80.4503L80.7972 28.7679H80.5693C80.4384 28.7679 80.2132 28.7457 80.1748 28.7045C80.1364 28.6542 80.1364 28.5769 80.1158 28.4593L79.9325 27.2787H79.1819L79.5111 26.8839H81.3596L81.6439 25.9471H79.9325L80.1991 25.0902H81.9052L82.2216 24.0334H77.1351L76.8239 25.0902ZM61.3863 28.7201L61.8129 27.2904H63.5663L63.8866 26.227H62.1316L62.3996 25.347H64.1145L64.4323 24.3173H60.1412L59.83 25.347H60.8049L60.5449 26.227H59.5674L59.2434 27.3085H60.2179L59.6493 29.2001C59.5726 29.4505 59.6854 29.5459 59.7569 29.6622C59.83 29.7755 59.9041 29.8505 60.0707 29.8931C60.2425 29.9318 60.3603 29.9549 60.5203 29.9549H62.4969L62.8491 28.7769L61.9729 28.8981C61.8037 28.8981 61.3351 28.8777 61.3863 28.7201ZM61.5874 21.8758L61.1431 22.6848C61.048 22.8615 60.9624 22.9712 60.8853 23.0217C60.8175 23.0644 60.683 23.0822 60.4882 23.0822H60.2564L59.9465 24.1172H60.7165C61.0867 24.1172 61.371 23.9804 61.5067 23.912C61.6527 23.8334 61.691 23.8783 61.8038 23.7686L62.0639 23.5417H64.4681L64.7872 22.4641H63.0273L63.3345 21.8758H61.5874ZM65.1369 28.7409C65.0959 28.6814 65.1254 28.5767 65.188 28.3587L65.8452 26.1675H68.1829C68.5236 26.1625 68.7695 26.1586 68.9295 26.147C69.1013 26.1288 69.2883 26.0671 69.4919 25.9561C69.7021 25.8398 69.8096 25.7172 69.9005 25.5765C70.0018 25.4361 70.1644 25.1289 70.3041 24.6552L71.1301 21.8823L68.7042 21.8965C68.7042 21.8965 67.9573 22.0075 67.6284 22.13C67.2965 22.2668 66.8223 22.6487 66.8223 22.6487L67.0414 21.8886H65.5428L63.4448 28.8981C63.3704 29.1703 63.3206 29.3678 63.3091 29.4864C63.3052 29.6143 63.4691 29.7408 63.5754 29.8363C63.7009 29.9317 63.8865 29.9162 64.0646 29.9317C64.2518 29.9459 64.5181 29.9549 64.8857 29.9549H66.0373L66.3908 28.7524L65.3599 28.8505C65.2497 28.8505 65.17 28.7911 65.1369 28.7409ZM66.2692 24.6876H68.7246L68.5685 25.1804C68.5465 25.192 68.494 25.156 68.2442 25.1857H66.118L66.2692 24.6876ZM66.761 23.0345H69.2371L69.059 23.6281C69.059 23.6281 67.892 23.6166 67.7051 23.6513C66.8827 23.7946 66.4023 24.2373 66.4023 24.2373L66.761 23.0345ZM68.6234 26.8309C68.6031 26.9046 68.571 26.9495 68.5261 26.9832C68.4762 27.0156 68.3955 27.0271 68.2752 27.0271H67.9253L67.946 26.4269H66.4907L66.4317 29.3613C66.4294 29.5731 66.4497 29.6956 66.6035 29.7938C66.7573 29.9163 67.2311 29.9318 67.8689 29.9318H68.7808L69.1101 28.8334L68.3162 28.8774L68.0522 28.8929C68.0161 28.8774 67.9817 28.8632 67.9433 28.8245C67.9099 28.7912 67.8535 28.8116 67.8627 28.5999L67.8689 27.8477L68.7015 27.813C69.1511 27.813 69.3432 27.6657 69.5072 27.5253C69.6636 27.3908 69.7147 27.2362 69.7738 27.0271L69.9135 26.3612H68.7694L68.6234 26.8309Z" fill="#FEFEFE"/>
</svg>
